<svg id="Layer_1" data-name="Layer 1" xmlns="http://www.w3.org/2000/svg" viewBox="0 0 340.68 451.87"><defs><style>.cls-1{fill:#fefefe;}.cls-2{fill:#92975b;}.cls-3{fill:#576140;}.cls-4{fill:#bcc070;}.cls-5{fill:#020202;}.cls-6{fill:#060606;}.cls-7{fill:#040404;}.cls-8{fill:#050404;}.cls-9{fill:#fdfdfd;}.cls-10{fill:#c8cdd5;}.cls-11{fill:#10100f;}.cls-12{fill:#050505;}.cls-13{fill:#020203;}.cls-14{fill:#030404;}.cls-15{fill:#060707;}.cls-16{fill:#070708;}.cls-17{fill:#040504;}.cls-18{fill:#040505;}.cls-19{fill:#f3f3f3;}.cls-20{fill:#0d0e0d;}.cls-21{fill:#111213;}.cls-22{fill:#0e0e0d;}.cls-23{fill:#ce3024;}.cls-24{fill:#080a09;}.cls-25{fill:#0f0f0c;}.cls-26{fill:#0d0f0c;}.cls-27{fill:#0f1011;}.cls-28{fill:#0f0e0d;}.cls-29{fill:#131412;}.cls-30{fill:#161819;}.cls-31{fill:#171a1c;}.cls-32{fill:#17191b;}.cls-33{fill:#111517;}.cls-34{fill:#232d34;}.cls-35{fill:#98cbef;}.cls-36{fill:#0b0d0e;}.cls-37{fill:#99ccf0;}.cls-38{fill:#283138;}.cls-39{fill:#131517;}.cls-40{fill:#24282b;}.cls-41{fill:#1f2021;}.cls-42{fill:#6b8ca3;}.cls-43{fill:#2c3841;}.cls-44{fill:#252728;}.cls-45{fill:#6e91a9;}.cls-46{fill:#98ccf0;}.cls-47{fill:#1f282d;}.cls-48{fill:#1e1110;}.cls-49{fill:#35434d;}.cls-50{fill:#090a0b;}.cls-51{fill:#1a2023;}.cls-52{fill:#191b1d;}.cls-53{fill:#3d3439;}.cls-54{fill:#010101;}.cls-55{fill:#050604;}.cls-56{fill:#090908;}.cls-57{fill:#96a2b2;}.cls-58{fill:#0f0f0e;}.cls-59{fill:#96a2b1;}.cls-60{fill:#121212;}.cls-61{fill:#222;}.cls-62{fill:#141414;}.cls-63{fill:#1c1c1b;}.cls-64{fill:#282828;}.cls-65{fill:#030303;}.cls-66{fill:#333;}.cls-67{fill:#100e0c;}.cls-68{fill:#171713;}.cls-69{fill:#535c3d;}.cls-70{fill:#474f34;}.cls-71{fill:#485035;}.cls-72{fill:#393f2a;}.cls-73{fill:#525b3c;}.cls-74{fill:#434b32;}.cls-75{fill:#cd2727;}.cls-76{fill:#ce2727;}.cls-77{fill:#a42021;}.cls-78{fill:#cacfd8;}.cls-79{fill:#030403;}.cls-80{fill:#c4c8d1;}.cls-81{fill:#0b0c08;}.cls-82{fill:#87b1d0;}.cls-83{fill:#282e33;}.cls-84{fill:#576040;}.cls-85{fill:#fcfcfc;}.cls-86{fill:#91965a;}.cls-87{fill:#080807;}.cls-88{fill:#545e3e;}.cls-89{fill:#111110;}.cls-90{fill:#2c3120;}.cls-91{fill:#bcbf70;}.cls-92{fill:#a6aa64;}.cls-93{fill:#fcd0b3;}.cls-94{fill:#7d8692;}.cls-95{fill:#312e2c;}.cls-96{fill:#010100;}.cls-97{fill:#2f2c2b;}.cls-98{fill:#010000;}.cls-99{fill:#7394ac;}.cls-100{fill:#95847e;}.cls-101{fill:#0c0b09;}.cls-102{fill:#151312;}.cls-103{fill:#422e2b;}.cls-104{fill:#261914;}.cls-105{fill:#fafafa;}.cls-106{fill:#adb168;}.cls-107{fill:#111210;}.cls-108{fill:#171611;}.cls-109{fill:#959a5f;}.cls-110{fill:#0d0c0c;}.cls-111{fill:#495137;}.cls-112{fill:#c3c775;}.cls-113{fill:#454b36;}.cls-114{fill:#3d4331;}.cls-115{fill:#92975a;}.cls-116{fill:#fbfbfb;}.cls-117{fill:#1f2018;}.cls-118{fill:#0a0907;}.cls-119{fill:#0f0f0b;}.cls-120{fill:#979c5e;}.cls-121{fill:#181911;}.cls-122{fill:#040403;}.cls-123{fill:#15150f;}.cls-124{fill:#1b1c14;}.cls-125{fill:#1d1d15;}.cls-126{fill:#12120e;}.cls-127{fill:#353726;}.cls-128{fill:#353626;}.cls-129{fill:#050504;}.cls-130{fill:#969c5e;}.cls-131{fill:#0c0c0a;}.cls-132{fill:#10110e;}.cls-133{fill:#161613;}.cls-134{fill:#282820;}.cls-135{fill:#020304;}.cls-136{fill:#050202;}.cls-137{fill:#95a0af;}.cls-138{fill:#93827c;}.cls-139{fill:#2b2a29;}.cls-140{fill:#242222;}.cls-141{fill:#323030;}.cls-142{fill:#040302;}.cls-143{fill:#302e2c;}.cls-144{fill:#161412;}.cls-145{fill:#282523;}.cls-146{fill:#070707;}.cls-147{fill:#332f2c;}.cls-148{fill:#020101;}.cls-149{fill:#191715;}.cls-150{fill:#0c0b0a;}.cls-151{fill:#7f695b;}.cls-152{fill:#cc6d35;}.cls-153{fill:#151511;}.cls-154{fill:#23231f;}.cls-155{fill:#0d0d0d;}.cls-156{fill:#232320;}.cls-157{fill:#21211d;}.cls-158{fill:#282824;}.cls-159{fill:#191a0d;}.cls-160{fill:#404349;}.cls-161{fill:#424241;}.cls-162{fill:#233d9e;}.cls-163{fill:#c4cad1;}</style></defs><path class="cls-1" d="M581,858H488c-3-6-3.2-12.6-4.27-19-.13-3.79,2-6.51,4.29-9.21,6.59-7.87,13.25-15.68,19.7-23.67a13.77,13.77,0,0,0,2.39-3.74c1.82-3.56,4.63-6.54,6.2-10.24,5.51-12.94.91-23.64-7.51-33.46-2.36-3.3-6-4.5-9.58-5.71-10.12-3.08-19.46-2.94-26.7,6.27a2.55,2.55,0,0,1-2.14,1c-1.72-.78-2.28-2.34-2.59-4-4.06-22.33-8.62-44.56-12.58-66.91a6.26,6.26,0,0,1,0-2,10.8,10.8,0,0,1,13.33-2.15c4.42,2.6,8.53,5.73,13,8.21,3,1.65,2.48,4.83,3.3,7.42a26.29,26.29,0,0,1,.47,5.31,11.61,11.61,0,0,0,.84,4,53,53,0,0,0,3.46,6.26c.72,1.08,1.38,2.21,2.2,3.22,1.6,1.83,2.77,4,4.59,5.63a12.5,12.5,0,0,0,4.35,2.85c1.07.48,2.15.94,3.22,1.44,9.57,4.1,19.16,5.12,28.78.16,3.42-2.9,6.69-5.93,8.69-10.06a18.39,18.39,0,0,0,4.16-9.57c-.37-4.48,1.8-6.86,6.16-7.31,1.84-.19,3.53-.92,5.31-1.24,2.24,0,4.2-1.09,6.33-1.52,9.09,1.27,16.81,5.69,24.48,10.39,15.82,9.7,25.92,23.32,29.92,41.56a113.14,113.14,0,0,0,6.81,21.28c.9,2.05,1.91,4.26,1.59,6.69-3,4.26-7.83,5.44-12.39,6.57a63.06,63.06,0,0,1-25,1.35c-2.73-.75-4-2.7-4.53-5.35a36,36,0,0,1-.76-8.89,78,78,0,0,0-1.1-15.24,164.29,164.29,0,0,0-4.5,30.49c-.72,2-.57,4.12-.6,6.2a18.26,18.26,0,0,1-.41,4.11,34.38,34.38,0,0,0,.13,14.07c.55,3.73.23,7.48.32,11.21a16.41,16.41,0,0,0,.64,5.83c.8,6.86,1.83,13.68,3,20.49C581.41,853.13,582.39,855.61,581,858Z" transform="translate(-305.25 -406.13)"/><path class="cls-2" d="M446,858H393c-6.74-4.89-7.74-12.59-9.2-19.82-2.52-12.44-3.07-24.9-.58-37.59,1.33-6.76,1-13.88,3-20.64,1.07-2.36,3-2.6,5.35-2.52,10.18.34,19.95,3.25,30,4.63,3,.41,6,.39,8.88,1.1,5.75,1.4,6.12,1.86,5,7.84-1.46,9.43-7.59,15.39-15.34,20.16,22.86-10.14,42-24.75,56-45.54,4.21-6.25,9.7-9.3,17.19-8.8,1.47.1,3,0,4,1.54a1.68,1.68,0,0,0,.85,1.59c11.6,7.7,15,21.18,7.62,32.92-4.75,7.55-9.95,14.82-16.84,20.88-7.21,6.33-14.4,12.9-19.11,21.54-2.62,4.71-6.8,7.94-10.82,11.32-1.29,1.23-2.13,2.85-3.49,4a37.36,37.36,0,0,0-5.63,4.72C448.78,856.58,447.25,857.08,446,858Z" transform="translate(-305.25 -406.13)"/><path class="cls-2" d="M625,858H602a8.78,8.78,0,0,1-1.86-4.53c-3.78-19-8-37.89-11.77-56.87-.47-2.4-1.28-4.9.74-7.08a8.06,8.06,0,0,1,5.29-.95c5.77.66,11.48-1.31,17.25-.34,2.24,1.18,2.47,3.34,2.74,5.53a595.59,595.59,0,0,0,10.57,59C625.32,854.48,626.25,856.24,625,858Z" transform="translate(-305.25 -406.13)"/><path class="cls-3" d="M589,790c1.07,11.54,4.55,22.63,6.52,34s5.45,22.46,6.5,34H583a3.06,3.06,0,0,1-1.66-2.34c-.62-5.71-2.27-11.27-2.34-17a29.17,29.17,0,0,0-.85-5.58c-.11-.8-.13-1.61-.16-2.42-.55-2.94-.07-6-.89-8.91-.16-2.25-.07-4.5-.1-6.75-.9-4.58,1-9,.63-13.59a20.73,20.73,0,0,1,.37-4.23c1-2.33.17-5.09,1.68-7.3C582.79,787.82,585.9,786.65,589,790Z" transform="translate(-305.25 -406.13)"/><path class="cls-4" d="M625,858a453.16,453.16,0,0,1-12.05-65.67A19.06,19.06,0,0,0,612,789c4.29-4.47,7-4.64,9.9-.62,3.25,21.71,9.36,42.83,13.46,64.36.34,1.77,1,3.59-.37,5.24Z" transform="translate(-305.25 -406.13)"/><path class="cls-5" d="M387.1,780.11c-1.48,13.32-4.33,26.54-3.88,40,.45,13.29,2,26.43,9.82,37.88h-5c-14.46-15.89-13.16-35.24-11.65-54.49A130.59,130.59,0,0,1,380,781c1.12-.68-.22-3.07,1.58-2.87s1.3,2.14,1.42,3.47a16.46,16.46,0,0,1-.12,2.33,13,13,0,0,0-.44,3.78,9.68,9.68,0,0,0-.45,3.07c-.49,2.67-1.27,5.3-1,8.06a103.48,103.48,0,0,0-1,28.76c.21,1.93-.28,3.94.45,5.68-.75-2.69-.09-5.69-.89-8.54,0-7.39-.16-14.77.75-22.12,1.45-2.82.17-6,1.19-8.88a17.11,17.11,0,0,0,.67-4.6,11.7,11.7,0,0,0,.43-3.72,12.09,12.09,0,0,0,.51-3.73,3.5,3.5,0,0,1,2.06-3.14C386.22,778.55,387.47,778.31,387.1,780.11Z" transform="translate(-305.25 -406.13)"/><path class="cls-6" d="M620.86,788.25c-.77-.74-.57-2.75-2.66-1.7s-4.15,1.66-6.23,2.47a168.53,168.53,0,0,1-23,1c-3-1.27-5.89-.45-8.83.08-2.35,2.07-.45,4.77-1,7.09L578.9,801c-2.27-.25-1-1.83-1.58-2.86,1.92,5.58-.88,11.24.59,16.87l.13,6.87c1.21,3-.44,6.21.94,9.16l.08,1.79c1,1.61-.22,3.59.87,5.18A124.12,124.12,0,0,0,583,858h-2c-1.84-9.07-3.82-18.12-4.1-27.42-.77-1.78.07-3.79-.78-5.57a43.23,43.23,0,0,1-.18-11.42,56.63,56.63,0,0,1,0-15.11l.18-3.49c1-2.1-.09-4.45.83-6.55-.73-5.2.56-10.27,1.22-15.35.87-6.65,3-13.09,3.68-20.06.39,1.33.77,2.65,1.16,4,1.2,5.12-.14,10.11-.87,15.12-.24,1.64-.52,3.27-.69,4.91-.87,8.34-.88,8.34,7.61,9.79,11.3.51,22.53.6,33-4.83,1.45-.75,3.18-1,3.91-2.79-.41-1.07-.91-2.18,1-2.18,2,2.64,1.6,4.75-1.4,6.3-1.12.59-2.44,1-2.44,2.66A3.8,3.8,0,0,1,620.86,788.25Z" transform="translate(-305.25 -406.13)"/><path class="cls-7" d="M620.86,788.25c.12-1.36.75-2.22,2.2-2.27,1.75,4.86,1.83,10,3,15q6.4,28.51,13,57h-4c-2.58-12-4.86-24.08-7.83-36A269.69,269.69,0,0,1,620.86,788.25Z" transform="translate(-305.25 -406.13)"/><path class="cls-8" d="M484.87,838.12c.64,6.69,3.05,13.1,3.14,19.88h-3c-1.4-3.2-3.87-4.6-7.32-5.1a42.73,42.73,0,0,1-10.58-2.85c-2-1-4.25-1.39-6.29-2.33-.89-3.16-.05-3.9,4.53-4,4,1.19,8,2.31,12,3.33,3.31.85,4.34-.29,3.61-3.51-.33-1.46-.42-3-.72-4.43-1.1-5.55-1.09-5.55-6.28-3.68-1.68-.63-1.13-1.75-.52-2.74a22.49,22.49,0,0,1,4.69-5c3.06-2.62,4.61-.75,5.77,2.07C485.88,832.4,483.88,835.43,484.87,838.12Z" transform="translate(-305.25 -406.13)"/><path class="cls-9" d="M467.14,848.92c4.48,1.08,8.91,2.47,13.45,3.14,3.84.57,5.05,2.39,4.42,5.94H467a8.35,8.35,0,0,1-2.78-6.62C464.19,849.56,464.66,848,467.14,848.92Z" transform="translate(-305.25 -406.13)"/><path class="cls-10" d="M467.14,848.92c-1.93.27-2.26,1.29-1.67,3.06.65,2,1,4,1.54,6H453c-1.79-2.38,0-4,1.35-5.52,1.19-1.33,2-3,3.55-4a7.21,7.21,0,0,1,9.22.46Z" transform="translate(-305.25 -406.13)"/><path class="cls-11" d="M459,848.78c-1.93,3.12-5.51,5.17-6,9.22h-7a5.56,5.56,0,0,1,2.93-3,11.1,11.1,0,0,0,5.94-5.28l3.2-3.49C459.37,846.71,460,847.47,459,848.78Z" transform="translate(-305.25 -406.13)"/><path d="M455.92,687c4,21,8,42.06,12.2,63.06.65,3.28.15,7,2.83,9.7.44,3.17,0,5.7-4.09,5.39-1-6.71-5.63-8.61-11.68-8.79a47.52,47.52,0,0,1-7.71-1.35,67.66,67.66,0,0,1-14.78-5.78c1.16,8.06,3.13,15.57,4.76,23.15a5.71,5.71,0,0,0,4.44,4.28c3.63,1,7.18,2.8,11.12,1.43,3.67-2.49,5.14-7.58,10.09-8.56,1.89.76,1.31,2.25.59,3.23a85,85,0,0,1-13.74,14,1.5,1.5,0,0,1-2.47-.54c-.45-1.24-1-2.48-2.36-3-1.69-.58-3.55-2.06-5.11-1.13-1.94,1.15-.38,3.27-.18,5s.46,3.25.67,4.88c.11,2.39.54,5.13-3.39,3.11-1.89-5.54-1.6-11.63-4.37-16.93-3.06-8.5-4-17.48-5.91-26.23-3.4-15.42-6.56-30.89-9.63-46.37a25,25,0,0,1-.56-4.94c-.33-2.85.4-5.77-.55-8.58-4-18.87-8.13-37.73-12.07-56.62q-15.13-72.57-30.18-145.17c-1.56-7.47-5.9-10.28-13.47-9-11.76,1.94-17.78,9.77-17.16,21.78.42,8,2,15.84,3.6,23.67,2.8,13.62-2.3,20.94-16,23.2-9.86,1.62-16.29-2.45-18.91-12.49a203,203,0,0,1-6.47-58.85c.67-18.39,10.8-30.95,27.74-37.22s34.73-7.51,52.45-2.29c15.59,4.59,24.67,14.78,28.49,30.85,5.91,24.79,10.24,49.86,15.05,74.84,1.79,9.31,3.36,18.66,5,28,1.2,4.4,2.81,8.69,3.78,13.17,2.34,7,2.23,14.46,4.18,21.53,3.46,16.67,7,33.32,9.35,50.2,0,4.81,1.66,9.32,2.41,14a33.39,33.39,0,0,0,1.07,4.44,21.92,21.92,0,0,1,1.34,6.64C456.55,684.15,455.53,685.52,455.92,687Z" transform="translate(-305.25 -406.13)"/><path class="cls-12" d="M437,586.05a33.23,33.23,0,0,1-2.86-13.36c.43.84.85,1.68,1.47,2.88.82-2.15,1.54-4,2.26-5.86,1,.27,1.64,1.15,2.57,1.54,1.51.67,2.91-.17,4.36-.33a18.24,18.24,0,0,1,3-.24c3.71-.23,7.46.23,11.1-.86,24.95-.44,49.89-.08,74.82-.19,23.11-.11,46.22.21,69.32-.19,1.37-.34,2.53-1.25,3.94-1.53.84,2.61,2.67,3.09,5.27,3.06,9.64-.09,9.64,0,9.64,9.79,0,3.82,0,7.65,0,11.47,0,1.95-.43,3.36-2.71,3.13-3.17-.31-2.82,1.82-2.92,3.86-.3,6.27.77,12.57-.55,18.8-2.15,1.68-4.7,1.41-7.17,1.41-15.77,0-31.53,0-47.29,0a9.12,9.12,0,0,1-5-1.19,17.15,17.15,0,0,1-3.83-3.87c-.89-1.45-1.58-3-2.4-4.49-1.32-2.7-1.58-5.74-2.63-8.52-1.55-4.12-4.36-4.71-7.56-1.67-1.87,1.79-2.64,4.14-3.36,6.54-1,3.32-1.33,6.84-3,10a5.06,5.06,0,0,1-1.2,1.2c-2.19,1.87-4.82,2-7.51,2-19.41,0-38.81.05-58.21,0-6.44,0-7.87-1.5-8.08-7.94-.15-4.81,0-9.62-.07-14.43,0-2.36-.1-4.75-2.94-5.67-4.08-1.71-8.64-.33-12.74-1.92a6.22,6.22,0,0,1-1.47-.26c-1.41-.49-3.31-1-3.16-2.66s2.19-1.61,3.61-1.86a71,71,0,0,1,11.83.76c4.22.48,5-.58,5.1-5.09.09-3.74-1.33-5.21-5.07-4.32-2.09.5-4.27.32-6.41.5-7.41.63-7.76,1-9.24,8.27A4.16,4.16,0,0,1,437,586.05Z" transform="translate(-305.25 -406.13)"/><path class="cls-13" d="M464.77,530c1.84-1.61.73-2.8-.5-4.07-14.3-14.81-25-32.33-36.8-49A80.57,80.57,0,0,1,413,439.62c-1.54-12.62,3-22.83,13.13-30.45,3.29-2.48,7.34-3,11.37-3,16.81,0,29.22,9.78,36.77,27.95,7.14,17.17,11.09,35.13,14.81,53.21,1.68,8.15,3.11,16.33,4,24.59.42.73.65,1.66-.18,2-1.24.53-1.92-.6-2.65-1.38-1.28-1.68-1.29-3.71-1.64-5.68-4.22-23.61-8.24-47.26-17.37-69.67-3.07-7.55-7.1-14.31-13.05-19.86-7.16-6.67-15.94-8-25.15-6.8-5.73.76-9.23,5.29-12,9.82a29.75,29.75,0,0,0-3.91,20.59c2.47,17,11.18,30.86,20.95,44.24s18.63,27.65,30.5,39.49a12.58,12.58,0,0,1,1.74,2.48,3.27,3.27,0,0,1-1.23,2.75C467.67,530.85,466.24,531.39,464.77,530Z" transform="translate(-305.25 -406.13)"/><path class="cls-14" d="M416.09,692a14.17,14.17,0,0,1,1.85,8.2c-12.69,8.51-21,20.14-25.31,34.79-3.13,10.56-5.64,21.24-7.91,32-1.36,6.46-.74,7.29,5.74,7.63,13.68.74,26.9,4.57,40.44,6.22a3.12,3.12,0,0,1,2.38,1.34c-.38-1.51-.57-3,.71-4.19,2.41,5.42,2.32,11.42,4,17-3.14,1.38-2.61-2-3.91-3,1-6.77,1-7-5.82-7.67-12.44-1.17-24.47-4.91-37-5.65-1.72-.1-3.31-.53-4.23,1.43a2.12,2.12,0,0,0-2-1.1c-1.76.34-1.31,2-1.81,3.08a1,1,0,0,1-1.18,0v-3.7L380,781c-2.31-15.39,4-29.36,7.39-43.78A65.58,65.58,0,0,1,403,707a50,50,0,0,1,10.15-8.79C415.53,696.72,416.79,694.86,416.09,692Z" transform="translate(-305.25 -406.13)"/><path class="cls-5" d="M464.77,530A6.32,6.32,0,0,0,469,529a1.69,1.69,0,0,1,1.36,1.57c-.36,2.24-1.8,3.87-3.21,5.48-8.25,9.33-13.48,20.32-17.58,31.93-.56,1.57-.93,3.19-2.59,4l-3,0c-1.82-2.22-.48-4.41.13-6.56a64.31,64.31,0,0,1,4.39-10.29,66.46,66.46,0,0,0-5.89,13.47c-.42,1.33,0,3.62-2.57,3.4-1.5-.06-2-1-2.15-2.33C442.68,553.64,451.2,540.09,464.77,530Z" transform="translate(-305.25 -406.13)"/><path class="cls-15" d="M626.9,777a2.43,2.43,0,0,0-1,2.18,142.06,142.06,0,0,1-9.43-27.7c-6.82-28.54-27.07-42.85-53.5-50.66-.78-.21-1.3-.61-1.17-1.52a2.29,2.29,0,0,1,1.81-1.1,7.22,7.22,0,0,1,4.79,1.67c16.8,5.18,30.76,14.46,41.2,28.75a34.71,34.71,0,0,1,5.36,10Q621,757.84,626.9,777Z" transform="translate(-305.25 -406.13)"/><path class="cls-16" d="M548.83,511.68c6.68-18,13.94-35.76,23.16-52.65,4.13-7.56,8.44-15,16.59-19.19.94-.46,1.4.08,1.77.83a2.26,2.26,0,0,1-.86,2.22c-10,7.33-14.89,18.2-19.86,28.89-6.37,13.71-12.46,27.58-17.26,42C550,515.15,548.76,514.51,548.83,511.68Z" transform="translate(-305.25 -406.13)"/><path class="cls-17" d="M607,567.91a2,2,0,0,1-2.1,2.14.94.94,0,0,1-1.29,0C598.51,560,594,549.56,586.25,541a84.24,84.24,0,0,0-10-9.76c-1.59-1.25-4-2.09-3.58-4.9a1.8,1.8,0,0,1,2.68-.47c6.18,2.17,10.23,7,14.27,11.7A90.43,90.43,0,0,1,607,567.91Z" transform="translate(-305.25 -406.13)"/><path class="cls-18" d="M494.06,512.85c17.92-5,35.88-7.43,54-1,1.09,2.71-.89,2.95-2.67,3.34a9.18,9.18,0,0,1-1.74-.06c-16.16-4-32.06-1.81-47.89,2a6.24,6.24,0,0,1-2.43-.23C490.05,514.94,494.05,514.26,494.06,512.85Z" transform="translate(-305.25 -406.13)"/><path class="cls-19" d="M589.06,512c-.73,2.12-3.72,2-4.25,4.3-3.33,2.17-5.64,5.52-8.92,7.74L576,524c-1.31,1.07-2.8,1.43-4,.07s-.12-2.81.84-3.95c3.1-3.65,6.95-6.58,9.83-10.43,1.49-3,4-5,6.43-7.1a6.69,6.69,0,0,0,2.93-3.11,7.71,7.71,0,0,1,.69-1,25,25,0,0,0,2.3-2.84,20.86,20.86,0,0,1,1.85-2.44c.25-.34.53-.65.8-1,.7-.83,1.38-1.69,2.63-1.63a2.48,2.48,0,0,1,2.06,3.5,13.69,13.69,0,0,1-2.29,3.95l-.18,1.18a4.62,4.62,0,0,0-2.47,2.05,35.63,35.63,0,0,1-3.33,4.76l-1.19,1.16A43.73,43.73,0,0,0,589.06,512Z" transform="translate(-305.25 -406.13)"/><path class="cls-20" d="M612.91,640.79c-3.94,4.72-3.95,10.66-5,16.26-.57.67-.32,1.58-.67,2.31-.2.93-.61,1.85-.07,2.8l.75.86c-.32,2.15-2,2.57-3.73,3.15s-2.67,2.12-3.24,3.83c-2.52-.37-1.93-2.38-2.12-4a165.88,165.88,0,0,0,9.41-33.76c.59-3.24.67-6.58,1.89-9.71.17-.46.35-.91.52-1.36.47-1.22,1-2.81,2.52-2.45,2,.47,1.38,2.17.94,3.58L611.87,637C610.41,638.79,613.15,639.38,612.91,640.79Z" transform="translate(-305.25 -406.13)"/><path class="cls-21" d="M620.51,500.16c-2.52.32-4.59-.72-6.54-2.12-.25-1,.34-1.37,1.09-1.67a7.37,7.37,0,0,1,3.91.52c8.45,2.58,15-.69,20.48-6.83,3.19-3.6,3.63-7.83.68-11.4a40.6,40.6,0,0,1-8.65-20.42c-.76-5.1-2.41-9.66-6.52-13.06a3.89,3.89,0,0,1-1.34-2.62,1.82,1.82,0,0,1,1.39-1.63c5.24,3.39,8.7,7.86,9.42,14.32A44.78,44.78,0,0,0,645,480a10.68,10.68,0,0,1,.09,6.38c-2,7.67-8,11.19-14.73,13.79A27.52,27.52,0,0,1,620.51,500.16Z" transform="translate(-305.25 -406.13)"/><path class="cls-22" d="M494.06,512.85c.54,1.34-1.82,1.83-.93,3.26a171.28,171.28,0,0,1-22.37,14.24c-.09,0-.29-.13-.43-.21L469,529c.33-.66.65-1.33,1-2,1.06-1.73,3-2.7,4-4.49.5-.76,1-1.5,1.57-2.21,2.75-2.64,7-3.09,9.28-6.45,1.09-.86,1.93,1.84,3.08.19a6.6,6.6,0,0,1,3.17-2c.67-.06,1.59,3,2-.16C493.4,512.21,493.73,512.53,494.06,512.85Z" transform="translate(-305.25 -406.13)"/><path class="cls-23" d="M597.05,683.38c-.41,1.18-.83,2.35-1.25,3.53-1.12,1.07-2.92.32-4,1.49-1.88.49-3.41-.48-5-1.19a3.4,3.4,0,0,1-.78-1.32,10.77,10.77,0,0,1,.11-5.35,9.85,9.85,0,0,1,2.62-3.72,4.29,4.29,0,0,1,1.35-.68,7.93,7.93,0,0,1,3.72,0,3.46,3.46,0,0,1,2.53,2.31A6,6,0,0,1,597.05,683.38Z" transform="translate(-305.25 -406.13)"/><path class="cls-24" d="M586.85,686a2.19,2.19,0,0,1,.18.87c.34.25.44.49.3.7s-.26.31-.39.31l-18.55,12c-1.93.51-3.59-.7-5.41-.87a1.17,1.17,0,0,1-.3-.84c0-.31.06-.46.11-.46,2.34-2.54,5.81-3,8.62-4.7,3.67-2.22,7.58-4.1,9.66-8.18a3.26,3.26,0,0,1,2.72-.53A5.55,5.55,0,0,1,586.85,686Z" transform="translate(-305.25 -406.13)"/><path class="cls-25" d="M544.94,514.07c1.55,0,3-.12,3.12-2.21a1.15,1.15,0,0,1,.77-.18c.74,1.14,1.1,3.13,3.14,1.42,1.82-.76,3-2.38,4.77-3.29a3.09,3.09,0,0,1,1.69,2,3.85,3.85,0,0,0,2.7,3.28c1.18.62,2.2,1.51,3.39,2.12a3.49,3.49,0,0,1,1,1,4.11,4.11,0,0,1,.4,2.13,2.8,2.8,0,0,1-1,1.93c-4.22.54-7.28-2.55-11-3.58-1.71-.47-3.32-1.35-5.06-1.81C547.47,516.06,545.09,516.59,544.94,514.07Z" transform="translate(-305.25 -406.13)"/><path class="cls-26" d="M614.06,622.32c-.32-1,.39-2.75-1.1-2.65-1.7.1-.46,2.61-1.84,3.36-2.21-2.62-5.18-2.83-8.29-2.6-12.46,0-24.92,0-37.38,0-2.13-.17-4.63.51-5.66-2.34l56-.11Z" transform="translate(-305.25 -406.13)"/><path class="cls-27" d="M596,436.1c7.22-2.13,14.3-2.25,21.16,1.38a12,12,0,0,0,2.79.69c0,1.59-1.22,1.73-2.32,2-6.2-.22-12.22-2.32-18.49-1.81C597.78,438,596.05,438.2,596,436.1Z" transform="translate(-305.25 -406.13)"/><path class="cls-28" d="M584,509.94c-3.09,5.05-8.36,8.2-11.76,13.07,1.14,1.36,2.62.41,3.73,1,.68.9-.35,1.3-.56,1.93-.95.15-1.91.26-2.44,1.23-2.5.56-3.92-.93-5.19-2.72-.18-1.34-.32-2.68.67-3.84,4.3-1.68,6.93-5.38,10.21-8.32C580.12,510.92,581.32,508.64,584,509.94Z" transform="translate(-305.25 -406.13)"/><path class="cls-29" d="M596.35,679.09,594,676.83a2.35,2.35,0,0,1-.72-2c1.81-3.27,2.73-7.22,6.66-8.91.22,1.38-.44,3,1,4.07-.61,3.23-5.29,4.81-3.63,9A.55.55,0,0,1,596.35,679.09Z" transform="translate(-305.25 -406.13)"/><path class="cls-30" d="M615.09,497,614,498c-3.91-.66-5.42-4.9-9-6a2,2,0,0,1-1.52-1.26,2.67,2.67,0,0,1,.23-2,2.32,2.32,0,0,1,1.75-1C608.72,490.71,612.77,493,615.09,497Z" transform="translate(-305.25 -406.13)"/><path class="cls-31" d="M596,436.1c.84,1.22,2.23.82,3.36,1.15-2.48,2.83-5.71,3.83-9.35,3.84l-1.41-1.25A15.67,15.67,0,0,1,596,436.1Z" transform="translate(-305.25 -406.13)"/><path class="cls-5" d="M614.94,668c-.17,1.8-1.56,2.46-3,3.11-2,1.4-4.25.94-6.45.66-.74-.29-1.65-.41-1.51-1.56,3.57-1.23,7.54-.4,11-2.1Z" transform="translate(-305.25 -406.13)"/><path class="cls-32" d="M575.89,524c2.39-3.26,4.62-6.69,8.92-7.74C582.47,519.6,580.15,522.93,575.89,524Z" transform="translate(-305.25 -406.13)"/><path class="cls-33" d="M612.91,640.79c-1.06-1-3.09-1.83-1-3.75,1.29,4.42,4.26-.14,6.13,1.16.49.28,1,.46,1.32,1a1.42,1.42,0,0,1-.3,1.07,1,1,0,0,1-1-.19Z" transform="translate(-305.25 -406.13)"/><path class="cls-21" d="M617.7,439.17l2.23-1a8.27,8.27,0,0,1,5.08,2.76l-1.21,1.18C621.23,442.24,618.9,441.89,617.7,439.17Z" transform="translate(-305.25 -406.13)"/><path class="cls-34" d="M625.8,647.93c2.76-.95,5.52-1.9,8.29.56a10.08,10.08,0,0,1-5.21.37C628,648.11,626.6,649,625.8,647.93Z" transform="translate(-305.25 -406.13)"/><path class="cls-35" d="M619.89,569.76h-9.71A17.89,17.89,0,0,1,619.89,569.76Z" transform="translate(-305.25 -406.13)"/><path class="cls-36" d="M625.8,647.93c1,.33,2.27-.08,3.08.93-2.93,0-5.57,1.42-8.52,1.75A6.68,6.68,0,0,1,625.8,647.93Z" transform="translate(-305.25 -406.13)"/><path class="cls-6" d="M619,639.06l-1-.86,9.84-.31c1-.38,1.26.1,1,1-.29.09-.58.16-.88.24A10.25,10.25,0,0,1,619,639.06Z" transform="translate(-305.25 -406.13)"/><path class="cls-37" d="M618,640.1a1,1,0,0,1,.75-.29,30.06,30.06,0,0,1,9.18.06C624.64,641.8,621.32,641.45,618,640.1Z" transform="translate(-305.25 -406.13)"/><path class="cls-38" d="M617,660c-.48-1.89-3.65-3.38-.59-6.2l1.68,4.91C618.57,659.84,618.06,660.14,617,660Z" transform="translate(-305.25 -406.13)"/><path class="cls-39" d="M620.51,500.16h9.83A12.7,12.7,0,0,1,620.51,500.16Z" transform="translate(-305.25 -406.13)"/><path class="cls-40" d="M594.09,506c-.37-2.42,1.62-3.47,2.87-5a1.76,1.76,0,0,1,.94,1C597,503.73,596.39,505.65,594.09,506Z" transform="translate(-305.25 -406.13)"/><path class="cls-12" d="M615.06,668.09c-.1-2,1.45-3.3,2-5,.93-.19,1.44,0,1,1.08-.45,1.76-.91,3.51-3.12,3.84Z" transform="translate(-305.25 -406.13)"/><path class="cls-41" d="M589.06,512c0-2.66,1.45-4.11,3.84-4.85C592.84,509.73,591.25,511.1,589.06,512Z" transform="translate(-305.25 -406.13)"/><path class="cls-42" d="M627.91,639.87l-9.18-.06a2.85,2.85,0,0,1,.29-.75l9,.09A3.57,3.57,0,0,0,627.91,639.87Z" transform="translate(-305.25 -406.13)"/><path class="cls-43" d="M618.06,664.14l-1-1.08v-3l1.09-1.29A4.13,4.13,0,0,1,618.06,664.14Z" transform="translate(-305.25 -406.13)"/><path class="cls-44" d="M600.07,498c-.44-1.88.7-2.94,2-3.92a.58.58,0,0,1,1,0C602.87,496,602.27,497.61,600.07,498Z" transform="translate(-305.25 -406.13)"/><path class="cls-45" d="M605.14,671.14l6.85,0c0,.25,0,.51,0,.76-2.22,1.33-4.58.5-6.89.48l-.13-.45c-.33-.27-.4-.47-.23-.6A.72.72,0,0,1,605.14,671.14Z" transform="translate(-305.25 -406.13)"/><path class="cls-46" d="M605.06,672.33l6.89-.48C609.78,673.88,607.43,673.24,605.06,672.33Z" transform="translate(-305.25 -406.13)"/><path class="cls-47" d="M596.35,679.09a2.63,2.63,0,0,1,.92-.13,3,3,0,0,1-.22,4.42C595.66,682.14,597.42,680.38,596.35,679.09Z" transform="translate(-305.25 -406.13)"/><path class="cls-5" d="M597.9,502l-.94-1c-.13-2.38,1.51-1.94,2.93-1.85Z" transform="translate(-305.25 -406.13)"/><path class="cls-48" d="M586.94,687.92l.09-1L592,688c.3.2.39.4.29.6s-.21.29-.31.29A4.74,4.74,0,0,1,586.94,687.92Z" transform="translate(-305.25 -406.13)"/><path class="cls-49" d="M628.89,638.91l-1-1a3.84,3.84,0,0,1,3.66-.61C631.38,639.09,630.14,639,628.89,638.91Z" transform="translate(-305.25 -406.13)"/><path class="cls-50" d="M606.91,659.18c.32-.71.64-1.42,1-2.13.55,2,.89,4,0,6l-1,0C606,661.71,606.3,660.45,606.91,659.18Z" transform="translate(-305.25 -406.13)"/><path class="cls-51" d="M605.14,671.14l-.21.74-3.52,1.33c-.45-2.33,1.2-2.57,2.62-3Z" transform="translate(-305.25 -406.13)"/><path class="cls-52" d="M645.07,486.37,645,480C646.38,482.1,646.09,484.23,645.07,486.37Z" transform="translate(-305.25 -406.13)"/><path class="cls-53" d="M591.94,688.86a8.81,8.81,0,0,1,0-.89c1-1.36,2.49-1,3.84-1.06C595.07,688.67,593.14,688,591.94,688.86Z" transform="translate(-305.25 -406.13)"/><path d="M603,494.09l-.47-.1-.49.08a2.66,2.66,0,0,1,.06-.89c.29-1,.66-2,2-2.1l.85.95Z" transform="translate(-305.25 -406.13)"/><path class="cls-54" d="M434.12,792c.94-.36,1.89-.7,1.91.89a1.88,1.88,0,0,0,2,2.12c3.73,0,.71-2.27,1.16-3.37,1.05-.89,2.14-1.59,3.61-1,1,.7.47,2.15,1.5,2.8,1.86,0,3-1.4,4.22-2.41,10-8.19,19.46-16.91,26-28.36,4.37-7.64,12.05-10.39,22.49-8.61,1.47.25,2.91.65,4.35,1,2.21.72,4.09,2.39,6.59,2.32a2,2,0,0,1,1.1.58c2.15-.21,2.67,1.61,3.52,2.93,10.49,16.11,10.07,26.51-1.64,42a87.33,87.33,0,0,1-28.16,23.85c-1.1-.35-2.54.07-3.18-1.36-.18-3.06,2.25-4.29,4.2-5.71,7.82-5.69,15.59-11.42,22-18.73,4-4.52,7.73-9.17,9.18-15.22a11.58,11.58,0,0,0,0-7.58c-1.38-8.15-5.79-13.85-13.56-16.88-1.51-.59-3.16-1-4.22-2.41-9.09-2.37-14.88.06-20,7.44C462.79,787,443.66,802,420.91,812.63c-1.12.52-2.62,1.69-3.5,0s.95-2.24,2-2.89C426.23,805.44,432.46,800.62,434.12,792Z" transform="translate(-305.25 -406.13)"/><path class="cls-55" d="M558.1,702.07c-1.15,1.64-3.08,1.74-4.7,1.92-4.34.46-7.22,2-6.6,7-1.58.09-1.61-1.3-2.15-2.21-1-1.53-2.17-1.12-3.35-.33s-2.51,1.56-4.06.65c-6.81-1.46-13.78-.39-20.64-1.61-7-1.25-14-2.49-20.51-5.42a5.5,5.5,0,0,1-2.5-2.22,2,2,0,0,1,.71-2.31c2.32-1.13,4.58-.33,6.79.31,12.19,3.53,24.49,5.87,37.27,3.85a15,15,0,0,1,4.95.23c2.8.9,5.48-.14,8.18-.61,1.78-.3,3.52-.72,5.32-.2A2.76,2.76,0,0,1,558.1,702.07Z" transform="translate(-305.25 -406.13)"/><path class="cls-56" d="M443.23,794.05c-1.84-.95-.39-2.19-.3-3.32a6.33,6.33,0,0,1,5-5,6,6,0,0,0,.67.61c5.39-4.53,10.57-9.26,14.71-15,.19-.25-.11-.85-.18-1.29-.3-3,1.69-4.18,4.08-5,2.72-.69,2.71-3.34,3.77-5.23,6.2-9.84,17.24-12.78,29.05-7.73.24.93-.32,1.37-1,1.72-4.59.54-9.11-1.15-13.82.14a16.77,16.77,0,0,0-10.52,7.63c-7.64,12.26-18.55,21.58-28.74,31.52A2.7,2.7,0,0,1,443.23,794.05Z" transform="translate(-305.25 -406.13)"/><path class="cls-57" d="M483.23,826.1c9.6-7.29,19.31-14.46,27.7-23.19-2.52,5.71-7.29,9.73-11,14.54-3.86,5-8.09,9.7-12.12,14.56-1.47,1.78-3,3.56-2.93,6.11q-1-4.07-1.94-8.13C482.47,828.65,482,827.31,483.23,826.1Z" transform="translate(-305.25 -406.13)"/><path class="cls-58" d="M494.09,697.65l0,2.31c-.87.64-1.8.35-2.72.16a13.74,13.74,0,0,1-6.14-3.44,3,3,0,0,1,.34,3.42,2.48,2.48,0,0,1-1.69,1.25c0-5.17-3.09-7.68-7.47-9.54a31.81,31.81,0,0,1-6.62-4.41c-4.56-3.54-9.16-2.58-13.82-.38-1.36-1.18-.79-2.74-.82-4.18,1.62-1.33,3.91-.91,5.57-2.16,2.26-.64,4.47-.07,6.7.29,2.64.61,3.66,3.47,6.1,4.37,5.11,3,10.06,6.36,15.65,8.56C491,694.64,493.26,695.31,494.09,697.65Z" transform="translate(-305.25 -406.13)"/><path class="cls-59" d="M589,786.82c-1.15-.05-2.3-.08-3.44-.15-6.83-.4-6.86-.41-5.92-7.06,1.07-7.54,2.21-15.08,3.31-22.61a27.34,27.34,0,0,1,1.84,11.1,75.09,75.09,0,0,0,.9,14.42C586.16,784.79,587.06,786,589,786.82Z" transform="translate(-305.25 -406.13)"/><path class="cls-60" d="M534.05,730.14c-8.31,6.59-17.42,4.54-26.49,2.35-1.7-.41-3.23-1.53-4.84-2.32a2.39,2.39,0,0,1,1.64-1.73c4.46,0,8.49,2.21,13,2.31a47.52,47.52,0,0,0,15.43-2.29C533.67,728.68,534.34,729.06,534.05,730.14Z" transform="translate(-305.25 -406.13)"/><path class="cls-61" d="M534.05,730.14,532.92,729c1.25-4.53,4.44-7.3,8.42-9.36l.59.4C541.43,725.05,537.67,727.55,534.05,730.14Z" transform="translate(-305.25 -406.13)"/><path class="cls-62" d="M545.88,707.8c.3,1.06-.11,2.33.92,3.17-1,3.37-1.29,7.09-4.87,9.06l.12,0C540.69,715.16,542.59,711.26,545.88,707.8Z" transform="translate(-305.25 -406.13)"/><path class="cls-63" d="M498.85,753.2c.38-.39.76-.77,1.15-1.15,3.44,1.33,7.52,1.69,9.06,5.94l-.47.07-.48,0c-2.26.31-3.57-1.77-5.52-2.23C501.27,755,499.09,755.5,498.85,753.2Z" transform="translate(-305.25 -406.13)"/><path class="cls-64" d="M496,726c-2-1.76-4-3.45-5-6-.37-1,.3-1.26,1.06-1.45,3.12,1.05,4.54,3.54,5.42,6.47C497.28,725.77,496.94,726.38,496,726Z" transform="translate(-305.25 -406.13)"/><path class="cls-56" d="M575.9,798.48q0,7.54,0,15.11A32.29,32.29,0,0,1,575.9,798.48Z" transform="translate(-305.25 -406.13)"/><path class="cls-65" d="M489,717l-3.73-6c.57-.71,1.16-1.41,2.22-1.3,2.08,1.42,2.48,3.65,2.88,5.89A1.67,1.67,0,0,1,489,717Z" transform="translate(-305.25 -406.13)"/><path class="cls-65" d="M487,710a1.8,1.8,0,0,1-1.73,1c.47-1.53-2.14-2.38-.9-4.08.52-1-.8-3.41,2-2.74C487.57,706,488.57,707.86,487,710Z" transform="translate(-305.25 -406.13)"/><path class="cls-66" d="M496,726l1.15-1.27a4.82,4.82,0,0,1,5.13,2.85c-.26,1.24-1.45.91-2.21,1.3A5.55,5.55,0,0,1,496,726Z" transform="translate(-305.25 -406.13)"/><path class="cls-54" d="M558.1,702.07,557,702c.71-3.07,2.57-3.26,5-2l1,.83C561.58,702.22,559.86,702.24,558.1,702.07Z" transform="translate(-305.25 -406.13)"/><path class="cls-65" d="M485.83,704l-1.43,2.92-.57-5.59,1.09-1.32C486.33,701.1,487.25,702.3,485.83,704Z" transform="translate(-305.25 -406.13)"/><path class="cls-54" d="M489,717c.31-.32.62-.63.94-.94,2.29-.11,2.42,1.27,2,3l-1,1A5.37,5.37,0,0,1,489,717Z" transform="translate(-305.25 -406.13)"/><path class="cls-56" d="M576.91,788.44c-.21,2.19.85,4.55-.83,6.55A13.68,13.68,0,0,1,576.91,788.44Z" transform="translate(-305.25 -406.13)"/><path d="M500,728.91,502,728c1.13-.5,1.65.13,2,1.08l-1.27,1.07Z" transform="translate(-305.25 -406.13)"/><path class="cls-56" d="M576.1,825c1.54,1.68.67,3.69.78,5.57C575.83,828.84,576,826.93,576.1,825Z" transform="translate(-305.25 -406.13)"/><path class="cls-4" d="M515.94,786c-.69,6-4.57,10.13-8.14,14.46-6.18,7.47-13.71,13.42-21.6,19-2.29,1.61-4.69,3.15-6.13,5.7-3.27,3.76-5.66,8.52-11.09,9.87.26-4.16,3.69-6.45,6-9.1,4.79-5.47,10.53-10.16,15.47-15.44,7.12-7.61,14.84-15.15,17-26.23,1.94-10-1.06-17.54-9.72-23.38-.45-.31-3.48-.53-.53-2,11,2.21,17.81,9.09,18.85,19.12C515.82,780.66,516,783.33,515.94,786Z" transform="translate(-305.25 -406.13)"/><path class="cls-67" d="M469,835l11.09-9.87c.81,1.12,2.06.81,3.16,1l-.3,3.89c-1.21-2.58-2.75-3.65-4.67-.68-1.28,2-4.67,2.49-4.07,5.77-1.33,4.82-5.3,7.22-9,9.85-2-.45-4-1.12-4,2.16-.52.83-1,1.65-2.17,1.69l-.93-2.59Z" transform="translate(-305.25 -406.13)"/><path class="cls-68" d="M454.89,849.68c-.76,3.14-1.74,6-5.94,5.28A24.94,24.94,0,0,1,454.89,849.68Z" transform="translate(-305.25 -406.13)"/><path class="cls-56" d="M577.91,815c-2.16-5.46-.21-11.14-.56-16.88l1.56,2.87Q578.4,808,577.91,815Z" transform="translate(-305.25 -406.13)"/><path class="cls-56" d="M579.07,797.15c-.78-2.53-3.05-5.28,1-7.09C579.7,792.41,580.57,795,579.07,797.15Z" transform="translate(-305.25 -406.13)"/><path class="cls-56" d="M579,831c-2-2.88-.63-6.11-.94-9.16C579.58,824.77,578.8,827.94,579,831Z" transform="translate(-305.25 -406.13)"/><path class="cls-56" d="M579.93,838c-1.61-1.5-.75-3.42-.87-5.18C580.29,834.37,579.92,836.21,579.93,838Z" transform="translate(-305.25 -406.13)"/><path class="cls-69" d="M379.16,828.94c-.25-10.31-.94-20.64,1-30.88,2.58.84,1.16,2.67,1,4.17a162.23,162.23,0,0,0-1.05,23.63C380.31,827,381.53,828.56,379.16,828.94Z" transform="translate(-305.25 -406.13)"/><path class="cls-70" d="M379.16,828.94c1.11-.78.78-2,1-3.08,1.7,3.75.4,7.77,1.27,11.63A14.64,14.64,0,0,1,379.16,828.94Z" transform="translate(-305.25 -406.13)"/><path class="cls-71" d="M381.17,802.23c-.35-1.39.38-3.05-1-4.17l1.08-8c2.32.45,1.07,2,.93,3.13C381.93,796.24,382.7,799.36,381.17,802.23Z" transform="translate(-305.25 -406.13)"/><path class="cls-72" d="M382.51,845.48l-1.41-5.84c2.64,2,1.88,4.05,2.64,5.56Z" transform="translate(-305.25 -406.13)"/><path class="cls-73" d="M382.87,782c.27-3.64.27-3.64,2.19-3L384,782A.72.72,0,0,1,382.87,782Z" transform="translate(-305.25 -406.13)"/><path class="cls-74" d="M382.14,793.22c-.18-1.08.14-2.31-.93-3.13a2.37,2.37,0,0,1,.74-2.23c.6.13.66.73,1,1.11C383,790.45,383.18,792,382.14,793.22Z" transform="translate(-305.25 -406.13)"/><path class="cls-71" d="M382.93,789l-1-1.11c.07-1.27.15-2.54.23-3.8.9-.14,1.47,0,1,1.11Z" transform="translate(-305.25 -406.13)"/><path class="cls-74" d="M383.14,785.17l-1-1.11c0-.66-.07-1.32-.11-2a5.32,5.32,0,0,1,.8-.12l1.1,0A3.59,3.59,0,0,1,383.14,785.17Z" transform="translate(-305.25 -406.13)"/><path class="cls-75" d="M465.17,844.93c2.22-4,6.31-6.29,9-9.85l5.54-4.5c1.12,5.69,2.14,10.81,3.15,15.93.62,3.17-1.49,2.81-3.29,2.35C474.76,847.64,470,846.25,465.17,844.93Z" transform="translate(-305.25 -406.13)"/><path class="cls-1" d="M434,778c.77,3.56-.06,4.58-4.13,4-15.13-2.12-30-5.94-45.31-6.8-1.5-.08-3,0-2.44-2.42,4-17.6,6.48-35.69,14.91-51.95a53.69,53.69,0,0,1,18.41-20.59c.94-.61,1.65-1.07,2.51,0,1.44,12.19,4.64,24,7.07,36C427.84,750.22,431,764.1,434,778Z" transform="translate(-305.25 -406.13)"/><path class="cls-1" d="M374.08,467.14a24.38,24.38,0,0,1,24.71-13.25c4.44.5,7.51,2.52,9.12,7.11,5.89,16.7,8.6,34.12,12.14,51.36.49,2.4,1.4,4.78,1,8a77.67,77.67,0,0,1-28.13-15c-2.73-2.94-3.27-6.77-4.08-10.45-2-9.05-4.95-17.51-13-23.22C374.45,470.66,372.89,469.33,374.08,467.14Z" transform="translate(-305.25 -406.13)"/><path class="cls-1" d="M326.86,512.18c-10-5.68-16.07-14-17.92-25.48-4-24.64,12.2-39.55,30.63-44.55,4.62-1.26,9.29-2.67,15.29-2-9.74,9.08-17.7,18.64-19,31.94-.38,3.2-2.14,5.86-3.63,8.57a28.45,28.45,0,0,0-3.48,18.67c.57,3.61-.47,7.24,0,10.88C329,511.2,328.66,512.64,326.86,512.18Z" transform="translate(-305.25 -406.13)"/><path class="cls-76" d="M395.05,511a105.49,105.49,0,0,0,24.35,12.24,3.71,3.71,0,0,1,2.84,3q3,16.38,6.26,32.71c.51,2.57-.71,3-2.69,2.62-7.79-1.52-15.74-2.51-22.74-6.69a4.43,4.43,0,0,1-.79-1.26c-3.68-13.28-6.32-26.79-8.86-40.32C393.23,512.38,393.18,510.88,395.05,511Z" transform="translate(-305.25 -406.13)"/><path class="cls-76" d="M339,471.07c1.85-14.33,10-24.24,22.26-31,4.32-2.37,9.19-.46,13.73.09A45.37,45.37,0,0,1,400.25,451C386.54,451,377,456,371,467a4.35,4.35,0,0,1-3.25,1c-8.74-1.33-17.09.54-25.35,3.12A4.06,4.06,0,0,1,339,471.07Z" transform="translate(-305.25 -406.13)"/><path class="cls-1" d="M422.06,640.86c6.81,2.09,13.63,4.17,20.74,4.92,2.13.22,2.81,1.13,3.16,3,2.25,12.07,4.6,24.12,6.84,36.2.23,1.23,1.11,3.56-1.65,2.83-7.16-1.88-14.69-2.63-21.18-6.66-3.35-7.3-3.75-15.35-5.81-23-1.07-4-1.65-8.09-2.57-12.13C421.2,644.28,420.57,642.46,422.06,640.86Z" transform="translate(-305.25 -406.13)"/><path class="cls-1" d="M406.28,559.87a76.73,76.73,0,0,0,21.2,4.85c2.27.21,2.73,1,3.06,2.79q3.09,16.34,6.26,32.66c.42,2.15,0,3.33-2.41,2.62-7.59-2.2-15.5-3.5-22.33-7.86-1.88-2.24-2.57-5-3.18-7.74-1.57-7.13-3.1-14.28-4.53-21.44C403.93,563.66,402.48,560.77,406.28,559.87Z" transform="translate(-305.25 -406.13)"/><path class="cls-76" d="M414.12,600c7,2.07,13.79,4.79,21,6a3.09,3.09,0,0,1,2.83,2.89q2.85,15.4,5.83,30.79c.46,2.38.1,3.33-2.72,2.79-6.51-1.24-13.05-2.34-19-5.4-2.5-1.52-3.3-4-3.83-6.66-1.74-8.59-3.75-17.12-5.38-25.73C412.52,603.07,411,600.74,414.12,600Z" transform="translate(-305.25 -406.13)"/><path class="cls-3" d="M473,686.07c-2.88,0-3.3-3.35-5.61-4.14C459,675.74,453,667.87,450.11,657.8c-2.16-15.75-5.75-31.24-8.55-46.87-.24-1.3-.42-2.61-.63-3.92a43.23,43.23,0,0,1-.36-13.24c.35-2.15.74-4.26,2.72-5.62,3.8,1.57,8,.14,11.85,1.76-3.87,10.64-3.15,21.72-2.44,32.63A140.9,140.9,0,0,0,461.13,663a73.15,73.15,0,0,0,9.69,17.36C472.06,682.05,473.88,683.55,473,686.07Z" transform="translate(-305.25 -406.13)"/><path class="cls-1" d="M439.3,717.82c5.9.93,11.72,2.48,17.73,2.44,2.35,0,2.67,1.17,3,3,1.56,8.48,3.1,17,4.89,25.42.73,3.49-.36,4.54-3.73,4-5.07-.79-10.25-1-15.17-2.71-2.08-1.16-2.7-3.2-3.2-5.33-1.73-7.38-3.13-14.84-4.76-22.25C437.75,721,435.9,718.49,439.3,717.82Z" transform="translate(-305.25 -406.13)"/><path class="cls-76" d="M335,544.86c-10.25,4.2-15.49,2.24-19.54-8.34-4.39-11.5-4.62-23.79-5.74-36.09,5.4,7,11.44,13,19.31,16.85a8.39,8.39,0,0,1,1.79,5C331.68,529.91,334.08,537.25,335,544.86Z" transform="translate(-305.25 -406.13)"/><path class="cls-77" d="M395.05,511c-.86,5.5,1.31,10.55,2.44,15.74,2,9.35,4.15,18.69,5.58,28.17-2.26-1-4.55-2-6.78-3.09-5.07-2.51-8-6.24-9-12.17-2.41-13.87-5.57-27.62-7.94-41.79C384.56,502.42,389.39,507.24,395.05,511Z" transform="translate(-305.25 -406.13)"/><path class="cls-78" d="M422.06,640.86c2.45,11.63,4.86,23.27,7.41,34.88a20.11,20.11,0,0,1,.5,5.4,39.38,39.38,0,0,1-14.1-9.13,5.47,5.47,0,0,1-1.89-2.84c-2.44-11.86-4.92-23.71-7.63-36.75C412.36,635.24,416.66,639.19,422.06,640.86Z" transform="translate(-305.25 -406.13)"/><path class="cls-76" d="M432.05,685.76c6.26,1.67,12.48,3.47,18.79,5,2.2.51,2.9,1.57,3.25,3.63,1.1,6.39,2.3,12.76,3.67,19.09.62,2.9-.09,4.05-3.13,3.66-5.6-.71-11.23-1.22-16.6-3.11a3.38,3.38,0,0,1-1.76-1.71A131.07,131.07,0,0,1,431.05,688,2.62,2.62,0,0,1,432.05,685.76Z" transform="translate(-305.25 -406.13)"/><path class="cls-77" d="M414.12,600c-1.07,4.65,1.05,8.88,2,13.2,1.76,8,2.3,16.33,5.91,23.88-5.78-1.11-9.89-5.23-14.63-8.21-1.64-1-2-3-2.37-4.78q-3.13-14.84-6.39-29.66c-.18-.8-.82-1.69.15-2.09a3.14,3.14,0,0,1,2.29.45C405.45,595.11,409.78,597.55,414.12,600Z" transform="translate(-305.25 -406.13)"/><path class="cls-78" d="M406.28,559.87c-2.09,1.6-1.06,3.53-.64,5.45,2.17,9.86,4.28,19.74,6.42,29.61a2.52,2.52,0,0,1-.49-.07c-10.85-3.77-17.23-10.7-17.95-22.8-.4-6.64-2.55-13.18-4.15-20.89A130.69,130.69,0,0,0,406.28,559.87Z" transform="translate(-305.25 -406.13)"/><path class="cls-78" d="M439.3,717.82c-.59,6.35,2,12.19,3.1,18.26.82,4.66,1.31,9.55,3.62,13.88-5.11-1-9.53-3.68-14.19-5.76a4.18,4.18,0,0,1-2.71-2.75c-2.13-10-4.21-20-6.38-30.41Z" transform="translate(-305.25 -406.13)"/><path class="cls-77" d="M339,471.07c10.28-4.32,20.86-6.26,32-4-.1.32-.18.64-.3.94-2.37,5.89-4.22,11.06-13,10.71-7.29-.28-13.07,5.16-16.54,13.05C337.07,484.57,337.49,477.88,339,471.07Z" transform="translate(-305.25 -406.13)"/><path class="cls-78" d="M326.86,512.18c1.31-4,.95-8.31.47-12.21-1.07-8.54,1-16,5.44-23,1-1.65,2.08-3.28,3.12-4.92a41.09,41.09,0,0,0,3.7,23.64c2,4.15,1.08,9.77,1.18,14.73.06,2.92,2.69,6.95.49,8.32-2.38,1.49-5.59-1.88-8.41-3.17C330.77,514.63,328.85,513.33,326.86,512.18Z" transform="translate(-305.25 -406.13)"/><path class="cls-77" d="M432.05,685.76A184.91,184.91,0,0,0,438,714l-3.33-.87c-8.91-2.22-14.14-7.24-14.81-17-.43-6.27-2.48-12.43-4-19.43Z" transform="translate(-305.25 -406.13)"/><path class="cls-77" d="M454.05,779c-8.42,2.94-17.07-1.57-18.79-9.83-1.42-6.82-2.77-13.66-4.14-20.49a4.41,4.41,0,0,1,.21-.94l15.91,6c1.92,5.82,2.77,11.88,4.1,17.84A22.24,22.24,0,0,0,454.05,779Z" transform="translate(-305.25 -406.13)"/><path class="cls-78" d="M374.08,467.14a4.06,4.06,0,0,0,2.35,3.52c7.38,4.4,10.27,11.76,12.57,19.4,1.51,5,2.61,10.18,3.89,15.27-7-5.38-13.94-10.77-17.24-19.46a7.43,7.43,0,0,0-2.55-3.62c-5.13-3.11-3.82-6.83-1.44-10.82C372.51,470,373.28,468.57,374.08,467.14Z" transform="translate(-305.25 -406.13)"/><path class="cls-76" d="M454.05,779c-1-.1-2.45.15-2.6-.91-1.13-8.15-4.82-15.86-4.21-24.31,5.42.7,10.82,1.53,16.26,2,2,.19,2.49,1.12,2.7,2.78.26,2.13.65,4.25,1,6.38-1.15,1.84-3.35,2.83-4.08,5Z" transform="translate(-305.25 -406.13)"/><path class="cls-77" d="M335,544.86c-4.23-8.7-4.85-18.2-6-27.58,4.1,1.82,8.28,3.46,12.27,5.5,5,2.53,4,16.17-1.35,19.82A31.77,31.77,0,0,1,335,544.86Z" transform="translate(-305.25 -406.13)"/><path class="cls-79" d="M450.11,657.8c4.23,9.13,10.68,16.68,17.26,24.13l-6.18-.95c-3.82.31-5-2.76-6.64-5.21-.84-1.11-.73-2.6-1.51-3.73A45.09,45.09,0,0,1,450.11,657.8Z" transform="translate(-305.25 -406.13)"/><path class="cls-80" d="M447.9,785.72l-5,5-3.74.91c-.57-3.22-1.09-6.45-1.73-9.66-.36-1.78,0-2.62,2-2,2.62.89,5.18,2,7.86,2.69S448.57,784.54,447.9,785.72Z" transform="translate(-305.25 -406.13)"/><path class="cls-81" d="M443.29,588.15c-1.44,6.21-2.76,12.43-2.36,18.86-2-6.86-2.73-14-3.93-21l.06-1.11c2-1.2,3.95-1.75,5.28.94l-3.52.39C439.93,588.16,441.7,587.93,443.29,588.15Z" transform="translate(-305.25 -406.13)"/><path class="cls-82" d="M455,675a14.94,14.94,0,0,0,6.16,6c-1.12,3.6-4,1.41-6.09,1.86l-1.23-6.79C453.67,675.05,454.11,674.75,455,675Z" transform="translate(-305.25 -406.13)"/><path class="cls-83" d="M455,675l-1.16,1.06c-1.29-1.13-.7-2.65-.83-4C453.71,673,454.37,674,455,675Z" transform="translate(-305.25 -406.13)"/><path class="cls-2" d="M473,686.07c-2.39-4.94-6.4-8.76-9-13.66-7.18-13.59-10.17-28.21-12-43.22-1.36-11.24-1.68-22.48.1-33.7.34-2.15,0-4.84,3-5.58,3.68-.32,5.33.89,5.07,5-.39,6.14.09,12.33-.17,18.48-.15,3.82,1.35,4.84,5,4.82q30.48-.19,61,0c2.75,0,4.63-1.53,7-2.09,1.49,1.22,1.21,3,1.34,4.57.5,6,4,9.42,9.79,9.65,4.23.16,8.58-3.71,9.51-8.54.3-1.61,0-3.33,1.06-4.78a1,1,0,0,1,1.35-.16,5.24,5.24,0,0,0,3.82,1.2c1.58,1.13,3.48.56,5.2,1,9.85,1,19.72.18,29.58.44,2.8.08,5.61,0,8.4,0,2.25.44,2.31,2.33,2.12,3.89-2.14,17.93-5.78,35.35-17.83,49.73-3.66,1-6.87-.81-10.13-1.84-8.38-2.64-17.09-4.26-25.11-8-.59-2.59,2-2,3-3a19.58,19.58,0,0,1,4.71-.3c2.31.29,4.4-.89,6.65-1,1.67.21,3.17-.76,4.81-.7a.78.78,0,0,1,.67.6,1.2,1.2,0,0,0,0-1.46c-.76-.88-.81.53-1.36.55-2.23,1.35-4.88.67-7.2,1.55-3.2,1.08-6.73-.37-9.84,1.32-4.44,1-8.94.44-13.41.54-11.81-.21-23.54-1.63-35.29-2.47-1.85-.41-3.63-1.23-5.45-1,.61.15,1.4,0,2.17.15,3.86,1.63,8.12,1.39,12.06,1.62,6.52.38,13,1.83,19.55,1.32,2.23,0,4.08,1.15,6,2,10.41,5.4,21,10.55,31.43,15.84,1.87.94,4.12,1.48,5,3.8.06,2.58-2,3.6-3.64,4.92-7.65,6.13-16.27,10.6-25.14,14.62a3.76,3.76,0,0,1-2.75.58c-17.08,2.64-33.55-.48-49.85-5.21C486.92,694,479.27,691.3,473,686.07Z" transform="translate(-305.25 -406.13)"/><path class="cls-2" d="M495.06,516.18c16.17-4.35,32.4-7,48.95-2,1.06,1.84,3.23,1.33,4.74,2.24,17.4,5.74,30.44,17,40.31,32.14,1.83,2.81,4.6,5.45,3.24,9.42a1.92,1.92,0,0,1-1.36.56,2.88,2.88,0,0,1-1.86-1.17c-4.07-7.17-19-7.74-27.21-3a13.19,13.19,0,0,0-2.79,2c-3.62,4.24-3.62,4.66,0,7.81,2.84.8,4.61-1.37,6.73-2.47,5.84-3,16-.69,19.76,4.6.87,1.21.72,2.1-.55,2.84a8.05,8.05,0,0,1-3.44.34H489.06a7.68,7.68,0,0,1-2.94-.28c-2.45-1.42-1-2.73.25-3.81,6.77-5.7,19.56-10.45,29.75-5.23.73.37,1.47.76,2.24,1.06,1.79.72,4.06,2.48,5.44.57,1.68-2.34-.65-4.28-2.27-5.87-7.75-7.64-22.47-9.58-32.49-4.26a45.09,45.09,0,0,0-7.61,4.71c-3,2.47-5.63,5.24-4.19,9.72a2.32,2.32,0,0,1-1.07,3c-3.7.83-7.45.14-10.7.41-1.12.05,0,.82-.39.27-.13-.19,0-.29.4-.29q57.13.06,114.28,0c2.16,0,4.34.23,6.42-.57,2-1.4,5,.11,6.76-2.1,1.19-1.13.55-3.4,2.49-4.06a11.91,11.91,0,0,0,8.75,7.17,2.3,2.3,0,0,1,.74.06c-1.79,1.88-4.09,1-6.13,1q-67.6,0-135.2,0c-1.83,0-3.66.14-5.48.22-2.91-.44-2-2.66-1.56-4.1,3.38-10.4,7.35-20.49,14.29-29.22S485.5,521.74,495.06,516.18Z" transform="translate(-305.25 -406.13)"/><path class="cls-1" d="M538.3,573.76c23.65,0,47.3.06,71-.08,3.41,0,4.56.78,4.49,4.37-.23,11.33-.18,22.66,0,34,0,3-.63,4-3.83,4-15.32-.19-30.65-.06-46-.15-7.23,0-10.24-2.61-11.74-9.62-.39-1.79-.68-3.6-1-5.39-.69-3.55-2.3-6.32-6.24-6.79a9.17,9.17,0,0,0-9.66,4.79c-2,3.49-2.93,7.42-3.79,11.31s-3,5.33-7,5.3q-29-.21-58,0c-2.84,0-3.63-.77-3.59-3.6.15-11.49.2-23,0-34.48-.06-3.32,1.16-3.71,4-3.7C490.67,573.8,514.49,573.76,538.3,573.76Z" transform="translate(-305.25 -406.13)"/><path class="cls-84" d="M495.06,516.18c-4,4.92-9.7,7.92-14.25,12.28-11.66,11.17-19.07,24.75-23.5,40.11a2.07,2.07,0,0,0,.8,2.61c-3.62,1.37-7.4.74-11.12.86a106.37,106.37,0,0,1,23.33-41.9c7.35-5.09,14.44-10.6,22.81-14Z" transform="translate(-305.25 -406.13)"/><path class="cls-85" d="M442.34,585.88l-5.28-.94c-.68-7,.44-8.51,7-9.33,4.1-.52,8.23-.81,12.32-1.42,2.65-.4,3.72,0,3.76,3.15.11,10.37.26,10.33-9.92,9.06C447.63,586.08,445,586.05,442.34,585.88Z" transform="translate(-305.25 -406.13)"/><path class="cls-86" d="M533,614.91c1.24-4.62,1.92-9.41,3.93-13.81,1.44-3.14,3.78-5.12,7.36-4.87s4,3.39,4.72,6.11q1,3.85,2,7.71c-.06,2.11-1.58,1.27-2.42,1-4.82-1.53-9-.86-12.54,3C535.35,614.82,534.33,615.57,533,614.91Z" transform="translate(-305.25 -406.13)"/><path class="cls-87" d="M533,614.91c4.85-5.86,11-7.15,18-4.86a5.7,5.7,0,0,1,1.94,4c.33.92-.18,1.3-1,1.52-3.6-.78-6.48-4.83-10.8-2.38-4.45,2.68-5.8,5.68-4.33,9.64,1.55,4.16,4.49,5.41,10.54,4.47,2.26-.76,3.49-2.58,4.61-4.5,1-1.54.7-3.17.33-4.81a3.31,3.31,0,0,1,.15-1.33c1.17-1.56,1.88-.53,2.61.46,1.92,9-6.13,17.1-15.18,13.84-5.24-1.88-7.19-5.89-7-14.75C533,615.76,533,615.34,533,614.91Z" transform="translate(-305.25 -406.13)"/><path class="cls-88" d="M440,572c2.83-7.14,4.5-14.86,10.43-20.55-1.52,7-6.09,13.16-6.49,20.53C442.65,572.73,441.34,573.9,440,572Z" transform="translate(-305.25 -406.13)"/><path class="cls-1" d="M619,583.27c0,2.47,0,4.94,0,7.41,0,.8.05,1.78-1.11,1.8a1.39,1.39,0,0,1-1.47-1.56c0-5.11,0-10.22,0-15.33,0-.91.42-1.59,1.46-1.54s1.07,1,1.08,1.8C619.05,578.32,619,580.79,619,583.27Z" transform="translate(-305.25 -406.13)"/><path class="cls-89" d="M555.14,617.1c-.74-.15-1.51-1.1-2.21.06-1.48-.13-1.62-.94-1-2.09l1.1-1a6.76,6.76,0,0,1,3,2.9A2.21,2.21,0,0,1,555.14,617.1Z" transform="translate(-305.25 -406.13)"/><path class="cls-1" d="M491.06,512c.12,2.36-2.31,1.76-3.29,2.85-2.4-1.09-2.69-3.39-3.21-5.57C480,489.87,473.24,471.07,467.41,452a96.87,96.87,0,0,0-8.52-19.11,29,29,0,0,0-13.66-12.68c-9-4-17.05.53-19,10.18-1.41,6.95-.4,13.51,1.48,20.14,4.06,14.35,12.18,26.48,20.62,38.5,7.26,10.34,14.91,20.41,21.9,30.94,2.67,4,2.08,5.5-2.23,6.19-14.05-15.17-25.28-32.47-37.18-49.27a88.19,88.19,0,0,1-15.44-39c-1.35-9.37,5.2-23.15,13.23-27.42,7.81-4.15,23.43-1.16,30.76,5.89,5.73,5.51,9.66,12.15,12.73,19.45,8.79,20.85,12.59,43,16.83,65Q490,506.42,491.06,512Z" transform="translate(-305.25 -406.13)"/><path class="cls-65" d="M468,526.16c3.7-.39,4-1.75,1.84-4.75-10.61-14.91-21.27-29.79-31.48-45-8-11.86-13.54-24.78-14-39.41,0-.33,0-.67,0-1,.5-6.92,1-14.1,8.41-17.37,7.71-3.4,14.22.11,20.16,4.92,8.32,6.75,11.71,16.56,14.92,26.07,6.59,19.52,13.09,39.09,18.06,59.12.51,2.08,1.28,4.09,1.93,6.13.83.61.56,1-.25,1.33-2.2.82-1.13-2-2.44-2.18-2.14-.71-2.33-2.7-2.74-4.42-4.28-17.67-10.92-34.62-15.8-52.11A99.84,99.84,0,0,0,457.11,435,28.74,28.74,0,0,0,443,422.12c-7.53-1.93-13,1.51-14.31,9.34a34.66,34.66,0,0,0,.3,13.87,92.59,92.59,0,0,0,13.06,30c10.36,15.44,21.45,30.36,32,45.65a14.07,14.07,0,0,1,.89,1.78c-.93,2.26-2.34,4-4.94,4.32Z" transform="translate(-305.25 -406.13)"/><path class="cls-90" d="M456.79,542.41a7.14,7.14,0,0,1-1.11,1.21c-.17.12-.66-.2-1-.32a12.18,12.18,0,0,1,1.12-1.43C456.16,541.54,456.6,541.55,456.79,542.41Z" transform="translate(-305.25 -406.13)"/><path class="cls-62" d="M543.94,702.86l2.09-.94c3.75-1.32,7.46-2.78,11.29-3.82,1.84-.5,3.8-1.52,5.67,0V699l-1,1a5.88,5.88,0,0,0-5,2c-3.47-.24-6.72.92-10,1.59C545.71,703.85,544.69,704.1,543.94,702.86Z" transform="translate(-305.25 -406.13)"/><path class="cls-1" d="M617.7,439.17l6.1,2.94c6.72,4.7,8.72,11.84,9.67,19.36.8,6.32,3.56,11.56,7.57,16.37,3,3.53,3.23,8.91.24,12.14-6.94,7.47-12.77,11-23.84,7.58-.77-.24-1.57-.38-2.35-.56a42.61,42.61,0,0,1-10-9.16c-2.43-1.19-3.24-3.62-4.42-5.76-1.47-3-.55-6.36-1.4-9.46a12.39,12.39,0,0,1-.38-2.09,15.73,15.73,0,0,0-.6-3.33,8.84,8.84,0,0,1-.31-1.33,9.31,9.31,0,0,0-2.47-6.09c-.88-1-1.7-2-2.6-3-2-1.91-4-2.8-6.17-.21a31.07,31.07,0,0,0-4.05,4.06,9,9,0,0,0-1.67,4,12.92,12.92,0,0,1-2.54,4.64,7,7,0,0,0-2.4,5.09,9.27,9.27,0,0,1-2.37,4.83,11.73,11.73,0,0,0-2.94,3.37c-1,1.89-1.66,3.95-2.69,5.82-.48,1-.95,1.92-1.42,2.89-.92,1.69-1.74,3.43-2.83,5a16.35,16.35,0,0,0-1.2,2.22c-.76,1.78-1.22,3.66-1.91,5.47-.62,1.39-1.31,2.76-2,4.14a4.55,4.55,0,0,1-1.71,2c-1,2.13-1.62,4.94-5,3,.2-6.71,3.94-12.26,6.25-18.22A304.68,304.68,0,0,1,574.16,460c4-7.37,8.54-14.28,15.83-18.89l9.35-3.84C605.66,436,611.61,438.31,617.7,439.17Z" transform="translate(-305.25 -406.13)"/><path class="cls-91" d="M592,557.75c-1.78-7.74-7.16-13.31-12-19-8.58-10.16-19.53-17.12-32-21.69-.18-1,0-1.56,1.15-1.1,5.62,1.17,10.45,4.31,15.73,6.34A2.63,2.63,0,0,1,568,524l5,3.12c13.78,9.5,22.7,22.82,29.59,37.71a41.29,41.29,0,0,1,1.64,5.16c-5.76,1.21-8.86-1-8.9-7C593.11,561.9,592.31,560,592,557.75Z" transform="translate(-305.25 -406.13)"/><path class="cls-92" d="M549.19,515.92,548,517c-1.29-1-3.78-.35-4-2.84a2.43,2.43,0,0,1,.93-.11Z" transform="translate(-305.25 -406.13)"/><path class="cls-93" d="M573,478.48c.65-1.43,1.31-2.85,2-4.28,1.32-1.61,1.49-3.87,3-5.35-.42-1.89.79-3.05,1.93-4.23.59-1.76,2-3,2.75-4.69a21.77,21.77,0,0,1,3.64-3.41c1.36-.71,2.69-1.63,4.3-.59,3.57,3.37,4.25,8,4.47,12.39a75,75,0,0,0,3.71,20.54c0,1.47-.62,2.81-.82,4.25l0-.08a7.29,7.29,0,0,0-2.7,2.41c-.67,1.28-1.59,2.4-2.34,3.62l0-.07c-1.28,1.1-1.79,2.77-2.93,4-1.88,2.46-5,3.86-6.11,7-4.84,1.21-6.88,5.77-10.27,8.71-1.74,1.51-3.28,2.67-5.63,2.27l-.61-.08c-1.24-.5-1.47-1.94-2.48-2.65l-.44-.19h-.48c-1.48,0-1.15-2.85-3.16-2-2.35-.31-4.31-.93-3.09-4a6.12,6.12,0,0,1,.57-3.18c.74-1.59,1.32-3.23,2.07-4.81.25-1.53,1.11-2.83,1.59-4.28.47-1,1-1.94,1.38-2.94a55.59,55.59,0,0,0,3.1-5.67c.37-.8.69-1.62,1.11-2.4a56.29,56.29,0,0,0,2.88-6.08C571.4,481.29,572.21,479.89,573,478.48Z" transform="translate(-305.25 -406.13)"/><path class="cls-94" d="M604.11,491.08l-2,2.1L599.92,491a2.83,2.83,0,0,1-.69-1.27,2.78,2.78,0,0,1,.63-2.07c1.91-1.13,3.71-1.89,4.31,1.31Z" transform="translate(-305.25 -406.13)"/><path class="cls-95" d="M590.09,503c-.42-2.35,1.29-3.14,2.93-4C592.77,500.85,592.51,502.7,590.09,503Z" transform="translate(-305.25 -406.13)"/><path class="cls-96" d="M593,499.06a4.49,4.49,0,0,1,2-3.9.92.92,0,0,1,.68.86A3.83,3.83,0,0,1,593,499.06Z" transform="translate(-305.25 -406.13)"/><path class="cls-97" d="M600.08,489.5c-.05.51-.11,1-.16,1.52L598,493.11c-1.86-1-.36-2.06,0-3.09A2.06,2.06,0,0,1,600.08,489.5Z" transform="translate(-305.25 -406.13)"/><path class="cls-98" d="M595.69,496l-.68-.86c.59-1.3.88-3,3-2.13Z" transform="translate(-305.25 -406.13)"/><path class="cls-4" d="M586.93,673.1a7.09,7.09,0,0,1,1.71-4.07c9-11.7,12.13-25.51,14.29-39.65.47-3.09,1.55-6.14,1-9.34-.33-.23-.43-.45-.31-.65s.25-.29.37-.29c2.82.51,7.8-2.91,7.13,3.93-.91,5.19-1.54,10.45-2.78,15.56-2.25,9.27-3.94,18.74-8.41,27.34l-6,9a2.57,2.57,0,0,1-1.28.84C590.48,675.42,587.85,676.11,586.93,673.1Z" transform="translate(-305.25 -406.13)"/><path class="cls-99" d="M606.91,659.18c0,1.27,0,2.54,0,3.81C604.43,662,604.44,661.9,606.91,659.18Z" transform="translate(-305.25 -406.13)"/><path class="cls-93" d="M443.12,421c9.45,3.24,14.34,10.68,18.1,19.31,8.38,19.23,13.19,39.63,19.75,59.46,1.55,4.71,2.75,9.54,4.11,14.32-.21,4.06-3.95,4.64-6.46,5.32-1.53.42-1.26,1.9-2.44,1.92-1.82.32-2.74-.9-3.55-2.18-11.91-18.58-26.06-35.72-35.52-55.88-4.47-9.51-6.88-19.36-6.39-29.9a19.8,19.8,0,0,1,2.19-8.62C435.2,420.43,438.86,419.87,443.12,421Z" transform="translate(-305.25 -406.13)"/><path class="cls-100" d="M443.12,421c-7.52.22-10.78,3.59-11.21,12a59.16,59.16,0,0,0,5.83,28.51c7.48,15.87,17.31,30.3,27.7,44.34,3.74,5.05,6,11.11,10.74,15.44l-1.25,1.44c-2-.13-2.58-2-3.47-3.25-10.49-15-21.13-29.79-31.25-45C432.48,462.9,427.06,450.29,427,436a20.88,20.88,0,0,1,1.78-9.2C431.59,420.75,436.51,418.76,443.12,421Z" transform="translate(-305.25 -406.13)"/><path class="cls-101" d="M586.93,673.1l6,2c.15,2.52-2.23.64-2.93,1.69l-.45.11h-1.19c-7.9-2.34-15.77-4.78-23.71-7a13.69,13.69,0,0,0-7.29-.26,3.23,3.23,0,0,1-1.36-.35c-1.68-3.09-4.93-3.45-7.8-4.45-1.83-.64-3.81-.87-5.49-1.94-1-.83-2.81-.87-2.68-2.78l13.71-.24c2.12,0,4.51-1.72,6.19,1l-4.68.23c-.67,1.15-3.28-1-3,1.78Z" transform="translate(-305.25 -406.13)"/><path class="cls-102" d="M586.85,686c-1.05,0-2.19.16-2.88-1,.24-2,.58-3.92,2.16-5.36a1.83,1.83,0,0,1,1.4.27C587.3,682,587.08,684,586.85,686Z" transform="translate(-305.25 -406.13)"/><path class="cls-103" d="M587.53,680l-1.45,0c-.34-2.26-.09-4,2.91-3l.1,0C588.76,678.05,588.58,679.24,587.53,680Z" transform="translate(-305.25 -406.13)"/><path class="cls-104" d="M590,676.84l2.93-1.69,1-.24c0,.64.05,1.28.07,1.92Z" transform="translate(-305.25 -406.13)"/><path class="cls-105" d="M589,677a3.39,3.39,0,0,0-2.91,3c-1.29,1.44,1,4.37-2.11,5.05l-2.93-.25-.71-.18c-6.82-4-14-7.4-21-11-1.61-.83-4.67-1.49-2-4.45,1.38-.79,2.51-2,4.45-1.41,8.62,2.66,17.29,5.19,25.91,7.84C588.2,675.75,588.55,676.51,589,677Z" transform="translate(-305.25 -406.13)"/><path class="cls-106" d="M563,698.13c-5.78.68-10.92,4.24-17,3.79,6-4.57,13.61-6.34,19.46-11.18,3.14-2.6,7-4.28,9.49-7.71,2.68-1.36,4.18,1,6.13,1.94l-.07-.15c.76,1.74.66,2.93-1.2,4.22A74.34,74.34,0,0,1,563,698.13Z" transform="translate(-305.25 -406.13)"/><path class="cls-107" d="M568,524l-3.07-1.74.06-2.21c1.33-.66,2.07.63,3.12.93l0-.06A3.13,3.13,0,0,1,568,524Z" transform="translate(-305.25 -406.13)"/><path d="M559,509.07,557.82,512l-.81-1.87c.19-.76-.15-1.74.9-2.14C558.85,507.76,559.33,508,559,509.07Z" transform="translate(-305.25 -406.13)"/><path class="cls-5" d="M568.1,521l-3.12-.93v-1.86C567.35,517.64,567,520.12,568.1,521Z" transform="translate(-305.25 -406.13)"/><path class="cls-108" d="M560.91,516c3.27-2.85,1.23,2.71,3.16,2C562.43,518.26,562,516.62,560.91,516Z" transform="translate(-305.25 -406.13)"/><path class="cls-109" d="M604,619.1a7.42,7.42,0,0,1-.06.94c-11.25,0-22.5,0-33.75,0-1.74,0-3.68.65-5.18-.91Z" transform="translate(-305.25 -406.13)"/><path class="cls-110" d="M604.17,489c-1-2.28-2.59-1.52-4.18-.93-1.28-1.67-.33-3.27.12-4.89.36-.68.8-1.24,1.7-1.08,1.09,1.91,2.17,3.83,3.26,5.75Z" transform="translate(-305.25 -406.13)"/><path class="cls-111" d="M498.85,753.2l4.09,2c.12,1-.17,1.45-1.22,1-5.56-1-11.08-1.94-16.74-.41-3.72,1-6.7,2.79-8.58,6.22-7.28,13.25-18.12,23.19-30,32.17-.94.72-2.29,3.48-3.2-.12,11-11,23-21.13,31.28-34.66,4.4-7.16,11.9-7.71,19.46-7.13A43.72,43.72,0,0,1,498.85,753.2Z" transform="translate(-305.25 -406.13)"/><path class="cls-112" d="M515.94,786a7.48,7.48,0,0,1,.12-8A9.54,9.54,0,0,1,515.94,786Z" transform="translate(-305.25 -406.13)"/><path class="cls-113" d="M501.72,756.19l1.22-1,5.17,2.86C505.34,759.64,503.81,756.93,501.72,756.19Z" transform="translate(-305.25 -406.13)"/><path class="cls-114" d="M442.12,796.13a4,4,0,0,1-2.8,3.38C439.21,797.62,440.37,797.14,442.12,796.13Z" transform="translate(-305.25 -406.13)"/><path class="cls-115" d="M496,700.94c12.62,4.49,25.61,6.74,39,5.79,2.49-.18,3.37.4,3,2.82a2.27,2.27,0,0,1,.18,1.31,17.25,17.25,0,0,1-1.56,4.44,17.62,17.62,0,0,1-3.22,4.45,19.54,19.54,0,0,1-6.64,4,6.79,6.79,0,0,1-4.25-.07,7.82,7.82,0,0,1-1.22-.63c-2.06-1.29-4.16-.93-6.28-.15a11.31,11.31,0,0,1-4.08,1.07c-2.48-.11-4.56-1.6-7-2a11.39,11.39,0,0,1-5.75-5.39,44,44,0,0,0-2.22-5c-.84-1.86-1.82-3.64-2.68-5.49a10.35,10.35,0,0,1-.59-2C492.52,701.64,493.21,700.18,496,700.94Z" transform="translate(-305.25 -406.13)"/><path class="cls-116" d="M538.07,709.44l-.06.11c2.16-1,3.08-4,6.22-3.51,1.27.2,1.64.66,1.65,1.76-1,4.17-3.54,7.87-3.83,12.27-4.09,1.91-5.65,6.39-9.13,8.92-9.62,5.36-19.27,3.32-28.93.11L502,728q-2.44-1.62-4.87-3.26c-1.71-1.91-3.41-3.83-5.11-5.74a5.4,5.4,0,0,0-2-3L487,710l-1.2-6-.91-4,.26-3.41,6.52,2.53c2.07,1.23.16,4.21,2.37,5.38a5.63,5.63,0,0,0-.33.76c0,.13.09.29.14.44a24.62,24.62,0,0,0,2.55,6.11,17.53,17.53,0,0,0,2.58,4.4,9.18,9.18,0,0,0,4.86,4.77,29.16,29.16,0,0,0,6.67,3c1.85,0,3.61.67,5.45.7.47,0,.93,0,1.39,0a20.61,20.61,0,0,0,6.17-.42c1.08-.32,2.25-.17,3.29-.65a26.27,26.27,0,0,0,6.57-4.08,20.07,20.07,0,0,0,3.2-4.69A13.24,13.24,0,0,0,538.07,709.44Z" transform="translate(-305.25 -406.13)"/><path class="cls-117" d="M494.07,704.53c-2.36-1.1-1.55-3.6-2.37-5.38L494,700l2,1C494,701.4,491.51,701.61,494.07,704.53Z" transform="translate(-305.25 -406.13)"/><path class="cls-118" d="M581.11,685c-2.39.45-3.9-1.87-6.13-1.94q-15.81-8.07-31.62-16.15c-1.59-.82-3.12-1.77-4.69-2.66a2.16,2.16,0,0,1,1.38-1.55c5.85.84,10.28,5.27,16,6.36l1.21.12c-1,2.68,1.37,3,2.83,3.7,6.15,3.14,12.37,6.13,18.5,9.31C579.69,682.71,582,682.6,581.11,685Z" transform="translate(-305.25 -406.13)"/><path class="cls-119" d="M540,660.16l3,1.69c-.66,1-1.66.84-2.64.71-2.17.45-4.14-1.14-6.32-.63a194.53,194.53,0,0,1-34-3c.49-2.37,2.09-1.07,3.31-1C515.59,658.56,527.76,660.24,540,660.16Z" transform="translate(-305.25 -406.13)"/><path class="cls-120" d="M528.68,619.76H462.12v-.5h66.71Z" transform="translate(-305.25 -406.13)"/><path class="cls-121" d="M559.93,660.91c-1.84-1.69-4.16-.44-6.19-1,3.18-1.27,6.53-.86,9.82-1,1.25,0,2.89-1.39,3.39,1C564.59,660.07,562.39,661.44,559.93,660.91Z" transform="translate(-305.25 -406.13)"/><path class="cls-122" d="M534,661.93c2-1.78,4-.75,6,.11q.47.33.3.63c-.11.19-.22.29-.33.29l-1.35,1.26C536.85,664,535.49,662.86,534,661.93Z" transform="translate(-305.25 -406.13)"/><path class="cls-123" d="M503.36,657.9c-1.14.21-2.45-.14-3.31,1a6.43,6.43,0,0,1-4.59-2A16.52,16.52,0,0,1,503.36,657.9Z" transform="translate(-305.25 -406.13)"/><path class="cls-124" d="M567,659.93c-.87-1.18-2.21-.83-3.39-1,2.2-1.47,5.14-.36,7.27-2.08,1,.49,1.75,1.12,1.11,2.39Z" transform="translate(-305.25 -406.13)"/><path class="cls-125" d="M492.5,650.87l1.32,4.81C490.51,654.08,490.51,654.08,492.5,650.87Z" transform="translate(-305.25 -406.13)"/><path class="cls-126" d="M571.94,659.21l-1.11-2.39c-.34-.73-1.15-1.61-.47-2.25s1.39.07,1.81.84a5.19,5.19,0,0,1,.8,3.79c0,.13-.23.34-.3.32A4.21,4.21,0,0,1,571.94,659.21Z" transform="translate(-305.25 -406.13)"/><path class="cls-127" d="M537,669.06l5.43.83c-2.45,1.63-4,1.2-5.42,0-.22-.17-.29-.34-.22-.52S536.91,669.06,537,669.06Z" transform="translate(-305.25 -406.13)"/><path class="cls-121" d="M552.26,662.92c-.58-.23-1.5-.32-1.64-.71-.27-.72.42-1.12,1.15-1.13,1.16,0,2.32,0,3.47.06C554.43,662,552.7,661.4,552.26,662.92Z" transform="translate(-305.25 -406.13)"/><path class="cls-128" d="M537,669.06c0,.26,0,.52,0,.78-1.26-.12-2.54-.2-3-2A2.32,2.32,0,0,1,537,669.06Z" transform="translate(-305.25 -406.13)"/><path class="cls-129" d="M477.14,568c-3.41-4-1.66-7.38,1.24-10.56,10.68-11.69,30.27-13.37,42.73-3.68a11.42,11.42,0,0,1,2.15,2.07c1.56,2.09,4,4.31,1.85,7s-4.84,1.12-7.18-.21c-10-5.68-19.44-3.86-28.54,2.19-1.51,1-2.93,2.15-4.4,3.23C482.37,569.53,479.74,570.55,477.14,568Z" transform="translate(-305.25 -406.13)"/><path class="cls-85" d="M589.94,557.06c.33.33.66.67,1,1,2.52,2.46,3.76,5.28,2.55,8.82-2.22,2.27-4.45,1.61-6.64,0-2-1.48-4.09-2.81-6.22-4.08-5.59-3.34-11.11-4.12-16.68,0a7,7,0,0,1-3.23,1.23c-5.23-1.3-5.57-2.51-2.11-7.43C569,549.39,580.82,549.56,589.94,557.06Z" transform="translate(-305.25 -406.13)"/><path class="cls-130" d="M477.14,568c2.61,1.46,5.23.38,7.85.06,1.8,1.12,3.8,1,5.8,1h89.26c2,0,4,.2,5.8-1,1.24-.62,1.76.1,2.11,1.12-1.07,1.1-2.46.83-3.76.83H463.42c-.79,0-1.58-.13-3.51-.31C466.33,568.07,472,570.38,477.14,568Z" transform="translate(-305.25 -406.13)"/><path class="cls-131" d="M588,569.19l-2.11-1.12c-2.29-1.58-4.49-3.32-6.9-4.71-4.63-2.67-9.22-3.08-13.88.29-2,1.46-4.26,3.46-7.12,1.45-.27-2.69,2.25-.87,3-1.87,10.36-6.21,15.13-5.93,24.8,1.5,2.1,1.62,4,3.68,7.09,2.25.82-.34,1.17-.12.95.79C592.34,570.19,590.17,569.76,588,569.19Z" transform="translate(-305.25 -406.13)"/><path class="cls-132" d="M589.94,557.06c-3.53-.34-5.76-3.5-9.35-4-7.67-1.13-14.75,0-21.32,4.13-1.16.34-1.56-.14-1.36-1.26,7.38-6.67,20.05-8.09,28.23-3.07C587.78,553.84,589.82,554.62,589.94,557.06Z" transform="translate(-305.25 -406.13)"/><path class="cls-133" d="M557.91,555.91l1.36,1.26c-1.07,2.48-5,5.76,1.7,6.06-1,.62-2,1.24-3,1.87C553.85,561.86,553.84,560.26,557.91,555.91Z" transform="translate(-305.25 -406.13)"/><path class="cls-134" d="M593.81,567.77l-.95-.79c.84-3.29-1.14-6-1.92-8.92l1.1-.31c1.79,1.3,2.42,3.31,3.24,5.21C594.75,564.55,596.28,566.77,593.81,567.77Z" transform="translate(-305.25 -406.13)"/><path class="cls-135" d="M500.05,580.09c8.48,0,17,.14,25.45-.07,3.3-.08,4,1,4.28,4.25.61,9-3.78,16.29-7.5,23.86-.93,1.91-2.37,2-4.1,2-14.48,0-28.95-.05-43.42,0-2.66,0-3.95-.62-3.91-3.6.11-7.82.09-15.65-.15-23.46-.1-3.44,1.31-4.06,4.41-4,8.31.21,16.63.07,24.94.07Z" transform="translate(-305.25 -406.13)"/><path class="cls-136" d="M581.48,579.71c7.33,0,14.66.09,22,0,2.77,0,3.82.86,3.78,3.73-.1,7.66,0,15.33.16,23,.06,2.75-.77,3.85-3.69,3.81-12.82-.19-25.65-.19-38.48-.26-1.31,0-2.77.25-3.58-1.17-4.67-8.19-8.29-16.63-6.68-26.44.42-2.52,2-2.63,4-2.63C566.48,579.73,574,579.71,581.48,579.71Z" transform="translate(-305.25 -406.13)"/><path class="cls-116" d="M551.89,615.07l1,2.09a.78.78,0,0,0,.19.88,6.88,6.88,0,0,1-.11,5c-1.45,1.88-2.13,4.53-5,5.06-4.22,1.13-7.37-.19-9.38-4.08-2.21-4.27-1.45-8,2.38-11.88C545.55,609.88,548.83,612.08,551.89,615.07Z" transform="translate(-305.25 -406.13)"/><path class="cls-137" d="M541.06,612.13c-.58,2.22-2.27,4-2.46,6.39-.43,5.34,2.95,8.86,9.46,9.57-5.88,2.25-10.43.52-12.4-4.71C533.85,618.57,535.91,614.3,541.06,612.13Z" transform="translate(-305.25 -406.13)"/><path class="cls-89" d="M553,623l.11-5A3.49,3.49,0,0,1,553,623Z" transform="translate(-305.25 -406.13)"/><path class="cls-138" d="M600.75,483.34c.61,1.71-.67,3.12-.76,4.72l.09,1.45c-.71.16-1.41.34-2.12.51-3.77-7.95-3.63-16.64-4.73-25.09a19.8,19.8,0,0,0-3.38-8.66c1.15-1.63,2.57-.15,3.85-.32l2.3,2.79c1.8,2.19,1.36,5.31,3.13,7.51l-.18.22c.61,1.65-.36,3.45.49,5.07a19,19,0,0,1,.53,6C599.74,479.51,600.57,481.38,600.75,483.34Z" transform="translate(-305.25 -406.13)"/><path class="cls-139" d="M593.7,456c-1.17,1.4-2.61-.23-3.85.32l-3.79,1c-.53-.37-.57-.78-.1-1.23C588.5,450.83,591.1,453.91,593.7,456Z" transform="translate(-305.25 -406.13)"/><path class="cls-140" d="M600.75,483.34A6.51,6.51,0,0,1,599,478c1.21-1.91-.41-4.31,1.05-6.18.58,3.42,1.15,6.85,1.72,10.27Z" transform="translate(-305.25 -406.13)"/><path class="cls-7" d="M571.15,483.29,568,489.12a1.41,1.41,0,0,1-.8-1.05l2.88-6C571.06,482,571.58,482.2,571.15,483.29Z" transform="translate(-305.25 -406.13)"/><path class="cls-141" d="M599.13,466.25c-3.39-1.52-2.42-4.86-3.13-7.51C598.74,460.54,598.8,463.45,599.13,466.25Z" transform="translate(-305.25 -406.13)"/><path class="cls-142" d="M567,491.07a16.05,16.05,0,0,1-3,6.05,1.2,1.2,0,0,1-1-1.05l2.83-5.06A.75.75,0,0,1,567,491.07Z" transform="translate(-305.25 -406.13)"/><path class="cls-143" d="M578,468.85c-.4,2.13-.24,4.58-3,5.35C574.7,471.69,575.42,469.74,578,468.85Z" transform="translate(-305.25 -406.13)"/><path class="cls-144" d="M562.86,500a8.09,8.09,0,0,1-2,4,.78.78,0,0,1-1.15-.05c0-2.21,1.16-4,2.28-5.78C562.64,498.66,562.59,499.41,562.86,500Z" transform="translate(-305.25 -406.13)"/><path class="cls-145" d="M559.75,504l1.15.05a7.42,7.42,0,0,1-1.9,5L557.91,508C558.52,506.66,559.14,505.33,559.75,504Z" transform="translate(-305.25 -406.13)"/><path class="cls-146" d="M600.09,471.82c-.81,2,.57,4.34-1.05,6.18l-.24-6.59c-.43-1.07,0-1.44,1.07-1.35Z" transform="translate(-305.25 -406.13)"/><path class="cls-147" d="M571.15,483.29c-.35-.39-.7-.79-1.06-1.18.61-1.5,1.21-3,2.92-3.63A5.78,5.78,0,0,1,571.15,483.29Z" transform="translate(-305.25 -406.13)"/><path class="cls-148" d="M562.86,500c-.28-.6-.55-1.21-.83-1.81.32-.73-.07-1.78,1-2.14l1,1.05C563.63,498.08,563.24,499.05,562.86,500Z" transform="translate(-305.25 -406.13)"/><path d="M583.36,460.15a9.82,9.82,0,0,1-3.42,4.47c-.31-2,.77-3.31,2-4.56A.85.85,0,0,1,583.36,460.15Z" transform="translate(-305.25 -406.13)"/><path class="cls-149" d="M583.36,460.15l-1.37-.09a6.79,6.79,0,0,1,4-4.05c0,.41.07.82.1,1.23Z" transform="translate(-305.25 -406.13)"/><path class="cls-150" d="M599.87,470.06l-1.07,1.35c-1.48-1.7,0-3.3.15-4.94A4.21,4.21,0,0,1,599.87,470.06Z" transform="translate(-305.25 -406.13)"/><path class="cls-5" d="M567,491.07l-1.16-.06,1.33-2.94.8,1.05A2,2,0,0,1,567,491.07Z" transform="translate(-305.25 -406.13)"/><path class="cls-151" d="M476.15,509c.89-.11,1.06.65,1.26,1.19.14.37,0,1.21-.16,1.25-1.06.24-1.29-.66-1.62-1.38C475.38,509.52,475.64,509.2,476.15,509Z" transform="translate(-305.25 -406.13)"/><path class="cls-152" d="M540,663a2.38,2.38,0,0,1,0-.92l2.94-.19c3.91,1.27,7.78,2.72,11.75,3.76,2.41.63,2.37,1.7,1.35,3.42-1.31,1.78-2.61.52-3.84-.08C548.16,667,544.09,665,540,663Z" transform="translate(-305.25 -406.13)"/><path class="cls-153" d="M516,725.93c-2.12.29-4-.77-6-1.13-.24-.83.2-1.26.91-1.52l4.1-1.15a2.63,2.63,0,0,1,.84.75,4.48,4.48,0,0,1,.72,1.55A1.48,1.48,0,0,1,516,725.93Z" transform="translate(-305.25 -406.13)"/><path class="cls-154" d="M533.93,719.85c-1.91,2.08-3.75,4.27-7,3.8l0,0c1.16-2.65,4.19-2.92,6-4.72C533.81,718.6,534.14,718.91,533.93,719.85Z" transform="translate(-305.25 -406.13)"/><path class="cls-13" d="M510.92,723.28,510,724.8c-2.12-1.15-5.22-.7-6.14-3.79C506.58,720.64,508.53,722.65,510.92,723.28Z" transform="translate(-305.25 -406.13)"/><path class="cls-155" d="M526.88,723.69l0,0c-.44,1.38-1.53,1.52-2.74,1.43a2.58,2.58,0,0,1-1.94.33,1.47,1.47,0,0,1-.74-1l.09-.67.41-.54A8.84,8.84,0,0,1,526.88,723.69Z" transform="translate(-305.25 -406.13)"/><path class="cls-156" d="M495.89,712.22c-1.2-2-3.24-3.74-2-6.49,1.68,1.41,2.31,3.4,3,5.37C496.62,711.56,496.53,712.12,495.89,712.22Z" transform="translate(-305.25 -406.13)"/><path class="cls-157" d="M538.07,709.44c2.17,2.29,0,3.86-.94,5.63a.56.56,0,0,1-1,0A11.26,11.26,0,0,1,538.07,709.44Z" transform="translate(-305.25 -406.13)"/><path class="cls-7" d="M495.89,712.22l.95-1.12c.82,1.68,2.1,3.16,2.17,5.14C496.47,716.06,496.5,713.89,495.89,712.22Z" transform="translate(-305.25 -406.13)"/><path class="cls-158" d="M536.15,715a5.35,5.35,0,0,1,1,0,6.89,6.89,0,0,1-3.2,4.78l-1-.88C533.89,717.58,534.5,715.88,536.15,715Z" transform="translate(-305.25 -406.13)"/><path class="cls-159" d="M515,723.08c0-.31,0-.63,0-1,2.22-2,4.49-1.65,6.8-.18-1.5,1.62-3.53,1.25-5.41,1.44A2.38,2.38,0,0,1,515,723.08Z" transform="translate(-305.25 -406.13)"/><path class="cls-160" d="M516,723c1.71-1.7,3.91-.6,5.84-1,0,.4.11.8.16,1.2l0-.11A4.33,4.33,0,0,1,516,723Z" transform="translate(-305.25 -406.13)"/><path class="cls-161" d="M521.87,723.84l.42,1.21c-1.62,1.08-3.65-.19-5.27.9l-1,0v-1.88C517.92,723.16,519.89,723.44,521.87,723.84Z" transform="translate(-305.25 -406.13)"/><path class="cls-60" d="M517,726c1.52-1.7,3.5-.65,5.26-.9l1.88,0C521.92,726.45,519.45,726.07,517,726Z" transform="translate(-305.25 -406.13)"/><path class="cls-85" d="M523.44,560.48c-.67,2.45-2.14,1.38-3.37.65C516,558.71,511.79,557,507,557a34.14,34.14,0,0,0-20.53,6.52c-2.18,1.6-5.23,4.22-7.37,1.64-2.41-2.9.75-5.41,3-7.31,10.71-9,25-10.24,36.21-3.32A11.61,11.61,0,0,1,523.44,560.48Z" transform="translate(-305.25 -406.13)"/><path class="cls-162" d="M496.54,607.11c-6.14,0-12.3-.14-18.44.06-3.16.1-4.47-.76-4.33-4.15.23-5.64.17-11.3,0-16.95-.1-3,.78-4.12,3.91-4q22.9.63,45.82.93c2.62,0,3.29.93,3.4,3.49.3,7.47-3.85,13.25-6.87,19.47-.84,1.73-2.61,1.15-4,1.16C509.5,607.13,503,607.11,496.54,607.11Z" transform="translate(-305.25 -406.13)"/><path class="cls-76" d="M581.48,582.71c6.16,0,12.32.13,18.48-.05,3.08-.09,4.51.65,4.41,4.1-.17,5.48,0,11,.31,16.47.14,2.95-.7,4.1-3.89,4-11.15-.23-22.3-.26-33.46-.19a4.66,4.66,0,0,1-5-3.13c-2.47-5.44-5.37-10.6-4.65-17,.35-3.08.91-4.4,4.27-4.28C568.49,582.88,575,582.71,581.48,582.71Z" transform="translate(-305.25 -406.13)"/><path class="cls-163" d="M521.87,723.84l-5.88.21-1-1a1.17,1.17,0,0,0,1-.1l6,.06A2.4,2.4,0,0,1,521.87,723.84Z" transform="translate(-305.25 -406.13)"/></svg>