<?xml version="1.0" encoding="utf-8"?>
<!-- Generator: Adobe Illustrator 26.0.1, SVG Export Plug-In . SVG Version: 6.00 Build 0)  -->
<svg version="1.1" id="Layer_1" xmlns="http://www.w3.org/2000/svg" xmlns:xlink="http://www.w3.org/1999/xlink" x="0px" y="0px"
	 viewBox="0 0 340.7 451.9" style="enable-background:new 0 0 340.7 451.9;" xml:space="preserve">
<style type="text/css">
	.st0{fill:#FEFEFE;}
	.st1{fill:#92975B;}
	.st2{fill:#576140;}
	.st3{fill:#BCC070;}
	.st4{fill:#020202;}
	.st5{fill:#060606;}
	.st6{fill:#040404;}
	.st7{fill:#050404;}
	.st8{fill:#FDFDFD;}
	.st9{fill:#C8CDD5;}
	.st10{fill:#10100F;}
	.st11{fill:#050505;}
	.st12{fill:#020203;}
	.st13{fill:#030404;}
	.st14{fill:#060707;}
	.st15{fill:#070708;}
	.st16{fill:#040504;}
	.st17{fill:#040505;}
	.st18{fill:#F3F3F3;}
	.st19{fill:#0D0E0D;}
	.st20{fill:#111213;}
	.st21{fill:#0E0E0D;}
	.st22{fill:#CE3024;}
	.st23{fill:#080A09;}
	.st24{fill:#0F0F0C;}
	.st25{fill:#0D0F0C;}
	.st26{fill:#0F1011;}
	.st27{fill:#0F0E0D;}
	.st28{fill:#131412;}
	.st29{fill:#161819;}
	.st30{fill:#171A1C;}
	.st31{fill:#17191B;}
	.st32{fill:#111517;}
	.st33{fill:#232D34;}
	.st34{fill:#98CBEF;}
	.st35{fill:#0B0D0E;}
	.st36{fill:#283138;}
	.st37{fill:#131517;}
	.st38{fill:#24282B;}
	.st39{fill:#1F2021;}
	.st40{fill:#2C3841;}
	.st41{fill:#252728;}
	.st42{fill:#1F282D;}
	.st43{fill:#1E1110;}
	.st44{fill:#35434D;}
	.st45{fill:#090A0B;}
	.st46{fill:#1A2023;}
	.st47{fill:#191B1D;}
	.st48{fill:#3D3439;}
	.st49{fill:#010101;}
	.st50{fill:#050604;}
	.st51{fill:#090908;}
	.st52{fill:#96A2B2;}
	.st53{fill:#0F0F0E;}
	.st54{fill:#96A2B1;}
	.st55{fill:#121212;}
	.st56{fill:#222222;}
	.st57{fill:#141414;}
	.st58{fill:#1C1C1B;}
	.st59{fill:#282828;}
	.st60{fill:#030303;}
	.st61{fill:#333333;}
	.st62{fill:#100E0C;}
	.st63{fill:#171713;}
	.st64{fill:#535C3D;}
	.st65{fill:#474F34;}
	.st66{fill:#485035;}
	.st67{fill:#393F2A;}
	.st68{fill:#525B3C;}
	.st69{fill:#434B32;}
	.st70{fill:#CD2727;}
	.st71{fill:#CE2727;}
	.st72{fill:#A42021;}
	.st73{fill:#CACFD8;}
	.st74{fill:#030403;}
	.st75{fill:#C4C8D1;}
	.st76{fill:#0B0C08;}
	.st77{fill:#282E33;}
	.st78{fill:#576040;}
	.st79{fill:#FCFCFC;}
	.st80{fill:#91965A;}
	.st81{fill:#080807;}
	.st82{fill:#545E3E;}
	.st83{fill:#111110;}
	.st84{fill:#2C3120;}
	.st85{fill:#BCBF70;}
	.st86{fill:#A6AA64;}
	.st87{fill:#FCD0B3;}
	.st88{fill:#7D8692;}
	.st89{fill:#312E2C;}
	.st90{fill:#010100;}
	.st91{fill:#2F2C2B;}
	.st92{fill:#010000;}
	.st93{fill:#7394AC;}
	.st94{fill:#95847E;}
	.st95{fill:#0C0B09;}
	.st96{fill:#151312;}
	.st97{fill:#422E2B;}
	.st98{fill:#261914;}
	.st99{fill:#FAFAFA;}
	.st100{fill:#ADB168;}
	.st101{fill:#111210;}
	.st102{fill:#171611;}
	.st103{fill:#959A5F;}
	.st104{fill:#0D0C0C;}
	.st105{fill:#495137;}
	.st106{fill:#C3C775;}
	.st107{fill:#454B36;}
	.st108{fill:#3D4331;}
	.st109{fill:#92975A;}
	.st110{fill:#FBFBFB;}
	.st111{fill:#1F2018;}
	.st112{fill:#0A0907;}
	.st113{fill:#0F0F0B;}
	.st114{fill:#979C5E;}
	.st115{fill:#181911;}
	.st116{fill:#040403;}
	.st117{fill:#15150F;}
	.st118{fill:#1B1C14;}
	.st119{fill:#1D1D15;}
	.st120{fill:#12120E;}
	.st121{fill:#353726;}
	.st122{fill:#353626;}
	.st123{fill:#050504;}
	.st124{fill:#969C5E;}
	.st125{fill:#0C0C0A;}
	.st126{fill:#10110E;}
	.st127{fill:#161613;}
	.st128{fill:#282820;}
	.st129{fill:#020304;}
	.st130{fill:#050202;}
	.st131{fill:#95A0AF;}
	.st132{fill:#93827C;}
	.st133{fill:#2B2A29;}
	.st134{fill:#242222;}
	.st135{fill:#323030;}
	.st136{fill:#040302;}
	.st137{fill:#302E2C;}
	.st138{fill:#161412;}
	.st139{fill:#282523;}
	.st140{fill:#070707;}
	.st141{fill:#332F2C;}
	.st142{fill:#020101;}
	.st143{fill:#191715;}
	.st144{fill:#0C0B0A;}
	.st145{fill:#7F695B;}
	.st146{fill:#CC6D35;}
	.st147{fill:#151511;}
	.st148{fill:#23231F;}
	.st149{fill:#0D0D0D;}
	.st150{fill:#232320;}
	.st151{fill:#21211D;}
	.st152{fill:#282824;}
	.st153{fill:#191A0D;}
	.st154{fill:#404349;}
	.st155{fill:#424241;}
	.st156{fill:#233D9E;}
	.st157{fill:#C4CAD1;}
</style>
<path class="st0" d="M275.8,451.9h-93c-3-6-3.2-12.6-4.3-19c-0.1-3.8,2-6.5,4.3-9.2c6.6-7.9,13.2-15.7,19.7-23.7
	c1-1.1,1.8-2.4,2.4-3.7c1.8-3.6,4.6-6.5,6.2-10.2c5.5-12.9,0.9-23.6-7.5-33.5c-2.4-3.3-6-4.5-9.6-5.7c-10.1-3.1-19.5-2.9-26.7,6.3
	c-0.5,0.7-1.3,1-2.1,1c-1.7-0.8-2.3-2.3-2.6-4c-4.1-22.3-8.6-44.6-12.6-66.9c-0.1-0.7-0.1-1.3,0-2c3.4-3.7,8.9-4.6,13.3-2.2
	c4.4,2.6,8.5,5.7,13,8.2c3,1.7,2.5,4.8,3.3,7.4c0.3,1.7,0.5,3.5,0.5,5.3c0,1.4,0.3,2.7,0.8,4c1,2.2,2.2,4.3,3.5,6.3
	c0.7,1.1,1.4,2.2,2.2,3.2c1.6,1.8,2.8,4,4.6,5.6c1.2,1.2,2.7,2.2,4.4,2.8c1.1,0.5,2.1,0.9,3.2,1.4c9.6,4.1,19.2,5.1,28.8,0.2
	c3.4-2.9,6.7-5.9,8.7-10.1c2.3-2.7,3.7-6,4.2-9.6c-0.4-4.5,1.8-6.9,6.2-7.3c1.8-0.2,3.5-0.9,5.3-1.2c2.2,0,4.2-1.1,6.3-1.5
	c9.1,1.3,16.8,5.7,24.5,10.4c15.8,9.7,25.9,23.3,29.9,41.6c1.6,7.3,3.8,14.4,6.8,21.3c0.9,2,1.9,4.3,1.6,6.7
	c-3,4.3-7.8,5.4-12.4,6.6c-8.2,2.1-16.7,2.6-25,1.3c-2.7-0.8-4-2.7-4.5-5.3c-0.6-2.9-0.9-5.9-0.8-8.9c0.1-5.1-0.2-10.2-1.1-15.2
	c-2.5,10-4,20.2-4.5,30.5c-0.7,2-0.6,4.1-0.6,6.2c0,1.4-0.1,2.8-0.4,4.1c-0.9,4.6-0.9,9.4,0.1,14.1c0.5,3.7,0.2,7.5,0.3,11.2
	c-0.1,2,0.1,3.9,0.6,5.8c0.8,6.9,1.8,13.7,3,20.5C276.2,447,277.1,449.5,275.8,451.9z"/>
<path class="st1" d="M140.8,451.9h-53C81,447,80,439.3,78.5,432c-2.5-12.4-3.1-24.9-0.6-37.6c1.3-6.8,1-13.9,3-20.6
	c1.1-2.4,3-2.6,5.4-2.5c10.2,0.3,20,3.2,30,4.6c3,0.4,6,0.4,8.9,1.1c5.8,1.4,6.1,1.9,5,7.8c-1.5,9.4-7.6,15.4-15.3,20.2
	c22.9-10.1,42-24.8,56-45.5c4.2-6.2,9.7-9.3,17.2-8.8c1.5,0.1,3,0,4,1.5c0,0.7,0.3,1.3,0.9,1.6c11.6,7.7,15,21.2,7.6,32.9
	c-4.8,7.5-10,14.8-16.8,20.9c-7.2,6.3-14.4,12.9-19.1,21.5c-2.6,4.7-6.8,7.9-10.8,11.3c-1.3,1.2-2.1,2.8-3.5,4c-2,1.4-3.9,3-5.6,4.7
	C143.5,450.5,142,451,140.8,451.9z"/>
<path class="st1" d="M319.8,451.9h-23c-1-1.3-1.7-2.9-1.9-4.5c-3.8-19-8-37.9-11.8-56.9c-0.5-2.4-1.3-4.9,0.7-7.1
	c1.6-0.9,3.5-1.2,5.3-1c5.8,0.7,11.5-1.3,17.2-0.3c2.2,1.2,2.5,3.3,2.7,5.5c2.5,19.8,6.1,39.5,10.6,59
	C320.1,448.3,321,450.1,319.8,451.9z"/>
<path class="st2" d="M283.8,383.9c1.1,11.5,4.5,22.6,6.5,34s5.5,22.5,6.5,34h-19c-0.9-0.5-1.5-1.3-1.7-2.3c-0.6-5.7-2.3-11.3-2.3-17
	c-0.1-1.9-0.4-3.8-0.8-5.6c-0.1-0.8-0.1-1.6-0.2-2.4c-0.5-2.9-0.1-6-0.9-8.9c-0.2-2.2-0.1-4.5-0.1-6.8c-0.9-4.6,1-9,0.6-13.6
	c0-1.4,0.1-2.8,0.4-4.2c1-2.3,0.2-5.1,1.7-7.3C277.5,381.7,280.7,380.5,283.8,383.9z"/>
<path class="st3" d="M319.8,451.9c-5.6-21.6-9.7-43.5-12-65.7c-0.2-1.1-0.5-2.3-1-3.3c4.3-4.5,7-4.6,9.9-0.6
	c3.2,21.7,9.4,42.8,13.5,64.4c0.3,1.8,1,3.6-0.4,5.2L319.8,451.9z"/>
<path class="st4" d="M81.9,374c-1.5,13.3-4.3,26.5-3.9,40c0.5,13.3,2,26.4,9.8,37.9h-5c-14.5-15.9-13.2-35.2-11.6-54.5
	c0.5-7.6,1.8-15.1,3.6-22.5c1.1-0.7-0.2-3.1,1.6-2.9s1.3,2.1,1.4,3.5c0,0.8,0,1.6-0.1,2.3c-0.3,1.2-0.5,2.5-0.4,3.8
	c-0.3,1-0.5,2-0.5,3.1c-0.5,2.7-1.3,5.3-1,8.1c-1.7,9.5-2,19.2-1,28.8c0.2,1.9-0.3,3.9,0.5,5.7c-0.8-2.7-0.1-5.7-0.9-8.5
	c0-7.4-0.2-14.8,0.8-22.1c1.5-2.8,0.2-6,1.2-8.9c0.4-1.5,0.7-3,0.7-4.6c0.3-1.2,0.5-2.5,0.4-3.7c0.4-1.2,0.5-2.5,0.5-3.7
	c0-1.4,0.8-2.6,2.1-3.1C81,372.4,82.2,372.2,81.9,374z"/>
<path class="st5" d="M315.6,382.1c-0.8-0.7-0.6-2.8-2.7-1.7s-4.2,1.7-6.2,2.5c-7.6,0.9-15.3,1.2-23,1c-3-1.3-5.9-0.5-8.8,0.1
	c-2.3,2.1-0.5,4.8-1,7.1l-0.2,3.8c-2.3-0.2-1-1.8-1.6-2.9c1.9,5.6-0.9,11.2,0.6,16.9l0.1,6.9c1.2,3-0.4,6.2,0.9,9.2l0.1,1.8
	c1,1.6-0.2,3.6,0.9,5.2c0.5,6.7,1.5,13.4,3.1,20h-2c-1.8-9.1-3.8-18.1-4.1-27.4c-0.8-1.8,0.1-3.8-0.8-5.6c-0.6-3.8-0.6-7.6-0.2-11.4
	c-0.7-5-0.7-10.1,0-15.1l0.2-3.5c1-2.1-0.1-4.5,0.8-6.5c-0.7-5.2,0.6-10.3,1.2-15.3c0.9-6.7,3-13.1,3.7-20.1c0.4,1.3,0.8,2.7,1.2,4
	c1.2,5.1-0.1,10.1-0.9,15.1c-0.2,1.6-0.5,3.3-0.7,4.9c-0.9,8.3-0.9,8.3,7.6,9.8c11.3,0.5,22.5,0.6,33-4.8c1.5-0.8,3.2-1,3.9-2.8
	c-0.4-1.1-0.9-2.2,1-2.2c2,2.6,1.6,4.8-1.4,6.3c-1.1,0.6-2.4,1-2.4,2.7C317.5,380.9,316.7,381.7,315.6,382.1z"/>
<path class="st6" d="M315.6,382.1c0.1-1.4,0.8-2.2,2.2-2.3c1.8,4.9,1.8,10,3,15c4.3,19,8.6,38,13,57h-4c-2.6-12-4.9-24.1-7.8-36
	C319.1,404.8,317,393.5,315.6,382.1z"/>
<path class="st7" d="M179.6,432c0.6,6.7,3,13.1,3.1,19.9h-3c-1.4-3.2-3.9-4.6-7.3-5.1c-3.6-0.5-7.2-1.4-10.6-2.8
	c-2-1-4.2-1.4-6.3-2.3c-0.9-3.2,0-3.9,4.5-4c4,1.2,8,2.3,12,3.3c3.3,0.8,4.3-0.3,3.6-3.5c-0.3-1.5-0.4-3-0.7-4.4
	c-1.1-5.5-1.1-5.5-6.3-3.7c-1.7-0.6-1.1-1.8-0.5-2.7c1.3-1.9,2.9-3.6,4.7-5c3.1-2.6,4.6-0.8,5.8,2.1
	C180.6,426.3,178.6,429.3,179.6,432z"/>
<path class="st8" d="M161.9,442.8c4.5,1.1,8.9,2.5,13.5,3.1c3.8,0.6,5,2.4,4.4,5.9h-18c-1.9-1.7-2.9-4.1-2.8-6.6
	C158.9,443.4,159.4,441.9,161.9,442.8z"/>
<path class="st9" d="M161.9,442.8c-1.9,0.3-2.3,1.3-1.7,3.1c0.6,2,1,4,1.5,6h-14c-1.8-2.4,0-4,1.4-5.5c1.2-1.3,2-3,3.5-4
	C155.4,440.2,159.3,440.4,161.9,442.8L161.9,442.8z"/>
<path class="st10" d="M153.8,442.7c-1.9,3.1-5.5,5.2-6,9.2h-7c0.5-1.3,1.6-2.4,2.9-3c2.6-1,4.7-2.8,5.9-5.3l3.2-3.5
	C154.1,440.6,154.8,441.3,153.8,442.7z"/>
<path d="M150.7,280.9c4,21,8,42.1,12.2,63.1c0.6,3.3,0.1,7,2.8,9.7c0.4,3.2,0,5.7-4.1,5.4c-1-6.7-5.6-8.6-11.7-8.8
	c-2.6-0.2-5.2-0.7-7.7-1.3c-5.1-1.3-10.1-3.3-14.8-5.8c1.2,8.1,3.1,15.6,4.8,23.2c0.5,2.2,2.3,3.8,4.4,4.3c3.6,1,7.2,2.8,11.1,1.4
	c3.7-2.5,5.1-7.6,10.1-8.6c1.9,0.8,1.3,2.2,0.6,3.2c-4,5.2-8.6,9.9-13.7,14c-0.6,0.6-1.5,0.6-2.1,0c-0.2-0.2-0.3-0.3-0.3-0.5
	c-0.5-1.2-1-2.5-2.4-3c-1.7-0.6-3.5-2.1-5.1-1.1c-1.9,1.2-0.4,3.3-0.2,5s0.5,3.2,0.7,4.9c0.1,2.4,0.5,5.1-3.4,3.1
	c-1.9-5.5-1.6-11.6-4.4-16.9c-3.1-8.5-4-17.5-5.9-26.2c-3.4-15.4-6.6-30.9-9.6-46.4c-0.4-1.6-0.5-3.3-0.6-4.9
	c-0.3-2.8,0.4-5.8-0.5-8.6c-4-18.9-8.1-37.7-12.1-56.6c-10.1-48.4-20.1-96.8-30.2-145.2c-1.6-7.5-5.9-10.3-13.5-9
	C43.4,77.1,37.3,84.9,38,96.9c0.4,8,2,15.8,3.6,23.7c2.8,13.6-2.3,20.9-16,23.2c-9.9,1.6-16.3-2.5-18.9-12.5
	c-5-19.2-7.2-39-6.5-58.9C0.9,54,11,41.5,27.9,35.2s34.7-7.5,52.5-2.3C96,37.5,105,47.7,108.9,63.8c5.9,24.8,10.2,49.9,15,74.8
	c1.8,9.3,3.4,18.7,5,28c1.2,4.4,2.8,8.7,3.8,13.2c2.3,7,2.2,14.5,4.2,21.5c3.5,16.7,7,33.3,9.4,50.2c0,4.8,1.7,9.3,2.4,14
	c0.3,1.5,0.6,3,1.1,4.4c0.8,2.1,1.2,4.4,1.3,6.6C151.3,278,150.3,279.4,150.7,280.9z"/>
<path class="st11" d="M131.8,179.9c-1.9-4.2-2.8-8.8-2.9-13.4c0.4,0.8,0.9,1.7,1.5,2.9c0.8-2.2,1.5-4,2.3-5.9c1,0.3,1.6,1.2,2.6,1.5
	c1.5,0.7,2.9-0.2,4.4-0.3c1-0.2,2-0.2,3-0.2c3.7-0.2,7.5,0.2,11.1-0.9c25-0.4,49.9-0.1,74.8-0.2c23.1-0.1,46.2,0.2,69.3-0.2
	c1.4-0.3,2.5-1.2,3.9-1.5c0.8,2.6,2.7,3.1,5.3,3.1c9.6-0.1,9.6,0,9.6,9.8c0,3.8,0,7.7,0,11.5c0,2-0.4,3.4-2.7,3.1
	c-3.2-0.3-2.8,1.8-2.9,3.9c-0.3,6.3,0.8,12.6-0.5,18.8c-2.2,1.7-4.7,1.4-7.2,1.4c-15.8,0-31.5,0-47.3,0c-1.7,0.1-3.5-0.3-5-1.2
	c-1.5-1.1-2.8-2.4-3.8-3.9c-0.9-1.5-1.6-3-2.4-4.5c-1.3-2.7-1.6-5.7-2.6-8.5c-1.5-4.1-4.4-4.7-7.6-1.7c-1.9,1.8-2.6,4.1-3.4,6.5
	c-1,3.3-1.3,6.8-3,10c-0.3,0.5-0.7,0.9-1.2,1.2c-2.2,1.9-4.8,2-7.5,2c-19.4,0-38.8,0-58.2,0c-6.4,0-7.9-1.5-8.1-7.9
	c-0.1-4.8,0-9.6-0.1-14.4c0-2.4-0.1-4.8-2.9-5.7c-4.1-1.7-8.6-0.3-12.7-1.9c-0.5,0-1-0.1-1.5-0.3c-1.4-0.5-3.3-1-3.2-2.7
	s2.2-1.6,3.6-1.9c4-0.1,7.9,0.2,11.8,0.8c4.2,0.5,5-0.6,5.1-5.1c0.1-3.7-1.3-5.2-5.1-4.3c-2.1,0.5-4.3,0.3-6.4,0.5
	c-7.4,0.6-7.8,1-9.2,8.3C132.4,179.1,132.1,179.6,131.8,179.9z"/>
<path class="st12" d="M159.5,123.9c1.8-1.6,0.7-2.8-0.5-4.1c-14.3-14.8-25-32.3-36.8-49c-7.9-11-12.9-23.9-14.5-37.3
	c-1.5-12.6,3-22.8,13.1-30.5c3.3-2.5,7.3-3,11.4-3c16.8,0,29.2,9.8,36.8,28c7.1,17.2,11.1,35.1,14.8,53.2c1.7,8.1,3.1,16.3,4,24.6
	c0.4,0.7,0.6,1.7-0.2,2c-1.2,0.5-1.9-0.6-2.6-1.4c-1.3-1.7-1.3-3.7-1.6-5.7c-4.2-23.6-8.2-47.3-17.4-69.7c-3.1-7.5-7.1-14.3-13-19.9
	c-7.2-6.7-15.9-8-25.1-6.8c-5.7,0.8-9.2,5.3-12,9.8c-3.8,6.2-5.1,13.5-3.9,20.6c2.5,17,11.2,30.9,21,44.2s18.6,27.6,30.5,39.5
	c0.7,0.8,1.3,1.6,1.7,2.5c0.1,1.1-0.4,2.1-1.2,2.8C162.4,124.7,161,125.3,159.5,123.9z"/>
<path class="st13" d="M110.8,285.9c1.4,2.5,2.1,5.3,1.9,8.2c-12.7,8.5-21,20.1-25.3,34.8c-3.1,10.6-5.6,21.2-7.9,32
	c-1.4,6.5-0.7,7.3,5.7,7.6c13.7,0.7,26.9,4.6,40.4,6.2c1,0.1,1.8,0.6,2.4,1.3c-0.4-1.5-0.6-3,0.7-4.2c2.4,5.4,2.3,11.4,4,17
	c-3.1,1.4-2.6-2-3.9-3c1-6.8,1-7-5.8-7.7c-12.4-1.2-24.5-4.9-37-5.7c-1.7-0.1-3.3-0.5-4.2,1.4c-0.4-0.7-1.2-1.2-2-1.1
	c-1.8,0.3-1.3,2-1.8,3.1c-0.4,0.3-0.8,0.3-1.2,0v-3.7l-2,2.6c-2.3-15.4,4-29.4,7.4-43.8c2.5-11.3,7.8-21.7,15.6-30.2
	c3-3.4,6.4-6.3,10.1-8.8C110.3,290.6,111.5,288.7,110.8,285.9z"/>
<path class="st4" d="M159.5,123.9c1.5,0.2,3-0.2,4.2-1c0.8,0.2,1.3,0.8,1.4,1.6c-0.4,2.2-1.8,3.9-3.2,5.5
	c-8.2,9.3-13.5,20.3-17.6,31.9c-0.6,1.6-0.9,3.2-2.6,4h-3c-1.8-2.2-0.5-4.4,0.1-6.6c1.2-3.6,2.6-7,4.4-10.3
	c-2.5,4.3-4.4,8.8-5.9,13.5c-0.4,1.3,0,3.6-2.6,3.4c-1.5-0.1-2-1-2.1-2.3C137.4,147.5,146,134,159.5,123.9z"/>
<path class="st14" d="M321.7,370.9c-0.7,0.5-1.1,1.3-1,2.2c-4.1-8.9-7.2-18.2-9.4-27.7c-6.8-28.5-27.1-42.8-53.5-50.7
	c-0.8-0.2-1.3-0.6-1.2-1.5c0.4-0.6,1.1-1.1,1.8-1.1c1.7,0,3.4,0.6,4.8,1.7c16.8,5.2,30.8,14.5,41.2,28.8c2.3,3,4.1,6.4,5.4,10
	C313.7,345.3,317.7,358.1,321.7,370.9z"/>
<path class="st15" d="M243.6,105.5c6.7-18,13.9-35.8,23.2-52.6c4.1-7.6,8.4-15,16.6-19.2c0.9-0.5,1.4,0.1,1.8,0.8
	c0.2,0.8-0.2,1.7-0.9,2.2c-10,7.3-14.9,18.2-19.9,28.9c-6.4,13.7-12.5,27.6-17.3,42C244.8,109,243.5,108.4,243.6,105.5z"/>
<path class="st16" d="M301.8,161.8c0.1,1.1-0.8,2.1-1.9,2.1c-0.1,0-0.2,0-0.2,0c-0.4,0.3-0.9,0.3-1.3,0c-5.1-10-9.6-20.5-17.4-29
	c-3.1-3.5-6.4-6.8-10-9.8c-1.6-1.2-4-2.1-3.6-4.9c0.5-0.9,1.6-1.1,2.5-0.6c0.1,0,0.1,0.1,0.2,0.1c6.2,2.2,10.2,7,14.3,11.7
	C292.1,140.3,298,150.6,301.8,161.8z"/>
<path class="st17" d="M188.8,106.7c17.9-5,35.9-7.4,54-1c1.1,2.7-0.9,3-2.7,3.3c-0.6,0-1.2,0-1.7-0.1c-16.2-4-32.1-1.8-47.9,2
	c-0.8,0.1-1.6,0-2.4-0.2C184.8,108.8,188.8,108.1,188.8,106.7z"/>
<path class="st18" d="M283.8,105.9c-0.7,2.1-3.7,2-4.2,4.3c-3.3,2.2-5.6,5.5-8.9,7.7l0.1,0c-1.3,1.1-2.8,1.4-4,0.1s-0.1-2.8,0.8-4
	c3.1-3.7,7-6.6,9.8-10.4c1.5-3,4-5,6.4-7.1c1.3-0.7,2.3-1.8,2.9-3.1c0.2-0.4,0.4-0.7,0.7-1c0.8-0.9,1.6-1.8,2.3-2.8
	c0.6-0.9,1.2-1.7,1.8-2.4c0.2-0.3,0.5-0.6,0.8-1c0.7-0.8,1.4-1.7,2.6-1.6c1.4,0.1,2.4,1.3,2.3,2.7c0,0.3-0.1,0.6-0.2,0.8
	c-0.5,1.4-1.3,2.8-2.3,4l-0.2,1.2c-1,0.4-1.9,1.1-2.5,2c-1,1.7-2.1,3.3-3.3,4.8l-1.2,1.2C286.3,102.6,285,104.2,283.8,105.9z"/>
<path class="st19" d="M307.7,234.7c-3.9,4.7-4,10.7-5,16.3c-0.6,0.7-0.3,1.6-0.7,2.3c-0.2,0.9-0.6,1.8-0.1,2.8l0.8,0.9
	c-0.3,2.2-2,2.6-3.7,3.2s-2.7,2.1-3.2,3.8c-2.5-0.4-1.9-2.4-2.1-4c4.3-10.9,7.5-22.2,9.4-33.8c0.6-3.2,0.7-6.6,1.9-9.7
	c0.2-0.5,0.3-0.9,0.5-1.4c0.5-1.2,1-2.8,2.5-2.5c2,0.5,1.4,2.2,0.9,3.6l-2.2,14.7C305.2,232.7,307.9,233.2,307.7,234.7z"/>
<path class="st20" d="M315.3,94c-2.5,0.3-4.6-0.7-6.5-2.1c-0.2-1,0.3-1.4,1.1-1.7c1.3-0.2,2.7,0,3.9,0.5c8.5,2.6,15-0.7,20.5-6.8
	c3.2-3.6,3.6-7.8,0.7-11.4c-4.7-5.9-7.7-12.9-8.7-20.4c-0.8-5.1-2.4-9.7-6.5-13.1c-0.8-0.7-1.3-1.6-1.3-2.6c0.1-0.8,0.6-1.4,1.4-1.6
	c5.2,3.4,8.7,7.9,9.4,14.3c0.9,9.1,4.6,17.8,10.6,24.8c0.7,2.1,0.7,4.3,0.1,6.4c-2,7.7-8,11.2-14.7,13.8
	C321.9,94.6,318.5,94.6,315.3,94z"/>
<path class="st21" d="M188.8,106.7c0.5,1.3-1.8,1.8-0.9,3.3c-7.1,5.3-14.6,10.1-22.4,14.2c-0.1,0-0.3-0.1-0.4-0.2l-1.3-1.1
	c0.3-0.7,0.6-1.3,1-2c1.1-1.7,3-2.7,4-4.5c0.5-0.8,1-1.5,1.6-2.2c2.8-2.6,7-3.1,9.3-6.5c1.1-0.9,1.9,1.8,3.1,0.2
	c0.8-1,1.9-1.7,3.2-2c0.7-0.1,1.6,3,2-0.2C188.1,106.1,188.5,106.4,188.8,106.7z"/>
<path class="st22" d="M291.8,277.2c-0.4,1.2-0.8,2.3-1.2,3.5c-1.1,1.1-2.9,0.3-4,1.5c-1.9,0.5-3.4-0.5-5-1.2
	c-0.4-0.4-0.6-0.8-0.8-1.3c-0.4-1.8-0.4-3.6,0.1-5.3c0.6-1.4,1.5-2.7,2.6-3.7c0.4-0.3,0.9-0.5,1.3-0.7c1.2-0.3,2.5-0.3,3.7,0
	c1.2,0.3,2.2,1.1,2.5,2.3C292,273.8,292.3,275.6,291.8,277.2z"/>
<path class="st23" d="M281.6,279.9c0.1,0.3,0.2,0.6,0.2,0.9c0.3,0.2,0.4,0.5,0.3,0.7s-0.3,0.3-0.4,0.3l-18.5,12
	c-1.9,0.5-3.6-0.7-5.4-0.9c-0.2-0.2-0.3-0.5-0.3-0.8c0-0.3,0.1-0.5,0.1-0.5c2.3-2.5,5.8-3,8.6-4.7c3.7-2.2,7.6-4.1,9.7-8.2
	c0.8-0.6,1.8-0.8,2.7-0.5C279.7,278.4,280.8,279,281.6,279.9z"/>
<path class="st24" d="M239.7,107.9c1.5,0,3-0.1,3.1-2.2c0.2-0.1,0.5-0.2,0.8-0.2c0.7,1.1,1.1,3.1,3.1,1.4c1.8-0.8,3-2.4,4.8-3.3
	c0.8,0.4,1.5,1.1,1.7,2c0.2,1.5,1.2,2.8,2.7,3.3c1.2,0.6,2.2,1.5,3.4,2.1c0.4,0.3,0.7,0.6,1,1c0.3,0.7,0.5,1.4,0.4,2.1
	c-0.1,0.8-0.4,1.4-1,1.9c-4.2,0.5-7.3-2.5-11-3.6c-1.7-0.5-3.3-1.3-5.1-1.8C242.2,109.9,239.8,110.5,239.7,107.9z"/>
<path class="st25" d="M308.8,216.2c-0.3-1,0.4-2.8-1.1-2.7c-1.7,0.1-0.5,2.6-1.8,3.4c-2.2-2.6-5.2-2.8-8.3-2.6
	c-12.5,0-24.9,0-37.4,0c-2.1-0.2-4.6,0.5-5.7-2.3l56-0.1L308.8,216.2z"/>
<path class="st26" d="M290.8,30c7.2-2.1,14.3-2.2,21.2,1.4c0.9,0.3,1.8,0.6,2.8,0.7c0,1.6-1.2,1.7-2.3,2c-6.2-0.2-12.2-2.3-18.5-1.8
	C292.5,31.9,290.8,32.1,290.8,30z"/>
<path class="st27" d="M278.8,103.8c-3.1,5-8.4,8.2-11.8,13.1c1.1,1.4,2.6,0.4,3.7,1c0.7,0.9-0.3,1.3-0.6,1.9c-1,0.2-1.9,0.3-2.4,1.2
	c-2.5,0.6-3.9-0.9-5.2-2.7c-0.2-1.3-0.3-2.7,0.7-3.8c4.3-1.7,6.9-5.4,10.2-8.3C274.9,104.8,276.1,102.5,278.8,103.8z"/>
<path class="st28" d="M291.1,273l-2.3-2.3c-0.5-0.5-0.8-1.3-0.7-2c1.8-3.3,2.7-7.2,6.7-8.9c0.2,1.4-0.4,3,1,4.1
	c-0.6,3.2-5.3,4.8-3.6,9c-0.1,0.3-0.4,0.4-0.7,0.3C291.2,273.1,291.2,273,291.1,273z"/>
<path class="st29" d="M309.8,90.9l-1.1,1c-3.9-0.7-5.4-4.9-9-6c-0.7-0.1-1.3-0.6-1.5-1.3c-0.2-0.7-0.1-1.4,0.2-2c0.4-0.6,1-1,1.8-1
	C303.5,84.6,307.5,86.9,309.8,90.9z"/>
<path class="st30" d="M290.8,30c0.8,1.2,2.2,0.8,3.4,1.1c-2.5,2.8-5.7,3.8-9.3,3.8l-1.4-1.2C285.4,31.8,288,30.5,290.8,30z"/>
<path class="st4" d="M309.7,261.9c-0.2,1.8-1.6,2.5-3,3.1c-2,1.4-4.2,0.9-6.5,0.7c-0.7-0.3-1.7-0.4-1.5-1.6c3.6-1.2,7.5-0.4,11-2.1
	L309.7,261.9z"/>
<path class="st31" d="M270.6,117.9c2.4-3.3,4.6-6.7,8.9-7.7C277.2,113.5,274.9,116.8,270.6,117.9z"/>
<path class="st32" d="M307.7,234.7c-1.1-1-3.1-1.8-1-3.8c1.3,4.4,4.3-0.1,6.1,1.2c0.5,0.3,1,0.5,1.3,1c0,0.4-0.1,0.8-0.3,1.1
	c-0.3,0.1-0.7,0.1-1-0.2L307.7,234.7z"/>
<path class="st20" d="M312.5,33l2.2-1c2,0.3,3.8,1.3,5.1,2.8l-1.2,1.2C316,36.1,313.7,35.8,312.5,33z"/>
<path class="st33" d="M320.5,241.8c2.8-1,5.5-1.9,8.3,0.6c-1.7,0.6-3.5,0.7-5.2,0.4C322.8,242,321.3,242.9,320.5,241.8z"/>
<path class="st34" d="M314.6,163.6h-9.7C308.1,162.7,311.5,162.7,314.6,163.6z"/>
<path class="st35" d="M320.5,241.8c1,0.3,2.3-0.1,3.1,0.9c-2.9,0-5.6,1.4-8.5,1.8C316.4,242.8,318.4,241.8,320.5,241.8z"/>
<path class="st5" d="M313.8,232.9l-1-0.9l9.8-0.3c1-0.4,1.3,0.1,1,1c-0.3,0.1-0.6,0.2-0.9,0.2C319.9,234.4,316.6,234.3,313.8,232.9z
	"/>
<path class="st36" d="M311.8,253.9c-0.5-1.9-3.7-3.4-0.6-6.2l1.7,4.9C313.3,253.7,312.8,254,311.8,253.9z"/>
<path class="st37" d="M315.3,94h9.8C321.9,95.3,318.4,95.3,315.3,94z"/>
<path class="st38" d="M288.8,99.9c-0.4-2.4,1.6-3.5,2.9-5c0.4,0.2,0.8,0.6,0.9,1C291.8,97.6,291.1,99.5,288.8,99.9z"/>
<path class="st11" d="M309.8,262c-0.1-2,1.5-3.3,2-5c0.9-0.2,1.4,0,1,1.1c-0.5,1.8-0.9,3.5-3.1,3.8L309.8,262z"/>
<path class="st39" d="M283.8,105.9c0-2.7,1.5-4.1,3.8-4.9C287.6,103.6,286,105,283.8,105.9z"/>
<path class="st40" d="M312.8,258l-1-1.1v-3l1.1-1.3C314.2,254.2,314.2,256.5,312.8,258z"/>
<path class="st41" d="M294.8,91.9c-0.4-1.9,0.7-2.9,2-3.9c0.2-0.3,0.5-0.4,0.8-0.2c0.1,0.1,0.2,0.1,0.2,0.2
	C297.6,89.9,297,91.5,294.8,91.9z"/>
<path class="st42" d="M291.1,273c0.3-0.1,0.6-0.1,0.9-0.1c1.2,1.2,1.2,3.1,0,4.2c-0.1,0.1-0.1,0.1-0.2,0.2
	C290.4,276,292.2,274.2,291.1,273z"/>
<path class="st4" d="M292.7,95.9l-0.9-1c-0.1-2.4,1.5-1.9,2.9-1.9L292.7,95.9z"/>
<path class="st43" d="M281.7,281.8l0.1-1l5,1.1c0.3,0.2,0.4,0.4,0.3,0.6s-0.2,0.3-0.3,0.3C285,283.5,283,283.1,281.7,281.8z"/>
<path class="st44" d="M323.6,232.8l-1-1c1-0.8,2.4-1,3.7-0.6C326.1,233,324.9,232.9,323.6,232.8z"/>
<path class="st45" d="M301.7,253c0.3-0.7,0.6-1.4,1-2.1c0.5,2,0.9,4,0,6h-1C300.8,255.6,301,254.3,301.7,253z"/>
<path class="st46" d="M299.9,265l-0.2,0.7l-3.5,1.3c-0.5-2.3,1.2-2.6,2.6-3L299.9,265z"/>
<path class="st47" d="M339.8,80.2l-0.1-6.4C341.1,76,340.8,78.1,339.8,80.2z"/>
<path class="st48" d="M286.7,282.7c0-0.3,0-0.6,0-0.9c1-1.4,2.5-1,3.8-1.1C289.8,282.5,287.9,281.9,286.7,282.7z"/>
<path d="M297.8,88l-0.5-0.1l-0.5,0.1c0-0.3,0-0.6,0.1-0.9c0.3-1,0.7-2,2-2.1l0.8,1L297.8,88z"/>
<path class="st49" d="M128.9,385.9c0.9-0.4,1.9-0.7,1.9,0.9c-0.1,1,0.6,2,1.6,2.1c0.1,0,0.3,0,0.4,0c3.7,0,0.7-2.3,1.2-3.4
	c1-0.9,2.1-1.6,3.6-1c1,0.7,0.5,2.2,1.5,2.8c1.9,0,3-1.4,4.2-2.4c10-8.2,19.5-16.9,26-28.4c4.4-7.6,12-10.4,22.5-8.6
	c1.5,0.2,2.9,0.7,4.4,1c2.2,0.7,4.1,2.4,6.6,2.3c0.4,0.1,0.8,0.3,1.1,0.6c2.1-0.2,2.7,1.6,3.5,2.9c10.5,16.1,10.1,26.5-1.6,42
	c-7.6,9.9-17.2,18-28.2,23.8c-1.1-0.3-2.5,0.1-3.2-1.4c-0.2-3.1,2.2-4.3,4.2-5.7c7.8-5.7,15.6-11.4,22-18.7c4-4.5,7.7-9.2,9.2-15.2
	c0.9-2.5,0.9-5.1,0-7.6c-1.4-8.2-5.8-13.8-13.6-16.9c-1.5-0.6-3.2-1-4.2-2.4c-9.1-2.4-14.9,0.1-20,7.4
	c-14.4,20.7-33.5,35.7-56.3,46.3c-1.1,0.5-2.6,1.7-3.5,0s1-2.2,2-2.9C121,399.3,127.2,394.5,128.9,385.9z"/>
<path class="st50" d="M252.8,295.9c-1.2,1.6-3.1,1.7-4.7,1.9c-4.3,0.5-7.2,2-6.6,7c-1.6,0.1-1.6-1.3-2.2-2.2c-1-1.5-2.2-1.1-3.3-0.3
	s-2.5,1.6-4.1,0.7c-6.8-1.5-13.8-0.4-20.6-1.6c-7-1.2-14-2.5-20.5-5.4c-1-0.5-1.9-1.2-2.5-2.2c-0.3-0.8,0-1.8,0.7-2.3
	c2.3-1.1,4.6-0.3,6.8,0.3c12.2,3.5,24.5,5.9,37.3,3.8c1.7-0.2,3.3-0.1,5,0.2c2.8,0.9,5.5-0.1,8.2-0.6c1.8-0.3,3.5-0.7,5.3-0.2
	C252.1,295.2,252.5,295.5,252.8,295.9z"/>
<path class="st51" d="M138,387.9c-1.8-1-0.4-2.2-0.3-3.3c0.5-2.5,2.5-4.5,5-5c0.2,0.2,0.4,0.4,0.7,0.6c5.4-4.5,10.6-9.3,14.7-15
	c0.2-0.2-0.1-0.8-0.2-1.3c-0.3-3,1.7-4.2,4.1-5c2.7-0.7,2.7-3.3,3.8-5.2c6.2-9.8,17.2-12.8,29-7.7c0.2,0.9-0.3,1.4-1,1.7
	c-4.6,0.5-9.1-1.2-13.8,0.1c-4.4,1-8.2,3.8-10.5,7.6c-7.6,12.3-18.5,21.6-28.7,31.5C140.1,387.8,139,388.2,138,387.9z"/>
<path class="st52" d="M178,420c9.6-7.3,19.3-14.5,27.7-23.2c-2.5,5.7-7.3,9.7-11,14.5c-3.9,5-8.1,9.7-12.1,14.6
	c-1.5,1.8-3,3.6-2.9,6.1c-0.7-2.7-1.3-5.4-1.9-8.1C177.2,422.5,176.8,421.2,178,420z"/>
<path class="st53" d="M188.8,291.5v2.3c-0.9,0.6-1.8,0.3-2.7,0.2c-2.3-0.6-4.4-1.8-6.1-3.4c0.8,1,1,2.3,0.3,3.4
	c-0.4,0.6-1,1.1-1.7,1.2c0-5.2-3.1-7.7-7.5-9.5c-2.4-1.2-4.6-2.7-6.6-4.4c-4.6-3.5-9.2-2.6-13.8-0.4c-1.4-1.2-0.8-2.7-0.8-4.2
	c1.6-1.3,3.9-0.9,5.6-2.2c2.3-0.6,4.5-0.1,6.7,0.3c2.6,0.6,3.7,3.5,6.1,4.4c5.1,3,10.1,6.4,15.6,8.6
	C185.8,288.5,188,289.2,188.8,291.5z"/>
<path class="st54" d="M283.8,380.7c-1.2,0-2.3-0.1-3.4-0.2c-6.8-0.4-6.9-0.4-5.9-7.1c1.1-7.5,2.2-15.1,3.3-22.6
	c1.4,3.5,2,7.3,1.8,11.1c-0.2,4.8,0.1,9.7,0.9,14.4C280.9,378.7,281.8,379.9,283.8,380.7z"/>
<path class="st55" d="M228.8,324c-8.3,6.6-17.4,4.5-26.5,2.3c-1.7-0.4-3.2-1.5-4.8-2.3c0.2-0.8,0.8-1.5,1.6-1.7
	c4.5,0,8.5,2.2,13,2.3c5.2,0.1,10.4-0.7,15.4-2.3C228.4,322.5,229.1,322.9,228.8,324z"/>
<path class="st56" d="M228.8,324l-1.1-1.1c1.2-4.5,4.4-7.3,8.4-9.4l0.6,0.4C236.2,318.9,232.4,321.4,228.8,324z"/>
<path class="st57" d="M240.6,301.7c0.3,1.1-0.1,2.3,0.9,3.2c-1,3.4-1.3,7.1-4.9,9.1h0.1C235.4,309,237.3,305.1,240.6,301.7z"/>
<path class="st58" d="M193.6,347.1c0.4-0.4,0.8-0.8,1.1-1.2c3.4,1.3,7.5,1.7,9.1,5.9l-0.5,0.1h-0.5c-2.3,0.3-3.6-1.8-5.5-2.2
	C196,348.9,193.8,349.4,193.6,347.1z"/>
<path class="st59" d="M190.8,319.9c-2-1.8-4-3.5-5-6c-0.4-1,0.3-1.3,1.1-1.5c3.1,1,4.5,3.5,5.4,6.5
	C192,319.6,191.7,320.2,190.8,319.9z"/>
<path class="st51" d="M270.7,392.3c0,5,0,10.1,0,15.1C269.5,402.5,269.5,397.3,270.7,392.3z"/>
<path class="st60" d="M183.8,310.9l-3.7-6c0.6-0.7,1.2-1.4,2.2-1.3c2.1,1.4,2.5,3.7,2.9,5.9C185,310.2,184.5,310.7,183.8,310.9z"/>
<path class="st60" d="M181.8,303.9c-0.3,0.7-1,1-1.7,1c0.5-1.5-2.1-2.4-0.9-4.1c0.5-1-0.8-3.4,2-2.7
	C182.3,299.9,183.3,301.7,181.8,303.9z"/>
<path class="st61" d="M190.8,319.9l1.1-1.3c2.2-0.3,4.3,0.8,5.1,2.8c-0.3,1.2-1.5,0.9-2.2,1.3C193.1,322.5,191.6,321.4,190.8,319.9z
	"/>
<path class="st49" d="M252.8,295.9l-1.1-0.1c0.7-3.1,2.6-3.3,5-2l1,0.8C256.3,296.1,254.6,296.1,252.8,295.9z"/>
<path class="st60" d="M180.6,297.9l-1.4,2.9l-0.6-5.6l1.1-1.3C181.1,295,182,296.2,180.6,297.9z"/>
<path class="st49" d="M183.8,310.9c0.3-0.3,0.6-0.6,0.9-0.9c2.3-0.1,2.4,1.3,2,3l-1,1C184.7,313.2,184,312.1,183.8,310.9z"/>
<path class="st51" d="M271.7,382.3c-0.2,2.2,0.8,4.5-0.8,6.5C270.6,386.6,270.9,384.4,271.7,382.3z"/>
<path d="M194.8,322.8l2-0.9c1.1-0.5,1.6,0.1,2,1.1l-1.3,1.1L194.8,322.8z"/>
<path class="st51" d="M270.8,418.9c1.5,1.7,0.7,3.7,0.8,5.6C270.6,422.7,270.8,420.8,270.8,418.9z"/>
<path class="st3" d="M210.7,379.9c-0.7,6-4.6,10.1-8.1,14.5c-6.2,7.5-13.7,13.4-21.6,19c-2.3,1.6-4.7,3.2-6.1,5.7
	c-3.3,3.8-5.7,8.5-11.1,9.9c0.3-4.2,3.7-6.5,6-9.1c4.8-5.5,10.5-10.2,15.5-15.4c7.1-7.6,14.8-15.2,17-26.2c1.9-10-1.1-17.5-9.7-23.4
	c-0.5-0.3-3.5-0.5-0.5-2c11,2.2,17.8,9.1,18.9,19.1C210.6,374.5,210.8,377.2,210.7,379.9z"/>
<path class="st62" d="M163.8,428.9l11.1-9.9c0.8,1.1,2.1,0.8,3.2,1l-0.3,3.9c-1.2-2.6-2.8-3.7-4.7-0.7c-1.3,2-4.7,2.5-4.1,5.8
	c-1.3,4.8-5.3,7.2-9,9.8c-2-0.5-4-1.1-4,2.2c-0.5,0.8-1,1.7-2.2,1.7l-0.9-2.6L163.8,428.9z"/>
<path class="st63" d="M149.6,443.5c-0.8,3.1-1.7,6-5.9,5.3C145.4,446.8,147.4,445,149.6,443.5z"/>
<path class="st51" d="M272.7,408.9c-2.2-5.5-0.2-11.1-0.6-16.9l1.6,2.9C273.3,399.5,273,404.2,272.7,408.9z"/>
<path class="st51" d="M273.8,391c-0.8-2.5-3-5.3,1-7.1C274.5,386.3,275.3,388.9,273.8,391z"/>
<path class="st51" d="M273.8,424.9c-2-2.9-0.6-6.1-0.9-9.2C274.3,418.6,273.5,421.8,273.8,424.9z"/>
<path class="st51" d="M274.7,431.9c-1.6-1.5-0.8-3.4-0.9-5.2C275,428.2,274.7,430.1,274.7,431.9z"/>
<path class="st64" d="M73.9,422.8c-0.2-10.3-0.9-20.6,1-30.9c2.6,0.8,1.2,2.7,1,4.2c-0.9,7.8-1.3,15.7-1,23.6
	C75.1,420.9,76.3,422.4,73.9,422.8z"/>
<path class="st65" d="M73.9,422.8c1.1-0.8,0.8-2,1-3.1c1.7,3.8,0.4,7.8,1.3,11.6C74.6,428.8,73.8,425.8,73.9,422.8z"/>
<path class="st66" d="M75.9,396.1c-0.4-1.4,0.4-3-1-4.2l1.1-8c2.3,0.5,1.1,2,0.9,3.1C76.7,390.1,77.5,393.2,75.9,396.1z"/>
<path class="st67" d="M77.3,439.3l-1.4-5.8c2.6,2,1.9,4,2.6,5.6L77.3,439.3z"/>
<path class="st68" d="M77.6,375.9c0.3-3.6,0.3-3.6,2.2-3l-1.1,3c-0.2,0.3-0.7,0.4-1,0.1C77.7,376,77.7,375.9,77.6,375.9z"/>
<path class="st69" d="M76.9,387.1c-0.2-1.1,0.1-2.3-0.9-3.1c-0.2-0.8,0.1-1.7,0.7-2.2c0.6,0.1,0.7,0.7,1,1.1
	C77.8,384.3,77.9,385.9,76.9,387.1z"/>
<path class="st66" d="M77.7,382.9l-1-1.1c0.1-1.3,0.1-2.5,0.2-3.8c0.9-0.1,1.5,0,1,1.1L77.7,382.9z"/>
<path class="st69" d="M77.9,379l-1-1.1c0-0.7-0.1-1.3-0.1-2c0.3-0.1,0.5-0.1,0.8-0.1h1.1C79,377,78.7,378.2,77.9,379z"/>
<path class="st70" d="M159.9,438.8c2.2-4,6.3-6.3,9-9.8l5.5-4.5c1.1,5.7,2.1,10.8,3.1,15.9c0.6,3.2-1.5,2.8-3.3,2.3
	C169.5,441.5,164.8,440.1,159.9,438.8z"/>
<path class="st0" d="M128.8,371.9c0.8,3.6-0.1,4.6-4.1,4c-15.1-2.1-30-5.9-45.3-6.8c-1.5-0.1-3,0-2.4-2.4c4-17.6,6.5-35.7,14.9-52
	c4.2-8.4,10.6-15.4,18.4-20.6c0.9-0.6,1.6-1.1,2.5,0c1.4,12.2,4.6,24,7.1,36C122.6,344.1,125.8,358,128.8,371.9z"/>
<path class="st0" d="M68.8,61c4.6-9.2,14.5-14.5,24.7-13.2c4.4,0.5,7.5,2.5,9.1,7.1c5.9,16.7,8.6,34.1,12.1,51.4
	c0.5,2.4,1.4,4.8,1,8c-10.3-3-19.9-8.1-28.1-15c-2.7-2.9-3.3-6.8-4.1-10.5c-2-9-5-17.5-13-23.2C69.2,64.5,67.6,63.2,68.8,61z"/>
<path class="st0" d="M21.6,106c-10-5.7-16.1-14-17.9-25.5C-0.3,55.9,15.9,41,34.3,36c4.6-1.3,9.3-2.7,15.3-2
	c-9.7,9.1-17.7,18.6-19,31.9c-0.4,3.2-2.1,5.9-3.6,8.6c-3.3,5.6-4.5,12.2-3.5,18.7c0.6,3.6-0.5,7.2,0,10.9
	C23.8,105.1,23.4,106.5,21.6,106z"/>
<path class="st71" d="M89.8,104.9c7.6,5.1,15.7,9.2,24.4,12.2c1.5,0.3,2.6,1.5,2.8,3c2,10.9,4.1,21.8,6.3,32.7
	c0.5,2.6-0.7,3-2.7,2.6c-7.8-1.5-15.7-2.5-22.7-6.7c-0.3-0.4-0.6-0.8-0.8-1.3c-3.7-13.3-6.3-26.8-8.9-40.3
	C88,106.2,87.9,104.8,89.8,104.9z"/>
<path class="st71" d="M33.8,64.9c1.9-14.3,10-24.2,22.3-31c4.3-2.4,9.2-0.5,13.7,0.1c9.3,0.9,18.2,4.7,25.3,10.8
	c-13.7,0-23.2,5-29.2,16c-0.9,0.8-2.1,1.1-3.2,1c-8.7-1.3-17.1,0.5-25.4,3.1C36.1,65.5,34.8,65.5,33.8,64.9z"/>
<path class="st0" d="M116.8,234.7c6.8,2.1,13.6,4.2,20.7,4.9c2.1,0.2,2.8,1.1,3.2,3c2.2,12.1,4.6,24.1,6.8,36.2
	c0.2,1.2,1.1,3.6-1.6,2.8c-7.2-1.9-14.7-2.6-21.2-6.7c-3.4-7.3-3.8-15.3-5.8-23c-1.1-4-1.6-8.1-2.6-12.1
	C116,238.2,115.3,236.3,116.8,234.7z"/>
<path class="st0" d="M101,153.7c6.8,2.6,13.9,4.2,21.2,4.8c2.3,0.2,2.7,1,3.1,2.8c2.1,10.9,4.1,21.8,6.3,32.7c0.4,2.2,0,3.3-2.4,2.6
	c-7.6-2.2-15.5-3.5-22.3-7.9c-1.9-2.2-2.6-5-3.2-7.7c-1.6-7.1-3.1-14.3-4.5-21.4C98.7,157.5,97.2,154.6,101,153.7z"/>
<path class="st71" d="M108.9,193.9c7,2.1,13.8,4.8,21,6c1.5,0.1,2.7,1.4,2.8,2.9c1.9,10.3,3.8,20.5,5.8,30.8
	c0.5,2.4,0.1,3.3-2.7,2.8c-6.5-1.2-13-2.3-19-5.4c-2.5-1.5-3.3-4-3.8-6.7c-1.7-8.6-3.8-17.1-5.4-25.7
	C107.3,196.9,105.8,194.6,108.9,193.9z"/>
<path class="st2" d="M167.8,279.9c-2.9,0-3.3-3.3-5.6-4.1c-8.4-6.2-14.4-14.1-17.3-24.1c-2.2-15.8-5.8-31.2-8.5-46.9
	c-0.2-1.3-0.4-2.6-0.6-3.9c-0.8-4.4-0.9-8.8-0.4-13.2c0.4-2.2,0.7-4.3,2.7-5.6c3.8,1.6,8,0.1,11.9,1.8c-3.9,10.6-3.1,21.7-2.4,32.6
	c0.8,13.8,3.6,27.5,8.4,40.5c2.4,6.2,5.7,12,9.7,17.4C166.8,275.9,168.6,277.4,167.8,279.9z"/>
<path class="st0" d="M134,311.7c5.9,0.9,11.7,2.5,17.7,2.4c2.4,0,2.7,1.2,3,3c1.6,8.5,3.1,17,4.9,25.4c0.7,3.5-0.4,4.5-3.7,4
	c-5.1-0.8-10.2-1-15.2-2.7c-2.1-1.2-2.7-3.2-3.2-5.3c-1.7-7.4-3.1-14.8-4.8-22.2C132.5,314.9,130.6,312.4,134,311.7z"/>
<path class="st71" d="M29.8,138.7c-10.2,4.2-15.5,2.2-19.5-8.3c-4.4-11.5-4.6-23.8-5.7-36.1c5.4,7,11.4,13,19.3,16.9
	c1.1,1.4,1.8,3.2,1.8,5C26.4,123.8,28.8,131.1,29.8,138.7z"/>
<path class="st72" d="M89.8,104.9c-0.9,5.5,1.3,10.5,2.4,15.7c2,9.3,4.1,18.7,5.6,28.2c-2.3-1-4.5-2-6.8-3.1c-5.1-2.5-8-6.2-9-12.2
	c-2.4-13.9-5.6-27.6-7.9-41.8C79.3,96.3,84.1,101.1,89.8,104.9z"/>
<path class="st73" d="M116.8,234.7c2.5,11.6,4.9,23.3,7.4,34.9c0.4,1.8,0.6,3.6,0.5,5.4c-5.3-2-10.1-5.1-14.1-9.1
	c-0.9-0.7-1.6-1.7-1.9-2.8c-2.4-11.9-4.9-23.7-7.6-36.8C107.1,229.1,111.4,233.1,116.8,234.7z"/>
<path class="st71" d="M126.8,279.6c6.3,1.7,12.5,3.5,18.8,5c2.2,0.5,2.9,1.6,3.2,3.6c1.1,6.4,2.3,12.8,3.7,19.1
	c0.6,2.9-0.1,4-3.1,3.7c-5.6-0.7-11.2-1.2-16.6-3.1c-0.8-0.3-1.4-0.9-1.8-1.7c-2.5-7.9-4.3-16.1-5.2-24.3
	C125.7,281,126.1,280.2,126.8,279.6z"/>
<path class="st72" d="M108.9,193.9c-1.1,4.7,1,8.9,2,13.2c1.8,8,2.3,16.3,5.9,23.9c-5.8-1.1-9.9-5.2-14.6-8.2c-1.6-1-2-3-2.4-4.8
	c-2.1-9.9-4.2-19.8-6.4-29.7c-0.2-0.8-0.8-1.7,0.1-2.1c0.8-0.1,1.6,0,2.3,0.5C100.2,189,104.5,191.4,108.9,193.9z"/>
<path class="st73" d="M101,153.7c-2.1,1.6-1.1,3.5-0.6,5.5c2.2,9.9,4.3,19.7,6.4,29.6c-0.2,0-0.3,0-0.5-0.1
	c-10.9-3.8-17.2-10.7-18-22.8c-0.4-6.6-2.5-13.2-4.1-20.9C89.6,148.3,95.2,151.3,101,153.7z"/>
<path class="st73" d="M134,311.7c-0.6,6.3,2,12.2,3.1,18.3c0.8,4.7,1.3,9.5,3.6,13.9c-5.1-1-9.5-3.7-14.2-5.8
	c-1.3-0.4-2.3-1.4-2.7-2.8c-2.1-10-4.2-20-6.4-30.4L134,311.7z"/>
<path class="st72" d="M33.8,64.9c10.3-4.3,20.9-6.3,32-4c-0.1,0.3-0.2,0.6-0.3,0.9c-2.4,5.9-4.2,11.1-13,10.7
	c-7.3-0.3-13.1,5.2-16.5,13C31.8,78.4,32.2,71.8,33.8,64.9z"/>
<path class="st73" d="M21.6,106c1.3-4,1-8.3,0.5-12.2c-1.1-8.5,1-16,5.4-23c1-1.6,2.1-3.3,3.1-4.9c-1.1,8.1,0.1,16.3,3.7,23.6
	c2,4.1,1.1,9.8,1.2,14.7c0.1,2.9,2.7,6.9,0.5,8.3c-2.4,1.5-5.6-1.9-8.4-3.2C25.5,108.5,23.6,107.2,21.6,106z"/>
<path class="st72" d="M126.8,279.6c1.2,9.6,3.2,19,6,28.2l-3.3-0.9c-8.9-2.2-14.1-7.2-14.8-17c-0.4-6.3-2.5-12.4-4-19.4L126.8,279.6
	z"/>
<path class="st72" d="M148.8,372.9c-8.4,2.9-17.1-1.6-18.8-9.8c-1.4-6.8-2.8-13.7-4.1-20.5c0-0.3,0.1-0.6,0.2-0.9l15.9,6
	c1.9,5.8,2.8,11.9,4.1,17.8C146.5,368.1,147.5,370.6,148.8,372.9z"/>
<path class="st73" d="M68.8,61c0.1,1.5,1,2.9,2.4,3.5c7.4,4.4,10.3,11.8,12.6,19.4c1.5,5,2.6,10.2,3.9,15.3
	c-7-5.4-13.9-10.8-17.2-19.5c-0.5-1.4-1.4-2.7-2.5-3.6c-5.1-3.1-3.8-6.8-1.4-10.8C67.3,63.9,68,62.4,68.8,61z"/>
<path class="st71" d="M148.8,372.9c-1-0.1-2.5,0.2-2.6-0.9c-1.1-8.2-4.8-15.9-4.2-24.3c5.4,0.7,10.8,1.5,16.3,2
	c2,0.2,2.5,1.1,2.7,2.8c0.3,2.1,0.6,4.2,1,6.4c-1.1,1.8-3.4,2.8-4.1,5L148.8,372.9z"/>
<path class="st72" d="M29.8,138.7c-4.2-8.7-4.9-18.2-6-27.6c4.1,1.8,8.3,3.5,12.3,5.5c5,2.5,4,16.2-1.4,19.8
	C33.1,137.4,31.5,138.1,29.8,138.7z"/>
<path class="st74" d="M144.9,251.7c4.2,9.1,10.7,16.7,17.3,24.1l-6.2-1c-3.8,0.3-5-2.8-6.6-5.2c-0.8-1.1-0.7-2.6-1.5-3.7
	C146,261.4,145.1,256.5,144.9,251.7z"/>
<path class="st75" d="M142.6,379.6l-5,5l-3.7,0.9c-0.6-3.2-1.1-6.5-1.7-9.7c-0.4-1.8,0-2.6,2-2c2.6,0.9,5.2,2,7.9,2.7
	S143.3,378.4,142.6,379.6z"/>
<path class="st76" d="M138,182c-1.4,6.2-2.8,12.4-2.4,18.9c-2-6.9-2.7-14-3.9-21l0.1-1.1c2-1.2,4-1.8,5.3,0.9l-3.5,0.4
	C134.7,182,136.5,181.8,138,182z"/>
<path class="st77" d="M149.8,268.9l-1.2,1.1c-1.3-1.1-0.7-2.7-0.8-4C148.5,266.9,149.1,267.9,149.8,268.9z"/>
<path class="st1" d="M167.8,279.9c-2.4-4.9-6.4-8.8-9-13.7c-7.2-13.6-10.2-28.2-12-43.2c-1.4-11.2-1.7-22.5,0.1-33.7
	c0.3-2.2,0-4.8,3-5.6c3.7-0.3,5.3,0.9,5.1,5c-0.4,6.1,0.1,12.3-0.2,18.5c-0.1,3.8,1.4,4.8,5,4.8c20.3-0.1,40.7-0.1,61,0
	c2.8,0,4.6-1.5,7-2.1c1.5,1.2,1.2,3,1.3,4.6c0.5,6,4,9.4,9.8,9.7c4.2,0.2,8.6-3.7,9.5-8.5c0.3-1.6,0-3.3,1.1-4.8
	c0.3-0.4,0.9-0.5,1.3-0.2c1.1,0.9,2.4,1.3,3.8,1.2c1.6,1.1,3.5,0.6,5.2,1c9.8,1,19.7,0.2,29.6,0.4c2.8,0.1,5.6,0,8.4,0
	c2.2,0.4,2.3,2.3,2.1,3.9c-2.1,17.9-5.8,35.3-17.8,49.7c-3.7,1-6.9-0.8-10.1-1.8c-8.4-2.6-17.1-4.3-25.1-8c-0.6-2.6,2-2,3-3
	c1.6-0.3,3.1-0.4,4.7-0.3c2.3,0.3,4.4-0.9,6.7-1c1.7,0.2,3.2-0.8,4.8-0.7c0.3,0,0.6,0.3,0.7,0.6c0.3-0.4,0.3-1,0-1.5
	c-0.8-0.9-0.8,0.5-1.4,0.5c-2.2,1.3-4.9,0.7-7.2,1.5c-3.2,1.1-6.7-0.4-9.8,1.3c-4.4,1-8.9,0.4-13.4,0.5c-11.8-0.2-23.5-1.6-35.3-2.5
	c-1.9-0.4-3.6-1.2-5.5-1c0.6,0.2,1.4,0,2.2,0.2c3.9,1.6,8.1,1.4,12.1,1.6c6.5,0.4,13,1.8,19.5,1.3c2.2,0,4.1,1.2,6,2
	c10.4,5.4,21,10.5,31.4,15.8c1.9,0.9,4.1,1.5,5,3.8c0.1,2.6-2,3.6-3.6,4.9c-7.7,6.1-16.3,10.6-25.1,14.6c-0.8,0.5-1.8,0.7-2.8,0.6
	c-17.1,2.6-33.5-0.5-49.9-5.2C181.7,287.9,174,285.2,167.8,279.9z"/>
<path class="st1" d="M189.8,110c16.2-4.4,32.4-7,49-2c1.1,1.8,3.2,1.3,4.7,2.2c17.4,5.7,30.4,17,40.3,32.1c1.8,2.8,4.6,5.5,3.2,9.4
	c-0.4,0.4-0.9,0.6-1.4,0.6c-0.8-0.1-1.4-0.5-1.9-1.2c-4.1-7.2-19-7.7-27.2-3c-1,0.5-2,1.2-2.8,2c-3.6,4.2-3.6,4.7,0,7.8
	c2.8,0.8,4.6-1.4,6.7-2.5c5.8-3,16-0.7,19.8,4.6c0.9,1.2,0.7,2.1-0.5,2.8c-1.1,0.4-2.3,0.5-3.4,0.3h-92.5c-1,0.1-2,0-2.9-0.3
	c-2.5-1.4-1-2.7,0.2-3.8c6.8-5.7,19.6-10.5,29.8-5.2c0.7,0.4,1.5,0.8,2.2,1.1c1.8,0.7,4.1,2.5,5.4,0.6c1.7-2.3-0.7-4.3-2.3-5.9
	c-7.8-7.6-22.5-9.6-32.5-4.3c-2.7,1.3-5.2,2.9-7.6,4.7c-3,2.5-5.6,5.2-4.2,9.7c0.5,1.1,0,2.4-1.1,3c-3.7,0.8-7.5,0.1-10.7,0.4
	c-1.1,0,0,0.8-0.4,0.3c-0.1-0.2,0-0.3,0.4-0.3c38.1,0,76.2,0,114.3,0c2.2,0,4.3,0.2,6.4-0.6c2-1.4,5,0.1,6.8-2.1
	c1.2-1.1,0.5-3.4,2.5-4.1c1.5,3.7,4.8,6.4,8.8,7.2c0.2,0,0.5,0,0.7,0.1c-1.8,1.9-4.1,1-6.1,1c-45.1,0-90.1,0-135.2,0
	c-1.8,0-3.7,0.1-5.5,0.2c-2.9-0.4-2-2.7-1.6-4.1c3.4-10.4,7.4-20.5,14.3-29.2S180.2,115.6,189.8,110z"/>
<path class="st0" d="M233,167.6c23.7,0,47.3,0.1,71-0.1c3.4,0,4.6,0.8,4.5,4.4c-0.2,11.3-0.2,22.7,0,34c0,3-0.6,4-3.8,4
	c-15.3-0.2-30.7-0.1-46-0.2c-7.2,0-10.2-2.6-11.7-9.6c-0.4-1.8-0.7-3.6-1-5.4c-0.7-3.5-2.3-6.3-6.2-6.8c-3.9-0.7-7.8,1.3-9.7,4.8
	c-2,3.5-2.9,7.4-3.8,11.3s-3,5.3-7,5.3c-19.3-0.1-38.7-0.1-58,0c-2.8,0-3.6-0.8-3.6-3.6c0.1-11.5,0.2-23,0-34.5
	c-0.1-3.3,1.2-3.7,4-3.7C185.4,167.7,209.2,167.6,233,167.6z"/>
<path class="st78" d="M189.8,110c-4,4.9-9.7,7.9-14.2,12.3c-11.7,11.2-19.1,24.8-23.5,40.1c-0.4,0.9-0.1,2.1,0.8,2.6
	c-3.6,1.4-7.4,0.7-11.1,0.9c4.5-15.6,12.5-29.9,23.3-41.9c7.4-5.1,14.4-10.6,22.8-14L189.8,110z"/>
<path class="st79" d="M137.1,179.8l-5.3-0.9c-0.7-7,0.4-8.5,7-9.3c4.1-0.5,8.2-0.8,12.3-1.4c2.6-0.4,3.7,0,3.8,3.2
	c0.1,10.4,0.3,10.3-9.9,9.1C142.4,180,139.8,179.9,137.1,179.8z"/>
<path class="st80" d="M227.8,208.8c1.2-4.6,1.9-9.4,3.9-13.8c1.4-3.1,3.8-5.1,7.4-4.9s4,3.4,4.7,6.1c0.7,2.6,1.3,5.1,2,7.7
	c-0.1,2.1-1.6,1.3-2.4,1c-4.8-1.5-9-0.9-12.5,3C230.1,208.7,229.1,209.4,227.8,208.8z"/>
<path class="st81" d="M227.8,208.8c4.8-5.9,11-7.2,18-4.9c1.2,1,1.9,2.5,1.9,4c0.3,0.9-0.2,1.3-1,1.5c-3.6-0.8-6.5-4.8-10.8-2.4
	c-4.5,2.7-5.8,5.7-4.3,9.6c1.5,4.2,4.5,5.4,10.5,4.5c2.3-0.8,3.5-2.6,4.6-4.5c1-1.5,0.7-3.2,0.3-4.8c0-0.4,0-0.9,0.2-1.3
	c1.2-1.6,1.9-0.5,2.6,0.5c1.9,9-6.1,17.1-15.2,13.8c-5.2-1.9-7.2-5.9-7-14.8C227.8,209.6,227.8,209.2,227.8,208.8z"/>
<path class="st82" d="M134.8,165.9c2.8-7.1,4.5-14.9,10.4-20.5c-1.5,7-6.1,13.2-6.5,20.5C137.4,166.6,136.1,167.8,134.8,165.9z"/>
<path class="st0" d="M313.8,177.1c0,2.5,0,4.9,0,7.4c0,0.8,0,1.8-1.1,1.8c-0.8,0.1-1.4-0.5-1.5-1.3c0-0.1,0-0.2,0-0.3
	c0-5.1,0-10.2,0-15.3c0-0.9,0.4-1.6,1.5-1.5s1.1,1,1.1,1.8C313.8,172.2,313.8,174.7,313.8,177.1z"/>
<path class="st83" d="M249.9,211c-0.7-0.2-1.5-1.1-2.2,0.1c-1.5-0.1-1.6-0.9-1-2.1l1.1-1c1.3,0.6,2.3,1.6,3,2.9
	C250.5,210.9,250.2,211,249.9,211z"/>
<path class="st0" d="M185.8,105.9c0.1,2.4-2.3,1.8-3.3,2.8c-2.4-1.1-2.7-3.4-3.2-5.6c-4.6-19.4-11.3-38.2-17.1-57.3
	c-2.1-6.7-5-13.1-8.5-19.1c-3-5.6-7.8-10.1-13.7-12.7c-9-4-17,0.5-19,10.2c-1.4,7-0.4,13.5,1.5,20.1c4.1,14.4,12.2,26.5,20.6,38.5
	c7.3,10.3,14.9,20.4,21.9,30.9c2.7,4,2.1,5.5-2.2,6.2c-14-15.2-25.3-32.5-37.2-49.3c-8.2-11.6-13.5-24.9-15.4-39
	c-1.4-9.4,5.2-23.1,13.2-27.4c7.8-4.1,23.4-1.2,30.8,5.9c5.7,5.5,9.7,12.1,12.7,19.5c8.8,20.9,12.6,43,16.8,65
	C184.4,98.4,185.1,102.2,185.8,105.9z"/>
<path class="st60" d="M162.8,120c3.7-0.4,4-1.8,1.8-4.8c-10.6-14.9-21.3-29.8-31.5-45c-8-11.9-13.5-24.8-14-39.4c0-0.3,0-0.7,0-1
	c0.5-6.9,1-14.1,8.4-17.4c7.7-3.4,14.2,0.1,20.2,4.9c8.3,6.8,11.7,16.6,14.9,26.1c6.6,19.5,13.1,39.1,18.1,59.1
	c0.5,2.1,1.3,4.1,1.9,6.1c0.8,0.6,0.6,1-0.2,1.3c-2.2,0.8-1.1-2-2.4-2.2c-2.1-0.7-2.3-2.7-2.7-4.4c-4.3-17.7-10.9-34.6-15.8-52.1
	c-2.2-7.9-5.4-15.4-9.5-22.5c-3.1-5.8-8.1-10.3-14.1-12.9c-7.5-1.9-13,1.5-14.3,9.3c-0.8,4.6-0.7,9.3,0.3,13.9
	c2.5,10.7,7,20.9,13.1,30c10.4,15.4,21.5,30.4,32,45.6c0.3,0.6,0.6,1.2,0.9,1.8c-0.9,2.3-2.3,4-4.9,4.3L162.8,120z"/>
<path class="st84" d="M151.5,136.3c-0.3,0.4-0.7,0.9-1.1,1.2c-0.2,0.1-0.7-0.2-1-0.3c0.3-0.5,0.7-1,1.1-1.4
	C150.9,135.4,151.4,135.4,151.5,136.3z"/>
<path class="st57" d="M238.7,296.7l2.1-0.9c3.8-1.3,7.5-2.8,11.3-3.8c1.8-0.5,3.8-1.5,5.7,0v0.9l-1,1c-1.9-0.2-3.8,0.6-5,2
	c-3.5-0.2-6.7,0.9-10,1.6C240.5,297.7,239.4,298,238.7,296.7z"/>
<path class="st0" d="M312.5,33l6.1,2.9c6.7,4.7,8.7,11.8,9.7,19.4c0.8,6.3,3.6,11.6,7.6,16.4c3,3.5,3.2,8.9,0.2,12.1
	c-6.9,7.5-12.8,11-23.8,7.6c-0.8-0.2-1.6-0.4-2.3-0.6c-3.8-2.5-7.2-5.6-10-9.2c-2.4-1.2-3.2-3.6-4.4-5.8c-1.5-3-0.5-6.4-1.4-9.5
	c-0.2-0.7-0.3-1.4-0.4-2.1c-0.1-1.1-0.3-2.2-0.6-3.3c-0.1-0.4-0.2-0.9-0.3-1.3c-0.1-2.3-0.9-4.4-2.5-6.1c-0.9-1-1.7-2-2.6-3
	c-2-1.9-4-2.8-6.2-0.2c-1.5,1.2-2.8,2.6-4,4.1c-0.9,1.2-1.4,2.6-1.7,4c-0.5,1.7-1.4,3.3-2.5,4.6c-1.5,1.3-2.3,3.1-2.4,5.1
	c-0.3,1.8-1.1,3.5-2.4,4.8c-1.2,0.9-2.2,2.1-2.9,3.4c-1,1.9-1.7,4-2.7,5.8c-0.5,1-1,1.9-1.4,2.9c-0.9,1.7-1.7,3.4-2.8,5
	c-0.5,0.7-0.9,1.5-1.2,2.2c-0.8,1.8-1.2,3.7-1.9,5.5c-0.6,1.4-1.3,2.8-2,4.1c-0.4,0.8-1,1.5-1.7,2c-1,2.1-1.6,4.9-5,3
	c0.2-6.7,3.9-12.3,6.2-18.2c4.6-11.9,9.9-23.6,15.9-34.9c4-7.4,8.5-14.3,15.8-18.9l9.3-3.8C300.4,29.9,306.4,32.2,312.5,33z"/>
<path class="st85" d="M286.8,151.6c-1.8-7.7-7.2-13.3-12-19c-8.6-10.2-19.5-17.1-32-21.7c-0.2-1,0-1.6,1.2-1.1
	c5.6,1.2,10.5,4.3,15.7,6.3c1.3-0.3,2.7,0.4,3.1,1.7l5,3.1c13.8,9.5,22.7,22.8,29.6,37.7c0.7,1.7,1.2,3.4,1.6,5.2
	c-5.8,1.2-8.9-1-8.9-7C287.9,155.8,287.1,153.9,286.8,151.6z"/>
<path class="st86" d="M243.9,109.8l-1.2,1.1c-1.3-1-3.8-0.3-4-2.8c0.3-0.1,0.6-0.1,0.9-0.1L243.9,109.8z"/>
<path class="st87" d="M267.8,72.4c0.7-1.4,1.3-2.9,2-4.3c1.3-1.6,1.5-3.9,3-5.4c-0.4-1.9,0.8-3,1.9-4.2c0.6-1.8,2-3,2.8-4.7
	c1.1-1.3,2.3-2.4,3.6-3.4c1.4-0.7,2.7-1.6,4.3-0.6c3.6,3.4,4.2,8,4.5,12.4c0.3,7,1.5,13.9,3.7,20.5c0,1.5-0.6,2.8-0.8,4.2v-0.1
	c-1.1,0.6-2,1.4-2.7,2.4c-0.7,1.3-1.6,2.4-2.3,3.6v-0.1c-1.3,1.1-1.8,2.8-2.9,4c-1.9,2.5-5,3.9-6.1,7c-4.8,1.2-6.9,5.8-10.3,8.7
	c-1.7,1.5-3.3,2.7-5.6,2.3l-0.6-0.1c-1.2-0.5-1.5-1.9-2.5-2.7l-0.4-0.2h-0.5c-1.5,0-1.2-2.8-3.2-2c-2.3-0.3-4.3-0.9-3.1-4
	c-0.1-1.1,0.1-2.2,0.6-3.2c0.7-1.6,1.3-3.2,2.1-4.8c0.2-1.5,1.1-2.8,1.6-4.3c0.5-1,1-1.9,1.4-2.9c1.1-1.8,2.2-3.7,3.1-5.7
	c0.4-0.8,0.7-1.6,1.1-2.4c1.1-2,2-4,2.9-6.1C266.2,75.2,267,73.8,267.8,72.4z"/>
<path class="st88" d="M298.9,84.9l-2,2.1l-2.2-2.2c-0.3-0.4-0.6-0.8-0.7-1.3c-0.1-0.7,0.1-1.5,0.6-2.1c1.9-1.1,3.7-1.9,4.3,1.3
	L298.9,84.9z"/>
<path class="st89" d="M284.8,96.9c-0.4-2.4,1.3-3.1,2.9-4C287.5,94.7,287.3,96.6,284.8,96.9z"/>
<path class="st90" d="M287.8,92.9c-0.1-1.6,0.7-3,2-3.9c0.4,0.1,0.7,0.5,0.7,0.9C290.2,91.3,289.2,92.5,287.8,92.9z"/>
<path class="st91" d="M294.8,83.4c0,0.5-0.1,1-0.2,1.5l-1.9,2.1c-1.9-1-0.4-2.1,0-3.1C293.3,83.3,294.1,83.1,294.8,83.4z"/>
<path class="st92" d="M290.4,89.9l-0.7-0.9c0.6-1.3,0.9-3,3-2.1L290.4,89.9z"/>
<path class="st3" d="M281.7,267c0.1-1.5,0.7-2.9,1.7-4.1c9-11.7,12.1-25.5,14.3-39.7c0.5-3.1,1.5-6.1,1-9.3
	c-0.3-0.2-0.4-0.5-0.3-0.7s0.2-0.3,0.4-0.3c2.8,0.5,7.8-2.9,7.1,3.9c-0.9,5.2-1.5,10.5-2.8,15.6c-2.2,9.3-3.9,18.7-8.4,27.3l-6,9
	c-0.3,0.4-0.8,0.7-1.3,0.8C285.2,269.3,282.6,270,281.7,267z"/>
<path class="st93" d="M301.7,253c0,1.3,0,2.5,0,3.8"/>
<path class="st87" d="M137.9,14.9c9.5,3.2,14.3,10.7,18.1,19.3c8.4,19.2,13.2,39.6,19.8,59.5c1.5,4.7,2.8,9.5,4.1,14.3
	c-0.2,4.1-4,4.6-6.5,5.3c-1.5,0.4-1.3,1.9-2.4,1.9c-1.8,0.3-2.7-0.9-3.5-2.2c-11.9-18.6-26.1-35.7-35.5-55.9
	c-4.5-9.5-6.9-19.4-6.4-29.9c0.1-3,0.8-5.9,2.2-8.6C130,14.3,133.6,13.7,137.9,14.9z"/>
<path class="st94" d="M137.9,14.9c-7.5,0.2-10.8,3.6-11.2,12c-0.5,9.8,1.5,19.6,5.8,28.5c7.5,15.9,17.3,30.3,27.7,44.3
	c3.7,5,6,11.1,10.7,15.4l-1.2,1.4c-2-0.1-2.6-2-3.5-3.2c-10.5-15-21.1-29.8-31.2-45c-7.7-11.6-13.1-24.2-13.2-38.5
	c-0.1-3.2,0.5-6.3,1.8-9.2C126.3,14.6,131.3,12.6,137.9,14.9z"/>
<path class="st95" d="M281.7,267l6,2c0.2,2.5-2.2,0.6-2.9,1.7l-0.5,0.1h-1.2c-7.9-2.3-15.8-4.8-23.7-7c-2.4-0.7-4.9-0.8-7.3-0.3
	c-0.5,0-0.9-0.1-1.4-0.3c-1.7-3.1-4.9-3.5-7.8-4.5c-1.8-0.6-3.8-0.9-5.5-1.9c-1-0.8-2.8-0.9-2.7-2.8l13.7-0.2c2.1,0,4.5-1.7,6.2,1
	L250,255c-0.7,1.2-3.3-1-3,1.8L281.7,267z"/>
<path class="st96" d="M281.6,279.9c-1,0-2.2,0.2-2.9-1c0.2-2,0.6-3.9,2.2-5.4c0.5-0.1,1,0,1.4,0.3
	C282,275.9,281.8,277.9,281.6,279.9z"/>
<path class="st97" d="M282.3,273.9h-1.5c-0.3-2.3-0.1-4,2.9-3h0.1C283.5,271.9,283.3,273.1,282.3,273.9z"/>
<path class="st98" d="M284.8,270.7l2.9-1.7l1-0.2c0,0.6,0,1.3,0.1,1.9L284.8,270.7z"/>
<path class="st99" d="M283.8,270.9c-1.5,0.2-2.7,1.4-2.9,3c-1.3,1.4,1,4.4-2.1,5l-2.9-0.2l-0.7-0.2c-6.8-4-14-7.4-21-11
	c-1.6-0.8-4.7-1.5-2-4.5c1.4-0.8,2.5-2,4.5-1.4c8.6,2.7,17.3,5.2,25.9,7.8C283,269.6,283.3,270.4,283.8,270.9z"/>
<path class="st100" d="M257.8,292c-5.8,0.7-10.9,4.2-17,3.8c6-4.6,13.6-6.3,19.5-11.2c3.1-2.6,7-4.3,9.5-7.7c2.7-1.4,4.2,1,6.1,1.9
	l-0.1-0.2c0.8,1.7,0.7,2.9-1.2,4.2C269.4,286.7,263.7,289.7,257.8,292z"/>
<path class="st101" d="M262.8,117.9l-3.1-1.7l0.1-2.2c1.3-0.7,2.1,0.6,3.1,0.9v-0.1C263.4,115.8,263.3,116.9,262.8,117.9z"/>
<path d="M253.8,102.9l-1.2,2.9l-0.8-1.9c0.2-0.8-0.2-1.7,0.9-2.1C253.6,101.6,254.1,101.9,253.8,102.9z"/>
<path class="st4" d="M262.8,114.9l-3.1-0.9v-1.9C262.1,111.5,261.8,114,262.8,114.9z"/>
<path class="st102" d="M255.7,109.9c3.3-2.8,1.2,2.7,3.2,2C257.2,112.1,256.8,110.5,255.7,109.9z"/>
<path class="st103" d="M298.8,213c0,0.3,0,0.6-0.1,0.9c-11.2,0-22.5,0-33.8,0c-1.7,0-3.7,0.7-5.2-0.9L298.8,213z"/>
<path class="st104" d="M298.9,82.9c-1-2.3-2.6-1.5-4.2-0.9c-1.3-1.7-0.3-3.3,0.1-4.9c0.4-0.7,0.8-1.2,1.7-1.1
	c1.1,1.9,2.2,3.8,3.3,5.8L298.9,82.9z"/>
<path class="st105" d="M193.6,347.1l4.1,2c0.1,1-0.2,1.5-1.2,1c-5.6-1-11.1-1.9-16.7-0.4c-3.7,1-6.7,2.8-8.6,6.2
	c-7.3,13.2-18.1,23.2-30,32.2c-0.9,0.7-2.3,3.5-3.2-0.1c11-11,23-21.1,31.3-34.7c4.4-7.2,11.9-7.7,19.5-7.1
	C190.3,346.4,192,346.7,193.6,347.1z"/>
<path class="st106" d="M210.7,379.9c-1.5-2.5-1.5-5.6,0.1-8C211.9,374.4,211.9,377.3,210.7,379.9z"/>
<path class="st107" d="M196.5,350.1l1.2-1l5.2,2.9C200.1,353.5,198.6,350.8,196.5,350.1z"/>
<path class="st108" d="M136.9,390c-0.2,1.6-1.3,2.9-2.8,3.4C134,391.5,135.1,391,136.9,390z"/>
<path class="st109" d="M190.8,294.8c12.6,4.5,25.6,6.7,39,5.8c2.5-0.2,3.4,0.4,3,2.8c0.2,0.4,0.3,0.9,0.2,1.3
	c-0.3,1.5-0.8,3-1.6,4.4c-0.8,1.6-1.9,3.1-3.2,4.5c-1.9,1.8-4.2,3.1-6.6,4c-1.4,0.4-2.9,0.4-4.2-0.1c-0.4-0.2-0.8-0.4-1.2-0.6
	c-2.1-1.3-4.2-0.9-6.3-0.2c-1.3,0.6-2.7,1-4.1,1.1c-2.5-0.1-4.6-1.6-7-2c-2.5-1.1-4.5-3-5.8-5.4c-0.6-1.7-1.4-3.4-2.2-5
	c-0.8-1.9-1.8-3.6-2.7-5.5c-0.3-0.6-0.5-1.3-0.6-2C187.3,295.5,188,294,190.8,294.8z"/>
<path class="st110" d="M232.8,303.3l-0.1,0.1c2.2-1,3.1-4,6.2-3.5c1.3,0.2,1.6,0.7,1.7,1.8c-1,4.2-3.5,7.9-3.8,12.3
	c-4.1,1.9-5.7,6.4-9.1,8.9c-9.6,5.4-19.3,3.3-28.9,0.1l-2-1.1c-1.6-1.1-3.2-2.2-4.9-3.3c-1.7-1.9-3.4-3.8-5.1-5.7
	c-0.3-1.2-1-2.3-2-3l-3-6l-1.2-6l-0.9-4l0.3-3.4l6.5,2.5c2.1,1.2,0.2,4.2,2.4,5.4c-0.1,0.2-0.2,0.5-0.3,0.8c0,0.1,0.1,0.3,0.1,0.4
	c0.6,2.1,1.4,4.2,2.5,6.1c0.6,1.6,1.5,3.1,2.6,4.4c0.9,2.2,2.7,3.9,4.9,4.8c2.1,1.3,4.3,2.3,6.7,3c1.9,0,3.6,0.7,5.4,0.7
	c0.5,0,0.9,0,1.4,0c2.1,0.2,4.1,0,6.2-0.4c1.1-0.3,2.2-0.2,3.3-0.7c2.4-1,4.6-2.4,6.6-4.1c1.3-1.4,2.4-3,3.2-4.7
	C232.2,307,232.7,305.2,232.8,303.3z"/>
<path class="st111" d="M188.8,298.4c-2.4-1.1-1.5-3.6-2.4-5.4l2.3,0.8l2,1C188.8,295.3,186.3,295.5,188.8,298.4z"/>
<path class="st112" d="M275.9,278.9c-2.4,0.5-3.9-1.9-6.1-1.9c-10.5-5.4-21.1-10.8-31.6-16.2c-1.6-0.8-3.1-1.8-4.7-2.7
	c0.2-0.7,0.7-1.3,1.4-1.5c5.8,0.8,10.3,5.3,16,6.4l1.2,0.1c-1,2.7,1.4,3,2.8,3.7c6.2,3.1,12.4,6.1,18.5,9.3
	C274.4,276.6,276.8,276.5,275.9,278.9z"/>
<path class="st113" d="M234.8,254l3,1.7c-0.7,1-1.7,0.8-2.6,0.7c-2.2,0.5-4.1-1.1-6.3-0.6c-11.4,0-22.8-1-34-3
	c0.5-2.4,2.1-1.1,3.3-1C210.3,252.4,222.5,254.1,234.8,254z"/>
<path class="st114" d="M223.4,213.6h-66.6v-0.5h66.7L223.4,213.6z"/>
<path class="st115" d="M254.7,254.8c-1.8-1.7-4.2-0.4-6.2-1c3.2-1.3,6.5-0.9,9.8-1c1.2,0,2.9-1.4,3.4,1
	C259.3,253.9,257.1,255.3,254.7,254.8z"/>
<path class="st116" d="M228.8,255.8c2-1.8,4-0.8,6,0.1c0.3,0.2,0.4,0.4,0.3,0.6c-0.1,0.2-0.2,0.3-0.3,0.3l-1.3,1.3
	C231.6,257.9,230.2,256.7,228.8,255.8z"/>
<path class="st117" d="M198.1,251.8c-1.1,0.2-2.5-0.1-3.3,1c-1.7,0-3.4-0.7-4.6-2C192.9,250.5,195.6,250.8,198.1,251.8z"/>
<path class="st118" d="M261.8,253.8c-0.9-1.2-2.2-0.8-3.4-1c2.2-1.5,5.1-0.4,7.3-2.1c1,0.5,1.8,1.1,1.1,2.4L261.8,253.8z"/>
<path class="st119" d="M187.2,244.7l1.3,4.8C185.3,248,185.3,248,187.2,244.7z"/>
<path class="st120" d="M266.7,253.1l-1.1-2.4c-0.3-0.7-1.2-1.6-0.5-2.2s1.4,0.1,1.8,0.8c0.7,1.1,1,2.5,0.8,3.8
	c0,0.1-0.2,0.3-0.3,0.3C267.2,253.3,266.9,253.2,266.7,253.1z"/>
<path class="st121" d="M231.8,262.9l5.4,0.8c-2.5,1.6-4,1.2-5.4,0c-0.2-0.2-0.3-0.3-0.2-0.5S231.7,262.9,231.8,262.9z"/>
<path class="st115" d="M247,256.8c-0.6-0.2-1.5-0.3-1.6-0.7c-0.3-0.7,0.4-1.1,1.2-1.1c1.2,0,2.3,0,3.5,0.1
	C249.2,255.9,247.5,255.3,247,256.8z"/>
<path class="st122" d="M231.8,262.9c0,0.3,0,0.5,0,0.8c-1.3-0.1-2.5-0.2-3-2C229.9,261.2,231.2,261.8,231.8,262.9z"/>
<path class="st123" d="M171.9,161.9c-3.4-4-1.7-7.4,1.2-10.6c10.7-11.7,30.3-13.4,42.7-3.7c0.8,0.6,1.5,1.3,2.2,2.1
	c1.6,2.1,4,4.3,1.8,7s-4.8,1.1-7.2-0.2c-10-5.7-19.4-3.9-28.5,2.2c-1.5,1-2.9,2.2-4.4,3.2C177.1,163.4,174.5,164.4,171.9,161.9z"/>
<path class="st79" d="M284.7,150.9c0.3,0.3,0.7,0.7,1,1c2.5,2.5,3.8,5.3,2.5,8.8c-2.2,2.3-4.5,1.6-6.6,0c-2-1.5-4.1-2.8-6.2-4.1
	c-5.6-3.3-11.1-4.1-16.7,0c-1,0.7-2.1,1.1-3.2,1.2c-5.2-1.3-5.6-2.5-2.1-7.4C263.8,143.3,275.6,143.4,284.7,150.9z"/>
<path class="st124" d="M171.9,161.9c2.6,1.5,5.2,0.4,7.9,0.1c1.8,1.1,3.8,1,5.8,1h89.3c2,0,4,0.2,5.8-1c1.2-0.6,1.8,0.1,2.1,1.1
	c-1.1,1.1-2.5,0.8-3.8,0.8H158.2c-0.8,0-1.6-0.1-3.5-0.3C161.1,161.9,166.8,164.2,171.9,161.9z"/>
<path class="st125" d="M282.8,163.1l-2.1-1.1c-2.3-1.6-4.5-3.3-6.9-4.7c-4.6-2.7-9.2-3.1-13.9,0.3c-2,1.5-4.3,3.5-7.1,1.5
	c-0.3-2.7,2.2-0.9,3-1.9c10.4-6.2,15.1-5.9,24.8,1.5c2.1,1.6,4,3.7,7.1,2.2c0.8-0.3,1.2-0.1,1,0.8
	C287.1,164.1,284.9,163.6,282.8,163.1z"/>
<path class="st126" d="M284.7,150.9c-3.5-0.3-5.8-3.5-9.3-4c-7.7-1.1-14.8,0-21.3,4.1c-1.2,0.3-1.6-0.1-1.4-1.3
	c7.4-6.7,20-8.1,28.2-3.1C282.5,147.7,284.6,148.5,284.7,150.9z"/>
<path class="st127" d="M252.7,149.8l1.4,1.3c-1.1,2.5-5,5.8,1.7,6.1c-1,0.6-2,1.2-3,1.9C248.6,155.7,248.6,154.1,252.7,149.8z"/>
<path class="st128" d="M288.6,161.6l-1-0.8c0.8-3.3-1.1-6-1.9-8.9l1.1-0.3c1.8,1.3,2.4,3.3,3.2,5.2
	C289.5,158.4,291,160.6,288.6,161.6z"/>
<path class="st129" d="M194.8,174c8.5,0,17,0.1,25.5-0.1c3.3-0.1,4,1,4.3,4.2c0.6,9-3.8,16.3-7.5,23.9c-0.9,1.9-2.4,2-4.1,2
	c-14.5,0-29,0-43.4,0c-2.7,0-4-0.6-3.9-3.6c0.1-7.8,0.1-15.7-0.1-23.5c-0.1-3.4,1.3-4.1,4.4-4c8.3,0.2,16.6,0.1,24.9,0.1L194.8,174z
	"/>
<path class="st130" d="M276.2,173.6c7.3,0,14.7,0.1,22,0c2.8,0,3.8,0.9,3.8,3.7c-0.1,7.7,0,15.3,0.2,23c0.1,2.8-0.8,3.8-3.7,3.8
	c-12.8-0.2-25.7-0.2-38.5-0.3c-1.3,0-2.8,0.2-3.6-1.2c-4.7-8.2-8.3-16.6-6.7-26.4c0.4-2.5,2-2.6,4-2.6
	C261.2,173.6,268.8,173.6,276.2,173.6z"/>
<path class="st110" d="M246.6,208.9l1,2.1c-0.1,0.3-0.1,0.7,0.2,0.9c0.6,1.6,0.6,3.4-0.1,5c-1.5,1.9-2.1,4.5-5,5.1
	c-4.2,1.1-7.4-0.2-9.4-4.1c-2.2-4.3-1.5-8,2.4-11.9C240.3,203.8,243.6,206,246.6,208.9z"/>
<path class="st131" d="M235.8,206c-0.6,2.2-2.3,4-2.5,6.4c-0.4,5.3,3,8.9,9.5,9.6c-5.9,2.2-10.4,0.5-12.4-4.7
	C228.6,212.4,230.7,208.2,235.8,206z"/>
<path class="st83" d="M247.8,216.9l0.1-5C249.2,213.2,249.2,215.5,247.8,216.9C247.8,216.8,247.8,216.8,247.8,216.9z"/>
<path class="st132" d="M295.5,77.2c0.6,1.7-0.7,3.1-0.8,4.7l0.1,1.5c-0.7,0.2-1.4,0.3-2.1,0.5c-3.8-8-3.6-16.6-4.7-25.1
	c-0.4-3.1-1.6-6.1-3.4-8.7c1.2-1.6,2.6-0.1,3.8-0.3l2.3,2.8c1.8,2.2,1.4,5.3,3.1,7.5l-0.2,0.2c0.6,1.6-0.4,3.5,0.5,5.1
	c0.5,2,0.7,4,0.5,6C294.5,73.4,295.3,75.2,295.5,77.2z"/>
<path class="st133" d="M288.5,49.9c-1.2,1.4-2.6-0.2-3.8,0.3l-3.8,1c-0.5-0.4-0.6-0.8-0.1-1.2C283.2,44.7,285.8,47.8,288.5,49.9z"/>
<path class="st134" d="M295.5,77.2c-1.4-1.4-2-3.4-1.8-5.3c1.2-1.9-0.4-4.3,1-6.2c0.6,3.4,1.2,6.9,1.7,10.3L295.5,77.2z"/>
<path class="st6" d="M265.9,77.2l-3.2,5.8c-0.4-0.2-0.7-0.6-0.8-1l2.9-6C265.8,75.9,266.3,76.1,265.9,77.2z"/>
<path class="st135" d="M293.9,60.1c-3.4-1.5-2.4-4.9-3.1-7.5C293.5,54.4,293.5,57.3,293.9,60.1z"/>
<path class="st136" d="M261.8,84.9c-0.6,2.2-1.6,4.3-3,6c-0.5-0.1-0.9-0.5-1-1l2.8-5.1c0.3-0.3,0.7-0.3,1.1-0.1
	C261.7,84.9,261.7,84.9,261.8,84.9z"/>
<path class="st137" d="M272.8,62.7c-0.4,2.1-0.2,4.6-3,5.4C269.5,65.6,270.2,63.6,272.8,62.7z"/>
<path class="st138" d="M257.6,93.9c-0.3,1.5-1,2.9-2,4c-0.3,0.3-0.8,0.3-1.1,0c0,0,0,0,0-0.1c0-2.2,1.2-4,2.3-5.8
	C257.4,92.5,257.3,93.3,257.6,93.9z"/>
<path class="st139" d="M254.5,97.9l1.2,0c0,1.8-0.7,3.6-1.9,5l-1.1-1C253.3,100.5,253.9,99.2,254.5,97.9z"/>
<path class="st140" d="M294.8,65.7c-0.8,2,0.6,4.3-1,6.2l-0.2-6.6c-0.4-1.1,0-1.4,1.1-1.4L294.8,65.7z"/>
<path class="st141" d="M265.9,77.2c-0.3-0.4-0.7-0.8-1.1-1.2c0.6-1.5,1.2-3,2.9-3.6C267.9,74.2,267.2,75.9,265.9,77.2z"/>
<path class="st142" d="M257.6,93.9c-0.3-0.6-0.5-1.2-0.8-1.8c0.3-0.7-0.1-1.8,1-2.1l1,1C258.4,91.9,258,92.9,257.6,93.9z"/>
<path d="M278.1,54c-0.7,1.8-1.9,3.3-3.4,4.5c-0.3-2,0.8-3.3,2-4.6c0.3-0.4,0.8-0.5,1.2-0.2C278,53.8,278.1,53.9,278.1,54z"/>
<path class="st143" d="M278.1,54l-1.4-0.1c0.7-1.9,2.1-3.4,4-4c0,0.4,0.1,0.8,0.1,1.2L278.1,54z"/>
<path class="st144" d="M294.6,63.9l-1.1,1.4c-1.5-1.7,0-3.3,0.2-4.9C294.5,61.3,294.9,62.7,294.6,63.9z"/>
<path class="st4" d="M261.8,84.9l-1.2-0.1l1.3-2.9l0.8,1C262.8,83.8,262.4,84.5,261.8,84.9z"/>
<path class="st145" d="M170.9,102.9c0.9-0.1,1.1,0.6,1.3,1.2c0.1,0.4,0,1.2-0.2,1.2c-1.1,0.2-1.3-0.7-1.6-1.4
	C170.1,103.4,170.4,103.1,170.9,102.9z"/>
<path class="st146" d="M234.8,256.9c-0.1-0.3-0.1-0.6,0-0.9l2.9-0.2c3.9,1.3,7.8,2.7,11.8,3.8c2.4,0.6,2.4,1.7,1.3,3.4
	c-1.3,1.8-2.6,0.5-3.8-0.1C242.9,260.9,238.8,258.9,234.8,256.9z"/>
<path class="st147" d="M210.8,319.8c-2.1,0.3-4-0.8-6-1.1c-0.2-0.8,0.2-1.3,0.9-1.5l4.1-1.2c0.3,0.2,0.6,0.4,0.8,0.8
	c0.3,0.5,0.6,1,0.7,1.5C211.4,318.9,211.2,319.5,210.8,319.8z"/>
<path class="st148" d="M228.7,313.7c-1.9,2.1-3.8,4.3-7,3.8l0,0c1.2-2.7,4.2-2.9,6-4.7C228.6,312.5,228.9,312.8,228.7,313.7z"/>
<path class="st12" d="M205.7,317.2l-0.9,1.5c-2.1-1.2-5.2-0.7-6.1-3.8C201.3,314.5,203.3,316.5,205.7,317.2z"/>
<path class="st149" d="M221.6,317.6L221.6,317.6c-0.4,1.4-1.5,1.5-2.7,1.4c-0.6,0.4-1.3,0.5-1.9,0.3c-0.4-0.2-0.7-0.6-0.7-1l0.1-0.7
	l0.4-0.5C218.4,316.8,220.1,316.9,221.6,317.6z"/>
<path class="st150" d="M190.6,306.1c-1.2-2-3.2-3.7-2-6.5c1.7,1.4,2.3,3.4,3,5.4C191.4,305.4,191.3,306,190.6,306.1z"/>
<path class="st151" d="M232.8,303.3c2.2,2.3,0,3.9-0.9,5.6c-0.1,0.3-0.5,0.4-0.8,0.2c-0.1-0.1-0.2-0.1-0.2-0.2
	C231,306.9,231.7,305,232.8,303.3z"/>
<path class="st6" d="M190.6,306.1l1-1.1c0.8,1.7,2.1,3.2,2.2,5.1C191.2,309.9,191.2,307.8,190.6,306.1z"/>
<path class="st152" d="M230.9,308.9c0.3,0,0.7,0,1,0c-0.3,2-1.5,3.7-3.2,4.8l-1-0.9C228.6,311.5,229.2,309.8,230.9,308.9z"/>
<path class="st153" d="M209.8,317c0-0.3,0-0.6,0-1c2.2-2,4.5-1.7,6.8-0.2c-1.5,1.6-3.5,1.2-5.4,1.4
	C210.7,317.3,210.2,317.2,209.8,317z"/>
<path class="st154" d="M210.8,316.9c1.7-1.7,3.9-0.6,5.8-1c0,0.4,0.1,0.8,0.2,1.2V317C215.1,318.5,212.4,318.5,210.8,316.9z"/>
<path class="st155" d="M216.6,317.7l0.4,1.2c-1.6,1.1-3.7-0.2-5.3,0.9h-1v-1.9C212.7,317,214.6,317.3,216.6,317.7z"/>
<path class="st55" d="M211.8,319.9c1.5-1.7,3.5-0.7,5.3-0.9h1.9C216.7,320.3,214.2,319.9,211.8,319.9z"/>
<path class="st79" d="M218.2,154.3c-0.7,2.5-2.1,1.4-3.4,0.7c-4.1-2.4-8.3-4.1-13.1-4.1c-7.4-0.1-14.6,2.2-20.5,6.5
	c-2.2,1.6-5.2,4.2-7.4,1.6c-2.4-2.9,0.8-5.4,3-7.3c10.7-9,25-10.2,36.2-3.3C215.4,149.7,217.2,151.8,218.2,154.3z"/>
<path class="st156" d="M191.3,201c-6.1,0-12.3-0.1-18.4,0.1c-3.2,0.1-4.5-0.8-4.3-4.2c0.2-5.6,0.2-11.3,0-17c-0.1-3,0.8-4.1,3.9-4
	c15.3,0.4,30.5,0.7,45.8,0.9c2.6,0,3.3,0.9,3.4,3.5c0.3,7.5-3.8,13.2-6.9,19.5c-0.8,1.7-2.6,1.2-4,1.2
	C204.2,201,197.8,201,191.3,201z"/>
<path class="st71" d="M276.2,176.6c6.2,0,12.3,0.1,18.5,0c3.1-0.1,4.5,0.7,4.4,4.1c-0.2,5.5,0,11,0.3,16.5c0.1,3-0.7,4.1-3.9,4
	c-11.2-0.2-22.3-0.3-33.5-0.2c-2.2,0.3-4.3-1-5-3.1c-2.5-5.4-5.4-10.6-4.7-17c0.3-3.1,0.9-4.4,4.3-4.3
	C263.2,176.8,269.8,176.6,276.2,176.6z"/>
<path class="st157" d="M216.6,317.7l-5.9,0.2l-1-1c0.3,0.1,0.7,0.1,1-0.1l6,0.1C216.7,317.2,216.7,317.4,216.6,317.7z"/>
</svg>
