<svg id="Layer_1" data-name="Layer 1" xmlns="http://www.w3.org/2000/svg" viewBox="0 0 287.87 384.5"><defs><style>.cls-1{fill:#fff;}</style></defs><path class="cls-1" d="M866.11,646.42a26.28,26.28,0,0,1,1.86-2.33c3.1-3,3.93-6.6.76-9.64-3.35-3.23-6.48-.72-9.05,1.85-21.43,21.46-42.92,42.85-64.2,64.45-10.21,10.36-11.75,22.69-6.86,36.06s15.14,20.11,28.89,22.1c12.86,1.86,22.55-4.19,31.08-12.71q76.95-76.79,153.8-153.68c13.91-13.9,27.86-27.75,41.69-41.73,45.4-45.88,36.61-119.78-11.48-155.12-23.61-17.35-50.08-24.21-79.17-19.46a99.46,99.46,0,0,0-50.8,24c-1.53,1.36-3.84,3.81-3.45,5,2.2,7-3.4,9.61-7,13.29a4.71,4.71,0,0,1-3.87,1.2c-3.9-1.15-5.93.76-7.73,3.73-8.47,14-4.84,33.56,8.26,44.28s32.79,10.45,44.91-.83c4.5-4.19,8.84-8.55,13.33-12.76,17.4-16.33,45.48-10.46,54.28,11.55,5.8,14.51,1.76,27.17-8.9,37.87q-54,54.16-108.14,108.16c-1.42,1.41-2.72,2.93-4.14,4.33-2.32,2.3-3.07,5.09-.87,7.52s5.3,3.06,8.07.76c2.39-2,4-1,6.09.49,11.21,8.18,23.11,15.08,36.53,19,1.05.31,2.05.79,3.55,1.38-6.21,6.26-11.87,12.36-18,17.92a11.61,11.61,0,0,1-7.82,2.85C891.59,664.65,879.28,655,866.11,646.42Z" transform="translate(-785.94 -374.74)"/><path d="M866.11,646.42c13.17,8.62,25.48,18.23,41.63,19.55a11.61,11.61,0,0,0,7.82-2.85c6.15-5.56,11.81-11.66,18-17.92-1.5-.59-2.5-1.07-3.55-1.38-13.42-4-25.32-10.86-36.53-19-2.1-1.54-3.7-2.49-6.09-.49-2.77,2.3-5.91,1.62-8.07-.76s-1.45-5.22.87-7.52c1.42-1.4,2.72-2.92,4.14-4.33q54.07-54.07,108.14-108.16c10.66-10.7,14.7-23.36,8.9-37.87-8.8-22-36.88-27.88-54.28-11.55-4.49,4.21-8.83,8.57-13.33,12.76-12.12,11.28-31.73,11.61-44.91.83s-16.73-30.3-8.26-44.28c1.8-3,3.83-4.88,7.73-3.73a4.71,4.71,0,0,0,3.87-1.2c3.57-3.68,9.17-6.26,7-13.29-.39-1.22,1.92-3.67,3.45-5a99.46,99.46,0,0,1,50.8-24c29.09-4.75,55.56,2.11,79.17,19.46,48.09,35.34,56.88,109.24,11.48,155.12-13.83,14-27.78,27.83-41.69,41.73Q925.5,669.37,848.59,746.2c-8.53,8.52-18.22,14.57-31.08,12.71-13.75-2-24-8.62-28.89-22.1s-3.35-25.7,6.86-36.06c21.28-21.6,42.77-43,64.2-64.45,2.57-2.57,5.7-5.08,9.05-1.85,3.17,3,2.34,6.63-.76,9.64A26.28,26.28,0,0,0,866.11,646.42Zm194.78-152c-3.78,1.87-6.62,3.62-9.71,4.67-1.82.61-4.89,1-5.88,0-3.76-3.83-6.77-.67-9.71.64s-8.13.59-7.85,6.55c0,1.14-2.53,3.14-4.15,3.47a105.65,105.65,0,0,1-15.73,2.14c-6,.32-11,2.24-15,6.69-2.46,2.69-5.05,5.26-7.67,7.8-3.13,3-2.85,5.13,1.27,6.45a104.19,104.19,0,0,0,47.29,4.33c6.47-.94,11.66-4.12,14.93-9.79C1054.38,517.41,1058.89,507,1060.89,494.42ZM874.46,703.5c-5.23-1.91-12.05-1.77-12.28-9.77,0-.48-1.22-1-1.94-1.39-2.94-1.54-5.83-3.18-8.88-4.45-1.14-.48-2.67,0-4,0-2.15,0-4.53.48-6.39-.28-2.55-1-4.55-3.37-7.08-4.52-1.39-.64-4-.69-5,.2-6.52,5.91-12.74,12.13-19,18.27-2.29,2.22-2.27,4.32.52,6.09,3.08,2,6,4.2,9.33,5.7,8.71,3.95,17.49,7.79,26.43,11.17,2.37.89,6.47,1,8-.37C861.21,717.68,867.63,710.56,874.46,703.5Zm49.92-116.16c5.88,3.89,10.28,7.63,15.33,10a264.31,264.31,0,0,0,25.89,10,8.36,8.36,0,0,0,7-1.31c6.8-6.07,13.15-12.63,19.62-19-.75-.8-.93-1.16-1.19-1.24-14.75-4.22-27.85-11.62-40.13-20.66-.82-.61-2.87-.85-3.44-.3C939.87,572,932.45,579.41,924.38,587.34Zm27.37-150.21c4-1.09,8.92-2.61,13.93-3.72,3.52-.78,4.88-2.83,5.33-6.18,1.74-13-.07-25.53-4.42-37.71-.52-1.48-3.22-2.59-5.11-3-1.65-.4-3.63.18-5.39.65-8.41,2.22-16.79,4.55-24.47,6.65Zm70.84-34.73a7.84,7.84,0,0,0-.87,1.4c-.38,1.09-.65,2.22-1,3.32-4.33,12.72-8.3,25.57-16.34,36.68-.9,1.24-.53,4,.22,5.66,1.17,2.51,3.41,4.49,4.8,6.92,2.67,4.68,3.79,5,8.44,2a116.08,116.08,0,0,0,28.5-26.18c.93-1.18,1.34-3.93.61-5.06A86.46,86.46,0,0,0,1022.59,402.4Z" transform="translate(-785.94 -374.74)"/><path class="cls-1" d="M1060.89,494.42c-2,12.55-6.51,23-12.24,32.92-3.27,5.67-8.46,8.85-14.93,9.79a104.19,104.19,0,0,1-47.29-4.33c-4.12-1.32-4.4-3.41-1.27-6.45,2.62-2.54,5.21-5.11,7.67-7.8,4.06-4.45,9-6.37,15-6.69a105.65,105.65,0,0,0,15.73-2.14c1.62-.33,4.2-2.33,4.15-3.47-.28-6,4.79-5.19,7.85-6.55s6-4.47,9.71-.64c1,1,4.06.64,5.88,0C1054.27,498,1057.11,496.29,1060.89,494.42Z" transform="translate(-785.94 -374.74)"/><path class="cls-1" d="M874.46,703.5c-6.83,7.06-13.25,14.18-20.3,20.62-1.56,1.42-5.66,1.26-8,.37-8.94-3.38-17.72-7.22-26.43-11.17-3.29-1.5-6.25-3.75-9.33-5.7-2.79-1.77-2.81-3.87-.52-6.09,6.31-6.14,12.53-12.36,19-18.27,1-.89,3.58-.84,5-.2,2.53,1.15,4.53,3.48,7.08,4.52,1.86.76,4.24.26,6.39.28,1.35,0,2.88-.45,4,0,3,1.27,5.94,2.91,8.88,4.45.72.38,1.92.91,1.94,1.39C862.41,701.73,869.23,701.59,874.46,703.5Z" transform="translate(-785.94 -374.74)"/><path class="cls-1" d="M924.38,587.34c8.07-7.93,15.49-15.3,23.06-22.49.57-.55,2.62-.31,3.44.3,12.28,9,25.38,16.44,40.13,20.66.26.08.44.44,1.19,1.24-6.47,6.34-12.82,12.9-19.62,19a8.36,8.36,0,0,1-7,1.31,264.31,264.31,0,0,1-25.89-10C934.66,595,930.26,591.23,924.38,587.34Z" transform="translate(-785.94 -374.74)"/><path class="cls-1" d="M951.75,437.13l-20.13-43.35c7.68-2.1,16.06-4.43,24.47-6.65,1.76-.47,3.74-1.05,5.39-.65,1.89.45,4.59,1.56,5.11,3,4.35,12.18,6.16,24.75,4.42,37.71-.45,3.35-1.81,5.4-5.33,6.18C960.67,434.52,955.76,436,951.75,437.13Z" transform="translate(-785.94 -374.74)"/><path class="cls-1" d="M1022.59,402.4a86.46,86.46,0,0,1,24.33,24.74c.73,1.13.32,3.88-.61,5.06a116.08,116.08,0,0,1-28.5,26.18c-4.65,3-5.77,2.68-8.44-2-1.39-2.43-3.63-4.41-4.8-6.92-.75-1.62-1.12-4.42-.22-5.66,8-11.11,12-24,16.34-36.68.38-1.1.65-2.23,1-3.32A7.84,7.84,0,0,1,1022.59,402.4Z" transform="translate(-785.94 -374.74)"/></svg>