<svg xmlns="http://www.w3.org/2000/svg" viewBox="0 0 612.04 480.96"><defs><style>.cls-1{isolation:isolate;}.cls-2{fill:#fee1df;}.cls-3,.cls-6{fill:#ff7fad;}.cls-4,.cls-5{fill:none;stroke:#231f20;stroke-miterlimit:10;}.cls-4{stroke-width:2px;}.cls-6{fill-opacity:0.49;}.cls-7{fill:#f1f2f2;opacity:0.67;mix-blend-mode:overlay;}.cls-8{fill:#231f20;}.cls-9{fill:#ca453a;}.cls-10{fill:#fff;}.cls-11{fill:#c07c60;}</style></defs><g class="cls-1"><g id="Layer_2" data-name="Layer 2"><g id="Layer_4" data-name="Layer 4"><path class="cls-2" d="M180.61,213.37a61,61,0,0,0,26.17,86.27c6.59,3.15,13.86,5.11,21.15,4.74,16.51-.86,30.4-13.64,37.88-28.38,4.18-8.25,6.85-17.42,6.61-26.67-.29-11.23-4.79-21.93-10.22-31.77-5.93-10.76-14-21.56-25.84-24.85-8.12-2.26-16.8-.59-24.9,1.74-11.72,3.36-23.94,8.87-30.13,19.16ZM426.13,386.12c-.08,0,.08-.23.66-.93,30.09-12.63,61.54-32.32,83.68-56.78L508.94,327A156.93,156.93,0,0,1,487,339.25c-30.54,14.21-68.73,22.59-101.65,28.91-42.09,8.08-85.54,11-127.84,4.1-22-3.59-43.48-9.78-64.68-16.66-24.62-8-49.5-17.23-69.33-33.85l-.14.17a118.65,118.65,0,0,0,29.05,32.86,134.35,134.35,0,0,0,20.23,13.16A142.67,142.67,0,0,0,213,382.08l1.11.83c-9.71,16.95-30,46.16-30,46.16-32.27-7.45-57.9-12.45-88-26.28s-58-34.58-74.66-63.19C16.79,232.28,44,150.18,97.13,56.81l0,0c44.66-24,91-48.47,141.48-52.5l.72,2.7A330.35,330.35,0,0,0,107.8,76.71c43.46-30.12,97.38-40.49,149.79-47.65,19.79-2.71,39.65-5.06,59.6-5.83C388.3,20.5,462.37,44,523.74,80a379,379,0,0,0-138-71.49l-.17-1.76c26-6,53.46-.67,78.21,9.24s47.47,24.19,70.91,36.92l1.48,1c47,96.73,69.3,189.3,72,296.82l-1.75,2.08A261.9,261.9,0,0,1,451.61,424c-11.27-12.68-19.82-23.35-27.84-36.46Zm27.8-119.61c6.09-17,2.38-36.49-6.84-52a56.17,56.17,0,0,0-12-14.64c-17-14.19-43.16-13-62.23-1.73l.88,1.65c-7,4-12.14,11.09-14.88,18.76-3.14,8.76-3.47,18.29-2.8,27.57.56,7.73,1.81,15.48,4.76,22.64,7.63,18.51,27.31,31.34,47.32,30.87S447.19,285.36,453.93,266.51Z"/><path class="cls-3" d="M423.77,387.57c8,13.11,16.57,23.78,27.84,36.46-10.4.71-14.17-.35-22.33-.51-11.68-13.14-22.68-23.62-31-37.4a33.09,33.09,0,0,1,4.9-4c16.23-11.26,52.16-21.68,84-42.48l-.16-.35A156.93,156.93,0,0,0,508.94,327l1.53,1.41c-22.14,24.46-53.59,44.15-83.68,56.78-.58.7-.74.93-.66.93Z"/><path class="cls-3" d="M487,339.25l.16.35c-31.79,20.8-67.72,31.22-84,42.48-105.16,22.51-185.95,8-250.8-27.3a118.65,118.65,0,0,1-29-32.86l.14-.17c19.83,16.62,44.71,25.87,69.33,33.85,21.2,6.88,42.68,13.07,64.68,16.66,42.3,6.89,85.75,4,127.84-4.1C418.27,361.84,456.46,353.46,487,339.25Z"/><path class="cls-3" d="M97.13,56.81C44,150.18,16.79,232.28,21.46,339.6,38.15,368.21,66,389,96.12,402.79s55.72,18.83,88,26.28l-.19,1.6c-40.38-4.8-75.32-14.07-105.36-27.88s-58-34.58-74.66-63.19C-.77,232.28,26.49,150.17,79.57,56.8l.05,0c42.4-28.24,88.29-52.58,159-52.5-50.53,4-96.82,28.52-141.48,52.5Z"/><path class="cls-4" d="M97.23,56.63l-.1.18C44,150.18,16.79,232.28,21.46,339.6"/><path class="cls-4" d="M97.17,56.83c44.66-24,91-48.47,141.48-52.5"/><path class="cls-4" d="M240.66,6.68,239.37,7A330.35,330.35,0,0,0,107.8,76.71c-1,.88-2,1.78-3.06,2.68"/><path class="cls-4" d="M21.46,339.6C38.15,368.21,66,389,96.12,402.79s55.72,18.83,88,26.28"/><path class="cls-4" d="M122,322.18l1.92,1.9"/><path class="cls-4" d="M123.36,321.92a118.65,118.65,0,0,0,29.05,32.86,134.35,134.35,0,0,0,20.23,13.16A142.67,142.67,0,0,0,213,382.08"/><path class="cls-4" d="M512.66,325.94c-.72.83-1.45,1.65-2.19,2.47-22.14,24.46-53.59,44.15-83.68,56.78-.58.7-.74.93-.66.93s1.13-.86,1.54-1"/><path class="cls-4" d="M606.41,352.85A261.9,261.9,0,0,1,451.61,424"/><path class="cls-4" d="M422.88,386.12c.29.49.59,1,.89,1.45,8,13.11,16.57,23.78,27.84,36.46"/><path class="cls-4" d="M214.13,382.91c-9.71,16.95-30,46.16-30,46.16"/><path class="cls-4" d="M107.14,77.16c.22-.15.44-.31.66-.45,43.46-30.12,97.38-40.49,149.79-47.65,19.79-2.71,39.65-5.06,59.6-5.83C388.3,20.5,462.37,44,523.74,80"/><path class="cls-4" d="M385.75,8.54A379,379,0,0,1,523.74,80"/><path class="cls-4" d="M536.18,54c47,96.73,69.3,189.3,72,296.82"/><path class="cls-4" d="M122.77,321.15c.24.2.48.41.73.6,19.83,16.62,44.71,25.87,69.33,33.85,21.2,6.88,42.68,13.07,64.68,16.66,42.3,6.89,85.75,4,127.84-4.1,32.92-6.32,71.11-14.7,101.65-28.91A156.93,156.93,0,0,0,508.94,327l1.53-1.06"/><path class="cls-4" d="M534.7,52.94c-23.44-12.73-46.15-27-70.91-36.92S411.56.76,385.58,6.78"/><path class="cls-4" d="M79.67,56.63l-.1.17C26.49,150.17-.77,232.28,3.9,339.6"/><path class="cls-4" d="M79.62,56.83c42.4-28.24,88.29-52.58,159-52.5"/><path class="cls-4" d="M3.9,339.6C20.59,368.21,48.46,389,78.56,402.79s65,23.08,105.36,27.88l.19,0"/><path class="cls-4" d="M487.16,339.6c-31.79,20.8-67.72,31.22-84,42.48a33.09,33.09,0,0,0-4.9,4"/><path class="cls-4" d="M398.31,386.12c8.29,13.78,19.29,24.26,31,37.4"/><path class="cls-4" d="M429.28,423.52c8.16.16,11.93,1.22,22.33.51"/><path class="cls-4" d="M150.45,353.71l2,1.07c64.85,35.28,145.64,49.81,250.8,27.3"/><path class="cls-4" d="M184.88,207.06a59.69,59.69,0,0,0-4.27,6.31,61,61,0,0,0,26.17,86.27c6.59,3.15,13.86,5.11,21.15,4.74,16.51-.86,30.4-13.64,37.88-28.38,4.18-8.25,6.85-17.42,6.61-26.67-.29-11.23-4.79-21.93-10.22-31.77-5.93-10.76-14-21.56-25.84-24.85-8.12-2.26-16.8-.59-24.9,1.74-11.72,3.36-23.94,8.87-30.13,19.16-.42.68-.8,1.39-1.16,2.12"/><path class="cls-4" d="M376.84,198.22a27.17,27.17,0,0,0-3.11,1.53c-7,4-12.14,11.09-14.88,18.76-3.14,8.76-3.47,18.29-2.8,27.57.56,7.73,1.81,15.48,4.76,22.64,7.63,18.51,27.31,31.34,47.32,30.87s39.06-14.23,45.8-33.08c6.09-17,2.38-36.49-6.84-52a56.17,56.17,0,0,0-12-14.64c-17-14.19-43.16-13-62.23-1.73"/><path class="cls-5" d="M245.37,323.52l4-6.72"/><path class="cls-5" d="M250.18,317a190.88,190.88,0,0,0,93.35,11.42c21.49-2.78,42.32-9.2,63-15.6"/><path class="cls-5" d="M259,330.8a22.05,22.05,0,0,0,20.1,12.37"/><path class="cls-5" d="M465.3,262.82a46.33,46.33,0,0,1-2.7,12.6c-4.94,13.07-16.58,22.21-27.7,30.66"/><path class="cls-5" d="M470.15,282.1a59.8,59.8,0,0,1-16.51,18.7"/><path class="cls-5" d="M158.13,257.32a16.19,16.19,0,0,0,1.3,7.39,84.8,84.8,0,0,0,34.22,42.68"/><path class="cls-6" d="M238.64,4.32s-63.19,12.85-91.63,27S97.23,56.63,97.23,56.63s-51.34,88.7-62.14,145.73S19.44,324.67,21.45,339.6s18.93,28.93,37.63,41.32,52.64,30.19,76.23,36.27,48.8,11.87,48.8,11.87l14.18-20.79S86.7,367.9,64.65,332.14,62.5,194,85.56,140.84s16.06-56.18,38.38-77.27C158.05,31.32,238.64,4.32,238.64,4.32Z"/><path class="cls-7" d="M385.58,6.78s43.16-9.22,83.8,11.57S536.17,54,536.17,54s38.5,85,48.15,124.36S605.22,293,606.41,313.72a364.55,364.55,0,0,1,0,39.13s-45.95,45.61-93.75,57.57-61,13.61-61,13.61l-6.78-7.79s56.78-13.8,96.15-40.12c44.15-29.51,45.14-41.47,45.14-41.47s7.93-34.62-14-120.26C553.4,141,523.73,80,523.73,80s-20.27-17.92-63.59-42C420,15.7,385.58,6.78,385.58,6.78Z"/><path class="cls-8" d="M95.2,54.68c-5.46,8.78-10.32,18-15.23,27.06q-7.06,13.08-13.53,26.45c-4.19,8.72-8.76,17.25-12.53,26.16s-7.26,17.74-10.46,26.79A457.93,457.93,0,0,0,28,214.74a446.52,446.52,0,0,0-8.73,56.45A406.49,406.49,0,0,0,18.18,331q.22,3.9.51,7.81c.25,3.51,5.58,3.6,5.53,0-.29-20.09.16-40.18,1.74-60.21a432.49,432.49,0,0,1,7.92-55.29A457.63,457.63,0,0,1,48.58,170c3-8.87,6.32-17.64,9.75-26.35,1.73-4.4,3.74-8.94,5.35-13.19s3.2-8.8,5.09-13.06C76.88,99.19,86.13,81.51,95.58,64c1.23-2.3,2.47-4.59,3.67-6.91,1.38-2.67-2.45-4.94-4-2.36Z"/><path class="cls-8" d="M98.23,57.86c4.46-2.23,9-4.31,13.42-6.6s8.75-4.51,13.13-6.76c8.82-4.53,17.72-8.92,26.75-13,17.72-8.08,36-15.08,54.95-19.73,5.29-1.3,10.62-2.46,16-3.27q3.83-.59,7.66-1a44,44,0,0,1,8.5-.37c2.16.2,3.77-2.09,3.5-4a3.55,3.55,0,0,0-4.44-3c-2.37.6-4.84.84-7.26,1.2s-4.88.72-7.3,1.15c-4.84.85-9.68,1.8-14.47,2.91a258.74,258.74,0,0,0-28.35,8.36c-18.86,6.7-37,15.22-54.84,24.33q-7.38,3.76-14.66,7.73c-2.45,1.33-4.95,2.6-7.34,4s-4.88,3-7.36,4.42-.28,4.79,2.11,3.6Z"/><path class="cls-8" d="M240.06,3.73c-2.5.5-5.07.82-7.55,1.39s-4.92,1.43-7.34,2.19q-7.3,2.27-14.49,4.9c-9.68,3.55-19.19,7.56-28.53,11.91a326.26,326.26,0,0,0-52.47,30.53q-7.08,5.06-13.88,10.48a151.85,151.85,0,0,0-13.22,11.33,3,3,0,0,0,4.31,4.31c4-3.15,7.78-6.61,11.76-9.81,3.76-3,7.57-6,11.46-8.87q12.13-9,25-16.83A314.34,314.34,0,0,1,209,19q8-3,16.08-5.54c2.63-.83,5.28-1.64,7.93-2.4s5.47-2,8.23-2.95a2.25,2.25,0,0,0-1.2-4.34Z"/><path class="cls-8" d="M19.9,339.74C31.76,360.83,50,378,70.12,391.21c21.4,14,45.45,23.48,70,30.26,7,1.92,14,3.57,21,5.16,3.59.82,7.18,1.63,10.78,2.4,4,.86,8,2,12.12,2.22,2.78.11,4.22-4.32,1.49-5.51a30.2,30.2,0,0,0-5.15-1.71l-5.33-1.28c-3.17-.77-6.34-1.51-9.51-2.26-6.24-1.47-12.46-3.05-18.68-4.61a321.92,321.92,0,0,1-36.08-11.24,237.58,237.58,0,0,1-33.74-15.9,165.61,165.61,0,0,1-28.64-20.36A139.23,139.23,0,0,1,23,337.92a1.8,1.8,0,0,0-3.11,1.82Z"/><path class="cls-8" d="M121.77,321.66l1.84,2a.47.47,0,0,0,.66,0,.48.48,0,0,0,0-.66l-2-1.82a.35.35,0,0,0-.5,0,.37.37,0,0,0,0,.5Z"/><path class="cls-8" d="M121.7,322.11A123.58,123.58,0,0,0,134,339.18c2.27,2.69,4.48,5.41,6.71,8.12a72.41,72.41,0,0,0,7.19,7.36c11.08,10.16,24.41,17.92,38.3,23.5q6.17,2.46,12.52,4.36c2.11.63,4.25,1.21,6.39,1.74,1,.25,2.07.5,3.11.73,1.64.37,3.43.95,5.06.34a4.54,4.54,0,0,0,3-3,4.35,4.35,0,0,0-1.12-4.23c-1.8-1.68-4.25-1.81-6.56-2.32-1.93-.43-3.86-.9-5.77-1.4Q197.35,372.87,192,371c-1.86-.66-3.71-1.35-5.55-2.09l-1.27-.52-.63-.26c.09,0,.45.19,0,0-.92-.38-1.82-.79-2.73-1.19-3.41-1.54-6.78-3.15-10.09-4.89a149.76,149.76,0,0,1-17.27-10.84c-2.79-2-5.42-4.11-8.14-6.18a72.87,72.87,0,0,1-7.49-6.31,80.35,80.35,0,0,1-7.27-8.77,111.16,111.16,0,0,1-6.49-9.73c-1.27-2.12-4.58-.2-3.32,1.94Z"/><path class="cls-8" d="M511.13,323.65a102,102,0,0,1-6.87,7.68c-2.49,2.42-5.28,4.63-8,6.82-5.39,4.41-11.14,8.4-16.9,12.29a339.51,339.51,0,0,1-36.54,21.38c-3.48,1.77-7,3.46-10.56,5.07-1.75.8-3.51,1.57-5.27,2.33l-1.13.48h0a6.79,6.79,0,0,0-1.48.67,5.85,5.85,0,0,0-2.62,4.79,4.39,4.39,0,1,0,8.63-1.17,4.94,4.94,0,0,0-1.13-1.94l-1.93,7.34a7.6,7.6,0,0,0,2.73-1.66L428,388.94a41.74,41.74,0,0,0,5.27-2.22q2.44-1.08,4.88-2.22,4.56-2.13,9-4.41c6.2-3.18,12.22-6.69,18.11-10.4a185.87,185.87,0,0,0,33.15-26.4c1.28-1.29,2.61-2.55,3.87-3.86s2.55-3,3.87-4.39c2.61-2.83,5.41-5.48,8-8.34,1.87-2.08-1.27-5.16-3-3.05Z"/><path class="cls-8" d="M608.15,353c3.83,0,3.84-6,0-6s-3.83,6,0,6Z"/><path class="cls-8" d="M605,350.65a133.13,133.13,0,0,1-12.73,10.74c-4.52,3.29-9,6.71-13.55,9.91s-9.6,6.09-14.45,9-9.72,5.65-14.65,8.33-10,5.22-15.07,7.58q-3.82,1.78-7.7,3.43l-.33.14-1,.4-1.9.78c-1.33.54-2.67,1.07-4,1.59a271.64,271.64,0,0,1-32.11,10.22q-9.18,2.28-18.51,3.9c-1.55.26-3.11.52-4.66.76l-2.44.36-.82.12-.81.11-.26,0-.66.09-1.22.15-2.45.29a29.38,29.38,0,0,0-3.16.42,13.11,13.11,0,0,0-2.74,1.14c-2.84,1.33-2,5.84.85,6.55a12.73,12.73,0,0,0,4.64.38c1.5-.15,3-.35,4.49-.54,3.09-.4,6.18-.84,9.26-1.34q8.32-1.36,16.54-3.26a253,253,0,0,0,32.66-9.83c21.67-8.2,42.63-18.89,60.89-33.24,5-3.9,10.29-7.58,14.76-12s9.34-8.85,13.94-13.35c1.86-1.82-1-4.62-2.85-2.85Z"/><path class="cls-8" d="M419.68,387.21a206.17,206.17,0,0,0,12.78,19.14c4.93,6.55,10,13.07,15.47,19.22a4.33,4.33,0,0,0,6.07,0,4.4,4.4,0,0,0,0-6.07c-5.23-5.91-10.52-11.68-15.39-17.89-.3-.38-.8-1-1.32-1.73l-1.64-2.19c-1.09-1.48-2.15-3-3.2-4.46-2.22-3.19-4.34-6.45-6.37-9.75a3.7,3.7,0,0,0-6.4,3.73Z"/><path class="cls-8" d="M211.07,380.35c-2.31,3.58-4.74,7.1-7.07,10.68q-3.87,5.93-7.86,11.77c-4.35,6.39-8.72,12.77-13.23,19-.26.37-1,1.57,0,.06-.35.56-.85,1-1.22,1.59a7.71,7.71,0,0,0-.69,1.26,10.23,10.23,0,0,0-1.16,3.51l.58-2.18,0,0a4.34,4.34,0,0,0,1.55,5.9,4.43,4.43,0,0,0,5.9-1.55l0,0L186.31,432a7.52,7.52,0,0,0,1.74-1.52,14.8,14.8,0,0,0,2.36-3.09c1.63-2.74,3.5-5.37,5.23-8.06,4.85-7.52,9.77-15,14.43-22.61,2.55-4.18,4.91-8.42,7.11-12.79a3.54,3.54,0,1,0-6.11-3.57Z"/><path class="cls-8" d="M107.7,77.36c6.25-2.8,12.09-6.42,18.1-9.72s11.91-6.18,18.06-8.86a288.09,288.09,0,0,1,38.5-13.53c26.89-7.48,54.49-11.68,82.14-15.14,29.62-3.71,59.32-6.3,89.14-3.82a362.94,362.94,0,0,1,82.32,17,415.82,415.82,0,0,1,76.88,33.88q4.54,2.6,9,5.29c4.1,2.46,7.88-4,3.74-6.4a461.38,461.38,0,0,0-77.78-35.61,386.42,386.42,0,0,0-83.68-19.19c-29.87-3.32-59.71-1.81-89.46,2C246.42,26.86,218,31.11,190.36,38,163.76,44.6,136.94,53.88,114,69.21a46.48,46.48,0,0,0-7.68,6.38,1.13,1.13,0,0,0,1.36,1.77Z"/><path class="cls-8" d="M385.28,9.44c4.83,1.58,9.51,3.56,14.29,5.27s9.65,3.57,14.41,5.52c9.22,3.77,18.36,7.62,27.41,11.89a396,396,0,0,1,52.88,30.11q7,4.74,13.82,9.73c4.65,3.4,9.35,6.69,14.09,10,2.9,2,6.2-2.43,3.72-4.82a137.85,137.85,0,0,0-12-10.41c-4.07-3.12-8.21-6.16-12.44-9.07q-12.68-8.73-26-16.42a342,342,0,0,0-55.88-25.8c-5.44-1.93-10.95-3.65-16.49-5.26s-11.23-2.73-16.87-4a1.73,1.73,0,0,0-.93,3.34Z"/><path class="cls-8" d="M533.22,54.91q13,27.65,24,56.15,10.74,27.6,19.13,56,8.28,28,14,56.77c3.83,19.42,6.72,38.59,8.84,58q1.63,15.06,2.74,30.18c.35,5,.62,10.06.94,15.09s.38,10.41,1,15.55c.33,2.74.68,5.45,1.14,8.17a3.22,3.22,0,0,0,3.55,2.32,3.31,3.31,0,0,0,2.81-3.18c1.23-10.3.47-20.77-.18-31.09s-1.49-20.41-2.54-30.6q-3.1-29.9-8.84-59.46-5.6-28.95-13.66-57.36t-18.75-56.26q-11.07-29-24.8-56.75c-1.15-2.35-2.32-4.69-3.49-7a3.46,3.46,0,0,0-4.68-1.23,3.5,3.5,0,0,0-1.23,4.69Z"/><path class="cls-8" d="M121.76,321.39c1.11.91,2.22,1.88,3.41,2.69,1.71,1.17,3.41,1.82,4.69,3.56,1.8,2.45,4.59,4,7.15,5.6a168,168,0,0,0,17.2,9.33,309.65,309.65,0,0,0,36.4,14c27.5,9,55.44,16.65,84.29,19.64,29.13,3,58.57,1.7,87.54-2.35,13.26-1.85,26.42-4.36,39.53-7,12.21-2.5,24.38-5.17,36.43-8.34,23.25-6.12,46.76-13.83,67.39-26.42a39.1,39.1,0,0,0,6.56-5c2.28-2.14-.62-5.46-3.21-4.16-4.91,2.47-9.46,5.51-14.29,8.14-5,2.71-10.1,5.17-15.31,7.43a293.14,293.14,0,0,1-34,12.06A624.68,624.68,0,0,1,372.49,367c-28.27,4.74-57.05,7-85.69,5.25s-56.43-8.17-83.78-16.67c-12.55-3.9-25.08-8-37.29-12.86a190.8,190.8,0,0,1-17.66-8q-4.27-2.21-8.39-4.69c-2.49-1.5-5-3.67-7.83-4.46a9.4,9.4,0,0,1-4.35-2.87c-1.15-1.19-2.47-2.2-3.72-3.29s-3.43.86-2,2Z"/><path class="cls-8" d="M536,49.86c-4.88-2.13-9.52-5-14.17-7.56s-9.24-5.12-13.88-7.63c-9.34-5.05-18.61-10.21-28.14-14.89-19-9.33-39-16.52-60.12-18.71A101.39,101.39,0,0,0,402.57.65c-3,.2-6.06.53-9.06,1A59.47,59.47,0,0,0,385,3.89c-2.78.87-1.58,4.65,1.17,4.25,5-.74,10-1.19,15.05-1.46a131.49,131.49,0,0,1,15.12,0A140.24,140.24,0,0,1,446.26,12c19.84,5.62,38.51,14.7,56.45,24.75,5.15,2.88,10.21,5.91,15.32,8.84s10.43,5.61,15.32,8.85A2.67,2.67,0,1,0,536,49.86Z"/><path class="cls-8" d="M77.64,54.68c-5.46,8.78-10.32,18-15.23,27.06-4.7,8.72-9.24,17.52-13.53,26.45-4.19,8.72-8.76,17.25-12.53,26.16s-7.26,17.74-10.45,26.79a456,456,0,0,0-15.43,53.6,448.33,448.33,0,0,0-8.73,56.45A406.49,406.49,0,0,0,.63,331q.22,3.9.5,7.81c.25,3.51,5.59,3.6,5.53,0-.29-20.09.16-40.18,1.74-60.21a430.75,430.75,0,0,1,7.93-55.29A455.62,455.62,0,0,1,31,170c3-8.87,6.32-17.64,9.75-26.35,1.73-4.4,3.74-8.94,5.36-13.19s3.19-8.8,5.08-13.06C59.32,99.19,68.57,81.51,78,64c1.24-2.3,2.47-4.59,3.67-6.91a2.35,2.35,0,0,0-4-2.36Z"/><path class="cls-8" d="M80.67,57.86c4.25-2.67,8.62-5.15,12.89-7.79S102,45,106.31,42.48c8.7-5,17.62-9.74,26.77-13.92A242.7,242.7,0,0,1,195.51,9.65Q205.64,8,215.86,7.27c3.64-.28,7.3-.39,10.95-.48A63.85,63.85,0,0,1,237.7,7c2.25.34,4.51-.94,4.51-3.44S240-.22,237.7.12c-3.27.49-6.7.42-10,.59s-6.46.38-9.68.66c-6.42.55-12.82,1.17-19.19,2.08a243.2,243.2,0,0,0-33.89,7.32,272.44,272.44,0,0,0-58,25.1c-4.89,2.79-9.69,5.73-14.44,8.75s-9.33,6.37-14,9.64c-2.16,1.52-.2,5.05,2.11,3.6Z"/><path class="cls-8" d="M2.34,339.74C15.41,362.91,36.08,381.32,58.7,395c23.12,13.93,48.93,23.2,75.05,29.66,8,2,16.08,3.6,24.2,5,4.21.72,8.44,1.39,12.68,2,4.42.6,9,1.54,13.48,1.31,3.28-.17,4.06-4.83.78-5.8-3.72-1.1-7.69-1.38-11.53-2s-7.55-1.19-11.32-1.86c-7.15-1.25-14.25-2.73-21.34-4.31a342.14,342.14,0,0,1-39.36-11.21A258.25,258.25,0,0,1,66.15,392.5,173.19,173.19,0,0,1,33.86,371a140.3,140.3,0,0,1-28.4-33.1,1.81,1.81,0,0,0-3.12,1.82Z"/><path class="cls-8" d="M486.07,337a75.42,75.42,0,0,1-10.3,6.38c-3.68,1.71-7.31,3.5-11,5.12-6.86,3-13.68,5.85-20.65,8.64-1.88.76-3.76,1.48-5.62,2.27l-1.08.46c-.63.26.58-.25-.05,0l-.53.22-2.47,1-9.86,4.15c-5.38,2.28-10.72,4.64-15.89,7.36a80,80,0,0,0-6.94,4.05c-1.13.74-2.22,1.54-3.29,2.37a9.88,9.88,0,0,0-2.15,2.18c-1.25,1.69-1,3.53-.2,5.35l-.3-2.29c0,.11,0,.22-.07.33A2.8,2.8,0,0,0,399,388l.33-.07-2.29-.3c2.81,1.55,5,.42,7.24-1.34.3-.24,1.06-.66-.18.13.19-.12.36-.27.54-.4.44-.32.89-.64,1.34-.94,1.91-1.31,3.92-2.5,6-3.62,4.94-2.73,10.08-5.1,15.18-7.49,6.1-2.84,12.28-5.51,18.31-8.5,6.7-3.33,13.32-6.8,19.8-10.56,3.77-2.19,7.59-4.44,11.18-6.92,3.82-2.64,7.88-4.84,11.81-7.31,2.35-1.48.11-5.28-2.18-3.73Z"/><path class="cls-8" d="M395.11,387.21a138.73,138.73,0,0,0,14.22,19.35c2.6,3,5.32,6,8,9,2.77,3.16,5.45,6.43,8.32,9.49a4.31,4.31,0,0,0,6.05,0,4.38,4.38,0,0,0,0-6.05c-2.72-3.19-5.76-6.13-8.67-9.14-2.68-2.77-5.28-5.63-7.84-8.5a124.4,124.4,0,0,1-13.64-17.88,3.7,3.7,0,0,0-6.4,3.73Z"/><path class="cls-8" d="M429.28,426.17c3.54.11,7.06.47,10.6.71,1.8.13,3.6.19,5.41.19,1.08,0,2.15,0,3.23-.07.6,0,1.2,0,1.8-.08a5.47,5.47,0,0,0,3.2-1.29c1.74-1.36,1-4.22-.67-5.22-1.45-.88-2.93-.62-4.52-.56-1.07,0-2.14.07-3.21.08-1.79,0-3.59-.05-5.38-.13-3.49-.17-7-.44-10.46-.47a3.42,3.42,0,1,0,0,6.84Z"/><path class="cls-8" d="M150,353.79q4.84,2.7,9.79,5.23c3.26,1.67,6.44,3.46,9.66,5.22A179.21,179.21,0,0,0,190,373.55a296.18,296.18,0,0,0,44.09,13.34,341,341,0,0,0,49.28,6.81c17.74,1.28,35.79,1.72,53.5-.15,19.84-2.1,39.71-4.61,59.12-9.34,2.51-.61,5-1.33,7.49-2,1.16-.33.65-1.94-.49-1.77-10.2,1.55-20.37,3.26-30.61,4.55-9.57,1.2-19.14,2.65-28.79,3.16-17.93.94-35.95,1.82-53.9,1.08a318.51,318.51,0,0,1-48.57-5.82,335.47,335.47,0,0,1-44.61-12q-5.31-1.83-10.55-3.85c-3.4-1.32-6.73-2.86-10.16-4.09s-6.75-2.81-10.2-4-6.7-3.18-9.89-4.86q-2.37-1.26-4.73-2.55c-1.11-.61-2.1,1.08-1,1.7Z"/><path class="cls-8" d="M183.28,204.7A55.38,55.38,0,0,0,169.53,237a67.37,67.37,0,0,0,5.74,33.54,63.32,63.32,0,0,0,8.49,14.19,65.31,65.31,0,0,0,12,11.4c10,7.39,22.67,12.2,35.2,10.35a45.56,45.56,0,0,0,7.48-1.72,44.58,44.58,0,0,0,7.74-3.51A53,53,0,0,0,259,290.86a70,70,0,0,0,9.44-13.47,60,60,0,0,0,6.8-18.62,54.18,54.18,0,0,0-.25-20.07A76.23,76.23,0,0,0,268.23,220a99.71,99.71,0,0,0-8.86-15,54.23,54.23,0,0,0-12.17-12.62,33.7,33.7,0,0,0-17.72-6c-6.86-.38-13.77,1.12-20.28,3.17-10.46,3.29-21.36,8.53-27.94,17.61a20.4,20.4,0,0,0-3.2,7.13c-.48,2,2.19,3.91,3.64,2.12s3.22-3.63,4.91-5.34c.81-.81,1.65-1.58,2.53-2.3,0,0,.94-.74.39-.33l.58-.42c.58-.43,1.16-.86,1.75-1.27a47.37,47.37,0,0,1,6.34-3.72c.56-.28,1.12-.55,1.69-.8l.86-.38c.18-.08.95-.4.21-.1,1.16-.47,2.32-.92,3.5-1.33a106.62,106.62,0,0,1,16.46-4.42l2.32-.4.19,0,1.4-.16a40.17,40.17,0,0,1,4.65-.18c.77,0,1.55.07,2.31.14-.13,0,1.37.17.8.09l.8.14a27.56,27.56,0,0,1,4.16,1.14l.87.32c.76.3.17.08,0,0,.57.25,1.13.52,1.68.8a33.5,33.5,0,0,1,3.5,2.11l1.36,1c.58.42-.73-.6.2.16.25.19.49.39.73.59,1,.85,2,1.75,2.93,2.69s1.77,1.84,2.58,2.82l.48.6c.78,1-.21-.3.23.28s.85,1.14,1.26,1.71c1.53,2.15,2.95,4.39,4.28,6.67,5.85,10.05,11,21.25,11.15,32.89a50.51,50.51,0,0,1-3.17,17.3,56.76,56.76,0,0,1-7.29,14.56c-5.42,7.71-13.27,14.61-22.25,17.55a30.8,30.8,0,0,1-15,1.1,50,50,0,0,1-16.31-5.88A63.33,63.33,0,0,1,183.47,274a52.91,52.91,0,0,1-8.68-29,63.62,63.62,0,0,1,2.27-15.76,71.65,71.65,0,0,1,5.71-14.89,77.68,77.68,0,0,1,4-6.95c1.38-2.14-1.81-4.62-3.54-2.73Z"/><path class="cls-8" d="M376.15,194.94a21.72,21.72,0,0,0-8.21,3.84,33.92,33.92,0,0,0-5.83,5.84,44.25,44.25,0,0,0-8,16.08,70.63,70.63,0,0,0-2,20.49,91.53,91.53,0,0,0,2.7,20.24,55.56,55.56,0,0,0,18.41,28.74,54.07,54.07,0,0,0,30.67,12.54c22.1,1.39,43.94-12.92,52.48-33.16A34.79,34.79,0,0,0,459,261.1c.46-3.14.75-6.34,1-9.51a67.25,67.25,0,0,0-1.4-18.45,70.11,70.11,0,0,0-17.41-33.41,49.41,49.41,0,0,0-13.63-10.07,50.84,50.84,0,0,0-16.67-4.56A61.29,61.29,0,0,0,378,190.65a64,64,0,0,0-6.83,3.78c-3.64,2.31-.43,7.83,3.38,5.79a64.84,64.84,0,0,1,13.9-5.41A64.06,64.06,0,0,1,396,193.2l.92-.14c.72-.11-.93.1.26,0l1.85-.2c1.3-.11,2.6-.19,3.91-.23a57.87,57.87,0,0,1,7.56.31l1.09.13c-.16,0-.73-.11.05,0q.9.13,1.8.3c1.32.25,2.62.55,3.91.9,1.11.3,2.21.65,3.29,1,.57.2,1.14.41,1.7.64.17.06.91.36.23.08l1.61.68c-.76-.33.33.16.4.19l.66.3c.55.26,1.09.54,1.62.82,1.19.62,2.34,1.3,3.46,2a35,35,0,0,1,5.71,4.84,50.1,50.1,0,0,1,5.45,6.63,72.81,72.81,0,0,1,7.86,14.85,66.36,66.36,0,0,1,4.11,16.14,53.69,53.69,0,0,1,.28,8.69,29.92,29.92,0,0,1-1.41,7.66c-.83,2.67-1.65,5.37-2.73,7.95.23-.54,0,0-.05.12l-.45,1c-.26.54-.52,1.09-.8,1.62-.58,1.13-1.21,2.23-1.88,3.31s-1.25,1.93-1.92,2.86l-.65.87c.1-.13.38-.47-.08.11s-.92,1.12-1.39,1.67a51.31,51.31,0,0,1-5.26,5.27,36.35,36.35,0,0,1-5.53,4,59.44,59.44,0,0,1-6.76,3.53c-.1.05-.68.3-.07,0l-1,.41-1.53.57c-1.19.43-2.41.8-3.63,1.14s-2.34.59-3.53.81c-.59.12-1.19.21-1.79.31-1.14.2.49,0-.21,0l-1.26.14a45.37,45.37,0,0,1-7.28.13c-1.21-.07-2.42-.21-3.63-.36s.81.15-.38,0l-.72-.12c-.72-.12-1.44-.25-2.15-.41a49.5,49.5,0,0,1-7.17-2.1c-.52-.19-1-.39-1.53-.6.71.3-.39-.17-.43-.19l-.67-.3c-1.22-.56-2.42-1.17-3.59-1.82a46.47,46.47,0,0,1-11.42-8.74,41.81,41.81,0,0,1-8-11.91c-.48-1.05-.83-1.91-1.33-3.33-.57-1.6-1.06-3.24-1.48-4.88a71.06,71.06,0,0,1-1.62-8.62,101.56,101.56,0,0,1-.75-19.09,51.26,51.26,0,0,1,1.31-8.74c.35-1.47.77-2.94,1.26-4.38a30.14,30.14,0,0,1,1.37-3.43,32.15,32.15,0,0,1,9-11.77,51.16,51.16,0,0,1,5.59-4.22,2.61,2.61,0,0,0-2-4.76Z"/><path class="cls-8" d="M246.64,323.49c.73-1.16,1.47-2.32,2.19-3.49l1-1.71c.18-.3.38-.6.55-.9a1.82,1.82,0,0,0,.14-1.68,1.21,1.21,0,0,0-1.15-.88,4.07,4.07,0,0,0-.61.08,1.84,1.84,0,0,0-1,.78c-.19.29-.36.61-.54.91l-1.06,1.77c-.71,1.2-1.4,2.42-2.1,3.63a1.49,1.49,0,0,0,.53,2,1.51,1.51,0,0,0,2-.53Z"/><path class="cls-8" d="M249.76,317.78a182.72,182.72,0,0,0,59.87,13.27c21.14,1.14,42.07-1.59,62.57-6.68,11.76-2.92,23.43-6.35,35-10.06,2.81-.9,1.64-5.3-1.23-4.45-20.47,6.08-40.79,12.71-62,15.61a189,189,0,0,1-60.18-1.58,211.52,211.52,0,0,1-33.14-9.14c-1.93-.7-2.66,2.27-.83,3Z"/><path class="cls-8" d="M257.72,330.79a23.68,23.68,0,0,0,8.79,9.94c3.82,2.44,8.54,4,13.09,3.38a1.75,1.75,0,0,0,1.27-1.95,1.82,1.82,0,0,0-1.75-1.55c-3.87-.39-7.53-1-10.94-3a19.81,19.81,0,0,1-7.83-8.34c-.88-1.77-3.44-.22-2.63,1.54Z"/><path class="cls-8" d="M464.06,261.32c-.9,1.72-.91,3.85-1.28,5.73a43,43,0,0,1-1.54,5.79,40.22,40.22,0,0,1-4.61,9.14c-3.75,5.62-8.71,10.35-13.87,14.66a106.16,106.16,0,0,0-8.83,7.71,1.36,1.36,0,0,0,1.65,2.13c6.27-3.36,11.88-8.35,16.86-13.4a51.42,51.42,0,0,0,11.86-17.56,42.18,42.18,0,0,0,1.93-6.8c.42-2.15,1.14-4.91.46-7.05a1.46,1.46,0,0,0-2.63-.35Z"/><path class="cls-8" d="M469.05,280.69a62.25,62.25,0,0,1-16.12,18.12,1.46,1.46,0,0,0-.51,1.93,1.43,1.43,0,0,0,1.93.5A58.44,58.44,0,0,0,471.24,282a1.27,1.27,0,0,0-2.19-1.28Z"/><path class="cls-8" d="M156.68,256.55c-.43,4.46,1.8,9,3.54,13a91.5,91.5,0,0,0,5.77,11,88.6,88.6,0,0,0,15.64,19A67.72,67.72,0,0,0,192.85,308c1.79,1.05,3.28-1.61,1.61-2.75a98.86,98.86,0,0,1-17.86-15.17,79.87,79.87,0,0,1-13-19.53q-1.44-3.06-2.61-6.23a17.5,17.5,0,0,1-1.44-7.77c.17-1.85-2.71-1.84-2.89,0Z"/><path class="cls-9" d="M404,441.85l1.72-.1a14.91,14.91,0,0,1,5.63,3.74c4.63,4.86,6.36,12.63,3.36,18.72a18.39,18.39,0,0,0-1.57,3.44c-.38,1.51-.16,3.16-.65,4.64a5.1,5.1,0,0,1-5.88,3.19,7.72,7.72,0,0,0-2.19-.5c-1.84.08-2.72,2.27-4.24,3.32a7,7,0,0,1-4.35.8,36.34,36.34,0,0,1-14.52-4,4.6,4.6,0,0,1-1.76-1.34,1.25,1.25,0,0,1-.15-.28c-.51-1-.11-2.35-.66-3.36s-2-1.37-2.8-2.3c-1.14-1.4-.43-3.55.68-5s2.61-2.66,3.1-4.41-.18-4,.87-5.57c.74-1.14,2.14-1.61,3.23-2.43,1.68-1.26,2.53-3.29,3.76-5s3.27-3.2,5.27-2.57c.95.3,1.8,1.06,2.79,1s1.76-.95,2.58-1.58A5.67,5.67,0,0,1,404,441.85Z"/><path class="cls-10" d="M411.59,445.3l-.2.19a14.91,14.91,0,0,0-5.63-3.74l-1.72.1a5.67,5.67,0,0,0-5.78.49c-.82.63-1.56,1.52-2.58,1.58s-1.84-.7-2.79-1c-2-.63-4.05.88-5.27,2.57s-2.08,3.73-3.76,5c-1.09.82-2.49,1.29-3.23,2.43-1.05,1.59-.36,3.73-.87,5.57s-2,3-3.1,4.41-1.82,3.57-.68,5c.78.93,2.21,1.23,2.8,2.3s.15,2.33.66,3.36a1.25,1.25,0,0,0,.15.28l-.14.11c-23.06-31.21-46.6-62.08-69.79-93.2l.55-.41c3.89-12.31,15.2-15.65,22.34-11.35C360.21,394.39,388.57,421.4,411.59,445.3Z"/><path class="cls-11" d="M332.55,369c-7.14-4.3-18.45-1-22.34,11.35l-.55.41C295,361,280.39,341.17,266.17,321.1c7.88,3.78,9.73,4.51,18.35,4.51C299.38,338.79,315.83,353.58,332.55,369Z"/><path class="cls-5" d="M266.17,321.1C280.39,341.17,295,361,309.66,380.71c23.19,31.12,46.73,62,69.79,93.2l.21.28"/><path class="cls-5" d="M284.52,325.61c14.86,13.18,31.31,28,48,43.34,27.66,25.44,56,52.45,79,76.35l1.75,1.82"/><path class="cls-5" d="M334.44,370.36a11.06,11.06,0,0,0-1.89-1.41c-7.14-4.3-18.45-1-22.34,11.35"/><path class="cls-4" d="M266.17,321.1c7.88,3.78,9.73,4.51,18.35,4.51"/><path class="cls-8" d="M264.81,322.16c6.94,10.33,14.29,20.4,21.58,30.48s14.69,20.13,22.12,30.13c14.76,19.88,29.72,39.61,44.68,59.35,4.24,5.58,8.54,11.13,12.82,16.68,2.07,2.69,4.39,5.12,6.51,7.76s4.57,5.45,6.79,8.25c.35.45,1.11-.14.79-.61-1.76-2.54-3.44-5.11-5.12-7.7-.84-1.29-1.79-2.51-2.56-3.85a40.66,40.66,0,0,0-2.44-3.92c-3.61-5-7.2-10-10.89-15Q348,428.82,336.88,414c-14.85-19.81-29.74-39.6-44.48-59.5-8.34-11.27-16.48-22.68-24.86-33.92-1.19-1.59-3.89-.13-2.73,1.6Z"/><path class="cls-8" d="M284.78,327.2Q310,350,334.88,373.27C352.1,389.36,369,405.76,386.1,422q6.82,6.5,13.82,12.81c4.53,4.11,8.76,8.59,13.07,12.93.45.46,1.15-.24.71-.72q-5.55-6-11.18-11.91c-3.83-4-7.38-8.29-11.24-12.28-8.13-8.42-16.48-16.62-24.91-24.73-17-16.34-34.18-32.47-51.74-48.2q-13.87-12.42-27.9-24.66c-1.33-1.16-3.28.76-2,2Z"/><path class="cls-8" d="M406.45,441.74a7.47,7.47,0,0,0-6.28-1.73,6.68,6.68,0,0,0-2.76,1.16c-.43.31-.81.69-1.24,1-.58.44-.73.3-1.37,0a5.79,5.79,0,0,0-6.77.6c-1.95,1.54-2.76,3.8-4.29,5.67s-4,2.31-4.92,4.62.22,4.7-1.31,6.81c-1.41,1.93-3.27,3.43-3.55,6a4.28,4.28,0,0,0,.63,2.9c.65,1,1.66,1.35,2.52,2.07s.43,2.11.69,3.05a4.6,4.6,0,0,0,2.1,2.59,28.37,28.37,0,0,0,7.43,3.1,36,36,0,0,0,8.1,1.39c2.38.14,4.83-.07,6.55-1.92a16.42,16.42,0,0,1,1.78-2.18c.91-.69,2.19.22,3.17.37a6.4,6.4,0,0,0,5.71-2.05c1.77-2,1.37-4.24,1.85-6.66A15.55,15.55,0,0,1,416,465a19.53,19.53,0,0,0,1.06-2.85c2.34-8.55-2.46-18.63-10.84-21.73-2-.74-2.83,2.43-.87,3.19,6.22,2.43,10,9.13,9.48,15.69a12.33,12.33,0,0,1-1.32,4.68,26.31,26.31,0,0,0-1.38,2.76,11.48,11.48,0,0,0-.63,3.29c-.18,2-.78,3.72-2.91,4.32-1.87.53-3.57-.94-5.45-.09-1.54.71-2.41,2.29-3.85,3.08-1.81,1-4.58.4-6.51.07a38.36,38.36,0,0,1-6.89-1.79c-1-.36-1.95-.77-2.89-1.22s-2.13-.78-2.29-1.93a7.31,7.31,0,0,0-.61-2.81,5.67,5.67,0,0,0-2-1.82c-.74-.47-1.29-.85-1.15-1.82a5.44,5.44,0,0,1,1.53-2.73c1.35-1.53,2.65-3,2.94-5.09.13-.95.09-1.91.24-2.85a2.7,2.7,0,0,1,1.51-2.13,12.52,12.52,0,0,0,2.82-2,18.17,18.17,0,0,0,2.13-2.88c1-1.6,2.56-4.17,4.8-3.26a5.51,5.51,0,0,0,3.24.74,6.11,6.11,0,0,0,2.77-1.57,4,4,0,0,1,5.16-.1c1.64,1.42,4-1,2.39-2.39Z"/><path class="cls-8" d="M335,370.1A14,14,0,0,0,321,367a18.85,18.85,0,0,0-12.13,13.22,1.38,1.38,0,0,0,2.66.74c2-4.94,4.87-9.64,10.15-11.51,4-1.41,8.95-1.16,12.23,1.72.71.62,1.75-.4,1.05-1Z"/></g></g></g></svg>