<svg xmlns="http://www.w3.org/2000/svg" viewBox="0 0 643.54 556.4"><defs><style>.cls-1{isolation:isolate;}.cls-2{fill:#fff;}.cls-3{fill:#ca453a;}.cls-4{fill:#fee1df;}.cls-5,.cls-8{fill:#ff7fad;}.cls-6{fill:none;stroke:#231f20;stroke-miterlimit:10;stroke-width:2px;}.cls-7{fill:#f1f2f2;opacity:0.67;mix-blend-mode:overlay;}.cls-8{fill-opacity:0.49;}.cls-9{fill:#231f20;}</style></defs><g class="cls-1"><g id="Layer_2" data-name="Layer 2"><g id="Layer_4" data-name="Layer 4"><path class="cls-2" d="M637.57,247.46c6.14,15.59.52,33.45-8.11,47.81-4.59,7.63-10.26,16.93-16.79,25.79,4.13-13.61-2.63-30-15.5-36.3a21.66,21.66,0,0,0,2.45-12.29c-.71-6.59-5.8-11.55-12.07-14,12.57-9.87,24.71-23.85,42.66-23.78h0A49.07,49.07,0,0,1,637.57,247.46Z"/><path class="cls-3" d="M630.21,234.72c-18-.07-30.09,13.91-42.66,23.78h0A24,24,0,0,0,576,257c-10.41,1.32-19.25,8-27.39,14.65q-4.82,3.91-9.36,8l0,0c-3.6-17.73-4-39.94,4.77-55.78l-.18-.25a94.85,94.85,0,0,1,14.26-8.39c12.71-5.95,27.69-8.31,40.87-3.49,7.58,2.77,15.76,8.21,21.9,13.45A67.68,67.68,0,0,1,630.21,234.72Z"/><path class="cls-3" d="M597.17,284.76c12.87,6.29,19.63,22.69,15.5,36.3h0c-5.75,7.82-12.17,15.3-19.1,21-12.81,1.64-19.26-6.51-28.51-20.17,8.24-7.85,15.92-15.3,24.57-26.13A64.46,64.46,0,0,0,597.17,284.76Z"/><path class="cls-2" d="M543.79,223.58l.18.25c-8.73,15.84-8.37,38-4.77,55.78l0,0c-20.86,18.44-37.91,38.47-55.77,59.33l-.28-.24c-5.24-17.48-5.56-41.72,0-59.1h0c12.58-13.12,25.53-26.06,40.88-39.84A216.28,216.28,0,0,1,543.79,223.58Z"/><path class="cls-4" d="M387.62,345.41a236.93,236.93,0,0,1-18.55,16.9,210.39,210.39,0,0,1-29,20c-45.83,26.11-185.62,82.2-322-8.42,54.25,1.32,101.64-12.57,149.84-37.52l.2-.83c-17-4.07-33.49-9.9-48.45-18.82-21.54-12.83-39.72-32.75-46.51-56.8-.15-.53-.3-1.06-.43-1.6l1-.27c10.45,5.23,34.68,3.68,47.56,1.57-20-7.37-39-17.5-54.4-32.14-21.17-20.13-34.65-50-29.71-78.72.1-.57.21-1.15.32-1.72,1.75,1.62,3.58,3.19,5.47,4.67,11.31,8.87,25.12,15,39.21,13.17l.11-.13A127.16,127.16,0,0,1,46,112.83,127.55,127.55,0,0,1,47.83,20.3a14,14,0,0,0,1.51-.51c21.85,37,61.12,59.62,99.08,79.73,29.38,15.57,60.35,31,92.8,35.94a137.48,137.48,0,0,0,26.32,1.59c-2.69-10.94.91-24.47,5.41-49.85,7.1-40,31.95-64.67,70.18-78.35A91,91,0,0,1,357.44,5c35.08-6.45,74,6.94,94.09,36.43l.7,2.4A271.06,271.06,0,0,0,517.73,15l1.6.18a159.08,159.08,0,0,1-41.72,55.63l.08.42a312.27,312.27,0,0,0,56.24-16.13l.32,1.89a261.46,261.46,0,0,1-50.73,55l-2.16,1.68c-2.76,52.53-14.57,104.93-38,152C429,294.68,410.43,322.36,387.62,345.41Z"/><path class="cls-3" d="M483.17,338.72l.28.24c-5.7,6.67-11.5,13.42-17.53,20.24a21.15,21.15,0,0,0-9.66-9.31c-7.46-3.73-19.69-4.67-27.16-2.33a76.27,76.27,0,0,1-13.42,3l-.08-.65c27.42-26.87,47-48.81,67.57-70.27C477.61,297,477.93,321.24,483.17,338.72Z"/><path class="cls-4" d="M399.14,372.92a70.9,70.9,0,0,1-30.07-10.61,236.93,236.93,0,0,0,18.55-16.9c8.12,5.32,18.16,6.38,28.06,5.13a76.27,76.27,0,0,0,13.42-3c7.47-2.34,19.7-1.4,27.16,2.33a21.15,21.15,0,0,1,9.66,9.31c2.88,5.82,3.06,14.1-3.27,25.41l-.16.29c-3.41,6.38-8.81,8.94-19.68,15.88-5.91,3.78-26,9.62-30.25,15.18,6.11-10,15-13.3,19.16-24.32,1.6-4.28,3-9.22.87-13.26-3.49-6.57-12.89-5.78-20.31-5.21-1.37.1-2.75.17-4.13.19A69.53,69.53,0,0,1,399.14,372.92Z"/><path class="cls-2" d="M432.59,378.38c2.14,4,.73,9-.87,13.26-4.12,11-13.05,14.27-19.16,24.32l-.76.93a99.19,99.19,0,0,1-3.64-42.62v-.91c1.38,0,2.76-.09,4.13-.19C419.7,372.6,429.1,371.81,432.59,378.38Z"/><path class="cls-3" d="M408.15,373.36v.91a99.19,99.19,0,0,0,3.64,42.62c-16.79,20.62-34.2,40.21-50.28,57.58-6-18.33-5.71-42.14.72-60.32l-.47-.44c11.2-11.87,23.38-25,37.37-40.79A69.53,69.53,0,0,0,408.15,373.36Z"/><path class="cls-2" d="M361.77,413.71l.47.44c-6.43,18.18-6.71,42-.72,60.32-19.91,21.51-37.78,39.59-49.92,51.95-5.55-22.8-5.19-42,3.43-63.79h0C330.25,446.47,344.89,431.58,361.77,413.71Z"/><path class="cls-5" d="M357.11,3.16,357.44,5a91,91,0,0,0-14.31,3.83C304.9,22.53,280.05,47.22,273,87.2c-4.5,25.38-8.1,38.91-5.41,49.85a137.48,137.48,0,0,1-26.32-1.59C245,113.1,249.11,85,259.36,65,277.88,29.09,316.7,4.51,357.11,3.16Z"/><path class="cls-3" d="M315,462.63c-8.62,21.83-9,41-3.43,63.79-10.28,10.48-16.45,16.85-16.24,17.7a21.53,21.53,0,0,1-38.9-14.62l.16-.51C279.61,501.05,297.7,481,315,462.63Z"/><path class="cls-5" d="M168.09,335.5l-.2.83c-48.2,24.95-95.59,38.84-149.84,37.52C13.38,371.79,3.92,363.77,2,359l1-1.23a888.34,888.34,0,0,0,99.67-14.4c13.09-2.65,10.81,2.55,20.66-6.46l-9.76-4.29A184.76,184.76,0,0,1,93,322.53,93.68,93.68,0,0,1,50.53,265l0-1.22c7-.2,16.14-2.84,22.63-3.91,6.79,24.05,25,44,46.51,56.8C134.6,325.6,151.1,331.43,168.09,335.5Z"/><path class="cls-5" d="M66.91,227.44c15.4,14.64,34.35,24.77,54.4,32.14-12.88,2.11-37.11,3.66-47.56-1.57l-1,.27c-.1-.37-.2-.75-.29-1.13-21.81-10-29.95-17.54-41.95-38.3a117.39,117.39,0,0,1-15.13-69.17c6-.16,14.9-2.86,20.61-1.14l1.26.18C32.26,177.42,45.74,207.31,66.91,227.44Z"/><path class="cls-5" d="M82.31,164.71l-.11.13c-14.09,1.79-27.9-4.3-39.21-13.17C17.6,116.75,10.31,63.16,25.45,22.72l-.08-1c5.94-.71,16.19.36,22.46-1.39A127.55,127.55,0,0,0,46,112.83,127.16,127.16,0,0,0,82.31,164.71Z"/><path class="cls-6" d="M519.33,15.13a159.08,159.08,0,0,1-41.72,55.63"/><path class="cls-6" d="M517.73,15a271.06,271.06,0,0,1-65.5,28.9l-2,.59"/><path class="cls-6" d="M473.91,71.87q1.89-.33,3.78-.69a312.27,312.27,0,0,0,56.24-16.13"/><path class="cls-6" d="M534.25,56.94a261.46,261.46,0,0,1-50.73,55"/><path class="cls-6" d="M481.36,113.58c-2.76,52.53-14.57,104.93-38,152-14.43,29.06-33,56.74-55.78,79.79a236.93,236.93,0,0,1-18.55,16.9,210.39,210.39,0,0,1-29,20c-45.83,26.11-185.62,82.2-322-8.42"/><path class="cls-6" d="M451.53,41.45C431.47,12,392.52-1.43,357.44,5a91,91,0,0,0-14.31,3.83C304.9,22.53,280.05,47.22,273,87.2c-4.5,25.38-8.1,38.91-5.41,49.85"/><path class="cls-6" d="M49.34,19.79c21.85,37,61.12,59.62,99.08,79.73,29.38,15.57,60.35,31,92.8,35.94a137.48,137.48,0,0,0,26.32,1.59"/><path class="cls-6" d="M48.26,19.25c-.15.35-.3.7-.43,1.05A127.55,127.55,0,0,0,46,112.83a127.16,127.16,0,0,0,36.34,51.88,124.61,124.61,0,0,0,26.48,17.51"/><path class="cls-6" d="M37.52,147c1.75,1.62,3.58,3.19,5.47,4.67,11.31,8.87,25.12,15,39.21,13.17"/><path class="cls-6" d="M37.52,147c-.11.57-.22,1.15-.32,1.72-4.94,28.7,8.54,58.59,29.71,78.72,15.4,14.64,34.35,24.77,54.4,32.14,8.06,3,16.31,5.49,24.57,7.67"/><path class="cls-6" d="M73.75,258c10.45,5.23,34.68,3.68,47.56,1.57l2.1-.36"/><path class="cls-6" d="M72.41,257.15c.09.38.19.76.29,1.13.13.54.28,1.07.43,1.6,6.79,24.05,25,44,46.51,56.8,15,8.92,31.46,14.75,48.45,18.82,8.39,2,16.89,3.6,25.39,4.91"/><path class="cls-6" d="M167.89,336.33c-48.2,24.95-95.59,38.84-149.84,37.52"/><path class="cls-6" d="M368.35,361.85l.72.46a70.9,70.9,0,0,0,30.07,10.61,69.53,69.53,0,0,0,9,.44c1.38,0,2.76-.09,4.13-.19,7.42-.57,16.82-1.36,20.31,5.21,2.14,4,.73,9-.87,13.26-4.12,11-13.05,14.27-19.16,24.32"/><path class="cls-6" d="M386.44,344.59l1.18.82c8.12,5.32,18.16,6.38,28.06,5.13a76.27,76.27,0,0,0,13.42-3c7.47-2.34,19.7-1.4,27.16,2.33a21.15,21.15,0,0,1,9.66,9.31c2.88,5.82,3.06,14.1-3.27,25.41"/><path class="cls-6" d="M315,462.63C297.7,481,279.61,501.05,256.62,529"/><path class="cls-6" d="M399.4,372.63c-.09.1-.17.2-.26.29-14,15.74-26.17,28.92-37.37,40.79-16.88,17.87-31.52,32.76-46.74,48.91"/><path class="cls-6" d="M612.67,321.07c-5.75,7.82-12.17,15.3-19.1,21"/><path class="cls-6" d="M630.22,234.72a49.07,49.07,0,0,1,7.35,12.74c6.14,15.59.52,33.45-8.11,47.81-4.59,7.63-10.26,16.93-16.79,25.79"/><path class="cls-6" d="M483.17,279.61c12.58-13.12,25.53-26.06,40.88-39.84a216.28,216.28,0,0,1,19.74-16.19,94.85,94.85,0,0,1,14.26-8.39c12.71-5.95,27.69-8.31,40.87-3.49,7.58,2.77,15.76,8.21,21.9,13.45a67.68,67.68,0,0,1,9.39,9.57"/><path class="cls-6" d="M415.6,349.89c27.42-26.87,47-48.81,67.57-70.27"/><path class="cls-6" d="M256.46,529.5a21.53,21.53,0,0,0,38.9,14.62"/><path class="cls-6" d="M412.56,416l-.76.93c-16.79,20.62-34.2,40.21-50.28,57.58-19.91,21.51-37.78,39.59-49.92,51.95-10.28,10.48-16.45,16.85-16.24,17.7"/><path class="cls-6" d="M587.55,258.5c6.27,2.42,11.36,7.38,12.07,14a21.66,21.66,0,0,1-2.45,12.29,64.46,64.46,0,0,1-7.54,11C581,306.59,573.3,314,565.06,321.89"/><path class="cls-6" d="M465.92,359.2c6-6.82,11.83-13.57,17.53-20.24,17.86-20.86,34.91-40.89,55.77-59.33q4.54-4,9.36-8c8.14-6.63,17-13.33,27.39-14.65a24,24,0,0,1,11.57,1.48"/><path class="cls-6" d="M565.06,321.89c9.25,13.66,15.7,21.81,28.51,20.17"/><path class="cls-6" d="M465.92,374.61a40.46,40.46,0,0,1-3.27,10l-.16.29c-3.41,6.38-8.81,8.94-19.68,15.88-5.91,3.78-26,9.62-30.25,15.18"/><path class="cls-6" d="M357.11,3.16C316.7,4.51,277.88,29.09,259.36,65,249.11,85,245,113.1,241.22,135.46l-.27,1.59"/><path class="cls-6" d="M49.34,19.79a14,14,0,0,1-1.51.51c-6.27,1.75-16.52.68-22.46,1.39"/><path class="cls-6" d="M25.45,22.72c-15.14,40.44-7.85,94,17.54,129"/><path class="cls-6" d="M35.94,148.54c-5.71-1.72-14.65,1-20.61,1.14"/><path class="cls-6" d="M15.33,149.68a117.39,117.39,0,0,0,15.13,69.17c12,20.76,20.14,28.32,41.95,38.3"/><path class="cls-6" d="M73.75,259.78l-.62.1c-6.49,1.07-15.6,3.71-22.63,3.91a23.16,23.16,0,0,1-2.79-.06"/><path class="cls-6" d="M50.53,265A93.68,93.68,0,0,0,93,322.53a184.76,184.76,0,0,0,20.67,10.13l9.76,4.29"/><path class="cls-6" d="M2,359c1.88,4.73,11.34,12.75,16,14.81"/><path class="cls-6" d="M3.08,357.81a888.34,888.34,0,0,0,99.67-14.4c13.09-2.65,10.81,2.55,20.66-6.46"/><path class="cls-6" d="M315,462.62h0c-8.62,21.83-9,41-3.43,63.79"/><path class="cls-6" d="M362.24,414.15c-6.43,18.18-6.71,42-.72,60.32"/><path class="cls-6" d="M408.16,374.27a99.19,99.19,0,0,0,3.64,42.62l0,.11"/><path class="cls-6" d="M483.17,279.61h0c-5.56,17.38-5.24,41.62,0,59.1"/><path class="cls-6" d="M544,223.83c-8.73,15.84-8.37,38-4.77,55.78"/><path class="cls-6" d="M587.54,258.5h0c12.57-9.87,24.71-23.85,42.66-23.78h0"/><path class="cls-6" d="M596.71,284.54l.46.22c12.87,6.29,19.63,22.69,15.5,36.3h0a25.55,25.55,0,0,1-1.26,3.35"/><path class="cls-7" d="M533.93,55.05s-16.12,25.47-30,38.42-22.56,20.11-22.56,20.11-8.11,112.29-45.24,165.92S386.83,378.73,249.7,414.15C132.94,444.31,55.75,395.29,55.75,395.29s105,39.21,211.79-10.39c113.77-52.82,145-89.72,184-189.47,24.07-61.62,22.38-89.12,22.38-89.12Z"/><path class="cls-8" d="M517.73,15s-26.3,15.51-43.82,21.58-23.72,7.91-23.72,7.91S437.66,12.18,394.63,5.36,303.3,22.79,291.08,44.44s-21.18,45.2-22.64,67.46-.9,25.15-.9,25.15-54.7.94-85.8-20.82S103.37,81.43,79.23,55.05s-31-35.8-31-35.8-9.59,5.64-9.32,35.8,1.14,59.91,19.21,82S82.2,164.84,82.2,164.84s-7.38,5.25-22.34-3.23S37.51,147,37.51,147s-5.41,32.5,8.83,53.18,29.5,39.51,52.24,49.45,24.83,9.59,24.83,9.59-23.22,2.33-36.44.56L73.75,258s7.12,35.24,34.75,51.15,59.39,27.17,59.39,27.17-27.8,18.41-59.1,25.52-70.61,12.76-70.61,12.76,65.54,5.42,102.65-8.17,71.42-30.11,71.42-30.11-47.61-20.21-70-37.55,7.21-18.62,16.21-30.24S127.53,245,105.12,214.91s28.18-.7,18.29-28S85.9,131.29,82.2,113.58s40.63-3.7,85.69,16.6,121.39,25.9,121.39,25.9-7.57-61.32,18.62-92.62,59.1-41.12,85-33.77,58.62,33.77,58.62,33.77Z"/><path class="cls-9" d="M516.66,13.57c-1,2-2.2,3.88-3.25,5.85s-2.22,4-3.34,6.07q-3.29,6-7.1,11.64a183.08,183.08,0,0,1-16.64,20.71c-1.68,1.86-3.46,3.7-5,5.65s-3.26,4-5,5.93c-1.4,1.52.44,4.23,2.3,3s3.92-2.56,5.82-3.91A61.39,61.39,0,0,0,489.8,64a100.56,100.56,0,0,0,9.41-10.16A165,165,0,0,0,515.5,30.6c1.3-2.25,2.5-4.53,3.62-6.87,1.22-2.55,2.12-5.18,3.19-7.78a3.09,3.09,0,0,0-5.65-2.38Z"/><path class="cls-9" d="M516.4,12.66c-8.32,4.77-16.64,9.55-25.4,13.48-4.2,1.88-8.46,3.66-12.73,5.39-4.45,1.81-9,3.35-13.45,5.08-5.05,2-10.23,3.56-15.25,5.57a2.34,2.34,0,0,0,1.24,4.52A117.31,117.31,0,0,0,464.93,43c4.58-1.38,9.05-3.16,13.48-5,9.08-3.68,17.7-8.19,26.43-12.59a154.42,154.42,0,0,0,14.23-8.21c2.85-1.84.3-6.29-2.67-4.58Z"/><path class="cls-9" d="M473.91,73.51a187.64,187.64,0,0,0,25.25-4.22c8.31-1.87,16.54-4,24.64-6.66,2-.66,4-1.36,6-2.07,2.27-.8,5.3-1.4,6.55-3.65a3.33,3.33,0,0,0-.45-4,4.61,4.61,0,0,0-4.55-.9c-2,.63-4,1.59-6,2.34-8,3-16,5.89-24.15,8.39-9.19,2.82-18.53,5.06-27.8,7.55-1.74.46-1.46,3.38.43,3.22Z"/><path class="cls-9" d="M531.54,55.35A492.11,492.11,0,0,1,494,99.19c-1.89,1.93-4,3.62-5.93,5.53s-3.88,3.93-6,5.79c-1.64,1.46.57,4.43,2.38,3.09,2-1.47,4-2.87,6-4.32s4-3.23,5.88-4.93c3.69-3.25,7.6-6.24,11.12-9.68a217.14,217.14,0,0,0,19.75-22A151.46,151.46,0,0,0,537,58.52a3.19,3.19,0,0,0-1.12-4.3,3.23,3.23,0,0,0-4.3,1.13Z"/><path class="cls-9" d="M480,113.58c-.48,6.46-1.14,12.91-1.69,19.37a171.18,171.18,0,0,1-2.48,19.66c-2.52,12.39-5.16,24.73-8.27,37-6.31,24.82-14.07,49.27-25.87,72.07-5.3,10.23-10.29,20.59-16.37,30.39-5.88,9.48-12.06,18.85-19.28,27.35-7.38,8.68-14.7,17.37-22.81,25.38a229.52,229.52,0,0,1-25,21.58,223.64,223.64,0,0,1-37.84,22.69,364.74,364.74,0,0,1-39.39,15.33,312.06,312.06,0,0,1-110.68,15.83A290.78,290.78,0,0,1,36.54,381.1a183.56,183.56,0,0,1-16.45-10.75c-4.13-3.05-8.66,4.29-4.09,7,11.79,7,23.54,14,35.89,20a297.88,297.88,0,0,0,34.77,14.27,284.71,284.71,0,0,0,67.46,13.87c39.34,3.28,79-1.57,117-11.87A316.94,316.94,0,0,0,315,398.07c11.56-5.05,23.1-10.31,33.84-17a232.91,232.91,0,0,0,52.09-44.76c7.55-8.64,14.1-18,20.65-27.43s12.35-19.24,18.08-29.13c6.33-10.91,11.14-22.47,16-34.08a384.46,384.46,0,0,0,12.94-36.53c1.89-6.21,3.47-12.45,4.9-18.78s2.43-12.71,3.48-19.14c2.09-12.68,3.23-25.51,4.6-38.28.69-6.42,1-12.92,1.18-19.37.06-1.79-2.64-1.76-2.77,0Z"/><path class="cls-9" d="M454,40a75.72,75.72,0,0,0-20.29-21.31,70.29,70.29,0,0,0-12.16-7.21c-2.24-1-4.59-1.76-6.8-2.72-2.36-1-4.6-2.27-7-3.17C398.58,2.18,388.92,1,379.19.6q-3.66-.18-7.34-.07c-2.39.07-4.89.48-7.15.71A104.06,104.06,0,0,0,350,3.61C340.52,6,331.34,10,322.64,14.47A104.77,104.77,0,0,0,299.86,30a95.91,95.91,0,0,0-28,46.17c-1.44,5.36-2.39,10.82-3.44,16.26s-2.17,10.94-3.19,16.42c-1.45,7.81-2.91,16.1-2,24.06a41.41,41.41,0,0,0,.91,5.07,3.44,3.44,0,1,0,6.64-1.83c-.17-.71-.28-1.44-.41-2.16s0,.2,0,.26c0-.22-.06-.44-.08-.66-.05-.42-.08-.83-.11-1.25a45.09,45.09,0,0,1-.09-4.79c.05-1.82.2-3.64.41-5.45,0-.42.1-.85.15-1.27l.09-.73c-.1.81,0,.26,0,.09q.24-1.68.51-3.36c1.71-10.53,3.39-21.1,5.44-31.57a102.75,102.75,0,0,1,3.71-13.68c.74-2.17,1.53-4.32,2.42-6.44-.06.14-.23.52,0-.1l.33-.76.6-1.35q.75-1.63,1.56-3.24a83,83,0,0,1,6.62-11l.94-1.28.38-.51.25-.32c.65-.83,1.31-1.65,2-2.46,1.36-1.62,2.75-3.2,4.2-4.74a94.8,94.8,0,0,1,9.51-8.74c1.44-1.15,3-2.33,4.93-3.66s3.63-2.51,5.5-3.69a121.91,121.91,0,0,1,24.8-11.8A104,104,0,0,1,358.2,7.76a65.15,65.15,0,0,1,6.67-1.09c2.32-.22,4.66-.16,7-.25s4.66-.08,7,0c1.11,0,2.22.07,3.32.17s2.59.29,3.21.37a136.16,136.16,0,0,1,13.68,2.72c2.25.55,4.48,1.2,6.7,1.89s4.61,1.16,6.8,2a46.78,46.78,0,0,1,5.78,3.1c2.05,1.17,4.1,2.35,6.1,3.59a77.36,77.36,0,0,1,10.69,7.86,93.4,93.4,0,0,1,9.8,9.69c1.43,1.67,2.89,3.46,4.1,5.08a3,3,0,0,0,4,1A3,3,0,0,0,454,40Z"/><path class="cls-9" d="M46.89,21.22c7.54,13.71,18.57,25.64,30.23,36,12,10.58,25.19,19.67,38.83,27.94,14,8.48,28.54,16.13,43.09,23.61,16.17,8.3,32.63,16.18,49.83,22.1a156.37,156.37,0,0,0,25.75,6.92c4.46.71,9,1.29,13.46,1.68,2.23.2,4.45.3,6.68.39a32.39,32.39,0,0,0,6.75-.09c2.18-.38,4.33-.48,6.5-1,1.6-.37,1.74-3.11,0-3.39-2.16-.34-4.37-.39-6.5-.82a56.32,56.32,0,0,0-6.75-.52,122.25,122.25,0,0,1-12.67-1.64,228.15,228.15,0,0,1-25.41-6.14c-16.83-5.18-33-12.31-48.68-20.2-14.73-7.4-29.34-15.13-43.59-23.42C111,74.84,97.9,66.56,85.89,56.76,74,47.09,63.33,36,55,23.16c-1-1.61-2.15-3.18-3.18-4.8-2-3.08-6.67-.35-4.9,2.86Z"/><path class="cls-9" d="M45.39,18.46a138.38,138.38,0,0,0-9.67,39.72,129.08,129.08,0,0,0,3.09,40.75,127.76,127.76,0,0,0,35.82,63.19,133.59,133.59,0,0,0,15.71,13q4.06,2.86,8.36,5.41c1.43.85,2.9,1.63,4.39,2.37a21.92,21.92,0,0,0,5.11,1.5c2,.45,4-2.21,2.17-3.72a42.34,42.34,0,0,0-3.4-2.9c-1.26-.84-2.65-1.57-4-2.33q-3.83-2.21-7.48-4.67a118.45,118.45,0,0,1-13.22-10.34,126.52,126.52,0,0,1-22-25.87,124.71,124.71,0,0,1-14.73-32.47,118.93,118.93,0,0,1-4.29-38.65A134.5,134.5,0,0,1,43.9,41.6a109.38,109.38,0,0,1,6.93-20.84,3,3,0,0,0-1.43-4.23c-1.78-.75-3.33.29-4,1.93Z"/><path class="cls-9" d="M35.87,148.64a59.8,59.8,0,0,0,4.74,4.68c1.69,1.41,3.44,2.76,5.23,4a61.4,61.4,0,0,0,11.21,6.43,49.12,49.12,0,0,0,12.5,3.82,25,25,0,0,0,6.51.39,34.92,34.92,0,0,0,6.64-1.35,1.88,1.88,0,0,0-.5-3.68,48.93,48.93,0,0,1-5.78-.66c-1.89-.35-3.73-.46-5.6-.82a55.38,55.38,0,0,1-11.19-3.33A72,72,0,0,1,49,152.43q-2.55-1.65-5-3.48c-1.6-1.21-3.27-2.33-4.83-3.59-2.27-1.86-5.38,1.07-3.28,3.28Z"/><path class="cls-9" d="M35.28,146.38c-5.2,22.86,2,46.87,14.64,66.08,13.4,20.32,34,34.8,56,44.59a204.1,204.1,0,0,0,19.69,7.6c6.57,2.14,13.31,4.24,20.25,4.57a2,2,0,0,0,1-3.67c-5.44-2.76-11.33-4.52-17.08-6.5-5.4-1.86-11-4-16.11-6.16a167.45,167.45,0,0,1-30.95-17c-18-12.64-33.43-30.74-40.13-52.14a79,79,0,0,1-2.86-36.15,2.39,2.39,0,0,0-1.62-2.85,2.34,2.34,0,0,0-2.85,1.62Z"/><path class="cls-9" d="M72.69,259.83a41,41,0,0,0,8.74,3,95.29,95.29,0,0,0,11,2.09,127.66,127.66,0,0,0,24.33.8,51.61,51.61,0,0,0,10.85-1.61c2.83-.79,2.39-5.6-.72-5.3-6.57.63-13.25,1-19.86,1q-6,0-12-.32c-3.56-.23-7.38-.41-10.75-.88a43.15,43.15,0,0,1-5.41-1.08,28,28,0,0,1-4-1.4c-2.43-1.15-4.57,2.38-2.13,3.64Z"/><path class="cls-9" d="M71.06,260.52c4.1,18.3,14.6,34.63,28.79,46.78,16.28,13.95,35.84,23.16,56.32,29.12,6,1.75,12.1,3.23,18.23,4.51,3,.63,6,1.22,9,1.65a40.78,40.78,0,0,0,10,.62,2.92,2.92,0,0,0,2.69-2.05,2.8,2.8,0,0,0-1.28-3.15c-5.11-2.25-10.77-3-16.21-4.16-5.26-1.1-10.49-2.29-15.67-3.68a175.17,175.17,0,0,1-30.18-10.93A151.37,151.37,0,0,1,119,311.68c-1.94-1.19-3.86-2.44-5.73-3.73-.94-.64-1.86-1.29-2.77-1.95l-1.36-1-.6-.45-.44-.34c.24.19.25.2,0,0A118.73,118.73,0,0,1,98,295.35q-2.34-2.3-4.52-4.75c-.72-.81-1.43-1.64-2.12-2.47s-1.4-1.74-1.81-2.29A77.81,77.81,0,0,1,76.44,259c-.93-3.48-6.16-2-5.38,1.48Z"/><path class="cls-9" d="M166.21,333.46a292.41,292.41,0,0,1-28.12,12.64c-9.46,3.61-19.11,6.8-28.83,9.65s-19.47,5.18-29.37,7c-10.06,1.88-19.4,3.2-29.54,4.09q-8.61.76-17.26,1.05c-2.91.1-5.82.08-8.73.2s-6,.51-9,.75a2.65,2.65,0,1,0,0,5.29c2.7.35,5.42.74,8.13.91s5.24.06,7.85,0q7.77-.13,15.52-.64c10.46-.69,20.89-1.9,31.23-3.61a274.81,274.81,0,0,0,59.09-16.6c11-4.51,21.87-9.49,32.42-15a3.33,3.33,0,0,0-3.36-5.75Z"/><path class="cls-9" d="M367.13,363.94a62.15,62.15,0,0,0,10.2,6.44,66.32,66.32,0,0,0,11.91,4.48A77,77,0,0,0,413.58,377a54.91,54.91,0,0,1,9.51,0c-.81-.09.06,0,.39.08s.63.11.94.19a14.27,14.27,0,0,1,2.22.69c-.73-.29-.06,0,.27.18s.59.35.88.54c.61.4-.4-.41.11.11.28.29.56.57.83.87-.52-.59,0,0,.18.32s.53,1.07.34.59a9.6,9.6,0,0,1,.34,1.16c.2.74.08.34.06.13,0,.27,0,.54.05.81a14.29,14.29,0,0,1-.76,5.15c-.26.95-.57,1.89-.89,2.81-.16.45-.32.89-.49,1.32s0,.08,0,0c-.13.29-.26.58-.4.87a29.34,29.34,0,0,1-2.62,4.33c-.11.14-.21.28-.32.41.3-.39-.06.09-.18.24l-.88,1.06c-.56.66-1.13,1.3-1.7,1.93-1.25,1.36-2.54,2.68-3.8,4a51.34,51.34,0,0,0-7.46,9.78c-1.75,3.1,2.78,5.68,4.74,2.77,3.93-5.86,9.89-9.66,14.47-14.92a35,35,0,0,0,6.15-10.17c1.64-4.16,2.84-8.8,1.56-13.24a13.15,13.15,0,0,0-7.39-8.38,25.62,25.62,0,0,0-10.68-1.8c-3.63.06-7.23.56-10.86.66a71.29,71.29,0,0,1-12.11-.75,83.71,83.71,0,0,1-13.6-3.38,76.56,76.56,0,0,1-12.91-5.6,2.45,2.45,0,0,0-3.3.86,2.48,2.48,0,0,0,.87,3.31Z"/><path class="cls-9" d="M387,348.28c7,5.18,15.82,7.12,24.42,6.41a77.06,77.06,0,0,0,13.13-2.35c2-.53,4-1.17,6-1.72a23.86,23.86,0,0,1,2.37-.53c.15,0,1.14-.18.63-.11.53-.07,1.06-.12,1.59-.16a43,43,0,0,1,5.79-.07,35.55,35.55,0,0,1,5.19.6,39.27,39.27,0,0,1,5.55,1.42,17.23,17.23,0,0,1,3.71,1.61,30.37,30.37,0,0,1,2.71,1.73c.47.33-.54-.47.17.14l.6.51c.45.4.89.82,1.31,1.26s.7.83,1.07,1.22-.36-.53-.11-.14l.28.38c.18.26.36.52.53.79a15.48,15.48,0,0,1,.9,1.59c.13.26.24.53.37.78.23.43-.2-.59-.06-.13.07.2.16.4.23.6a18,18,0,0,1,.61,2.14c.09.4.15.81.23,1.21-.16-.75,0,.17,0,.48a30.68,30.68,0,0,1-.11,5.25c-.06.68,0,.27,0,.12,0,.29-.09.57-.14.86-.1.54-.21,1.07-.32,1.6-.24,1.08-.52,2.14-.85,3.2-.77,2.47-1.62,4.91-2.46,7.36-.68,2,2.23,3.76,3.6,2.1,5.34-6.45,8.38-15,6.85-23.36a22.8,22.8,0,0,0-9.22-14c-5.78-4.27-13.25-5.81-20.3-6.15a39.88,39.88,0,0,0-11.78,1c-4.29,1.08-8.44,2.57-12.79,3.45-9.22,1.85-18.91,1.64-27-3.91a2.77,2.77,0,0,0-2.79,4.78Z"/><path class="cls-9" d="M396.15,373.17q-15.63,17.26-31.47,34.34-13,14-26.25,27.82c-8.13,8.52-16.26,17-24.27,25.67-8.58,9.23-17,18.59-25.41,28q-15,16.8-30,33.7c-1.49,1.68-3,3.23-4.38,5-1.74,2.32,2.08,5.23,4,3.1,1.47-1.64,2.65-3.44,4-5.17s2.5-3.21,3.75-4.81c2.49-3.16,5-6.28,7.58-9.41,4.58-5.62,9.23-11.18,14-16.63,8.41-9.59,17.07-18.92,25.87-28.14,8.14-8.51,16.37-16.93,24.57-25.37q13.11-13.49,26.09-27.08c10.35-10.9,20.53-21.93,30.45-33.23l4.29-4.9c1.71-2-1.11-4.85-2.88-2.89Z"/><path class="cls-9" d="M417.27,351.56c10.31-9.87,20.55-19.83,30.48-30.08q13.13-13.53,26.05-27.24c17.1-18,34.53-35.72,53.1-52.25,10.16-9,20.52-17.9,33-23.72,11.62-5.44,25.42-7.64,37.73-3.34,6.06,2.11,11.93,5.8,17.19,9.72A68.52,68.52,0,0,1,628,237.37a51.82,51.82,0,0,1,4.47,7.06,37.52,37.52,0,0,1,3.26,8.47,41.08,41.08,0,0,1,0,18c-2.55,12.19-9,22.7-15.54,33.15S606.7,325,598.08,333.93a78.64,78.64,0,0,1-6.52,6.12,2.87,2.87,0,0,0,0,4,2.92,2.92,0,0,0,4,0c10.06-8.32,18.24-18.72,25.53-29.48,3.41-5,6.63-10.15,9.79-15.32a98.68,98.68,0,0,0,8.84-17.61,58.67,58.67,0,0,0,3.81-20.12,44.27,44.27,0,0,0-4.84-19.83c-5.85-11.75-16.47-21-27.5-27.78-6.05-3.71-12.63-6.67-19.69-7.73a56.66,56.66,0,0,0-21.66,1.06c-14,3.35-26.22,11.38-37.24,20.38-10.49,8.56-20.35,18-30,27.44-9,8.77-17.67,17.78-26.26,26.9-18.24,19.35-35.95,39.22-54.53,58.25-2.61,2.68-5.24,5.33-7.88,8-2.16,2.17,1.15,5.46,3.35,3.35Z"/><path class="cls-9" d="M254.06,529.49a25.46,25.46,0,0,0,8.82,21.35,25.13,25.13,0,0,0,33.63-2.12,6.13,6.13,0,0,0,1.95-3.9,3.5,3.5,0,0,0-2.44-3.55c-2.87-.77-4.59,1.84-6.41,3.51-.34.32-.7.62-1.06.91.52-.41-.35.25-.5.35a23.62,23.62,0,0,1-2.56,1.52c-.42.21-.84.41-1.27.59.57-.24-.45.15-.6.21a24,24,0,0,1-2.87.81c-.46.09-.92.18-1.38.24.57-.08-.48,0-.64.06a22.63,22.63,0,0,1-3,0l-.69,0c-.08,0-.66-.07-.15,0-.4-.05-.8-.13-1.2-.21a21.89,21.89,0,0,1-2.88-.79,18.73,18.73,0,0,1-4.82-2.75,20.21,20.21,0,0,1-4.1-4.51,18.57,18.57,0,0,1-3.08-11.69,2.41,2.41,0,0,0-2.39-2.39,2.45,2.45,0,0,0-2.39,2.39Z"/><path class="cls-9" d="M427.19,391.05c-2.81,3.3-5.85,6.37-8.64,9.69s-5.63,6.65-8.47,10q-8.7,10.14-17.46,20.25t-17.46,19.87c-5.68,6.38-11.56,12.59-17.31,18.9-10.39,11.39-20.94,22.64-31.36,34Q315,516.25,303.75,528.92c-2.37,2.67-4.62,5.47-7.05,8.09a17.66,17.66,0,0,0-2.62,3.22,14.69,14.69,0,0,0-1.23,2.52,2.7,2.7,0,0,0-.13,1.94v-1.47a3,3,0,0,0,0,1.64,2.8,2.8,0,0,0,3.4,1.93,2.83,2.83,0,0,0,1.93-3.41,2.53,2.53,0,0,1,0,1.39s0-.06,0-.08l-1.27,1.65a3.06,3.06,0,0,0,1.12-1.14c.23-.38-.64.7-.22.29.21-.21.4-.44.61-.65a20.06,20.06,0,0,0,2.46-2.59l.51-.73a4.56,4.56,0,0,0,.27-.39c.21-.36-.6.69-.07.1s1-1.11,1.47-1.66q1.81-2,3.64-4c7.25-7.95,14.66-15.75,22-23.65,10.16-11,20.17-22.11,30.18-33.23,11.53-12.8,22.87-25.78,34.26-38.71,5.85-6.65,11.69-13.32,17.39-20.11q4.23-5,8.43-10.12a131.11,131.11,0,0,0,8.31-10.38c1.12-1.67,2.3-3.26,3.54-4.85a2.53,2.53,0,0,0,0-3.45,2.46,2.46,0,0,0-3.45,0Z"/><path class="cls-9" d="M470.14,358.63c11-12.23,21.76-24.72,32.72-37,10.58-11.87,21.53-23.43,33.21-34.24,6.13-5.67,12.44-11.18,19-16.32,5.82-4.56,12.5-8.91,19.94-10.36.48-.09,1-.18,1.44-.24-.46.06.33,0,.47,0a22.75,22.75,0,0,1,2.48-.07c.72,0,1.44.08,2.16.16-.65-.07.39.06.56.09.44.08.87.17,1.31.28a22.15,22.15,0,0,1,2.25.64c.37.12.73.26,1.1.4l.2.08c-.3-.13.29.13.34.16.7.33,1.38.68,2,1.07l1,.61c.16.11,1,.75.61.41a17,17,0,0,1,1.56,1.37c.27.26.53.53.77.8s.84,1,.47.52a14.59,14.59,0,0,1,1.11,1.7c.18.32.34.65.5,1,.06.1.26.59,0,0,.07.2.15.39.21.59a18.07,18.07,0,0,1,.57,2.16c.13.59,0-.27.06.48,0,.54.08,1.09.08,1.64a15.28,15.28,0,0,1-.67,4.91,31.52,31.52,0,0,1-5,9.5c-2.32,3.22-4.9,6.32-7.53,9.39-5.16,6-10.6,11.81-16.26,17.38-1.34,1.32-2.86,2.48-4.31,3.68s-1.26,3.74,0,5a3.6,3.6,0,0,0,5,0c5.46-6,11.49-11.4,17-17.38,3-3.28,5.81-6.71,8.55-10.19a63.76,63.76,0,0,0,7-10.3c3.5-6.87,4.61-15.52.2-22.28-3.82-5.87-10.52-9.57-17.37-10.56-8.27-1.19-16.34,1.52-23.41,5.69-7.42,4.37-14.09,10.13-20.62,15.72A384.72,384.72,0,0,0,503,310.5c-11.33,12.59-22.1,25.63-33.13,38.48q-2.16,2.53-4.35,5a3.34,3.34,0,0,0,0,4.6,3.29,3.29,0,0,0,4.61,0Z"/><path class="cls-9" d="M562.18,323.57c3.9,5.88,7.9,12.22,13.42,16.73a24.72,24.72,0,0,0,8.25,4.63,20.92,20.92,0,0,0,4.63.88,13.88,13.88,0,0,0,5.34-.31,3.61,3.61,0,0,0,2.55-3.36,3.49,3.49,0,0,0-2.55-3.36c-1.67-.26-3.36,0-5-.2-.3,0-.59-.06-.89-.1.94.12-.14,0-.33-.06a18.13,18.13,0,0,1-1.8-.43c-.31-.09-.62-.2-.93-.31s-1.14-.46-.32-.1c-.55-.25-1.1-.51-1.63-.81s-1.07-.63-1.59-1l-.83-.59.13.1-.47-.37c-5.12-4.21-8.47-9.36-12.19-14.73a3.41,3.41,0,0,0-4.55-1.19,3.36,3.36,0,0,0-1.2,4.55Z"/><path class="cls-9" d="M464.2,374.14a54,54,0,0,1-2.43,7,15.73,15.73,0,0,1-1.48,2.54c-.26.38-.54.75-.81,1.13-.05.07-.51.67-.12.18-.18.23-.37.45-.56.67a19.32,19.32,0,0,1-1.85,1.88c-.34.31-.69.59-1,.88-.6.5.52-.36-.12.09-.26.18-.51.37-.76.56-1.83,1.32-3.75,2.5-5.69,3.64-4.24,2.49-8.21,5.39-12.73,7.37l-.73.32-.21.09-1.61.66-3.72,1.51c-2.67,1.07-5.33,2.18-8,3.36a67.21,67.21,0,0,0-7.34,3.7,10.83,10.83,0,0,0-5,5.54c-.8,2.09,2,4.17,3.82,2.94.65-.44,1.36-.73,2-1.11.86-.5,1.68-1.06,2.53-1.56a63.63,63.63,0,0,1,6.67-3.31l.87-.38.44-.19.19-.08.18-.08.45-.18,1-.43,3.74-1.53c2.52-1,5.06-2.06,7.56-3.15a83.07,83.07,0,0,0,12.75-7.45c3.82-2.56,7.54-5.3,10.29-9,3.1-4.22,4.14-9.6,5-14.64.38-2.22-2.84-3.2-3.44-.95Z"/><path class="cls-9" d="M375.38.62A81.39,81.39,0,0,0,362,0c-4,0-7.89.18-11.83.5A151.6,151.6,0,0,0,328.5,3.85a110,110,0,0,0-18.75,5.82,93.71,93.71,0,0,0-15.11,8.09A102.26,102.26,0,0,0,262,53.55c-3.05,5.71-6.19,11.28-8.85,17.21-7.55,16.87-11.52,35.26-13.93,53.52a62.55,62.55,0,0,0-.38,6.7c-.05,2.47,3.47,2.81,4.19.57a64.27,64.27,0,0,0,1.88-6.5q.72-3.31,1.39-6.65,1.29-6.56,2.78-13.09a224.18,224.18,0,0,1,7.5-25.78,125.37,125.37,0,0,1,17.63-32.07l1.1-1.45c.39-.51-.41.52.15-.19.21-.27.42-.55.64-.82.8-1,1.63-2,2.45-3,1.63-2,3.34-3.88,5.11-5.72s3.71-3.71,5.68-5.45c1-.88,2-1.73,3-2.57l.63-.5c.14-.11,1.06-.82.32-.26l1.62-1.21a92.14,92.14,0,0,1,14.16-8.54c1.31-.64,2.64-1.25,4-1.83l.41-.18c.49-.21-.53.22,0,0l1-.39,2.24-.89c2.85-1.15,5.76-2.16,8.69-3.06,13.9-4.24,28.17-5.18,42.76-5,2.18,0,4.33.1,6.51,0a2.92,2.92,0,0,0,2.85-2.52A2.88,2.88,0,0,0,375.38.62Z"/><path class="cls-9" d="M48.61,17.12c.62-.08-.57.06-.75.08-.42,0-.83.08-1.25.1-.92.07-1.84.1-2.77.14-2.19.07-4.38.12-6.57.21s-4.35.09-6.49.38a32.09,32.09,0,0,0-6,1.4,2.35,2.35,0,0,0,.63,4.6c1.93.17,3.8.38,5.74.38,2.23,0,4.47-.28,6.7-.44a107.91,107.91,0,0,0,12.27-1.52A2.79,2.79,0,0,0,52,19.05a2.84,2.84,0,0,0-3.4-1.93Z"/><path class="cls-9" d="M23.46,22.18c-.82,2-1.83,4-2.54,6.11s-1.27,4-1.79,6a128.32,128.32,0,0,0-2.65,13A155.18,155.18,0,0,0,14.89,74.4a147.14,147.14,0,0,0,11,53.19,137.62,137.62,0,0,0,6.58,13.62,73.75,73.75,0,0,0,3.83,6.32,31.33,31.33,0,0,0,2.44,3.28,34.14,34.14,0,0,0,2.7,2.39,2.17,2.17,0,0,0,3.38-2.62c-.4-1-.71-2-1.14-2.91a30.06,30.06,0,0,0-1.6-2.88c-1.06-1.8-2.15-3.59-3.18-5.41a126.86,126.86,0,0,1-5.79-11.54c-1.61-3.64-3.2-7.79-4.56-11.81q-2.13-6.3-3.68-12.76a148.74,148.74,0,0,1-3.54-52.22,123.34,123.34,0,0,1,2.43-13.91c.53-2.29,1.13-4.55,1.75-6.81s1.1-4.74,1.9-7.06A2.1,2.1,0,0,0,26,20.73a2.12,2.12,0,0,0-2.54,1.45Z"/><path class="cls-9" d="M35.94,144.74c-3.57.16-7.13.38-10.69.58-1.87.1-3.74.2-5.62.28-.87,0-1.73.1-2.6.21a5.5,5.5,0,0,0-3.74,1.83,2.94,2.94,0,0,0,0,4.08,5.43,5.43,0,0,0,3.59,1.71,20.34,20.34,0,0,0,2.59,0q2.89-.16,5.78-.36c3.56-.25,7.12-.52,10.69-.72a3.8,3.8,0,0,0,0-7.6Z"/><path class="cls-9" d="M13.69,149.68a109,109,0,0,0-1,14.89,133,133,0,0,0,1.16,15.05,101.92,101.92,0,0,0,3,14.89A123.38,123.38,0,0,0,22,208.87a128.34,128.34,0,0,0,13.17,23.31,71.38,71.38,0,0,0,13.66,15,69.8,69.8,0,0,0,9.91,6.62c1.94,1.06,3.91,2,5.94,2.9a64.43,64.43,0,0,0,7.21,2.46c2.32.7,3.57-2.57,1.61-3.82-1.8-1.14-3.52-2.43-5.38-3.48-1.64-.93-3.26-1.9-4.89-2.84a101,101,0,0,1-8.51-5.48l-.93-.68-.46-.35c-.39-.3.38.3,0,0-.63-.5-1.26-1-1.87-1.53-1.21-1-2.39-2.12-3.52-3.25s-2.18-2.28-3.21-3.47c-.52-.6-1-1.21-1.52-1.82l-.75-1c-.32-.4.25.33-.06-.08l-.47-.62a130.42,130.42,0,0,1-22.24-48.65,101.64,101.64,0,0,1-2.38-15.8A126.78,126.78,0,0,1,17,149.68c.13-2.15-3-2.05-3.28,0Z"/><path class="cls-9" d="M72.73,256.07c-4.11.62-8,2.08-12,3.26-2,.59-4,1.13-5.95,1.67s-4.32.81-5.94,2.32a2.44,2.44,0,0,0,0,3.38c1.53,1.9,4.35,1.95,6.59,1.86a26.53,26.53,0,0,0,7-1.42c4.07-1.3,8.07-2.92,12.3-3.66a3.86,3.86,0,0,0,2.69-4.73,4,4,0,0,0-4.73-2.68Z"/><path class="cls-9" d="M48.54,265.56c.85,3.74,1.6,7.51,2.82,11.16a97,97,0,0,0,4.58,10.95,87.83,87.83,0,0,0,13.13,19.45,93.65,93.65,0,0,0,17.44,15.46,129.54,129.54,0,0,0,24.24,12.7c3.81,1.58,8.4,3.9,12.66,3.94a2.3,2.3,0,0,0,1.61-3.88c-2-2.16-5.15-3.7-7.84-4.95-8.11-3.78-16.42-7.19-24-11.93a88.14,88.14,0,0,1-17-13.81A100.56,100.56,0,0,1,62.83,287.2,85.67,85.67,0,0,1,56.93,276a77.82,77.82,0,0,1-4.41-11.57c-.68-2.57-4.57-1.49-4,1.1Z"/><path class="cls-9" d="M.1,359.58a21.43,21.43,0,0,0,2.56,4.67c1.21,1.71,2.47,3.39,3.84,5a32.62,32.62,0,0,0,4.14,4.17,7.68,7.68,0,0,0,2.09,1.34c.36.14.72.27,1.09.39a8.36,8.36,0,0,0,2.49.45,1.75,1.75,0,0,0,1.22-3c-.46-.5-.93-1-1.39-1.48-.27-.29-.52-.61-.79-.9a10.94,10.94,0,0,0-1.41-1.11l-.31-.23.09.07c-.28-.23-.57-.45-.85-.66l-.32-.24c.27.21.29.22.06,0l-.48-.38c-.76-.61-1.5-1.25-2.22-1.91s-1.42-1.34-2.09-2c-.33-.34-.66-.68-1-1-.13-.15-.25-.3-.37-.46s-.54-.68-.27-.33A18.93,18.93,0,0,1,3.78,358a2,2,0,0,0-2.51-.82A2,2,0,0,0,.1,359.58Z"/><path class="cls-9" d="M3.07,360.51c7.66-.23,15.27-1,22.88-1.78q13.48-1.35,26.92-3.09c17.5-2.26,35.07-4.71,52.22-8.92,6.74-1.66,13.45-3.62,19.49-7.13,2.2-1.28.74-5.19-1.79-4.24a65.5,65.5,0,0,1-7.43,2.23c-3.18.79-6.34,1.68-9.53,2.44-7.81,1.87-15.73,3.31-23.64,4.69-18.07,3.16-35.29,5.31-53.47,7.42-8.79,1-17.6,1.81-26.36,3.08a2.7,2.7,0,0,0,.71,5.3Z"/><path class="cls-9" d="M310.75,465.14a85.58,85.58,0,0,0-5.95,25.41,94.83,94.83,0,0,0,.23,11.92c.25,4.24.69,8.44,1.36,12.63.39,2.42.85,4.83,1.35,7.22s.76,5.52,2.52,7.46a1.75,1.75,0,0,0,2.9-.76c.6-2.24-.33-4.59-.79-6.79s-.82-4.12-1.16-6.2a110.48,110.48,0,0,1-1.33-11.9c-.41-7.78.91-15.73,2.67-23.28a97.6,97.6,0,0,1,4.44-14c.64-1.63-.71-3.56-2.26-4a3.3,3.3,0,0,0-4,2.26Z"/><path class="cls-9" d="M359.73,413.46c-5.87,14.43-6.62,31-3.81,46.18.39,2.15.83,4.29,1.34,6.42s.9,5,2.61,6.59c1.23,1.14,3.64.8,4-1,.49-2.5-.76-5.06-1.39-7.45a68.33,68.33,0,0,1-1.45-7.08,85.52,85.52,0,0,1-.9-14.12,104.43,104.43,0,0,1,4.62-28.11,2.6,2.6,0,1,0-5-1.38Z"/><path class="cls-9" d="M405.32,374.27c-.92,7.3-1.49,15.15.22,22.38.2.84.5,1.63.73,2.45s.32,1.84.47,2.76c.28,1.86.69,3.7,1,5.55s.59,3.73,1,5.58a18.12,18.12,0,0,0,.68,2.5,8.46,8.46,0,0,0,1.57,2.42c.76.95,2.12.08,2.2-.91a13.25,13.25,0,0,0-.81-5.25c-.55-1.71-1.08-3.44-1.51-5.18a49,49,0,0,1-.88-5.1,27.07,27.07,0,0,1,0-5.4c.4-7,.05-14,1-21.05.23-1.68-.49-3.29-2.35-3.54s-3,1.1-3.22,2.79Z"/><path class="cls-9" d="M479.84,282.59a91.68,91.68,0,0,0-4.76,27.81,93.23,93.23,0,0,0,.81,13.87c.31,2.38.73,4.74,1.16,7.1.22,1.2.46,2.39.72,3.58a10,10,0,0,0,1.27,3.8c1.84,2.48,5.66,1.69,5.85-1.58a11.55,11.55,0,0,0-.88-3.94c-.31-1-.6-2-.87-3.07-.57-2.2-1-4.45-1.33-6.69a86.66,86.66,0,0,1-1-13.07,92.5,92.5,0,0,1,3.82-26.49c.92-3.09-3.77-4.32-4.79-1.32Z"/><path class="cls-9" d="M542.61,223a68.57,68.57,0,0,0-8.6,20.22,91.66,91.66,0,0,0-2.1,22c0,2,.15,4,.34,6a29.46,29.46,0,0,0,.55,3.51,4.9,4.9,0,0,0,1.91,2.81,1.75,1.75,0,0,0,2.73-.35,5.6,5.6,0,0,0,.85-3.41c-.15-1.26-.34-2.49-.54-3.74a62.29,62.29,0,0,1-.73-6.54,66.62,66.62,0,0,1,.62-13.09,95.31,95.31,0,0,1,2.93-13,77.89,77.89,0,0,1,4.76-12.84,1.58,1.58,0,0,0-2.72-1.59Z"/><path class="cls-9" d="M588.11,259.47c2.66-1.64,5.35-3.19,7.88-5.05s5.13-3.87,7.7-5.8c5-3.75,10.65-7.21,16.35-9.05a53,53,0,0,1,5.14-1.31,40,40,0,0,0,5.52-1.8,1.82,1.82,0,0,0,0-3.48,12.92,12.92,0,0,0-5.44-1,27,27,0,0,0-5.35,1,45.93,45.93,0,0,0-9.54,4.08,68.51,68.51,0,0,0-8.44,6,91.33,91.33,0,0,0-7.55,6.63c-2.64,2.6-5,5.43-7.64,8a1.13,1.13,0,0,0,1.37,1.76Z"/><path class="cls-9" d="M595.47,286.66c5.24,2.68,8.79,6.89,11.47,11.95q.46.87.87,1.77l.27.6c0-.06-.16-.38,0,0l.42,1.08a34.55,34.55,0,0,1,1.29,4.24c.16.69.3,1.39.42,2.09,0,.17.13,1,.06.4.06.44.1.87.14,1.31a35.89,35.89,0,0,1,0,4.4c0,.82-.06,1.63-.14,2.44a12.66,12.66,0,0,1-.26,1.88c-.31,1.65-.7,3.31-1.07,5a2.55,2.55,0,0,0,4.63,1.95c4-5.6,4.24-13.24,3-19.77a32.73,32.73,0,0,0-9.35-17.36,32.1,32.1,0,0,0-9.25-6.16,2.55,2.55,0,0,0-3.37.88,2.49,2.49,0,0,0,.89,3.37Z"/><path class="cls-9" d="M364.32,97.63c0-.12-.24-1.42-.18-.91-.06-.48-.1-1-.12-1.47a22.55,22.55,0,0,1,.07-3c0-.24,0-.49.07-.74q-.07.6,0-.09c.09-.48.17-1,.27-1.45a23.91,23.91,0,0,1,.79-2.87c.05-.13.59-1.51.28-.78.19-.45.41-.9.63-1.34a24.09,24.09,0,0,1,1.53-2.54l.43-.6c-.26.34-.25.32.05,0s.64-.75,1-1.11a26,26,0,0,1,2-1.88l-.11.09.62-.44c.41-.28.84-.55,1.27-.8s.88-.48,1.33-.7l.68-.32h0a29.71,29.71,0,0,1,2.86-.92c.49-.13,1-.24,1.48-.33l.74-.13c-.56.07-.58.08-.06,0a27.54,27.54,0,0,1,3-.12c.51,0,1,0,1.51.08l.75.08c-.58-.08-.61-.07-.08,0,1.95.42,3.94.74,5.87,1.27a4,4,0,0,0,4.7-2.31,4,4,0,0,0-1.63-5c-6.68-4.61-16.17-3.72-23.2-.35a26,26,0,0,0-13.65,17.49,25.07,25.07,0,0,0,.48,13,3.4,3.4,0,0,0,6.56-1.81Z"/></g></g></g></svg>