<svg viewBox="0 0 1366 543" fill="none" xmlns="http://www.w3.org/2000/svg">
<path d="M806.2 124.5C812.8 122.7 849.4 119.3 860.5 118.4C871.5 117.5 893.7 117 899.2 120.1C904.7 123.3 907.4 126.5 906.8 129.7C906.2 132.9 892.5 144.2 887.1 147.1C881.7 150 882.6 154.6 885.6 156.9C888.6 159.2 892.8 156.6 896 158.6C899.3 160.6 896.9 164.4 902.9 165.8C908.9 167.2 921.1 166.7 923.8 162.3C926.5 157.9 924.1 152.5 918.1 153C912.1 153.6 893.4 147.8 899.2 142C905 136.2 916.6 134.2 917.5 128.4C918.4 122.6 913 113.9 895.4 112.8C877.8 111.6 855.4 116 846.5 117.1C837.6 118.3 812.5 121.7 806.8 121.4C801.1 121.1 799.9 117.9 793.4 118.2C788 118.4 784.8 122.3 786.2 124.3C787.7 126.5 799.6 126.2 806.2 124.5Z" fill="#F5C6BE"/>
<path d="M63.5998 128.2C67.4998 127 66.8998 124.7 65.3998 123C63.8998 121.3 65.9998 117.8 69.5998 117.5C73.1998 117.2 84.4998 113.4 91.6998 112.3C98.8998 111.1 103.3 109.4 101.8 106.5C100.3 103.6 91.0998 103 88.9998 100.4C86.8998 97.8 89.8998 90.8 95.5998 90.3C101.3 89.7 113.2 89.1 120.4 90.3C127.6 91.5 129.6 88.6 134.4 88.3C139.2 88 159.7 89.7 162.1 88.3C164.5 86.9 161.2 83.7 156.1 83.1C151 82.5 137.3 83.1 134.3 84.8C131.3 86.5 130.4 88.3 126 87.7C121.5 87.1 109 81.6 102.7 81.6C96.3998 81.6 86.8998 84.8 83.5998 87.1C80.2998 89.4 74.9998 89.1 74.9998 92C74.9998 94.9 77.3998 100.4 78.8998 101.8C80.3998 103.2 78.5998 109.6 76.1998 111.6C73.7998 113.6 69.5998 113.6 65.4998 114.5C61.2998 115.4 56.2998 117.7 55.0998 119.4C53.8998 121.1 50.8998 120.6 49.6998 122.9C48.0998 125.9 63.5998 128.2 63.5998 128.2Z" fill="#F5C6BE"/>
<path d="M129.8 113.2C121.2 118.4 117.3 132.6 123.2 143.9C129.2 155.2 133.6 160.4 136.3 162.1C136.3 162.1 130.6 165 127.7 166.7C124.7 168.4 114.9 169.3 113.4 172.5C112.8 173.8 118.2 178.3 123.5 178.3C128.9 178.3 132.1 179.7 137.8 180C143.5 180.3 149.1 176.5 150.9 176.2C152.7 175.9 164.6 177.4 169.1 176.2C173.6 175 176.6 171.6 173.3 169.2C170 166.9 174.7 169.2 174.7 169.2C174.7 169.2 181.1 172 198.1 174.1C215.1 176.2 258.6 177.2 278.6 174.1C298.6 171 308.7 167.5 309.3 168.2C309.9 168.9 309.3 171.8 307.8 172.1C306.3 172.4 317.6 171.5 321.8 170.1C326 168.7 332.8 166.6 333.7 160.8C334.6 155 324.8 150.7 327.4 144.9C330.1 139.1 336.3 134.2 343.5 134.2C350.7 134.2 351.6 126.7 367.4 125.8C383.2 124.9 432.7 129.3 443.1 128.1C453.5 126.9 464.6 122.9 470.2 125.7C475.9 128.4 477.4 131.6 483.3 130.2C489.3 128.8 483.3 127 483.3 127C483.3 127 480 127.8 478.5 124.8C477 121.8 478.2 118.6 472.8 117.7C467.4 116.8 464.5 120.3 457.9 122C451.3 123.7 448.7 124.9 447.8 121.7C446.9 118.5 452.3 113.3 446.3 108.1C440.3 102.9 434.4 103.5 431.7 104.8C429 106.1 434.1 97.7 437.4 96.8C440.7 95.9 448.1 96.2 449.9 95.1C451.7 93.9 451.7 91.9 450.8 91.3C449.9 90.7 443 91.4 443.3 88.1C443.6 84.9 445.7 81.4 440.6 78.5C435.5 75.6 431.1 75.3 426.6 78.5C426.6 78.5 431.4 49.5 401.3 45.5C371.2 41.4 344.9 37.4 325.9 80C325.9 80 325.3 81.4 321.7 81.4C318.1 81.4 316.6 78.8 311.6 84C306.5 89.2 306.2 90.7 303.8 91C301.4 91.3 278.5 93.4 274.9 93.6C271.3 93.9 273.7 95.6 275.5 95.6C277.3 95.6 300.8 95 304.7 96.2C308.6 97.4 320.5 100.3 327.4 98.5C327.4 98.5 328 100.2 332.2 101.7C332.2 101.7 325 104.9 323.3 109.2C321.5 113.5 324.8 119.3 324.8 119.3C324.8 119.3 319.4 117.9 315 119.9C310.5 121.9 309.9 125.1 311.4 128C312.9 130.9 318.9 132.6 318.9 132.6C318.9 132.6 315.6 136.9 316.5 139.8C317.4 142.7 321.6 145 321.6 145C321.6 145 317.7 143.8 318 147C318.3 150.2 320.4 151.1 324 152.8C327.6 154.5 327.3 156.9 323.4 157.7C319.5 158.6 307.3 162.9 299.8 159.1C292.3 155.3 298.7 149.8 291.3 146.6C284 143.4 266.4 142.3 257.1 147.5C247.9 152.7 246.7 157.9 246.1 159.7C246.1 159.7 245.8 153.6 239.8 153C233.8 152.4 219.2 161.4 215.6 160C212 158.6 216.8 154.5 217.7 153.3C218.6 152.1 228.7 143.5 226 139.4C223.3 135.3 220.6 135.9 218.5 137.7C218.5 137.7 227.4 128.4 223.9 119.7C220.3 111 218.8 100.3 203.9 101.7C189 103.1 180 112.7 165.4 112.7C150.9 113.2 138.4 108 129.8 113.2Z" fill="#F5C6BE"/>
<path d="M731.4 74.7C733.8 74.7 732.3 78.5 737.1 78.5C741.9 78.5 766.3 82 771.4 80.5C776.5 79.1 774.7 76.8 771.4 76.9C768.1 77 766.6 74.7 763.3 73C760 71.3 754.4 74.7 752.9 73C751.4 71.3 752.3 64.9 746.3 64.9C740.3 64.9 725.4 67.8 724.2 73C723.9 74.1 729 74.7 731.4 74.7Z" fill="#F5C6BE"/>
<path d="M513.4 188.5C510 189.7 497.1 191.1 496.2 199.8C495.3 208.5 517.4 208.2 524.5 208.2C531.7 208.2 542.4 201.5 543 196.6C543.6 191.7 540.6 187 535.8 183.9C531 180.7 515.5 178.1 512.5 175.2C509.5 172.3 510.7 170.6 514.3 167.7C517.9 164.8 522.4 161 523.2 158.1C524.1 155.2 522.6 152.9 516.3 150.6C510 148.3 504.1 152.9 501.1 154.9C498.1 156.9 493.6 157.2 490.4 154.9C487.1 152.6 484.3 151.5 483.5 153.5C482.3 156.7 484.4 160.5 489.2 161.6C494 162.8 498.4 161 504.1 158.7C509.8 156.4 513 158.4 515.4 162.2C517.8 166 506.5 166.3 501.1 168C495.7 169.7 494.8 173.2 499.6 177.3C504.4 181.4 510.3 179.3 516.3 182.5C522.5 185.6 516.8 187.3 513.4 188.5Z" fill="#F5C6BE"/>
<path d="M646.7 120.7C636.9 136.3 648.5 150.8 655.3 158.5C662.2 166.2 670.8 170.1 670.8 170.1C670.8 170.1 662.2 167.9 652.6 168.8C643.1 169.7 629.9 173.1 625.8 172C621.6 170.8 621.9 167.7 625.8 165C629.7 162.4 630.9 160.9 628.5 157.3C626.1 153.7 613.3 148.8 603.5 148.8C593.7 148.8 591.2 155.5 591.2 155.5C587 154.9 587.4 160.7 585 161.6C582.6 162.5 558.2 163 555.2 165C555.2 165 590.4 167.6 598.7 168.8C607 170 606.4 177.7 610.4 180C621.7 186.7 644.9 187.6 657.4 187.9C669.9 188.2 710.2 183.6 717.3 182.4C724.5 181.2 722.7 188.8 721.5 191.2C720.3 193.6 712.6 190.2 713.7 192.8C714.9 195.4 716.1 195.7 716.1 195.7C732.5 205.5 750.4 201.3 755.2 198.7C757.4 197.5 756.1 194 758.2 194.5C760.3 195 761.8 197.7 768.9 198.6C776.1 199.5 783.5 195.1 789.2 193.4C794.9 191.7 825.9 192 829.2 191.2C832.5 190.4 833.7 191.7 831.9 189.9C830.1 188.2 796.7 187 788.4 185.8C780.1 184.6 782.7 181.7 775.9 181.5C769 181.2 756.2 183.2 756.2 183.2C756.2 183.2 758.8 177.5 753.1 174C747.4 170.5 738.9 173.3 738.9 173.3C741.3 171.6 740.7 169 739.8 164.9C739 161.2 733.6 161.4 732.7 161.5C732.6 161.5 732.6 161.5 732.5 161.5C732.5 161.5 732.6 161.5 732.7 161.5C739.9 161.2 742.2 156.5 746.1 152.5C750 148.4 748.2 140 741.3 136.1C734.4 132.1 726.8 136.1 726.8 136.1C726.8 136.1 730.1 131.4 728.3 121C726.5 110.6 717.6 104.2 700.5 100.9C683.1 97.5 656.5 105.1 646.7 120.7Z" fill="#F5C6BE"/>
<path d="M638 207.5C636.5 203.6 635.4 201.8 627.6 201.3C619.8 200.8 617.5 206.5 617.5 206.5C617.5 206.5 609.2 205.3 602.6 206.5C596 207.7 594.3 211.4 592.5 212C590.7 212.6 584.8 211 583.2 213.7C581.6 216.3 587.7 215.4 591.3 216.9C594.8 218.3 600.6 219.5 606.9 218.9C613.2 218.3 618.8 217.7 622.7 220.3C626.6 222.9 637.3 225.5 643.9 225.6C650.5 225.7 664.2 222.4 669.2 224.4C674.3 226.4 683.2 225.6 685.3 224.4C687.4 223.2 689.2 222.1 685.3 221.8C681.4 221.5 663.5 218.6 656.7 216.9C649.8 215.2 637.3 215.7 638.2 214.9C638.8 214 639.5 211.4 638 207.5Z" fill="#F5C6BE"/>
<path d="M1126.9 391.2C1127.5 390.8 1130.1 389.3 1130.9 388.8C1131.7 388.3 1131.9 388.1 1132.4 387.4C1132.9 386.8 1134.7 386.1 1135.5 385.9C1136.3 385.7 1137.2 385.4 1137.4 384.8C1137.5 384.2 1136.9 383.4 1137.1 383C1137.3 382.5 1137.9 382.9 1138.4 382.9C1138.9 382.9 1139 382.7 1138.7 382.1C1138.4 381.5 1137.1 381.4 1136.4 380.7C1135.7 380 1135.5 378.9 1135.9 377.8C1136.4 376.7 1138.1 376.1 1139 375.4C1139.9 374.7 1140.9 373.5 1140.9 373.5C1140.9 373.5 1140.9 373.5 1141.1 373.2C1141.3 372.9 1141.3 371.9 1141.9 370.7C1142.5 369.5 1143.7 370.2 1144.1 370.5C1144.5 370.8 1144.5 371.4 1145 371.8C1145.6 372.2 1145.4 372.6 1145.1 372.8C1144.8 373 1144.8 373.5 1145.1 373.4C1145.4 373.3 1146.7 373.3 1147.3 374.4C1147.9 375.5 1146.7 376.2 1146 376.5C1145.4 376.8 1145 376.1 1145 376.1C1144.8 376.8 1145.2 377.8 1146.8 377.8C1148.4 377.9 1149.7 376.2 1150.2 375.7C1150.7 375.2 1152 373 1152.4 371.8C1152.8 370.5 1151.1 370.3 1150.9 369.9C1150.7 369.5 1151.3 369.4 1151.9 369.3C1152.5 369.2 1154.4 368.1 1154.9 367.4C1155.4 366.7 1154.7 365.6 1154.4 365.3C1154.1 365 1153.1 364.4 1153 364C1152.9 363.6 1152.4 363.5 1151.9 363.2C1151.3 362.9 1151.3 362.7 1151 361.9C1150.7 361.1 1149.9 360.6 1149.6 360.5C1149.3 360.4 1149.1 359.9 1148.9 359.6C1148.7 359.3 1147.9 359.2 1147.5 359C1147.1 358.8 1147.1 358.3 1147.5 358C1147.9 357.7 1148.6 358.4 1148.9 358.7C1149.1 359 1150.4 359.5 1151 359.7C1151.6 360 1152.7 360.3 1152.9 360.1C1153.1 359.9 1153.2 359.7 1153 359.3C1152.8 358.8 1153 358.4 1153.5 358.4C1154.1 358.4 1155.1 358.9 1155.2 359.5C1155.3 360.1 1154.4 360.1 1154.3 360.4C1154.1 360.8 1155.6 362 1155.8 362.4C1155.9 362.8 1155.3 362.9 1155.6 363.6C1155.9 364.3 1157.2 363.5 1157.2 363.1C1157.2 362.7 1157.2 362.4 1157 361.9C1156.9 361.3 1156.2 360.9 1155.9 360.2C1155.6 359.5 1156.9 359.8 1156.9 359.8C1156.9 359.8 1156.9 359.8 1157.6 359.9C1158.3 360 1158.7 361.8 1158.7 361.4C1158.7 361.1 1159 361 1159.9 361.6C1160.7 362.2 1161.1 363.4 1160.7 363.6C1160.3 363.8 1159.5 363.6 1159.5 363.6C1159.5 363.6 1159.2 364.7 1160.8 364.9C1162.4 365 1162.5 363.5 1162.7 362.3C1162.9 361.1 1161.4 360 1160.6 359.6C1159.8 359.2 1159.3 357.5 1158.7 357.1C1158.1 356.7 1157.4 356.8 1157.1 356.8C1156.8 356.8 1156.5 356.3 1156.8 356C1157.1 355.7 1156.6 353.6 1155.7 352.6C1154.8 351.6 1153 351.2 1152.1 351.3C1151.2 351.3 1149 350.8 1148.3 350.3C1147.6 349.8 1147.4 349.1 1146.8 349.1C1146.2 349.1 1146.1 349.2 1145.8 349.8C1145.4 350.4 1144.6 351.1 1144.1 351.4C1143.6 351.7 1143.7 352.2 1143.1 353.3C1142.5 354.4 1141 354.2 1140.3 354.1C1139.5 354 1139.4 353.2 1138.6 353C1137.8 352.8 1137.6 353.1 1137.4 352.5C1137.2 351.9 1137 351.5 1136.7 351.3C1136.4 351.1 1135.2 350.6 1135.2 349.7C1135.2 348.7 1136.4 349 1136.9 349.1C1137.4 349.2 1138.2 349.4 1139.2 349.2C1140.2 349 1142.4 346.7 1142.6 346.4C1142.8 346.1 1143.1 345.5 1142.9 345C1142.7 344.5 1142.9 343.8 1143.6 343.6C1144.3 343.5 1144.3 344.5 1144.6 344.8C1144.9 345.1 1145.1 345 1145.5 345.1C1145.9 345.2 1145.8 346.1 1146.2 346.2C1146.5 346.3 1146.6 345.9 1146.5 345.6C1146.4 345.4 1146.7 344.5 1147.8 344.3C1148.9 344.1 1149.6 345.5 1149.4 345.8C1149.2 346.1 1149 346.7 1149.3 346.9C1149.6 347.1 1150.2 347.1 1150.6 347.3C1151 347.5 1151 347.8 1151.8 347.9C1152.6 348 1152.5 347.5 1153 347C1153.5 346.6 1153.4 347 1154 347.3C1154.6 347.6 1154 348.1 1154.2 348.4C1154.3 348.7 1155 348.5 1155.5 348.2C1156 347.9 1156.3 346.9 1155.5 344.9C1154.7 342.9 1152.5 343.2 1151.7 343.1C1151 343.1 1149.5 343.4 1149 343.8C1148.5 344.1 1148.4 344 1148.4 343.7C1148.3 343.4 1147.6 343.4 1147 343.3C1146.3 343.3 1145.6 342.7 1145.2 342.2C1144.8 341.7 1144.4 341.3 1143 341.3C1141.6 341.3 1139.8 343.4 1139.2 344C1138.6 344.6 1139.1 344.7 1139.2 345.2C1139.3 345.7 1138.6 346.4 1137.9 346.9C1137.2 347.5 1135.6 347.2 1134.9 347.5C1134.2 347.8 1134.1 348.9 1134.7 349.3C1134.8 349.4 1134.8 350.5 1134.6 351.2C1134.4 351.9 1135.2 352.8 1136.4 353C1137.7 353.2 1136.4 353 1136.6 353.1C1136.8 353.2 1138.4 354.4 1138.7 355.2C1139 356 1140.3 356.4 1140.4 356.7C1140.6 357 1140.2 357.6 1139.7 357.8C1139.2 358 1137.8 358 1137.3 358.1C1136.8 358.3 1137 358.7 1136.8 358.9C1136.6 359.1 1136.2 359.3 1136.2 359.8C1136.2 360.3 1137.5 361.1 1138.2 361.4C1138.9 361.6 1139 361.1 1139 361.1C1138.9 360.3 1137.6 360 1137.8 359.2C1138 358.5 1138.8 359.6 1139.3 359.9C1140 360.3 1142.1 359.5 1142.1 359.5C1141.9 359.7 1142.1 360.5 1142.4 361.3C1142.7 362.1 1144 362.4 1144.4 362.6C1144.8 362.8 1145.5 363.3 1145.7 362.9C1145.9 362.5 1146.2 361.6 1146.8 361.6C1147.5 361.6 1148 363 1148.8 363.4C1149.6 363.8 1151.1 363.6 1151.9 364.4C1152.7 365.2 1152.5 366.1 1152.1 366.6C1151.7 367.2 1151.4 366.7 1150.9 366.9C1150.3 367.1 1150.5 367.7 1148.7 367.7C1146.9 367.7 1147.2 367.4 1147.2 367.4C1147.2 367.4 1147.2 367.4 1146.7 367.4C1146.2 367.4 1145 366.8 1144.7 365.7C1144.4 364.6 1143.2 363.2 1141.9 363.3C1140.5 363.3 1141 364.9 1140.8 365.2C1140.6 365.5 1140.2 365.2 1139.5 365.1C1138.7 365 1138.6 365.7 1138.6 365.7C1137.9 365.4 1137.2 365.6 1136.4 366.5C1135.6 367.4 1136.4 368.2 1136.4 368.7C1136.4 369.2 1135.8 368.6 1135.1 369.8C1134.4 371 1136 371.9 1136 371.9C1136.6 370.4 1138.4 371.6 1138.4 371.6C1138.7 371.4 1138.9 371.2 1139.8 371.5C1140.7 371.8 1141 372.7 1139.9 374.1C1138.8 375.5 1137.2 374.7 1136.3 375.1C1135.4 375.5 1134.7 377.1 1133.8 377.3C1132.9 377.5 1132.6 375.8 1132.6 375.8C1132.6 375.8 1131.3 376.9 1131.1 378.3C1130.8 379.6 1132 380.9 1131.3 381.8C1130.6 382.7 1130.3 382.6 1129.4 383.4C1128.5 384.2 1129.2 385.9 1128.9 386.4C1128.6 386.9 1128.2 387 1127.6 387.5C1127 388 1127.1 389.2 1126.6 389.9C1126.1 390.6 1125.1 391.7 1124.2 392C1123.3 392.3 1123.1 393.4 1123 393.6C1122.8 393.8 1122 394.7 1122.7 394.9C1123.2 395 1124 394.3 1124.6 393.7C1124.8 392.8 1126.3 391.5 1126.9 391.2Z" fill="#F5C6BE"/>
<path d="M1159.5 346.1C1157.9 345.8 1157.2 347 1157.1 347.6C1157 348.2 1157.1 349.6 1157.7 349.6C1158.3 349.7 1158.6 348.8 1159.3 348.7C1160 348.6 1160.2 349.2 1160.4 349.6C1160.6 349.9 1160.4 351.1 1160.7 351.3C1161 351.5 1162 350.8 1162.1 351.5C1162.2 352.1 1161.5 352.6 1161.3 353.4C1161.1 354.2 1161.9 355.4 1161.8 355.9C1161.8 356.5 1161 356.6 1161.3 357.1C1161.6 357.6 1162.7 357.3 1163.1 356.5C1163.5 355.7 1163.7 355.2 1163.2 354.8C1162.7 354.4 1162.6 354.3 1162.7 353.6C1162.7 352.9 1161.9 352.9 1162.2 352.4C1162.5 351.9 1163.1 351.4 1162.7 351C1162.3 350.6 1161.3 350.3 1161.2 349.6C1161 348.8 1161.1 346.4 1159.5 346.1Z" fill="#F5C6BE"/>
<path d="M322.2 380.3C324.409 380.3 326.2 378.509 326.2 376.3C326.2 374.091 324.409 372.3 322.2 372.3C319.991 372.3 318.2 374.091 318.2 376.3C318.2 378.509 319.991 380.3 322.2 380.3Z" fill="white"/>
<path d="M777.4 227C779.609 227 781.4 225.209 781.4 223C781.4 220.791 779.609 219 777.4 219C775.191 219 773.4 220.791 773.4 223C773.4 225.209 775.191 227 777.4 227Z" fill="white"/>
<path d="M599.5 174.1C603.31 174.1 606.4 171.011 606.4 167.2C606.4 163.389 603.31 160.3 599.5 160.3C595.689 160.3 592.6 163.389 592.6 167.2C592.6 171.011 595.689 174.1 599.5 174.1Z" fill="white"/>
<path d="M372.171 247.578C375.692 246.119 377.363 242.083 375.905 238.562C374.447 235.041 370.41 233.369 366.89 234.828C363.369 236.286 361.697 240.323 363.155 243.843C364.614 247.364 368.65 249.036 372.171 247.578Z" fill="white"/>
<path d="M535.07 328.768C538.591 327.31 540.263 323.273 538.804 319.753C537.346 316.232 533.31 314.56 529.789 316.018C526.268 317.477 524.596 321.513 526.055 325.034C527.513 328.555 531.549 330.226 535.07 328.768Z" fill="white"/>
<path d="M984.771 282.078C988.292 280.62 989.964 276.583 988.506 273.062C987.047 269.542 983.011 267.87 979.49 269.328C975.969 270.786 974.297 274.823 975.756 278.344C977.214 281.864 981.251 283.536 984.771 282.078Z" fill="white"/>
<path d="M1142.48 356.67C1146 355.212 1147.67 351.176 1146.21 347.655C1144.75 344.134 1140.72 342.462 1137.2 343.92C1133.67 345.379 1132 349.415 1133.46 352.936C1134.92 356.457 1138.96 358.129 1142.48 356.67Z" fill="white"/>
<path d="M997.767 156.294C998.643 152.585 996.346 148.869 992.638 147.993C988.929 147.117 985.213 149.414 984.337 153.123C983.461 156.831 985.758 160.548 989.467 161.423C993.175 162.299 996.892 160.003 997.767 156.294Z" fill="white"/>
<path d="M1243.7 269.6C1247.51 269.6 1250.6 266.511 1250.6 262.7C1250.6 258.889 1247.51 255.8 1243.7 255.8C1239.89 255.8 1236.8 258.889 1236.8 262.7C1236.8 266.511 1239.89 269.6 1243.7 269.6Z" fill="white"/>
<path d="M154.1 179.4C156.364 179.4 158.2 177.564 158.2 175.3C158.2 173.036 156.364 171.2 154.1 171.2C151.836 171.2 150 173.036 150 175.3C150 177.564 151.836 179.4 154.1 179.4Z" fill="white"/>
<path d="M862.723 307.383C863.243 305.179 861.878 302.971 859.675 302.451C857.471 301.93 855.263 303.295 854.742 305.498C854.222 307.702 855.587 309.91 857.79 310.431C859.994 310.951 862.202 309.587 862.723 307.383Z" fill="white"/>
<path d="M707.546 433.083C708.067 430.879 706.702 428.671 704.498 428.15C702.295 427.63 700.087 428.995 699.566 431.198C699.046 433.402 700.41 435.61 702.614 436.131C704.818 436.651 707.026 435.286 707.546 433.083Z" fill="white"/>
<path d="M1212.2 166.3C1214.46 166.3 1216.3 164.464 1216.3 162.2C1216.3 159.936 1214.46 158.1 1212.2 158.1C1209.94 158.1 1208.1 159.936 1208.1 162.2C1208.1 164.464 1209.94 166.3 1212.2 166.3Z" fill="white"/>
<path d="M1216.3 382C1218.56 382 1220.4 380.164 1220.4 377.9C1220.4 375.636 1218.56 373.8 1216.3 373.8C1214.04 373.8 1212.2 375.636 1212.2 377.9C1212.2 380.164 1214.04 382 1216.3 382Z" fill="white"/>
<path d="M938.165 221.979C938.685 219.775 937.32 217.567 935.117 217.047C932.913 216.526 930.705 217.891 930.184 220.095C929.664 222.298 931.029 224.507 933.232 225.027C935.436 225.547 937.644 224.183 938.165 221.979Z" fill="white"/>
<path d="M447.816 288.402C448.375 286.037 446.91 283.667 444.546 283.109C442.181 282.55 439.811 284.015 439.252 286.38C438.694 288.745 440.158 291.114 442.523 291.673C444.888 292.231 447.258 290.767 447.816 288.402Z" fill="white"/>
<path d="M235.706 253.55C237.039 251.518 236.473 248.79 234.442 247.457C232.41 246.124 229.682 246.689 228.349 248.721C227.015 250.753 227.581 253.48 229.613 254.814C231.645 256.147 234.372 255.581 235.706 253.55Z" fill="white"/>
<path d="M153.783 390.915C155.053 388.843 154.403 386.135 152.331 384.865C150.259 383.595 147.55 384.245 146.28 386.317C145.011 388.389 145.661 391.098 147.733 392.368C149.805 393.637 152.514 392.987 153.783 390.915Z" fill="white"/>
<path d="M290.557 180.107C290.944 177.708 289.313 175.449 286.914 175.063C284.515 174.676 282.257 176.307 281.87 178.706C281.483 181.105 283.114 183.363 285.513 183.75C287.912 184.137 290.17 182.506 290.557 180.107Z" fill="white"/>
<path d="M449.3 377.9C451.785 377.9 453.8 375.885 453.8 373.4C453.8 370.915 451.785 368.9 449.3 368.9C446.815 368.9 444.8 370.915 444.8 373.4C444.8 375.885 446.815 377.9 449.3 377.9Z" fill="white"/>
<path d="M957.906 376.66C959.364 373.139 957.693 369.103 954.172 367.644C950.651 366.186 946.615 367.858 945.156 371.379C943.698 374.899 945.37 378.936 948.891 380.394C952.411 381.852 956.448 380.181 957.906 376.66Z" fill="white"/>
<path d="M709.864 306.267C711.322 302.746 709.651 298.71 706.13 297.252C702.609 295.793 698.573 297.465 697.114 300.986C695.656 304.507 697.328 308.543 700.849 310.001C704.369 311.46 708.406 309.788 709.864 306.267Z" fill="white"/>
<path d="M837.259 201.264C839.953 198.569 839.953 194.2 837.259 191.506C834.564 188.811 830.195 188.811 827.501 191.506C824.806 194.2 824.806 198.569 827.501 201.264C830.195 203.958 834.564 203.958 837.259 201.264Z" fill="white"/>
<path d="M521 415C524.976 415 528.2 411.776 528.2 407.8C528.2 403.824 524.976 400.6 521 400.6C517.023 400.6 513.8 403.824 513.8 407.8C513.8 411.776 517.023 415 521 415Z" fill="white"/>
<path d="M111.8 350.3C114.009 350.3 115.8 348.509 115.8 346.3C115.8 344.091 114.009 342.3 111.8 342.3C109.591 342.3 107.8 344.091 107.8 346.3C107.8 348.509 109.591 350.3 111.8 350.3Z" fill="white"/>
<path d="M548.04 209.011C548.377 206.94 546.97 204.988 544.898 204.651C542.827 204.315 540.875 205.722 540.538 207.794C540.202 209.865 541.609 211.817 543.681 212.153C545.752 212.49 547.704 211.083 548.04 209.011Z" fill="white"/>
<path d="M451.173 161.107C453.673 160.071 454.861 157.205 453.825 154.705C452.789 152.204 449.923 151.017 447.423 152.053C444.922 153.088 443.735 155.955 444.771 158.455C445.806 160.955 448.673 162.143 451.173 161.107Z" fill="white"/>
<path d="M1124.7 222.1C1127.41 222.1 1129.6 219.906 1129.6 217.2C1129.6 214.494 1127.41 212.3 1124.7 212.3C1121.99 212.3 1119.8 214.494 1119.8 217.2C1119.8 219.906 1121.99 222.1 1124.7 222.1Z" fill="white"/>
<path d="M144.504 243.747C145.95 240.221 144.263 236.191 140.737 234.746C137.211 233.3 133.181 234.987 131.735 238.513C130.29 242.039 131.977 246.069 135.503 247.515C139.029 248.96 143.059 247.274 144.504 243.747Z" fill="white"/>
<path d="M1137.6 431.4L1130.8 420.3C1129.7 418.4 1127.8 417.1 1125.8 416.5C1125.6 416.1 1125.3 415.6 1125.1 415.2C1124.8 414.6 1124.5 413.9 1124.2 413.3C1123.9 412.6 1123.5 411.8 1123.2 411.1C1123 410.7 1122.7 410.2 1122.5 409.8C1122.2 409.2 1121.8 408.8 1121.3 408.3C1121.2 408.2 1121.1 408.1 1121 408C1120.8 407.9 1120.7 407.7 1120.5 407.6C1119.9 407.1 1119.2 406.8 1118.4 406.6C1117.9 406.5 1117.5 406.4 1117 406.3C1116.8 406.3 1116.6 406.3 1116.4 406.2C1116.5 406.1 1116.6 406.1 1116.6 406C1117.1 405.6 1117.5 405.2 1117.9 404.7C1118.8 403.5 1119.2 402.1 1119.3 400.5C1119.3 399.5 1119.2 398.6 1119.1 397.6C1119 397 1118.9 396.5 1118.6 396C1118.4 395.4 1118.1 394.9 1117.9 394.3C1117.7 393.8 1117.4 393.4 1117.1 393C1116.9 392.7 1116.7 392.5 1116.4 392.2C1116 391.7 1115.5 391.3 1115 390.9C1114.5 390.5 1114 390.3 1113.5 390C1112.3 389.5 1111 389.3 1109.6 389.3C1109.2 389.3 1108.8 389.4 1108.3 389.5C1107.9 389.6 1107.6 389.7 1107.2 389.8C1106.7 390 1106.2 390.2 1105.8 390.4C1105.3 390.7 1104.8 391 1104.4 391.4C1104 391.7 1103.7 392.1 1103.4 392.5C1103.2 392.8 1103 393.1 1102.7 393.4C1102.6 393.6 1102.4 393.8 1102.3 394C1102.1 394.4 1102 394.8 1101.8 395.3C1101.7 395.7 1101.5 396 1101.5 396.4C1101.5 396.8 1101.4 397.3 1101.4 397.7C1101.4 398.4 1101.4 399.2 1101.5 399.9C1101.6 400.4 1101.7 400.9 1101.9 401.4C1102.1 402 1102.3 402.6 1102.5 403.1C1102.8 403.7 1103.2 404.3 1103.7 404.7C1104 405 1104.4 405.4 1104.7 405.7C1104.8 405.8 1105 405.9 1105.2 406C1105.5 406.2 1105.8 406.5 1106.1 406.6C1106.3 406.7 1106.5 406.7 1106.7 406.8C1106.1 406.9 1105.5 407.2 1105 407.5C1104.5 407.8 1104 408 1103.5 408.3C1103.1 408.6 1102.8 408.8 1102.5 409.2C1102.3 409.5 1102 409.9 1101.8 410.2C1101.5 410.8 1101.3 411.4 1101.1 412C1100.9 413 1100.9 414.1 1100.9 415.1C1101 416 1101 416.8 1101.1 417.7C1101.2 418.4 1101.2 419 1101.3 419.7C1101.3 419.9 1101.3 420.1 1101.4 420.3C1101.5 420.7 1101.6 421 1101.7 421.4C1101.8 421.8 1101.9 422.3 1102.1 422.7C1102.4 423.4 1102.8 424 1103.4 424.4C1103.5 424.5 1103.6 424.5 1103.7 424.6C1103.8 424.6 1103.9 424.6 1104 424.5C1103.6 425.1 1103.4 425.8 1103.4 426.5C1103.4 428.6 1105.1 430.4 1107.3 430.4C1107.7 430.4 1108 430.4 1118.9 428.8C1119 428.8 1119.2 428.9 1119.2 429L1120.5 433.1C1121 434.8 1122.5 435.8 1124.2 435.8C1124.6 435.8 1125 435.7 1125.3 435.6C1127.3 435 1128.5 432.8 1127.9 430.8L1127.7 430.3L1130.7 435.2C1131.4 436.4 1132.7 437.1 1134 437.1C1134.7 437.1 1135.4 436.9 1136 436.5C1138.1 435.5 1138.7 433.2 1137.6 431.4ZM1119.5 416.4C1119.4 415.6 1119.3 414.7 1119.2 413.9C1119.2 413.4 1119.2 412.8 1119.1 412.3C1119.1 411.8 1119 411.2 1119 410.7C1119.1 411 1119.1 411.2 1119.2 411.5C1119.3 412 1119.4 412.4 1119.4 412.9C1119.5 413.8 1119.7 414.7 1119.8 415.6C1119.8 416 1119.9 416.3 1120.1 416.6C1119.9 416.6 1119.7 416.7 1119.5 416.7C1119.6 416.7 1119.6 416.5 1119.5 416.4ZM1116 406.5C1116.4 406.5 1116.7 406.5 1117.1 406.5C1117.9 406.6 1118.6 406.8 1119.3 407.1C1119.9 407.4 1120.4 407.7 1120.9 408.2C1121.3 408.7 1121.8 409.1 1122.1 409.7C1122.3 410.2 1122.6 410.6 1122.9 411.1C1123.2 411.8 1123.6 412.5 1123.9 413.2C1124.2 413.8 1124.5 414.5 1124.8 415.1C1125 415.5 1125.2 415.9 1125.4 416.3C1125 416.2 1124.7 416.2 1124.3 416.1C1124.2 415.9 1124.1 415.7 1124 415.5C1123.8 415.1 1123.6 414.8 1123.5 414.4C1123.3 413.9 1123.1 413.5 1123 413C1122.9 412.7 1122.7 412.3 1122.5 412C1122.2 411.2 1121.7 410.5 1121.3 409.8C1120.6 408.8 1119.7 408.1 1118.7 407.5C1118.3 407.2 1117.9 407 1117.4 406.9C1117 406.8 1116.6 406.7 1116.2 406.7C1116 406.7 1115.8 406.7 1115.7 406.7C1115.7 406.6 1115.8 406.5 1116 406.5Z" fill="#754C24"/>
<path d="M924.8 207.7H893V281.8H924.8V207.7Z" fill="#D6AC73"/>
<path d="M924.8 207.7H893V218.2H924.8V207.7Z" fill="#B27042"/>
<path d="M940 192.3V202.5C940 205.4 937.7 207.7 934.8 207.7H883.1C880.2 207.7 877.9 205.4 877.9 202.5V192.3C877.9 191.9 877.9 191.5 878 191.1C878.5 188.8 880.6 187.1 883.1 187.1H934.8C937.3 187.1 939.3 188.8 939.9 191.1C939.9 191.5 940 191.9 940 192.3Z" fill="#D6AC73"/>
<path d="M940 165.7V191H877.9V165.7C877.9 162.5 880.5 160 883.6 160H934.2C937.4 160 940 162.6 940 165.7Z" fill="#FF7BAC"/>
<path d="M1106.5 433.3H872.8L876.5 342.4L877.6 315.6L989.7 206.1L1101.7 315.6L1102.9 344.6L1106.5 433.3Z" fill="#D6AC73"/>
<path d="M1102.9 344.6L1074.4 314.2L1056.8 295.5L1044.2 282L1026.6 263.3L1013.9 249.8L996.4 231.2L989.6 223.9L984.4 229.3L966.7 247.8L953.9 261.2L936.3 279.8L923.5 293.2L905.8 311.7L893 325.1L876.5 342.4L877.6 315.6L989.7 206.1L1101.7 315.6L1102.9 344.6Z" fill="#B27042"/>
<path d="M1129.5 342.2C1124.1 347.2 1115.7 347 1110.6 341.6L1074.3 303L1056.8 284.3L1044.1 270.8L1026.6 252.1L1013.9 238.6L996.4 220L989.6 212.7L984.4 218.1L966.7 236.6L953.9 250L936.2 268.5L923.5 282L905.8 300.5L893 313.9L875.3 332.4L866.5 341.7C861.4 347 853 347.2 847.6 342.1C842.3 337 842.1 328.6 847.2 323.2L856.5 313.5L874.2 295L887 281.6L904.7 263.1L917.5 249.7L935.2 231.2L948 217.8L965.7 199.3L980.2 184.1C982.7 181.4 986.2 180 989.9 180C993.6 180 997.1 181.5 999.6 184.2L1015.5 201.1L1033 219.8L1045.7 233.3L1063.2 252L1075.9 265.5L1093.4 284.2L1106.1 297.7L1123.6 316.4L1130.2 323.4C1135.1 328.7 1134.9 337.2 1129.5 342.2Z" fill="#FF7BAC"/>
<path d="M885.8 321.5L875.3 332.5L856.5 313.6L867.3 302.3L885.8 321.5Z" fill="white"/>
<path d="M908.9 297.3L898.4 308.3L879.6 289.4L890.4 278.1L908.9 297.3Z" fill="white"/>
<path d="M931.3 273.3L920.9 284.2L902 265.4L912.8 254L931.3 273.3Z" fill="white"/>
<path d="M955.3 248.9L944.8 259.9L925.9 241L936.8 229.7L955.3 248.9Z" fill="white"/>
<path d="M980.4 222.3L969.9 233.3L951 214.4L961.8 203.1L980.4 222.3Z" fill="white"/>
<path d="M1091.8 321.5L1102.3 332.5L1121.2 313.6L1110.4 302.3L1091.8 321.5Z" fill="white"/>
<path d="M1068.7 297.3L1079.2 308.3L1098.1 289.4L1087.2 278.1L1068.7 297.3Z" fill="white"/>
<path d="M1046.3 273.3L1056.8 284.2L1075.7 265.4L1064.8 254L1046.3 273.3Z" fill="white"/>
<path d="M1023.4 248.9L1033.9 259.9L1052.8 241L1042 229.7L1023.4 248.9Z" fill="white"/>
<path d="M998.3 222.3L1008.8 233.3L1027.7 214.4L1016.9 203.1L998.3 222.3Z" fill="white"/>
<path d="M1063.6 391.8C1078.95 391.8 1091.4 379.354 1091.4 364C1091.4 348.646 1078.95 336.2 1063.6 336.2C1048.25 336.2 1035.8 348.646 1035.8 364C1035.8 379.354 1048.25 391.8 1063.6 391.8Z" fill="#B27042"/>
<path d="M1086.57 367.754C1088.62 355.107 1080.03 343.19 1067.39 341.137C1054.74 339.084 1042.82 347.673 1040.77 360.321C1038.72 372.969 1047.31 384.886 1059.95 386.938C1072.6 388.991 1084.52 380.402 1086.57 367.754Z" fill="#FCDB74"/>
<path d="M915.1 391.8C930.453 391.8 942.9 379.354 942.9 364C942.9 348.646 930.453 336.2 915.1 336.2C899.746 336.2 887.3 348.646 887.3 364C887.3 379.354 899.746 391.8 915.1 391.8Z" fill="#B27042"/>
<path d="M938.055 367.908C940.184 355.273 931.668 343.304 919.033 341.175C906.398 339.045 894.429 347.561 892.3 360.196C890.17 372.831 898.686 384.8 911.321 386.93C923.956 389.059 935.925 380.543 938.055 367.908Z" fill="#FCDB74"/>
<path d="M1023.8 326L1028 433.3H951.4L955.6 326C956.2 309.6 971.5 296.6 989.7 296.6C1007.8 296.6 1023.1 309.5 1023.8 326Z" fill="#B27042"/>
<path d="M1018.5 326L1022.1 433.3H957.2L960.8 326C961.3 312 974.2 301 989.7 301C997.4 301 1004.5 303.7 1009.7 308.2C1014.9 312.7 1018.3 318.9 1018.5 326Z" fill="#42210B"/>
<path d="M992.5 299.6H986.9V433.4H992.5V299.6Z" fill="#B27042"/>
<path d="M1281.7 464C1233.2 464 1161.9 444.3 1121.2 431.9C981.7 389.2 883.8 408.6 852.9 421.2C822 433.7 721.6 470.7 630 441.7C538.4 412.6 468.5 415.8 403.6 427.8C338.7 439.6 208.9 464 115.2 464H1.8999V537.3H1364.6V464H1281.7Z" fill="#FCDB74"/>
<path d="M1121.2 431.8C1052.4 410.8 993.7 404.8 948.2 405.7C953.1 407.5 988 429.5 1049.9 435.2C1110.6 440.8 1082.9 463.2 1143.1 466.7C1203.3 470.1 1268.9 470 1313.3 464H1281.7C1233.2 464 1161.9 444.3 1121.2 431.8Z" fill="#FDE8A7"/>
<path opacity="0.7" d="M940 181.2H877.9V186.4H940V181.2Z" fill="#F4EFE6"/>
<path d="M1073.8 383.4C1074.2 382.7 1074.8 382.4 1075.5 382.2C1075.6 382.2 1075.6 382.2 1075.7 382.2C1075.5 382.4 1075.3 382.5 1075.1 382.7C1074.6 383 1074.5 383.5 1074.4 384C1074.4 384.2 1074.4 384.4 1074.4 384.6C1078.3 382.6 1081.5 379.5 1083.7 375.7C1083.4 375.5 1083 375.4 1082.7 375.2C1082.1 375 1081.5 374.9 1080.9 374.7C1080.2 374.5 1079.6 374.4 1078.9 374.4C1078.9 374.4 1078.9 374.4 1078.8 374.4C1079 374.3 1079.2 374.2 1079.3 374.1C1079.7 373.9 1079.9 373.5 1080.1 373.2C1080.2 373 1080.4 372.9 1080.5 372.7C1080.8 372.3 1081.1 371.8 1081.3 371.3C1081.7 370.6 1082 370 1082.1 369.2C1082.2 368.5 1082.2 367.9 1082.3 367.2C1082.3 366.6 1082.3 366 1082.2 365.5C1082.2 364.7 1081.9 363.9 1081.7 363.1C1081.6 362.6 1081.4 362.2 1081.2 361.7C1081.1 361.3 1080.8 360.9 1080.6 360.6C1080.3 360.2 1080.1 359.8 1079.8 359.4C1079.6 359.2 1079.4 359 1079.2 358.8C1078.9 358.5 1078.6 358.3 1078.2 358C1077.8 357.7 1077.3 357.4 1076.8 357.1C1076.2 356.8 1075.6 356.6 1075 356.4C1074.4 356.3 1073.9 356.2 1073.3 356.1C1072.9 356.1 1072.5 356 1072.1 356C1071.6 356 1071.2 356.1 1070.7 356.2C1069.3 356.5 1067.9 357.1 1066.8 358C1066.3 358.4 1065.8 358.8 1065.4 359.3C1065 359.9 1064.6 360.4 1064.3 361.1C1064.1 361.4 1063.9 361.8 1063.8 362.2C1063.7 362.5 1063.6 362.8 1063.5 363V363.1C1063.6 363.3 1063.6 363.4 1063.7 363.6C1063.8 363.1 1064 362.5 1064.2 362C1064.3 361.7 1064.5 361.3 1064.7 361C1064.7 360.9 1064.8 360.9 1064.8 360.8C1064.9 360.6 1065.1 360.3 1065.2 360.1C1065.4 359.8 1065.7 359.4 1066 359.1C1066.1 359 1066.2 358.9 1066.3 358.8C1066.9 358.3 1067.4 357.9 1068.1 357.5C1068.7 357.2 1070.3 356.5 1071 356.5H1070.9C1070.3 356.6 1069.8 356.9 1069.3 357.1C1069 357.3 1068.6 357.4 1068.3 357.6C1068.1 357.7 1067.9 357.9 1067.8 358C1067.4 358.3 1067 358.7 1066.7 359C1066.6 359.1 1066.5 359.2 1066.5 359.3C1066.1 359.9 1065.7 360.4 1065.4 361C1065.3 361.3 1065.1 361.6 1065.1 361.9C1065.1 362 1065 362.1 1065 362.2C1064.8 362.9 1064.6 363.6 1064.4 364.2C1064.3 364.5 1064.3 364.7 1064.3 365C1064.4 365.4 1064.5 365.9 1064.5 366.4C1064.5 366.9 1064.6 367.4 1064.5 367.9C1064.5 368.4 1064.4 368.8 1064.4 369.3V369.4C1064.5 370.3 1064.9 371.1 1065.2 371.9C1065.4 372.3 1065.6 372.7 1065.9 373C1066.1 373.2 1066.3 373.5 1066.5 373.7C1067.2 374.4 1067.9 375 1068.7 375.4C1069.1 375.6 1069.5 375.8 1069.9 376C1070 376 1070 376.1 1070.1 376.1C1069.9 376.1 1069.8 376.1 1069.6 376C1068.9 375.8 1068.2 375.6 1067.5 375.3C1066.8 374.9 1066.1 374.5 1065.6 373.9C1065 373.3 1064.5 372.5 1064.2 371.7C1064.1 371.4 1064 371.1 1063.9 370.8C1063.8 371 1063.8 371.1 1063.7 371.3C1064.2 372.7 1065 374 1066.2 374.9C1066.7 375.3 1067.3 375.7 1068 376C1068.1 376 1068.2 376.1 1068.3 376.1C1068.1 376.2 1067.9 376.2 1067.7 376.3C1067.5 376.4 1067.2 376.5 1067 376.6C1067.1 376.7 1067.1 376.8 1067.2 376.9C1067.4 376.8 1067.5 376.8 1067.7 376.7C1068.1 376.5 1068.5 376.4 1068.9 376.4C1069.1 376.4 1069.2 376.5 1069.4 376.5C1069.2 376.6 1069 376.6 1068.8 376.7C1068.4 376.8 1067.9 377 1067.5 377.3C1067.5 377.3 1067.5 377.3 1067.4 377.3C1067.5 377.5 1067.6 377.7 1067.8 377.9C1068.3 378.8 1068.5 379.8 1068.7 380.8C1068.9 381.6 1069 382.4 1069.1 383.2C1069.2 383.8 1069.3 384.5 1069.4 385.1C1069.4 385.3 1069.5 385.5 1069.5 385.6C1069.5 385.8 1069.5 386 1069.5 386.2C1070.8 385.8 1072.1 385.4 1073.3 384.8C1073.4 384.5 1073.5 383.9 1073.8 383.4ZM1068.9 361.8C1068.8 361.8 1068.6 361.7 1068.5 361.6C1068.1 361.3 1067.7 361.2 1067.3 361.4C1066.9 361.5 1066.5 361.7 1066.2 362C1066.1 362.1 1066 362.2 1065.9 362.2C1065.7 362.3 1065.5 362.2 1065.5 361.9C1065.5 361.6 1065.7 361.4 1065.9 361.2C1066 361.1 1066.2 361 1066.3 360.9C1066.6 360.7 1066.9 360.7 1067.2 360.7C1067.8 360.7 1068.4 360.8 1068.9 361.1C1069 361.2 1069.1 361.3 1069.2 361.5C1069.2 361.7 1069.1 361.9 1068.9 361.8ZM1070.5 368.7C1069.9 368.7 1069.6 368.3 1069.6 367.8C1069.6 367.3 1070 366.9 1070.5 366.9C1071.2 366.9 1071.5 367.4 1071.5 367.9C1071.5 368.4 1071.1 368.7 1070.5 368.7ZM1072.8 361.3C1073 361 1073.4 360.8 1073.7 360.7C1074.1 360.6 1074.5 360.5 1074.8 360.5C1075.8 360.5 1076.5 360.9 1077.1 361.4C1077.3 361.5 1077.4 361.7 1077.3 361.9C1077.3 362.1 1077.2 362.1 1077.1 362.1C1076.8 362.1 1076.6 361.9 1076.4 361.8C1075.9 361.4 1075.4 361.3 1074.8 361.2C1074.4 361.1 1074 361.1 1073.6 361.3C1073.4 361.4 1073.1 361.5 1072.9 361.6C1072.8 361.7 1072.7 361.8 1072.6 361.6C1072.7 361.5 1072.8 361.4 1072.8 361.3ZM1073.3 378.5C1073.7 378.5 1074 378.8 1074 379.2C1074 379.6 1073.7 379.9 1073.3 379.9C1072.9 379.9 1072.6 379.6 1072.6 379.2C1072.5 378.8 1072.9 378.5 1073.3 378.5ZM1073.1 384.7C1072.8 384.6 1072.6 384.2 1072.7 383.9C1072.8 383.6 1073.1 383.3 1073.4 383.3C1073.2 383.8 1073.1 384.2 1073.1 384.7Z" fill="#42210B"/>
<path d="M1069.6 385.2C1069.5 384.6 1069.4 383.9 1069.3 383.3C1069.2 382.5 1069 381.7 1068.9 380.9C1068.7 379.9 1068.4 378.9 1068 378C1067.9 377.8 1067.8 377.6 1067.6 377.4C1067.5 377.3 1067.4 377.2 1067.4 377C1067.3 376.9 1067.3 376.8 1067.2 376.7C1067.1 376.6 1067 376.5 1066.9 376.4C1066.6 376.1 1066.3 375.9 1066 375.6C1065.7 375.3 1065.3 375.2 1064.9 375C1064.4 374.8 1063.9 374.7 1063.3 374.6C1062.7 374.5 1062.1 374.4 1061.5 374.4C1061.5 374.4 1061.5 374.4 1061.4 374.4C1061.6 374.3 1061.7 374.2 1061.9 374.1C1062.2 373.9 1062.4 373.6 1062.6 373.3C1062.7 373.2 1062.9 373 1063 372.9C1063.2 372.5 1063.5 372.1 1063.7 371.7C1063.7 371.6 1063.8 371.5 1063.8 371.4C1063.9 371.2 1064 371.1 1064 370.9C1064.2 370.5 1064.3 370.2 1064.3 369.8C1064.3 369.7 1064.3 369.6 1064.3 369.4C1064.4 368.9 1064.4 368.5 1064.4 368C1064.4 367.5 1064.4 367 1064.4 366.5C1064.4 366 1064.3 365.6 1064.2 365.1C1064.1 364.8 1064.1 364.6 1064 364.3C1063.9 364.1 1063.9 363.8 1063.8 363.6C1063.7 363.4 1063.7 363.3 1063.6 363.1V363C1063.5 362.7 1063.3 362.4 1063.1 362.1C1062.9 361.7 1062.6 361.4 1062.4 361C1062.3 360.8 1062.1 360.7 1061.9 360.5C1061.6 360.3 1061.3 360 1061.1 359.8C1060.7 359.5 1060.3 359.3 1059.9 359C1059.4 358.7 1058.9 358.5 1058.3 358.4C1057.8 358.3 1057.3 358.2 1056.8 358.2C1056.4 358.2 1056.1 358.1 1055.7 358.1C1055.3 358.1 1054.9 358.2 1054.5 358.3C1053.2 358.6 1052.1 359.1 1051 359.9C1050.6 360.2 1050.2 360.6 1049.8 361.1C1049.4 361.6 1049.1 362.1 1048.8 362.7C1048.7 363 1048.5 363.3 1048.4 363.6C1048.2 364.1 1048.1 364.6 1048 365.1C1047.9 365.7 1047.8 366.3 1047.7 366.8C1047.6 367.3 1047.6 367.9 1047.7 368.5C1047.8 369.4 1048 370.4 1048.2 371.3C1048.6 372.7 1049.3 374 1050.5 374.9C1051 375.3 1051.5 375.6 1052.1 375.8C1052.2 375.8 1052.3 375.9 1052.4 375.9C1052.2 376 1052 376 1051.9 376.1C1051.5 376.3 1051 376.5 1050.6 376.7C1050 377.1 1049.4 377.6 1048.9 378.1C1048.8 378.3 1048.7 378.4 1048.5 378.6C1048.4 378.7 1048.3 378.9 1048.3 379C1048 379.5 1047.7 380.1 1047.6 380.6C1047.7 380.7 1047.8 380.8 1047.9 380.8C1047.9 380.7 1047.9 380.6 1048 380.5C1048.1 379.9 1048.5 379.3 1048.8 378.8C1049.1 378.2 1049.5 377.8 1050 377.4C1050.6 376.9 1051.2 376.5 1051.9 376.3C1052.2 376.2 1052.6 376 1052.9 376C1053.1 376 1053.2 376.1 1053.3 376.1C1053.1 376.1 1053 376.2 1052.8 376.2C1052.4 376.3 1052 376.5 1051.7 376.7C1051.3 376.9 1051 377.3 1050.6 377.6C1049.8 378.4 1049.1 379.3 1048.7 380.4C1048.6 380.7 1048.5 381 1048.4 381.3C1049.2 382 1050.1 382.7 1051.1 383.3C1051.1 383.1 1051.1 383 1051 382.8C1051 382.3 1050.9 381.9 1050.9 381.4C1050.9 381.1 1050.9 380.9 1050.9 380.6C1051 381.1 1051.1 381.6 1051.2 382.1C1051.3 382.5 1051.4 383 1051.5 383.4C1053.9 384.9 1056.6 385.9 1059.5 386.4C1059.5 386.4 1059.5 386.4 1059.4 386.3C1059.1 386.1 1058.8 385.9 1058.5 385.7C1058.3 385.5 1058.1 385.4 1057.9 385.2C1057.6 384.8 1057.2 384.5 1057 384.1C1056.5 383.4 1056.6 382.7 1056.9 382C1057.2 381.4 1057.8 381.1 1058.4 381C1058.5 381 1058.5 381 1058.6 381C1058.4 381.1 1058.2 381.3 1058 381.4C1057.6 381.7 1057.4 382.1 1057.4 382.5C1057.3 383 1057.4 383.4 1057.6 383.8C1057.7 384 1057.8 384.2 1058 384.4C1058.2 384.7 1058.4 385 1058.7 385.3C1058.9 385.5 1059.2 385.8 1059.4 386C1059.6 386.2 1059.8 386.4 1060 386.6C1061.1 386.8 1062.3 386.9 1063.5 386.9C1065.6 386.9 1067.6 386.6 1069.6 386.1C1069.6 385.9 1069.6 385.7 1069.6 385.5C1069.7 385.6 1069.7 385.4 1069.6 385.2ZM1054.1 376.1C1054 376.1 1053.8 376.1 1053.7 376C1053.1 375.8 1052.4 375.7 1051.9 375.4C1051.3 375.1 1050.7 374.7 1050.2 374.1C1049.7 373.5 1049.3 372.9 1049 372.2C1048.7 371.4 1048.5 370.7 1048.4 369.9C1048.3 369.5 1048.3 369 1048.2 368.6C1048.1 368 1048.2 367.4 1048.3 366.9C1048.4 366.4 1048.4 365.9 1048.5 365.4C1048.6 364.8 1048.8 364.3 1049 363.7C1049.1 363.4 1049.3 363.1 1049.4 362.8C1049.4 362.7 1049.5 362.7 1049.5 362.6C1049.6 362.4 1049.8 362.2 1049.9 362C1050.1 361.7 1050.3 361.4 1050.6 361.1C1050.7 361 1050.7 360.9 1050.8 360.8C1051.3 360.4 1051.8 360 1052.3 359.7C1052.8 359.4 1054.2 358.8 1054.9 358.8H1054.8C1054.3 358.9 1053.9 359.1 1053.4 359.4C1053.1 359.5 1052.8 359.7 1052.5 359.8C1052.3 359.9 1052.2 360 1052 360.2C1051.7 360.5 1051.3 360.8 1051 361.1C1050.9 361.2 1050.9 361.3 1050.8 361.4C1050.4 361.9 1050.1 362.4 1049.8 362.9C1049.7 363.2 1049.5 363.4 1049.5 363.7C1049.5 363.8 1049.5 363.9 1049.4 364C1049.2 364.6 1049 365.2 1048.9 365.8C1048.8 366.1 1048.8 366.3 1048.8 366.6C1048.8 366.9 1048.7 367.1 1048.7 367.4C1048.7 367.8 1048.7 368.1 1048.7 368.5C1048.8 369.1 1048.8 369.7 1048.9 370.3C1049 371.1 1049.3 371.8 1049.6 372.5C1049.8 372.8 1050 373.2 1050.2 373.4C1050.4 373.6 1050.6 373.8 1050.7 374C1051.3 374.6 1051.9 375.1 1052.7 375.5C1053 375.7 1053.4 375.8 1053.7 376C1054 375.9 1054 376 1054.1 376.1C1054.1 376 1054.1 376.1 1054.1 376.1ZM1052.9 363.4C1052.8 363.4 1052.6 363.3 1052.5 363.2C1052.2 363 1051.8 362.9 1051.4 363C1051 363.1 1050.7 363.3 1050.4 363.5C1050.3 363.6 1050.2 363.7 1050.1 363.7C1049.9 363.8 1049.7 363.7 1049.7 363.5C1049.7 363.2 1049.9 363 1050.1 362.9C1050.2 362.8 1050.3 362.7 1050.5 362.6C1050.7 362.4 1051 362.4 1051.3 362.4C1051.8 362.4 1052.4 362.5 1052.8 362.8C1052.9 362.9 1053 363 1053 363.1C1053.1 363.3 1053 363.4 1052.9 363.4ZM1054.3 369.4C1053.8 369.4 1053.5 369.1 1053.5 368.6C1053.5 368.2 1053.9 367.8 1054.3 367.8C1054.9 367.8 1055.2 368.2 1055.2 368.6C1055.1 369.1 1054.7 369.4 1054.3 369.4ZM1056.5 383.4C1056.2 383.3 1056.1 383 1056.1 382.7C1056.2 382.4 1056.4 382.2 1056.7 382.2C1056.6 382.6 1056.5 383 1056.5 383.4ZM1056.7 379.2C1056.4 379.2 1056.1 378.9 1056.1 378.6C1056.1 378.3 1056.4 378 1056.7 378C1057 378 1057.3 378.3 1057.3 378.6C1057.3 378.9 1057 379.2 1056.7 379.2ZM1060.1 363.6C1059.9 363.6 1059.7 363.5 1059.5 363.3C1059.1 363 1058.6 362.8 1058.1 362.8C1057.8 362.8 1057.4 362.7 1057.1 362.9C1056.9 363 1056.7 363.1 1056.5 363.2C1056.4 363.2 1056.3 363.3 1056.2 363.2C1056.1 363.1 1056.2 363 1056.3 362.9C1056.5 362.6 1056.8 362.5 1057.1 362.3C1057.4 362.2 1057.8 362.1 1058.1 362.1C1059 362.1 1059.6 362.4 1060.2 362.9C1060.3 363 1060.4 363.2 1060.4 363.4C1060.3 363.6 1060.2 363.6 1060.1 363.6Z" fill="#42210B"/>
<path d="M920.5 515C935.7 512 941.9 515 951.4 515C960.8 515 967.8 520.3 956 523.4C944.2 526.5 922.9 525.7 918.7 523.4C914.3 521 920.5 515 920.5 515Z" fill="#E2B651"/>
<path d="M972.7 466.1C982.1 464.2 986 466.1 991.8 466.1C997.6 466.1 1002 469.4 994.6 471.3C987.3 473.2 974.1 472.7 971.5 471.3C968.9 469.9 972.7 466.1 972.7 466.1Z" fill="#E2B651"/>
<path d="M804.9 510.9C820.3 507.8 826.7 510.9 836.3 510.9C845.9 510.9 853 516.3 840.9 519.4C828.8 522.5 807.3 521.7 802.9 519.4C798.7 517.1 804.9 510.9 804.9 510.9Z" fill="#E2B651"/>
<path d="M789.8 471C808 467.8 815.5 471 826.8 471C838.1 471 837.7 469.3 840.4 475.1C837.4 475.8 827.2 482.5 822.6 483.4C813.6 485.1 802.3 479.9 794.6 480.8C787.6 481.6 786.8 480.2 784.9 479.3C779.8 476.9 789.8 471 789.8 471Z" fill="#E2B651"/>
<path d="M972.9 414.1C977.8 413.1 979.8 414.1 982.9 414.1C985.9 414.1 988.2 415.8 984.4 416.8C980.6 417.8 973.7 417.5 972.3 416.8C970.9 416 972.9 414.1 972.9 414.1Z" fill="#E2B651"/>
<path d="M910.9 478C903.3 478.8 894.5 473.6 889.5 480.2C884.5 486.8 920.7 485.5 920.7 485.5C920.7 485.5 931.7 480.4 925 478.8C918.2 477.2 910.9 478 910.9 478Z" fill="#E2B651"/>
<path d="M952 444.2C946.5 444.9 940 441.8 936.4 446.1C932.8 450.4 959.2 448.7 959.2 448.7C959.2 448.7 967.3 445.2 962.3 444.4C957.3 443.5 952 444.2 952 444.2Z" fill="#E2B651"/>
<path d="M997.9 425.5C1007 425.5 1006.7 426.7 1008.9 425.5C1011.1 424.3 1014.4 421.6 1008.9 421.3C1004.8 421.1 993.3 420.9 991.9 421.8C990.5 422.7 991.2 424.5 993.8 424.8C996.4 425.1 997.9 425.5 997.9 425.5Z" fill="#E2B651"/>
<path d="M972.1 427.8C964.2 425.4 955.7 429.3 961.9 429.9C968.1 430.5 971 431.3 974.5 431C977.9 430.8 975.9 429 972.1 427.8Z" fill="#E2B651"/>
<path d="M403.6 427.6C389.5 430.2 372.3 433.4 353.2 436.8C366.7 437 382.1 437.3 399.2 437.6C465.1 438.7 517.9 468.6 578 472C633.3 475.2 704.5 457.1 746.8 449.6C710.4 454.3 669.4 454.1 630 441.5C538.4 412.5 468.5 415.7 403.6 427.6Z" fill="#FDE8A7"/>
<path d="M1001.2 442.3C1008.5 441.1 1013.6 439.6 1008.2 438.4C1002.8 437.2 997 436.5 990.4 438C983.8 439.5 983.8 441.1 990 441.5C996.2 441.9 1001.2 442.3 1001.2 442.3Z" fill="#E2B651"/>
<path d="M931 380.8C930.6 380 930.2 379.3 929.5 378.6C929.1 378.2 928.7 377.9 928.3 377.5C927.8 377.1 927.3 376.9 926.7 376.7C926 376.4 925.3 376.3 924.5 376.1C923.7 375.9 922.9 375.8 922 375.8H921.9C922.1 375.7 922.3 375.5 922.6 375.4C923 375.1 923.3 374.7 923.6 374.3C923.8 374.1 924 373.9 924.1 373.7C924.4 373.2 924.8 372.6 925.1 372C925.5 371.2 926 370.4 926.1 369.5C926.2 368.7 926.3 367.9 926.3 367C926.3 366.3 926.3 365.6 926.2 364.9C926.2 363.9 925.8 362.9 925.6 361.9C925.5 361.3 925.2 360.8 925 360.2C924.8 359.7 924.5 359.3 924.3 358.9C924 358.4 923.6 357.9 923.3 357.4C923.1 357.1 922.8 356.9 922.6 356.7C922.2 356.4 921.8 356 921.4 355.7C920.9 355.3 920.3 355 919.7 354.6C919 354.2 918.3 354 917.5 353.8C916.8 353.7 916.1 353.6 915.4 353.5C914.9 353.4 914.4 353.4 913.9 353.4C913.3 353.4 912.8 353.5 912.2 353.6C910.4 354 908.8 354.7 907.4 355.8C906.8 356.3 906.2 356.8 905.7 357.4C905.2 358.1 904.7 358.8 904.3 359.6C904.1 360 903.9 360.4 903.7 360.9C903.5 361.6 903.3 362.2 903.1 362.9C902.9 363.7 902.8 364.5 902.7 365.3C902.6 366.1 902.6 366.8 902.7 367.6C902.9 368.9 903.1 370.2 903.4 371.5C904 373.5 905 375.2 906.6 376.5C907.3 377 908 377.5 908.8 377.8C908.9 377.8 909 377.9 909.2 377.9C908.9 378 908.7 378.1 908.4 378.2C907.8 378.5 907.2 378.7 906.6 379C905.7 379.5 904.9 380.2 904.3 381C904.1 381.2 904 381.5 903.8 381.7C903.7 381.9 903.6 382.1 903.5 382.3C903.2 382.7 903 383.2 902.8 383.7C902.9 383.8 903 383.8 903.2 383.9C903.4 383.3 903.8 382.8 904.1 382.2C904.5 381.4 905.1 380.8 905.8 380.2C906.6 379.5 907.5 379 908.5 378.6C909 378.4 909.4 378.2 909.9 378.2C910.1 378.2 910.3 378.3 910.5 378.4C910.3 378.5 910 378.5 909.8 378.6C909.3 378.8 908.8 379 908.3 379.3C907.7 379.6 907.3 380.1 906.8 380.6C905.7 381.7 904.7 382.9 904.2 384.5C905.2 385 906.2 385.5 907.3 385.8C907.3 385.5 907.3 385.2 907.3 384.8C907.4 385.1 907.4 385.5 907.5 385.8C909.7 386.6 912.1 387 914.5 387C914.7 386.8 914.9 386.6 915.2 386.6C915.1 386.7 915.1 386.9 915 387C915.2 387 915.3 387 915.5 387C915.5 386.9 915.6 386.8 915.6 386.7C916 385.8 916.8 385.5 917.7 385.3C917.8 385.3 917.9 385.3 918 385.3C917.7 385.5 917.5 385.7 917.2 385.9C916.8 386.2 916.5 386.6 916.4 387.1C922.3 386.7 927.3 384.4 931 380.8ZM911.7 378.2C911.5 378.2 911.3 378.2 911.1 378.1C910.2 377.8 909.4 377.7 908.6 377.2C907.7 376.7 906.9 376.2 906.3 375.5C905.6 374.7 905 373.8 904.6 372.8C904.2 371.7 903.9 370.7 903.7 369.5C903.6 368.9 903.5 368.3 903.4 367.6C903.3 366.8 903.4 366 903.5 365.2C903.6 364.5 903.7 363.8 903.8 363.2C903.9 362.4 904.2 361.6 904.5 360.8C904.7 360.4 904.9 360 905.1 359.6C905.1 359.5 905.2 359.4 905.2 359.3C905.4 359 905.6 358.7 905.7 358.4C906 358 906.3 357.6 906.6 357.2C906.7 357.1 906.8 356.9 906.9 356.8C907.6 356.2 908.3 355.7 909 355.2C909.7 354.8 911.7 354 912.6 353.9C912.6 353.9 912.5 353.9 912.5 354C911.8 354.1 911.2 354.5 910.6 354.8C910.2 355 909.8 355.2 909.4 355.4C909.2 355.5 908.9 355.7 908.7 355.9C908.2 356.3 907.8 356.7 907.3 357.1C907.2 357.2 907.1 357.3 907 357.5C906.5 358.2 906 358.8 905.6 359.6C905.4 360 905.2 360.3 905.2 360.7C905.2 360.8 905.1 360.9 905.1 361C904.8 361.8 904.6 362.6 904.3 363.5C904.2 363.9 904.2 364.2 904.2 364.6C904.2 365 904.1 365.3 904.1 365.7C904.1 366.2 904 366.7 904.1 367.2C904.2 368.1 904.3 368.9 904.4 369.8C904.6 370.9 905 371.8 905.4 372.8C905.6 373.3 905.9 373.7 906.3 374.1C906.6 374.4 906.8 374.7 907.1 375C907.9 375.8 908.8 376.5 909.8 377.1C910.3 377.4 910.8 377.6 911.2 377.8C911.5 378 911.6 378 911.7 378.2C911.7 378.1 911.7 378.1 911.7 378.2ZM910 360.5C909.8 360.5 909.6 360.4 909.5 360.3C909.1 360 908.6 359.9 908 360C907.5 360.1 907 360.4 906.6 360.8C906.5 360.9 906.3 361 906.2 361.1C905.9 361.2 905.7 361.1 905.7 360.8C905.7 360.4 905.9 360.2 906.2 359.9C906.4 359.8 906.5 359.6 906.7 359.5C907 359.3 907.4 359.2 907.8 359.2C908.6 359.1 909.3 359.3 909.9 359.7C910.1 359.8 910.2 360 910.2 360.2C910.4 360.4 910.2 360.6 910 360.5ZM912 368.9C911.3 368.9 910.9 368.4 910.9 367.7C910.9 367.1 911.4 366.6 912 366.6C912.8 366.6 913.2 367.2 913.2 367.8C913.1 368.5 912.6 368.9 912 368.9ZM915.3 382.5C914.8 382.5 914.4 382.1 914.4 381.6C914.4 381.1 914.8 380.7 915.3 380.7C915.8 380.7 916.2 381.1 916.2 381.6C916.1 382.1 915.8 382.5 915.3 382.5ZM920.1 360.9C919.8 360.9 919.5 360.7 919.3 360.5C918.7 360.1 918.1 359.9 917.4 359.8C916.9 359.7 916.4 359.7 916 359.9C915.7 360 915.4 360.2 915.1 360.3C915 360.4 914.8 360.5 914.7 360.3C914.6 360.2 914.7 360 914.8 359.9C915.1 359.5 915.5 359.3 915.9 359.1C916.4 358.9 916.9 358.8 917.2 358.8C918.4 358.8 919.3 359.3 920.1 360C920.3 360.2 920.4 360.4 920.4 360.7C920.3 360.8 920.3 360.9 920.1 360.9Z" fill="#42210B"/>
<path d="M912.6 460.6C915.8 459.8 917.1 460.6 919.1 460.6C921.1 460.6 922.6 462 920.1 462.7C917.6 463.5 913.1 463.3 912.2 462.7C911.3 462.2 912.6 460.6 912.6 460.6Z" fill="#E2B651"/>
<path d="M916.5 461.8C918.489 461.8 920.1 460.188 920.1 458.2C920.1 456.212 918.489 454.6 916.5 454.6C914.512 454.6 912.9 456.212 912.9 458.2C912.9 460.188 914.512 461.8 916.5 461.8Z" fill="#FF65D1" stroke="#42210B" stroke-width="1.2172" stroke-miterlimit="10" stroke-linecap="round" stroke-linejoin="round"/>
<path d="M915.8 456.1C916.2 455.9 916.6 455.8 917 455.9C917.4 456 917.8 456.2 918.1 456.5C918.4 456.8 918.6 457.2 918.7 457.6C918.8 458 918.7 458.4 918.5 458.8C918.1 458.1 917.7 457.7 917.3 457.3C916.9 456.9 916.5 456.6 915.8 456.1Z" fill="#FAE1DD"/>
<path d="M1067.8 459.9C1067.8 459.9 1064.8 460.3 1064.1 460.3C1063.4 460.3 1036.4 460.2 1036.4 460.2C1036.4 460.2 1025.5 460.4 1026.1 460.1C1026.7 459.8 1029.4 458.9 1030.3 458.4C1031.2 458 1032.3 458.6 1034.8 458.3C1037.3 458 1041.1 458.2 1045.1 457.6C1049.2 457.1 1054.1 456.4 1057.2 456.4C1060.4 456.5 1069.8 459 1067.8 459.9Z" fill="#E2B650"/>
<path d="M1054.2 450.3C1059.5 450.3 1064.8 450.3 1070.1 450.3C1070.5 450.3 1070.6 450.5 1070.6 450.9C1070.6 452.1 1070.6 453.3 1070.6 454.5C1070.6 454.6 1070.6 454.8 1070.6 454.9C1070.6 455.3 1070.5 455.4 1070.1 455.4C1069.9 455.4 1069.6 455.3 1069.5 455.4C1069.4 455.5 1069.5 455.8 1069.5 456C1069.5 457.2 1069.5 458.5 1069.5 459.7C1069.5 459.9 1069.4 460 1069.2 460C1069.1 460 1069 460 1068.9 460C1065.6 460 1062.4 460 1059.1 460C1058.8 460 1058.5 460 1058.2 460C1057 459.9 1056.4 459.2 1056.1 458.2C1055.9 457.6 1055.8 456.9 1055.6 456.3C1055.4 455.5 1054.9 455.4 1054.4 455.5C1054 455.6 1053.7 455.8 1053.5 456.2C1053.2 456.8 1053 457.4 1052.9 458C1052.8 458.4 1052.7 458.8 1052.5 459.2C1052.4 459.5 1052.1 459.7 1051.9 459.9C1051.8 460 1051.6 460 1051.5 460C1048 460 1044.4 460 1040.9 460C1040 460 1039.2 460 1038.3 460C1037.8 460 1037.7 459.9 1037.7 459.4C1037.7 457.8 1037.7 456.2 1037.7 454.6C1037.7 454.4 1037.7 454.3 1037.4 454.3C1035.9 454.1 1034.3 454 1032.8 453.8C1032.6 453.8 1032.6 453.7 1032.5 453.6C1032.2 452.9 1032.3 452.3 1032.6 451.7C1032.9 450.9 1032.8 451 1033.7 450.9C1035.1 450.7 1036.5 450.6 1037.9 450.5C1038 450.5 1038.1 450.5 1038.3 450.5C1043.6 450.3 1048.9 450.3 1054.2 450.3ZM1053.6 450.9C1048.6 450.9 1043.6 450.9 1038.6 450.9C1038.4 450.9 1038.3 450.9 1038.3 451.2C1038.3 453.8 1038.3 456.5 1038.3 459.1C1038.3 459.3 1038.3 459.4 1038.6 459.4C1042.7 459.4 1046.9 459.4 1051 459.4C1051.1 459.4 1051.1 459.4 1051.2 459.4C1051.6 459.4 1052 459.2 1052.1 458.8C1052.2 458.5 1052.3 458.2 1052.4 458C1052.5 457.4 1052.7 456.9 1052.9 456.3C1053.2 455.7 1053.7 455.2 1054.4 455.1C1055.2 455 1056 455.2 1056.2 456.1C1056.4 456.7 1056.4 457.3 1056.6 457.9C1056.8 458.7 1057.5 459.4 1058.3 459.4C1058.6 459.4 1058.9 459.4 1059.2 459.4C1062.3 459.4 1065.5 459.4 1068.6 459.4C1068.8 459.4 1068.9 459.3 1068.9 459.1C1068.9 456.4 1068.9 453.8 1068.9 451.1C1068.9 450.9 1068.9 450.8 1068.6 450.8C1063.6 450.9 1058.6 450.9 1053.6 450.9ZM1037.8 452.3C1037.8 451.9 1037.8 451.6 1037.8 451.2C1037.8 450.9 1037.7 450.9 1037.5 450.9C1036.2 451 1034.9 451.2 1033.6 451.3C1033.5 451.3 1033.4 451.4 1033.4 451.5C1033.3 452 1033.1 452.4 1033 452.8C1032.9 453 1033 453 1033.2 453.1C1034.7 453.3 1036.2 453.4 1037.7 453.6C1037.9 453.6 1037.9 453.6 1037.9 453.4C1037.8 453.1 1037.8 452.7 1037.8 452.3ZM1070 452.8C1070 452.2 1070 451.7 1070 451.1C1070 451 1070 450.8 1069.8 450.9C1069.7 450.9 1069.4 450.8 1069.4 451.1C1069.4 452.2 1069.4 453.4 1069.4 454.5C1069.4 454.8 1069.6 454.7 1069.8 454.7C1070 454.7 1070 454.6 1070 454.5C1070 453.9 1070 453.4 1070 452.8Z" fill="#0A0A0A"/>
<path d="M1053.6 450.9C1058.6 450.9 1063.6 450.9 1068.6 450.9C1068.8 450.9 1068.9 451 1068.9 451.2C1068.9 453.9 1068.9 456.5 1068.9 459.2C1068.9 459.4 1068.9 459.5 1068.6 459.5C1065.5 459.5 1062.3 459.5 1059.2 459.5C1058.9 459.5 1058.6 459.5 1058.3 459.5C1057.5 459.5 1056.8 458.8 1056.6 458C1056.4 457.4 1056.4 456.8 1056.2 456.2C1055.9 455.3 1055.2 455 1054.4 455.2C1053.7 455.3 1053.2 455.7 1052.9 456.4C1052.6 456.9 1052.5 457.5 1052.4 458.1C1052.3 458.4 1052.2 458.7 1052.1 458.9C1052 459.4 1051.6 459.5 1051.2 459.5C1051.1 459.5 1051.1 459.5 1051 459.5C1046.9 459.5 1042.7 459.5 1038.6 459.5C1038.4 459.5 1038.3 459.4 1038.3 459.2C1038.3 456.6 1038.3 453.9 1038.3 451.3C1038.3 451.1 1038.4 451 1038.6 451C1043.6 450.9 1048.6 450.9 1053.6 450.9ZM1045.8 452.1C1044.1 452.1 1042.4 452 1040.7 452C1040.5 452 1040.3 452 1040.2 452C1040 452 1039.9 452.1 1039.9 452.2C1039.9 452.5 1039.9 452.7 1039.9 453C1039.9 454.6 1039.9 456.1 1039.9 457.7C1039.9 458.2 1040 458.3 1040.5 458.3C1043.6 458.3 1046.6 458.3 1049.7 458.3C1050.1 458.3 1050.2 458.2 1050.4 457.9C1050.8 457 1051.3 456.1 1051.7 455.3C1051.7 455.2 1051.8 455.1 1051.8 455C1051.8 454.2 1051.9 453.4 1051.9 452.6C1051.9 452.4 1051.8 452.2 1051.5 452.2C1051.3 452.2 1051.1 452.2 1050.9 452.2C1049.2 452.1 1047.5 452.1 1045.8 452.1ZM1063 458.2C1063 458.2 1063 458.3 1063 458.2C1064.4 458.3 1065.7 458.3 1067.1 458.3C1067.6 458.3 1067.7 458.2 1067.7 457.7C1067.7 456 1067.7 454.3 1067.7 452.7C1067.7 452.3 1067.6 452.2 1067.1 452.2C1064 452.2 1060.8 452.2 1057.7 452.2C1057.3 452.2 1057.2 452.3 1057.1 452.7C1057.1 452.8 1057.1 452.9 1057.1 452.9C1057.1 453.6 1057.1 454.2 1057.1 454.9C1057.1 455.1 1057.1 455.3 1057.2 455.4C1057.6 456.2 1058 457.1 1058.4 457.9C1058.5 458.2 1058.7 458.3 1059 458.3C1060.2 458.2 1061.6 458.2 1063 458.2Z" fill="#FEFEFE"/>
<path d="M1037.8 452.3C1037.8 452.7 1037.8 453.1 1037.8 453.5C1037.8 453.6 1037.8 453.7 1037.6 453.7C1036.1 453.5 1034.6 453.4 1033.1 453.2C1032.9 453.2 1032.8 453.1 1032.9 452.9C1033.1 452.5 1033.2 452 1033.3 451.6C1033.3 451.5 1033.4 451.4 1033.5 451.4C1034.8 451.3 1036.1 451.1 1037.4 451C1037.6 451 1037.7 451 1037.7 451.3C1037.7 451.6 1037.8 451.9 1037.8 452.3Z" fill="#FEFEFE"/>
<path d="M1070 452.8C1070 453.4 1070 453.9 1070 454.5C1070 454.6 1070 454.7 1069.8 454.7C1069.7 454.7 1069.4 454.8 1069.4 454.5C1069.4 453.4 1069.4 452.2 1069.4 451.1C1069.4 450.8 1069.6 450.9 1069.8 450.9C1070 450.8 1070 451 1070 451.1C1070 451.7 1070 452.2 1070 452.8Z" fill="#FEFEFE"/>
<path d="M1045.8 452.1C1047.5 452.1 1049.2 452.2 1050.9 452.2C1051.1 452.2 1051.3 452.2 1051.5 452.2C1051.7 452.2 1051.9 452.3 1051.9 452.6C1051.9 453.4 1051.8 454.2 1051.8 455C1051.8 455.1 1051.7 455.2 1051.7 455.3C1051.3 456.2 1050.8 457.1 1050.4 457.9C1050.3 458.2 1050.1 458.3 1049.7 458.3C1046.6 458.3 1043.6 458.3 1040.5 458.3C1040 458.3 1039.9 458.2 1039.9 457.7C1039.9 456.1 1039.9 454.6 1039.9 453C1039.9 452.7 1039.9 452.5 1039.9 452.2C1039.9 452 1040 451.9 1040.2 452C1040.4 452 1040.6 452 1040.7 452C1042.4 452 1044.1 452 1045.8 452.1ZM1045.2 457.7C1046.7 457.7 1048.1 457.7 1049.6 457.7C1049.8 457.7 1049.9 457.6 1049.9 457.5C1050.3 456.7 1050.7 455.9 1051.1 455C1051.2 454.9 1051.2 454.8 1051.2 454.7C1051.2 454.1 1051.2 453.6 1051.3 453C1051.3 452.9 1051.3 452.8 1051.1 452.8C1050.2 452.8 1049.3 452.8 1048.4 452.8C1047.8 452.8 1047.2 452.8 1046.6 452.8C1044.6 452.7 1042.7 452.7 1040.7 452.7C1040.5 452.7 1040.4 452.7 1040.4 453C1040.4 453.7 1040.4 454.3 1040.4 455C1040.4 455.9 1040.4 456.7 1040.4 457.6C1040.4 457.8 1040.4 457.9 1040.7 457.9C1042.3 457.7 1043.7 457.7 1045.2 457.7Z" fill="#0A0A0A"/>
<path d="M1063 458.2C1061.6 458.2 1060.3 458.2 1058.9 458.2C1058.6 458.2 1058.4 458.1 1058.3 457.8C1057.9 457 1057.5 456.1 1057.1 455.3C1057 455.1 1057 455 1057 454.8C1057 454.1 1057 453.5 1057 452.8C1057 452.7 1057 452.6 1057 452.6C1057.1 452.2 1057.2 452.1 1057.6 452.1C1060.7 452.1 1063.9 452.1 1067 452.1C1067.5 452.1 1067.6 452.2 1067.6 452.6C1067.6 454.3 1067.6 456 1067.6 457.6C1067.6 458.1 1067.5 458.2 1067 458.2C1065.7 458.3 1064.3 458.3 1063 458.2C1063 458.3 1063 458.2 1063 458.2ZM1062.3 452.7C1060.8 452.7 1059.3 452.7 1057.8 452.7C1057.6 452.7 1057.5 452.7 1057.5 452.9C1057.5 453.5 1057.5 454.1 1057.5 454.7C1057.5 454.9 1057.5 455 1057.6 455.2C1058 455.9 1058.3 456.7 1058.7 457.4C1058.8 457.6 1058.9 457.6 1059 457.6C1061.6 457.6 1064.2 457.6 1066.7 457.7C1066.9 457.7 1067 457.6 1067 457.4C1067 455.9 1067 454.4 1067 453C1067 452.8 1066.9 452.7 1066.7 452.7C1065.3 452.7 1063.8 452.7 1062.3 452.7Z" fill="#0A0A0A"/>
<path d="M1045.2 457.7C1043.7 457.7 1042.3 457.7 1040.8 457.7C1040.6 457.7 1040.5 457.6 1040.5 457.4C1040.5 456.5 1040.5 455.7 1040.5 454.8C1040.5 454.1 1040.5 453.5 1040.5 452.8C1040.5 452.6 1040.6 452.5 1040.8 452.5C1042.8 452.5 1044.7 452.6 1046.7 452.6C1047.3 452.6 1047.9 452.6 1048.5 452.6C1049.4 452.6 1050.3 452.6 1051.2 452.6C1051.3 452.6 1051.4 452.7 1051.4 452.8C1051.4 453.4 1051.4 453.9 1051.3 454.5C1051.3 454.6 1051.3 454.7 1051.2 454.8C1050.8 455.6 1050.4 456.4 1050 457.3C1049.9 457.5 1049.8 457.5 1049.7 457.5C1048.1 457.7 1046.7 457.7 1045.2 457.7Z" fill="#233C9D"/>
<path d="M1062.3 452.7C1063.8 452.7 1065.2 452.7 1066.7 452.7C1067 452.7 1067 452.8 1067 453C1067 454.5 1067 456 1067 457.4C1067 457.6 1067 457.7 1066.7 457.7C1064.1 457.7 1061.5 457.7 1059 457.6C1058.8 457.6 1058.7 457.6 1058.7 457.4C1058.4 456.6 1058 455.9 1057.6 455.2C1057.5 455.1 1057.5 454.9 1057.5 454.7C1057.5 454.1 1057.5 453.5 1057.5 452.9C1057.5 452.7 1057.6 452.7 1057.8 452.7C1059.3 452.7 1060.8 452.7 1062.3 452.7Z" fill="#CD2727"/>
<path d="M826.2 482.3C828.1 482.3 829.7 481.7 831.3 481C833.7 479.9 836 478.6 838.4 477.5C839.5 477 840.6 476.5 841.7 476C842.6 475.6 843.5 475.1 844.3 474.6C844.5 474.5 844.6 474.5 844.8 474.6C846.2 475.2 847.5 475.8 848.9 476.5C849.1 476.6 849.2 476.7 849.3 476.9C849.6 477.4 849.8 477.9 850.1 478.4C850.3 478.8 851 478.8 851.3 478.5V478.4C851.2 477.7 851.3 476.9 851.3 476.2C851.4 474.5 851.2 472.7 850.9 471C850.6 469.3 850.1 467.7 849.4 466.1C848.7 464.5 847.9 462.9 846.9 461.5C846.5 460.9 846 460.4 845.6 459.9C843.1 457.2 840 455.3 836.5 454C835.2 453.5 833.9 453.1 832.6 452.9C832.5 452.9 832.4 452.9 832.3 452.7C832 451.8 831.3 451.2 830.4 450.9C828.9 450.4 827.5 451 826.7 452.4C826.6 452.6 826.5 452.5 826.4 452.5C824.7 452.6 823 452.7 821.3 452.9C818.2 453.3 815.2 454.1 812.3 455.5C808.7 457.3 806 459.9 804.5 463.6C804.2 464.4 803.9 465.1 803.7 465.9C803.3 467.3 802.6 468.6 802.3 470C802.3 470.2 802.2 470.4 802.2 470.7C802.2 471 802.1 471.2 801.8 471.4C801.4 471.7 801 472 800.6 472.4C799.9 473.1 799.1 473.6 798.3 474.2C796.5 475.6 794.7 477 793.3 478.9C793.2 479.1 793.1 479.2 793 479.4C792.9 479.6 792.8 479.9 793 480.1C793.2 480.3 793.4 480.3 793.7 480.3C794.1 480.3 794.5 480.1 794.9 480C796.5 479.3 798.1 478.7 799.8 478.4C802.3 477.8 804.9 477.6 807.4 477.8C809.9 478 812.4 478.3 814.9 479.1C816.6 479.7 818.2 480.3 819.9 480.8C821.3 481.3 822.8 481.7 824.2 482.2C825 482.3 825.7 482.2 826.2 482.3ZM835.1 454.5C836.2 454.8 837.1 455.3 838.1 455.7C841 456.9 843.3 458.9 845.4 461.1C845.6 461.3 845.8 461.6 846 461.8C847.6 464 848.7 466.4 849.5 469.1C849.8 470.1 850.1 471 850.3 472C850.5 473.4 850.6 474.7 850.5 476.1C850.5 476.2 850.5 476.2 850.4 476.3C849.9 476 849.3 475.7 848.8 475.4H848.7C847.1 474.6 845.4 473.8 843.7 473.1C841.4 472.2 839.1 471.5 836.8 470.8C834.8 470.2 832.7 469.6 830.6 469.3C828 468.9 825.4 468.7 822.8 468.6C818.9 468.5 815 468.3 811.1 468.9C809.1 469.2 807.2 469.5 805.2 470C804.5 470.2 803.8 470.5 803.1 470.7C803.1 470.6 803.1 470.6 803.1 470.5C803.5 469 804.2 467.5 804.7 466C804.9 465.2 805.2 464.5 805.5 463.7C806.6 460.9 808.5 458.8 811 457.2C813.3 455.7 815.9 454.7 818.7 454.2C822.1 453.6 825.5 453.2 829 453.4C829.8 453.4 830.7 453.5 831.5 453.6C832.5 453.7 833.5 454.1 834.5 454.3C834.8 454.3 834.9 454.4 835.1 454.5ZM841.2 474C841.5 473.9 841.9 473.9 842.1 473.6C842.2 473.5 842.3 473.6 842.4 473.6C842.7 473.7 843.1 473.9 843.4 474C842.6 474.3 842 474.8 841.3 475.1C840.2 475.6 839.1 476.1 838 476.6C835.7 477.7 833.5 478.8 831.3 479.9C829 481 826.6 481.8 824 480.9C822.8 480.5 821.6 480.2 820.4 479.8C818.8 479.3 817.3 478.7 815.8 478.2C814.5 477.8 813.2 477.4 811.8 477.3C811.4 477.2 810.9 477.2 810.5 477.1H810.4C810.3 477.2 810.2 477.1 810 477.1C809.2 477 808.4 476.9 807.7 476.9C805.3 476.8 803 477 800.6 477.4C798.5 477.8 796.5 478.6 794.6 479.4C794.4 479.5 794.2 479.6 794 479.6C794 479.5 794 479.5 794 479.5C795.3 477.7 797.1 476.3 798.9 474.9C799.8 474.2 800.9 473.6 801.7 472.8C802.1 472.4 802.6 472.1 803.1 471.8C803.6 471.5 804.1 471.3 804.7 471.1C808.5 470 812.3 469.4 816.2 469.4C819.3 469.4 822.5 469.3 825.6 469.6C827.5 469.8 829.5 469.9 831.4 470.3C834 470.8 836.6 471.7 839.2 472.4C840 472.6 840.9 472.9 841.7 473.2C841.5 473.3 841.4 473.4 841.2 473.5C841.1 473.8 841.1 473.9 841.2 474ZM827.5 452.5C828.1 451.7 828.9 451.5 829.8 451.5C830.6 451.6 831.1 452.1 831.6 452.7C830.2 452.6 828.9 452.7 827.5 452.5Z" fill="#070707"/>
<path d="M834.6 454.3C833.6 454.1 832.6 453.7 831.6 453.6C830.8 453.5 829.9 453.5 829.1 453.4C825.6 453.2 822.2 453.6 818.8 454.2C816.1 454.7 813.5 455.7 811.1 457.2C808.6 458.8 806.7 460.9 805.6 463.7C805.3 464.5 805 465.2 804.8 466C804.3 467.5 803.7 469 803.2 470.5C803.2 470.5 803.2 470.6 803.2 470.7C803.9 470.4 804.6 470.2 805.3 470C807.2 469.4 809.2 469.1 811.2 468.9C815.1 468.4 819 468.6 822.9 468.6C825.5 468.6 828.1 468.9 830.7 469.3C832.8 469.6 834.8 470.2 836.9 470.8C839.2 471.5 841.5 472.2 843.8 473.1C845.5 473.8 847.2 474.6 848.8 475.4H848.9C848.7 474.2 848.4 473 848.1 471.8C847.9 470.9 847.6 470 847.3 469.1C846.9 468 846.6 466.9 846.2 465.8C845.4 464 844.3 462.3 843.1 460.6C842 459 840.5 457.8 838.9 456.7C838.1 456.1 837.1 455.7 836.2 455.1C836 455 835.9 454.9 835.7 455C835.7 455.1 835.7 455.2 835.8 455.2C835.5 454.9 835.2 454.7 834.8 454.4C834.7 454.6 834.6 454.5 834.6 454.3ZM842 467.7C841.8 467.1 841.6 466.5 841.4 465.9C841.4 465.9 841.4 465.8 841.5 465.8C841.6 465.8 841.7 465.9 841.7 465.9C841.8 466.5 842.1 467 842 467.7ZM842.6 470.3C842.7 470.8 842.8 471.2 842.7 471.7C842.7 471.2 842.5 470.8 842.6 470.3ZM841.2 464.9C841.2 464.9 841.1 464.9 841.1 465C840.9 464.5 840.7 464.1 840.5 463.6C840.5 463.6 840.5 463.5 840.6 463.5H840.7C840.9 463.9 841.1 464.4 841.2 464.9ZM836.1 456.1C836.6 456.2 836.8 456.6 837 457C836.7 456.7 836.5 456.3 836.1 456.1ZM838.1 458.8C837.9 458.5 837.7 458.3 837.4 458.1C837.3 458 837.2 457.9 837.3 457.8C837.4 457.7 837.5 457.8 837.5 457.9C837.9 458.1 838.1 458.3 838.1 458.8ZM838.4 459.7C838.4 459.7 838.5 459.7 838.4 459.7C838.8 459.9 839.1 460.3 839.1 460.8C838.9 460.4 838.7 460.1 838.4 459.7ZM842.4 469.9C842.3 469.4 842.1 469 842 468.6H842.1C842.3 468.9 842.4 469.3 842.4 469.9ZM840.2 462.6C840 462.2 839.7 461.8 839.5 461.4C839.9 461.7 840 462.2 840.2 462.6Z" fill="#FEFEFE"/>
<path d="M810.3 477.1C810.4 477.1 810.4 477.1 810.3 477.1C810.8 477 811.3 477 811.7 477.1C812.7 477.2 813.7 477.4 814.7 477.6C816.3 478 817.9 478.4 819.5 478.9C820.7 479.3 821.9 479.7 823.1 480C825.9 480.6 828.7 480.1 831.2 478.8L831.3 478.7C831.4 478.2 831.9 478.3 832.1 478.1C832.2 478.1 832.3 478.1 832.3 478.2C832.3 478.3 832.3 478.4 832.4 478.3C832.9 478.1 833.5 477.9 833.9 477.4C833.7 477.3 833.9 477.3 833.9 477.2C834.4 477 834.9 476.8 835.4 476.5C835.5 476.4 835.6 476.5 835.6 476.6C835.9 476.6 836.1 476.3 836.4 476.2C836.4 476.2 836.4 476.2 836.5 476.2C836.9 475.9 837.3 475.6 837.7 475.4C837.9 475.3 838 475.3 838 475.5C838.5 475.4 839 475.1 839.4 474.7C839.4 474.7 839.3 474.7 839.3 474.6C839.5 474.4 839.8 474.3 840.1 474.1C840.2 474 840.3 474.1 840.3 474.3C840.6 474.2 840.9 474.1 841 473.8C840.8 473.7 840.9 473.6 841 473.5C841.1 473.4 841.3 473.3 841.5 473.2C840.7 472.9 839.8 472.6 839 472.4C836.4 471.7 833.9 470.8 831.2 470.3C829.3 469.9 827.3 469.8 825.4 469.6C822.3 469.4 819.2 469.4 816 469.4C812.1 469.4 808.2 469.9 804.5 471.1C803.9 471.3 803.4 471.5 802.9 471.8C802.4 472.1 802 472.4 801.5 472.8C800.6 473.6 799.6 474.1 798.7 474.9C797 476.3 795.2 477.6 793.8 479.5C793.8 479.5 793.8 479.5 793.8 479.6C794 479.6 794.2 479.5 794.4 479.4C796.4 478.6 798.3 477.8 800.4 477.4C802.7 477 805.1 476.8 807.5 476.9C808.3 476.9 809.1 477 809.8 477.1C810.1 477 810.2 477 810.3 477.1ZM797.2 477.4C797 477.6 796.8 477.6 796.5 477.5C796.7 477.4 796.9 477.2 797.2 477.2C797.7 477 798.1 476.8 798.7 476.8C798.2 477.2 797.7 477.3 797.2 477.4ZM824.9 479.5C825.6 479.4 826.2 479.5 826.8 479.4C826.2 479.8 825.6 479.7 824.9 479.5ZM820.4 478.6C821 478.6 822 478.9 822.2 479.1C821.5 479.2 821 478.8 820.4 478.6ZM804.4 476.4C804.9 476.2 805.4 476.2 805.9 476.1C806 476.1 806.1 476.1 806.1 476.2C806.1 476.3 806 476.3 806 476.3C805.4 476.4 804.9 476.5 804.4 476.4ZM808.1 476.3C807.6 476.5 807.1 476.4 806.5 476.4C807.1 476.2 807.6 476.2 808.1 476.3ZM811.1 476.5C810.5 476.5 810 476.5 809.5 476.4C810 476.2 810.6 476.3 811.1 476.5ZM822.6 479.3C823.1 479.3 823.6 479.2 824 479.6C823.5 479.7 823.1 479.4 822.6 479.3ZM818.3 477.9C818.7 477.9 819.1 478 819.4 478.2C819.5 478.2 819.5 478.3 819.5 478.4C819.5 478.5 819.4 478.5 819.3 478.5C818.9 478.4 818.6 478.3 818.3 477.9ZM802.1 476.5C802.5 476.3 802.9 476.3 803.2 476.2C803.3 476.2 803.5 476.1 803.5 476.3C803.5 476.4 803.4 476.4 803.3 476.4C802.9 476.5 802.6 476.6 802.1 476.5ZM813.6 477.1C814 477.1 814.4 477.1 814.7 477.1C814.8 477.1 814.9 477.1 814.9 477.2C814.9 477.3 814.8 477.3 814.7 477.3C814.4 477.3 814 477.3 813.6 477.1ZM815.8 477.5C816.3 477.5 816.8 477.5 817.2 477.7C816.7 477.7 816.3 477.6 815.8 477.5ZM799.5 476.7C799.9 476.5 800.2 476.4 800.6 476.4C800.7 476.4 800.7 476.4 800.8 476.5C800.8 476.6 800.7 476.6 800.7 476.7C800.3 476.7 799.9 476.8 799.5 476.7ZM829 479C828.7 479.3 828.3 479.5 827.9 479.4C828.2 479.1 828.6 479.1 829 479ZM830.8 478.5C830.6 478.8 830.4 478.9 830 478.9C830.2 478.8 830.4 478.7 830.5 478.6C830.6 478.6 830.7 478.6 830.8 478.5ZM813.2 476.8C812.9 476.9 812.9 476.9 812.5 476.7C812.7 476.6 813 476.7 813.2 476.8Z" fill="#FEFEFE"/>
<path d="M835.7 455.1C835.9 455 836.1 455.1 836.2 455.2C837.1 455.7 838.1 456.2 838.9 456.8C840.5 457.9 842 459.1 843.1 460.7C844.2 462.4 845.3 464 846.2 465.9C846.7 467 847 468.1 847.3 469.2C847.6 470.1 847.9 471 848.1 471.9C848.3 473.1 848.7 474.3 848.9 475.5C849.4 475.8 850 476.1 850.5 476.4C850.6 476.4 850.6 476.3 850.6 476.2C850.7 474.8 850.6 473.5 850.4 472.1C850.3 471.1 849.9 470.2 849.6 469.2C848.9 466.6 847.7 464.1 846.1 461.9C845.9 461.6 845.7 461.4 845.5 461.2C843.4 458.9 841 457 838.2 455.8C837.2 455.4 836.2 454.9 835.2 454.6C835.2 454.6 835.2 454.7 835.1 454.7C835.3 454.8 835.4 455.1 835.7 455.1C835.7 455 835.7 455 835.7 455.1Z" fill="#96A1B1"/>
<path d="M839.5 474.9C839.1 475.2 838.6 475.5 838.1 475.7C837.6 476 837.2 476.4 836.6 476.4C836.6 476.4 836.6 476.4 836.5 476.4C836.2 476.5 836 476.7 835.7 476.8C835.2 477.2 834.6 477.3 834 477.5C833.6 478 833 478.1 832.5 478.4C832.4 478.4 832.4 478.4 832.4 478.3C832.4 478.2 832.3 478.2 832.2 478.2C831.9 478.4 831.4 478.3 831.4 478.8L831.3 478.9C828.7 480.2 826 480.7 823.2 480.1C822 479.8 820.8 479.4 819.6 479C818 478.5 816.4 478.1 814.8 477.7C813.8 477.5 812.8 477.3 811.8 477.2C811.4 477.1 810.9 477.1 810.5 477.2C810.9 477.4 811.4 477.4 811.8 477.4C813.2 477.6 814.5 477.9 815.8 478.3C817.4 478.8 818.9 479.4 820.4 479.9C821.6 480.3 822.8 480.6 824 481C826.6 481.9 829 481.1 831.3 480C833.5 478.9 835.8 477.8 838 476.7C839.1 476.2 840.2 475.7 841.3 475.2C842 474.9 842.7 474.3 843.4 474.1C843.1 474 842.7 473.8 842.4 473.7C842.3 473.7 842.2 473.6 842.1 473.7C841.8 474 841.5 474 841.2 474.1C841 474.4 840.8 474.5 840.5 474.6C840.2 474.7 839.9 474.8 839.5 474.9Z" fill="#96A1B1"/>
<path d="M827.5 452.5C828.9 452.7 830.2 452.6 831.7 452.8C831.2 452.1 830.6 451.6 829.9 451.6C828.9 451.5 828.1 451.7 827.5 452.5Z" fill="#FEFEFE"/>
<path d="M834.6 454.3C834.6 454.5 834.7 454.5 834.8 454.5C834.9 454.4 834.9 454.4 835 454.5C835 454.5 835 454.4 835.1 454.4C834.9 454.4 834.8 454.3 834.6 454.3Z" fill="#96A1B1"/>
<path d="M810.3 477.1C810.2 477 810.1 477 809.9 477.1C810.1 477.2 810.2 477.2 810.3 477.1Z" fill="#96A1B1"/>
<path d="M842 467.7C842.2 467 841.9 466.4 841.6 465.9C841.6 465.8 841.5 465.8 841.4 465.8C841.3 465.8 841.3 465.9 841.3 465.9C841.6 466.5 841.8 467.1 842 467.7Z" fill="#96A1B1"/>
<path d="M842.6 470.3C842.5 470.8 842.6 471.2 842.7 471.7C842.9 471.2 842.7 470.7 842.6 470.3Z" fill="#070707"/>
<path d="M841.2 464.9C841.2 464.4 840.9 464 840.7 463.5C840.7 463.5 840.6 463.4 840.6 463.5L840.5 463.6C840.7 464.1 840.9 464.5 841.1 465C841.1 464.9 841.1 464.9 841.2 464.9Z" fill="#96A1B1"/>
<path d="M836.1 456.1C836.5 456.4 836.7 456.7 837 457C836.9 456.6 836.7 456.2 836.1 456.1Z" fill="#070707"/>
<path d="M838.1 458.8C838.1 458.4 837.9 458.1 837.6 457.9C837.5 457.8 837.5 457.7 837.4 457.8C837.3 457.9 837.4 458 837.5 458.1C837.8 458.2 837.9 458.5 838.1 458.8Z" fill="#070707"/>
<path d="M838.4 459.7C838.6 460.1 838.9 460.4 839.1 460.8C839.1 460.3 838.8 460 838.4 459.7C838.5 459.7 838.4 459.7 838.4 459.7Z" fill="#070707"/>
<path d="M842.4 469.9C842.4 469.4 842.3 469 842.1 468.6H842C842.1 469 842.3 469.4 842.4 469.9Z" fill="#070707"/>
<path d="M840.2 462.6C840 462.1 840 461.7 839.5 461.4C839.7 461.8 839.9 462.2 840.2 462.6Z" fill="#070707"/>
<path d="M835 454.5C834.9 454.5 834.8 454.5 834.8 454.5C835.1 454.8 835.4 455 835.8 455.3C835.7 455.2 835.7 455.1 835.7 455.1C835.6 455.1 835.5 455.1 835.6 455C835.3 455 835.3 454.6 835 454.5Z" fill="#070707"/>
<path d="M824.9 479.5C825.6 479.7 826.2 479.8 826.8 479.4C826.2 479.5 825.6 479.4 824.9 479.5Z" fill="#070707"/>
<path d="M820.4 478.6C821 478.8 821.5 479.2 822.2 479.1C822 478.9 821 478.6 820.4 478.6Z" fill="#070707"/>
<path d="M834 477.5C834.6 477.3 835.2 477.2 835.7 476.8C835.7 476.7 835.6 476.6 835.5 476.7C835 477 834.5 477.1 834 477.4C834 477.3 833.8 477.4 834 477.5Z" fill="#070707"/>
<path d="M804.4 476.4C804.9 476.5 805.4 476.4 805.9 476.4C806 476.4 806 476.4 806 476.3C806 476.2 805.9 476.2 805.8 476.2C805.4 476.2 804.9 476.1 804.4 476.4Z" fill="#070707"/>
<path d="M836.6 476.3C837.2 476.3 837.6 475.9 838.1 475.6C838 475.4 838 475.3 837.8 475.5C837.4 475.7 837 476 836.6 476.3Z" fill="#070707"/>
<path d="M808.1 476.3C807.6 476.2 807.1 476.2 806.5 476.4C807.1 476.4 807.6 476.5 808.1 476.3Z" fill="#070707"/>
<path d="M811.1 476.5C810.6 476.3 810 476.3 809.5 476.4C810 476.5 810.5 476.5 811.1 476.5Z" fill="#070707"/>
<path d="M822.6 479.3C823.1 479.4 823.5 479.7 824 479.6C823.6 479.3 823.1 479.3 822.6 479.3Z" fill="#070707"/>
<path d="M818.3 477.9C818.6 478.2 818.9 478.4 819.3 478.4C819.4 478.4 819.5 478.4 819.5 478.3C819.5 478.2 819.5 478.2 819.4 478.1C819.1 478 818.7 477.9 818.3 477.9Z" fill="#070707"/>
<path d="M802.1 476.5C802.5 476.6 802.9 476.5 803.3 476.5C803.4 476.5 803.6 476.5 803.5 476.4C803.5 476.2 803.3 476.3 803.2 476.3C802.9 476.3 802.5 476.4 802.1 476.5Z" fill="#070707"/>
<path d="M797.2 477.4C797.7 477.3 798.2 477.2 798.7 476.9C798.2 476.8 797.7 477.1 797.2 477.3V477.4Z" fill="#070707"/>
<path d="M813.6 477.1C814 477.3 814.4 477.3 814.7 477.4C814.8 477.4 814.9 477.4 814.9 477.3C814.9 477.2 814.8 477.2 814.7 477.2C814.4 477 814 477 813.6 477.1Z" fill="#070707"/>
<path d="M815.8 477.5C816.3 477.6 816.7 477.8 817.2 477.7C816.8 477.5 816.3 477.5 815.8 477.5Z" fill="#070707"/>
<path d="M799.5 476.7C800 476.8 800.3 476.7 800.6 476.6C800.7 476.6 800.8 476.5 800.7 476.4C800.7 476.3 800.6 476.3 800.5 476.3C800.2 476.4 799.9 476.5 799.5 476.7Z" fill="#070707"/>
<path d="M829 479C828.6 479.1 828.2 479.1 827.9 479.4C828.3 479.4 828.7 479.3 829 479Z" fill="#070707"/>
<path d="M839.5 474.9C839.8 474.8 840.2 474.7 840.4 474.5C840.4 474.3 840.4 474.3 840.2 474.3C840 474.4 839.7 474.6 839.5 474.9C839.4 474.8 839.5 474.8 839.5 474.9Z" fill="#070707"/>
<path d="M830.8 478.5C830.7 478.5 830.6 478.6 830.5 478.6C830.3 478.7 830.2 478.8 830 478.9C830.4 478.9 830.6 478.8 830.8 478.5Z" fill="#070707"/>
<path d="M813.2 476.8C813 476.7 812.7 476.6 812.5 476.7C812.9 476.9 812.9 476.9 813.2 476.8Z" fill="#070707"/>
<path d="M797.2 477.4V477.3C796.9 477.2 796.7 477.4 796.5 477.6C796.8 477.6 797 477.6 797.2 477.4Z" fill="#96A1B1"/>
<path d="M835.6 454.9C835.5 455 835.6 455 835.7 455C835.7 455 835.7 455 835.6 454.9Z" fill="#FEFEFE"/>
<path d="M819.7 465.2C818.8 465 818 464.8 817.3 464.1C816.7 463.5 816.1 462.8 815.7 462C815.6 461.9 815.5 461.8 815.6 461.7C815.7 461.6 815.9 461.7 816 461.7C816.5 462 816.9 462.2 817.3 462.5C817.7 462.8 818.2 463 818.7 463.2C819.3 463.4 819.9 463.4 820.4 463C821.9 462 823.4 460.8 824.8 459.6C825.1 459.4 825.4 459.1 825.7 458.9C825.8 458.8 825.9 458.7 826.1 458.8C826.2 458.9 826.1 459 826 459.1C824.6 461 823.2 463 821.2 464.4C820.8 464.9 820.3 465.1 819.7 465.2Z" fill="#070707"/>
<path d="M560.4 501.4C540.5 499.2 532.2 501.4 519.8 501.4C507.4 501.4 498.2 505.3 513.8 507.5C529.4 509.7 557.2 509.2 562.8 507.5C568.4 505.8 560.4 501.4 560.4 501.4Z" fill="#E2B651"/>
<path d="M519.6 472.9C519.9 473.3 520.1 473 520.3 472.8C521.7 470.7 522.9 468.6 524.2 466.4C525 465 525.6 463.5 526 462C526.4 460.6 526.7 459.2 527 457.7C527.2 456.5 527.2 455.3 527.2 454.1C527.2 453.7 526.9 453.4 526.7 453.1C525.5 451.3 524.4 449.6 523.2 447.8C522.2 446.3 521.3 444.8 520.3 443.3C519.3 441.8 518.3 440.3 517.3 438.8C517.2 438.6 517.1 438.3 516.8 438.4C516.5 438.5 516.5 438.7 516.4 439V439.1C516.2 440.3 516 441.5 515.8 442.7C515.7 443.3 515.6 443.8 515.3 444.3C514.5 445.8 514 447.4 513.1 448.9C511.9 450.9 510.9 452.9 509.4 454.7C509.2 454.9 509.1 455.1 509 455.3C508.2 456.2 508.1 456.2 508.8 457.2C510.9 460.4 513.1 463.5 515.3 466.7C516.7 468.7 518 470.7 519.4 472.7C519.5 472.7 519.5 472.8 519.6 472.9Z" fill="#F5FAFF"/>
<path d="M496.8 438.3C497.7 437.1 498.4 435.8 499.1 434.5C499.8 433.2 500.5 431.8 501.2 430.5C501.5 430 501.7 429.5 501.9 428.9C502 428.7 502 428.5 502.1 428.4C502.6 426.1 503.7 423.9 504.1 421.5C504.2 420.8 504.3 420.1 504.3 419.4C504.3 419.1 504.2 418.8 504 418.4C501.3 414.2 498.5 410 495.8 405.8L495.7 405.7C495.6 405.5 495.4 405.2 495.1 405.3C494.8 405.4 494.8 405.7 494.8 405.9C494.3 408.4 493.5 410.8 492.4 413.1C491.9 414.3 491.5 415.6 490.7 416.7C489.4 418.6 488.3 420.6 486.8 422.4C486.7 422.5 486.7 422.5 486.6 422.6C485.9 423.3 485.9 423.3 486.4 424.2C487.1 425.4 487.9 426.5 488.7 427.6C489.5 428.7 490.3 429.9 491.1 431C492.7 433.3 494.2 435.7 495.8 438C495.9 438.1 496 438.2 496.1 438.4C496.3 438.7 496.6 438.6 496.8 438.3Z" fill="#F5FAFF"/>
<path d="M547.7 485.9C546.7 488.1 546.1 490.5 544.9 492.6C544.2 493.8 543.4 495.1 542.5 496.2C542 496.8 541.6 497.5 541.1 498.1C540.5 498.9 539.9 499.7 539.1 500.2C538.8 500.4 538.7 500.5 539 500.9C539.6 501.8 540.3 502.7 540.8 503.7C540.9 504 541.2 504.1 541.5 504.1C543.8 504.4 546.1 504.5 548.5 504.4C548.9 504.4 549.3 504.4 549.8 504.5C550.9 504.7 551.6 504.3 552.3 503.4C553.3 502.1 554.2 500.8 554.9 499.3C555.2 498.7 555.3 498.1 555.4 497.4C555.4 497.2 555.4 497.1 555.3 497C552.6 493.4 550.2 489.7 547.7 485.9C547.8 485.9 547.7 485.9 547.7 485.9Z" fill="#68E9D7"/>
<path d="M537.7 471.3C537.5 472.2 537.1 473.1 536.8 474C536.7 474.4 536.5 474.8 536.4 475.1C535.4 477.7 533.9 480.1 532.2 482.3C531.4 483.3 530.6 484.4 529.8 485.4C529.7 485.6 529.5 485.7 529.4 485.8C528.7 486.3 528.7 486.3 529.2 486.9C530.9 489.4 532.7 492 534.4 494.5C535.4 495.9 536.3 497.3 537.3 498.7C537.7 499.4 537.8 499.4 538.4 498.8C538.5 498.7 538.6 498.6 538.7 498.5C539.6 497.6 540.4 496.5 541.2 495.5C542.6 493.6 544 491.7 544.8 489.4C545.3 488.1 545.8 486.8 546.3 485.5C546.8 484.3 546.5 483.3 545.8 482.2C544 479.5 542.2 476.7 540.4 473.9C539.8 472.9 539.1 472 538.5 471C538.4 470.9 538.3 470.8 538.2 470.8C537.8 470.9 537.8 471.1 537.7 471.3Z" fill="#F5FAFF"/>
<path d="M474.2 404.4C474.8 403 475.5 401.7 476 400.3C476.3 399.5 476.6 398.6 476.8 397.8C477.8 394.1 478.6 390.3 478.7 386.3C478.7 384.3 478.8 382.3 478.5 380.3C478.4 379.7 478.2 379 477.9 378.5C477.1 377.1 477 375.6 477.3 374C477.5 373.3 477.4 373.1 476.7 372.7C475.3 371.8 473.7 371.5 472.2 370.9C470.1 370.1 468 370.1 465.9 370.5C463.4 370.9 461.4 372.1 459.4 374.1C459 374.4 458.7 374.9 458.4 375.5C458.2 375.9 457.9 376.4 457.7 377C457.3 377.9 457.4 378.7 457.8 379.5C458.6 381.2 459.2 382.9 460.2 384.4C460.3 384.5 460.4 384.7 460.5 384.8C462.2 387.7 463.9 390.6 465.8 393.4C467.3 395.6 468.7 397.7 470.2 399.9C471.2 401.5 472.3 403 473.3 404.6C473.5 404.8 473.6 405.1 473.9 405.1C474.1 405 474.1 404.6 474.2 404.4Z" fill="#F5FAFF"/>
<path d="M528.5 456.4C528.4 458.5 527.8 460.4 527.2 462.3C527.1 462.6 527 462.9 527 463.1C526.2 465.8 524.7 468.2 523.2 470.6C522.5 471.7 522 473 521 474C520.8 474.2 520.9 474.4 521 474.6C522.7 477.1 524.4 479.6 526.1 482.1C526.6 482.9 527.1 483.6 527.6 484.4C527.9 484.8 528.1 484.9 528.4 484.5C529 483.7 529.8 482.9 530.4 482C531.5 480.4 532.8 478.8 533.7 477.1C534.2 476.3 534.6 475.4 535 474.5C535.6 473 536.2 471.5 536.5 470C536.6 469.4 536.5 468.8 536.2 468.3C534 465 531.9 461.6 529.7 458.3C529.4 457.7 528.9 457.1 528.5 456.4Z" fill="#68E9D7"/>
<path d="M505.5 421.2C505.2 424.2 504 426.7 503.3 429.4C502.7 431.3 501.6 433 500.7 434.7C500.2 435.7 499.6 436.7 499 437.7C498.6 438.3 498.2 438.9 497.7 439.5C497.5 439.8 497.5 439.9 497.7 440.2C499.8 443.3 501.9 446.4 504 449.5C505.1 451.1 506.1 452.6 507.2 454.2C507.5 454.6 507.6 454.5 507.8 454.2C508.8 452.9 509.7 451.4 510.6 450C512.1 447.9 512.8 445.5 514 443.2C514.3 442.7 514.3 442.1 514.4 441.6C514.6 440.6 514.8 439.7 515 438.7C515.1 438.1 515.2 437.6 515.3 437C515.4 436.5 515.3 436.1 515 435.7C512.6 432 510.2 428.3 507.7 424.5C507.1 423.6 506.4 422.5 505.5 421.2Z" fill="#68E9D7"/>
<path d="M480.3 384.3C480.3 387.5 479.9 390.6 479.4 393.7C479 396.2 478.2 398.5 477.4 400.8C476.7 402.5 476 404.3 475.2 406C475 406.4 475 406.7 475.3 407.1C477.6 410.4 479.8 413.7 482 417C483 418.4 484 419.8 484.9 421.3C485.1 421.6 485.3 421.6 485.5 421.4C486.4 420.6 486.9 419.6 487.6 418.7C488.4 417.5 489.2 416.4 489.9 415.2C490.4 414.5 490.7 413.7 491 412.8C491.2 412.3 491.4 411.8 491.6 411.4C492.4 409.7 493 407.8 493.4 406C493.6 405.1 493.6 404.1 493.6 403.1C493.6 402.8 493.4 402.5 493.2 402.3C491 398.9 488.8 395.6 486.6 392.2C484.9 389.5 483.1 386.9 481.4 384.2C481.1 383.7 480.6 383.4 480.3 382.8C480.1 383.3 480.3 383.8 480.3 384.3Z" fill="#68E9D7"/>
<path d="M501 377.2C501.3 376.3 501.6 375.5 501.9 374.6C502.7 372.3 503.4 370.1 503.9 367.7C504 367.1 503.9 366.6 503.9 366C503.8 363.7 503.8 361.4 502.9 359.3C502.3 357.7 501.4 356.2 500.3 354.9C499.6 354.1 498.8 353.4 498.2 352.6C497.1 351.3 495.8 350.3 494.4 349.5C492.5 348.5 490.5 347.9 488.2 347.6C486.4 347.4 484.7 347.6 482.9 347.8C479.3 348.2 476.3 349.9 473.3 351.7C471.9 352.5 470.7 353.5 469.5 354.5C469.3 354.6 469.2 354.8 469.3 355C469.4 355.2 469.6 355.3 469.9 355.3C471.9 355.2 473.9 355 475.9 355.3C478.8 355.8 481.6 356.3 484.1 357.9C484.1 357.9 484.2 357.9 484.2 358C486.2 359.2 487.9 360.8 489.6 362.3C490.6 363.2 491.2 364.3 491.9 365.4C492.5 366.6 493 367.8 493.2 369.1C493.2 369.3 493.3 369.4 493.5 369.5C495.3 371 496.7 372.9 498.3 374.6C499 375.4 499.6 376.4 500.2 377.3C500.3 377.5 500.4 377.7 500.6 377.7C500.7 377.6 500.9 377.4 501 377.2Z" fill="#F5FAFF"/>
<path d="M491.5 367.9C491.2 366.8 490.6 365.8 490 364.9C488.9 363.1 487.2 361.8 485.5 360.4C484.8 359.8 484.1 359.3 483.4 358.8C482.7 358.3 481.9 357.9 481.1 357.7C478.8 356.9 476.4 356.3 473.9 356.2C472.5 356.2 471.2 356.1 469.8 356.3C467.7 356.6 465.9 357.4 464.4 359.1C463 360.8 461.6 362.4 460.4 364.3C458.8 366.9 457.7 369.7 457.3 372.8C457.2 373.4 457.2 374.1 457.1 374.7C457.1 374.7 457.2 374.7 457.3 374.8C457.8 373.7 458.6 372.9 459.5 372.1C461.5 370.5 463.7 369.3 466.3 369.1C466.9 369.1 467.5 369 468.1 368.9C469.8 368.7 471.4 369.3 472.9 369.7C474.6 370.2 476.4 370.6 477.8 371.8C478 372 478 371.8 478.2 371.7C478.4 371.6 478.5 371.4 478.6 371.2C479.3 370.5 479.9 369.6 480.7 369.1C484 367 487.4 366.2 491.1 367.8C491.3 368 491.4 368 491.5 367.9Z" fill="#68E9D7"/>
<path d="M538.4 503.5C538.2 503 537.9 502.5 537.6 502.1C537 501.3 536.5 500.4 535.9 499.6C528.7 488.9 521.4 478.3 514.2 467.6C510.5 462.2 506.9 456.8 503.2 451.3C500.8 447.8 498.5 444.3 496 440.8C494.8 439.2 493.7 437.5 492.6 435.8C492 434.9 491.3 434.1 490.8 433.2C489.7 431.4 488.6 429.7 487.5 428C481.1 418.6 474.8 409.1 468.2 399.8C467.3 398.6 466.7 397.2 465.8 395.9C463.9 393.2 462.1 390.4 460.5 387.6C460 386.8 459.6 385.9 459.1 385.1C457.7 382.8 456.4 380.5 455.8 377.9C455.1 375 455.6 372.1 456.4 369.3C457.4 365.6 459.3 362.4 461.7 359.5C462.6 358.4 463.4 357.3 464.5 356.4C465.6 355.5 466.7 354.6 467.7 353.6C470.3 351.2 473.3 349.3 476.5 347.8C478.1 347 479.8 346.4 481.6 346.1C484.3 345.7 487 345.6 489.7 346.1C491.7 346.4 493.4 347.1 495.1 348C496.4 348.7 497.6 349.6 498.8 350.6C500.3 351.9 501.7 353.4 503 354.9C504.6 356.7 506.1 358.4 507.7 360.2C509.1 361.8 510.3 363.5 511.6 365.3C513 367.2 514.4 369.1 515.8 371.1C516.3 371.8 516.5 372.7 517 373.4C519.1 376.3 518.8 380.3 516.3 382.8C514.6 384.6 512.4 385.6 510.1 386.3C507.3 387.2 504 385.6 502.7 383.8C501.9 382.8 501.4 381.6 500.6 380.5C499.9 379.6 499.5 378.6 498.8 377.7C497.4 375.5 495.7 373.6 494.2 372C492.9 370.4 491.6 369.7 490.1 369.1C488.4 368.4 486.7 368.3 485 368.8C483.3 369.4 481.7 370.2 480.3 371.4C480.1 371.6 479.9 371.8 479.7 371.9C479.2 372.4 478.8 373 478.7 373.7C478.3 375.3 478.8 376.7 479.6 377.9C480.8 379.8 482.1 381.7 483.4 383.7C487.9 390.7 492.5 397.6 497 404.6C504.8 416.6 512.6 428.5 520.4 440.5C520.8 441.1 521.1 441.6 521.5 442.2C526.2 449.5 531 456.7 535.7 464C536.8 465.8 538.1 467.6 539.3 469.3C541.9 473.2 544.4 477.2 547 481.1C551.9 488.6 556.7 496 561.6 503.5C562.1 504.3 561.9 504.7 561 504.8C558.8 505.1 556.6 505.5 554.4 505.4C552.7 505.3 551.1 505.5 549.4 505.3C548.2 505.2 547 505.3 545.9 505.2C543.9 505.1 541.9 505.1 540.1 504.3C539.3 504.4 538.7 504.1 538.4 503.5ZM498.2 352.5C497.1 351.2 495.8 350.2 494.4 349.4C492.5 348.4 490.5 347.8 488.2 347.5C486.4 347.3 484.7 347.5 482.9 347.7C479.3 348.1 476.3 349.8 473.3 351.6C471.9 352.4 470.7 353.4 469.5 354.4C469.3 354.5 469.2 354.7 469.3 354.9C469.4 355.1 469.6 355.2 469.9 355.2C471.9 355.1 473.9 354.9 475.9 355.2C478.8 355.7 481.6 356.2 484.1 357.8C484.1 357.8 484.2 357.8 484.2 357.9C486.2 359.1 487.9 360.7 489.6 362.2C490.6 363.1 491.2 364.2 491.9 365.3C492.5 366.5 493 367.7 493.2 369C493.2 369.2 493.3 369.3 493.5 369.4C495.3 370.9 496.7 372.8 498.3 374.5C499 375.3 499.6 376.3 500.2 377.2C500.3 377.4 500.4 377.6 500.6 377.6C500.9 377.6 501 377.4 501.1 377.1C501.4 376.2 501.7 375.4 502 374.5C502.8 372.2 503.5 370 504 367.6C504.1 367 504 366.5 504 365.9C503.9 363.6 503.9 361.3 503 359.2C502.4 357.6 501.5 356.1 500.4 354.8C499.6 354 498.9 353.3 498.2 352.5ZM504.2 383.1C504.9 384.1 506.1 384.5 507.2 384.9C508.4 385.3 509.5 384.9 510.6 384.5C512.4 383.8 513.9 382.9 515.3 381.5C516.9 379.9 516.9 377.6 516.3 376C516.1 375.6 515.6 375.3 515.5 374.8C515.1 372.7 513.6 371.2 512.4 369.5C511.8 368.7 511.2 367.8 510.6 367C509.1 364.9 507.5 362.8 505.9 360.8C505.6 360.4 505.2 360.2 504.8 359.8C504.7 360.1 504.8 360.3 504.9 360.5C505.3 361.9 505.3 363.4 505.4 364.9C505.4 365.9 505.6 366.9 505.4 367.9C504.9 370.3 504.1 372.7 503.3 375.1C503 376.1 502.7 377.1 502.2 378C502.1 378.2 502.1 378.4 501.9 378.5C501.2 379.1 501.5 379.6 501.9 380.1C502.8 381.1 503.5 382.1 504.2 383.1ZM477.9 372C478.1 372.2 478.1 372 478.3 371.9C478.5 371.8 478.6 371.6 478.7 371.4C479.4 370.7 480 369.8 480.8 369.3C484.1 367.2 487.5 366.4 491.2 368C491.3 368 491.4 368.1 491.5 368C491.2 366.9 490.6 365.9 490 365C488.9 363.2 487.2 361.9 485.5 360.5C484.8 359.9 484.1 359.4 483.4 358.9C482.7 358.4 481.9 358 481.1 357.8C478.8 357 476.4 356.4 473.9 356.3C472.5 356.3 471.2 356.2 469.8 356.4C467.7 356.7 465.9 357.5 464.4 359.2C463 360.9 461.6 362.5 460.4 364.4C458.8 367 457.7 369.8 457.3 372.9C457.2 373.5 457.2 374.2 457.1 374.8C457.1 374.8 457.2 374.8 457.3 374.9C457.8 373.8 458.6 373 459.5 372.2C461.5 370.6 463.7 369.4 466.3 369.2C466.9 369.2 467.5 369.1 468.1 369C469.8 368.8 471.4 369.4 472.9 369.8C474.7 370.4 476.4 370.8 477.9 372ZM477.9 378.4C477.1 377 477 375.5 477.3 373.9C477.5 373.2 477.4 373 476.7 372.6C475.3 371.7 473.7 371.4 472.2 370.8C470.1 370 468 370 465.9 370.4C463.4 370.8 461.4 372 459.4 374C459 374.3 458.7 374.8 458.4 375.4C458.2 375.8 457.9 376.3 457.7 376.9C457.3 377.8 457.4 378.6 457.8 379.4C458.6 381.1 459.2 382.8 460.2 384.3C460.3 384.4 460.4 384.6 460.5 384.7C462.2 387.6 463.9 390.5 465.8 393.3C467.3 395.5 468.7 397.6 470.2 399.8C471.2 401.4 472.3 402.9 473.3 404.5C473.5 404.7 473.6 405 473.9 405C474.3 405 474.2 404.6 474.4 404.4C475 403 475.7 401.7 476.2 400.3C476.5 399.5 476.8 398.6 477 397.8C478 394.1 478.8 390.3 478.9 386.3C478.9 384.3 479 382.3 478.7 380.3C478.4 379.7 478.2 379 477.9 378.4ZM486.6 392.1C484.9 389.4 483.1 386.8 481.4 384.1C481.1 383.6 480.6 383.3 480.3 382.7C480.1 383.3 480.3 383.8 480.3 384.3C480.3 387.5 479.9 390.6 479.4 393.7C479 396.2 478.2 398.5 477.4 400.8C476.7 402.5 476 404.3 475.2 406C475 406.4 475 406.7 475.3 407.1C477.6 410.4 479.8 413.7 482 417C483 418.4 484 419.8 484.9 421.3C485.1 421.6 485.3 421.6 485.5 421.4C486.4 420.6 486.9 419.6 487.6 418.7C488.4 417.5 489.2 416.4 489.9 415.2C490.4 414.5 490.7 413.7 491 412.8C491.2 412.3 491.4 411.8 491.6 411.4C492.4 409.7 493 407.8 493.4 406C493.6 405.1 493.6 404.1 493.6 403.1C493.6 402.8 493.4 402.5 493.2 402.3C491 398.8 488.8 395.5 486.6 392.1ZM504 418.4C501.3 414.2 498.5 410 495.8 405.8L495.7 405.7C495.6 405.5 495.4 405.2 495.1 405.3C494.8 405.4 494.8 405.7 494.8 405.9C494.3 408.4 493.5 410.8 492.4 413.1C491.9 414.3 491.5 415.6 490.7 416.7C489.4 418.6 488.3 420.6 486.8 422.4C486.7 422.5 486.7 422.5 486.6 422.6C485.9 423.3 485.9 423.3 486.4 424.2C487.1 425.4 487.9 426.5 488.7 427.6C489.5 428.7 490.3 429.9 491.1 431C492.7 433.3 494.2 435.7 495.8 438C495.9 438.1 496 438.2 496.1 438.4C496.3 438.9 496.6 438.8 496.9 438.4C497.8 437.2 498.5 435.9 499.2 434.6C499.9 433.3 500.6 431.9 501.3 430.6C501.6 430.1 501.8 429.6 502 429C502.1 428.8 502.1 428.6 502.2 428.5C502.7 426.2 503.8 424 504.2 421.6C504.3 420.9 504.4 420.2 504.4 419.5C504.3 419 504.2 418.7 504 418.4ZM515.1 435.9C512.7 432.2 510.3 428.5 507.8 424.7C507.1 423.6 506.3 422.5 505.5 421.2C505.2 424.2 504 426.7 503.3 429.4C502.7 431.3 501.6 433 500.7 434.7C500.2 435.7 499.6 436.7 499 437.7C498.6 438.3 498.2 438.9 497.7 439.5C497.5 439.8 497.5 439.9 497.7 440.2C499.8 443.3 501.9 446.4 504 449.5C505.1 451.1 506.1 452.6 507.2 454.2C507.5 454.6 507.6 454.5 507.8 454.2C508.8 452.9 509.7 451.4 510.6 450C512.1 447.9 512.8 445.5 514 443.2C514.3 442.7 514.3 442.1 514.4 441.6C514.6 440.6 514.8 439.7 515 438.7C515.1 438.1 515.2 437.6 515.3 437C515.5 436.7 515.4 436.2 515.1 435.9ZM526.7 453.1C525.5 451.3 524.4 449.6 523.2 447.8C522.2 446.3 521.3 444.8 520.3 443.3C519.3 441.8 518.3 440.3 517.3 438.8C517.2 438.6 517.1 438.3 516.8 438.4C516.5 438.5 516.5 438.7 516.4 439V439.1C516.2 440.3 516 441.5 515.8 442.7C515.7 443.3 515.6 443.8 515.3 444.3C514.5 445.8 514 447.4 513.1 448.9C511.9 450.9 510.9 452.9 509.4 454.7C509.2 454.9 509.1 455.1 509 455.3C508.2 456.2 508.1 456.2 508.8 457.2C510.9 460.4 513.1 463.5 515.3 466.7C516.7 468.7 518 470.7 519.4 472.7C519.5 472.8 519.5 472.9 519.6 473C519.9 473.4 520.1 473.1 520.3 472.9C521.7 470.8 522.9 468.7 524.2 466.5C525 465.1 525.6 463.6 526 462.1C526.4 460.7 526.7 459.3 527 457.8C527.2 456.6 527.2 455.4 527.2 454.2C527.2 453.7 526.9 453.4 526.7 453.1ZM529.8 458.3C529.4 457.7 529 457.1 528.5 456.4C528.4 458.5 527.8 460.4 527.2 462.3C527.1 462.6 527 462.9 527 463.1C526.2 465.8 524.7 468.2 523.2 470.6C522.5 471.7 522 473 521 474C520.8 474.2 520.9 474.4 521 474.6C522.7 477.1 524.4 479.6 526.1 482.1C526.6 482.9 527.1 483.6 527.6 484.4C527.9 484.8 528.1 484.9 528.4 484.5C529 483.7 529.8 482.9 530.4 482C531.5 480.4 532.8 478.8 533.7 477.1C534.2 476.3 534.6 475.4 535 474.5C535.6 473 536.2 471.5 536.5 470C536.6 469.4 536.5 468.8 536.2 468.3C534.1 465 531.9 461.7 529.8 458.3ZM545.7 482.2C543.9 479.5 542.1 476.7 540.3 473.9C539.7 472.9 539 472 538.4 471C538.3 470.9 538.2 470.8 538.1 470.8C537.9 470.8 537.8 471 537.7 471.2C537.5 472.1 537.1 473 536.8 473.9C536.7 474.3 536.5 474.7 536.4 475C535.4 477.6 533.9 480 532.2 482.2C531.4 483.2 530.6 484.3 529.8 485.3C529.7 485.5 529.5 485.6 529.4 485.7C528.7 486.2 528.7 486.2 529.2 486.8C530.9 489.3 532.7 491.9 534.4 494.4C535.4 495.8 536.3 497.2 537.3 498.6C537.7 499.3 537.8 499.3 538.4 498.7C538.5 498.6 538.6 498.5 538.7 498.4C539.6 497.5 540.4 496.4 541.2 495.4C542.6 493.5 544 491.6 544.8 489.3C545.3 488 545.8 486.7 546.3 485.4C546.7 484.3 546.4 483.3 545.7 482.2ZM559.6 504.3C559.9 504.3 559.9 504.2 559.8 503.9C558.9 502.5 558 501.1 557 499.7C556.9 499.5 556.7 499.2 556.4 499.2C556.1 499.2 556.1 499.6 556 499.8C555.4 501.4 554.5 502.7 553.6 504.1C553.5 504.2 553.4 504.4 553.4 504.5C555.5 504.8 557.5 504.5 559.6 504.3ZM541.5 504.2C543.8 504.5 546.1 504.6 548.5 504.5C548.9 504.5 549.3 504.5 549.8 504.6C550.9 504.8 551.6 504.4 552.3 503.5C553.3 502.2 554.2 500.9 554.9 499.4C555.2 498.8 555.3 498.2 555.4 497.5C555.4 497.3 555.4 497.2 555.3 497.1C552.9 493.4 550.4 489.6 548 485.9C548 485.9 548 485.9 547.9 485.9C546.9 488.1 546.3 490.5 545.1 492.6C544.4 493.8 543.6 495.1 542.7 496.2C542.2 496.8 541.8 497.5 541.3 498.1C540.7 498.9 540.1 499.7 539.3 500.2C539 500.4 538.9 500.5 539.2 500.9C539.8 501.8 540.5 502.7 541 503.7C540.9 504 541.1 504.1 541.5 504.2Z" fill="#42210B"/>
<path d="M504.9 360.5C505.3 361.9 505.3 363.4 505.4 364.9C505.4 365.9 505.6 366.9 505.4 367.9C504.9 370.3 504.1 372.7 503.3 375.1C503 376.1 502.7 377.1 502.2 378C502.1 378.2 502.1 378.4 501.9 378.5C501.2 379.1 501.5 379.6 501.9 380.1C502.7 381.1 503.3 382.1 504 383.1C504.7 384.1 505.9 384.5 507 384.9C508.2 385.3 509.3 384.9 510.4 384.5C512.2 383.8 513.7 382.9 515.1 381.5C516.7 379.9 516.7 377.6 516.1 376C515.9 375.6 515.4 375.3 515.3 374.8C514.9 372.7 513.4 371.2 512.2 369.5C511.6 368.7 511 367.8 510.4 367C508.9 364.9 507.3 362.8 505.7 360.8C505.4 360.4 505 360.2 504.6 359.8C504.7 360.1 504.8 360.3 504.9 360.5Z" fill="#68E9D7"/>
<path d="M559.6 504.3C559.9 504.3 559.9 504.2 559.8 503.9C558.9 502.5 558 501.1 557 499.7C556.9 499.5 556.7 499.2 556.4 499.2C556.1 499.2 556.1 499.6 556 499.8C555.4 501.4 554.5 502.7 553.6 504.1C553.5 504.2 553.4 504.4 553.4 504.5C555.5 504.8 557.5 504.5 559.6 504.3Z" fill="#F5FAFF"/>
<path d="M1014.5 518.5C1022.2 517.4 1025.3 518.5 1030.1 518.5C1034.9 518.5 1038.4 520.4 1032.4 521.5C1026.4 522.6 1015.7 522.3 1013.5 521.5C1011.4 520.6 1014.5 518.5 1014.5 518.5Z" fill="#E2B651"/>
<path d="M1032.4 520.1C1033.5 520.1 1034.5 519.2 1034.5 518C1034.6 516.8 1034.2 515.8 1033.8 515.1C1033.3 514.3 1032.5 513.9 1031.6 514C1031.6 514 1020.2 515.7 1019.6 515.7C1018 515.9 1017.1 519.1 1019.9 520.1H1032.4Z" fill="#68E9D7" stroke="#42210B" stroke-width="1.0919" stroke-miterlimit="10" stroke-linecap="round" stroke-linejoin="round"/>
<path d="M1020.6 517.1L1029.8 515.9" stroke="#F5FAFF" stroke-width="0.7279" stroke-miterlimit="10"/>
<path d="M1032.1 515.1C1032 515.9 1031.8 516.5 1031.9 517.1C1031.9 517.7 1032.3 518.2 1032.7 518.9C1032.3 518.8 1032 518.6 1031.7 518.3C1031.4 518 1031.2 517.6 1031.2 517.2C1031.1 516.3 1031.5 515.6 1032.1 515.1Z" fill="#42210B"/>
<path d="M692 496.8C684.3 495.7 681.2 496.8 676.4 496.8C671.6 496.8 668.1 498.7 674.1 499.8C680.1 500.9 690.8 500.6 693 499.8C695.1 499 692 496.8 692 496.8Z" fill="#E2B651"/>
<path d="M678.4 498.5C677.3 498.5 676.3 497.6 676.3 496.4C676.2 495.2 676.6 494.2 677 493.5C677.5 492.7 678.3 492.3 679.2 492.4C679.2 492.4 690.6 494.1 691.2 494.1C692.8 494.3 693.7 497.5 690.9 498.5H678.4Z" fill="#FF65D1" stroke="#42210B" stroke-width="1.0919" stroke-miterlimit="10" stroke-linecap="round" stroke-linejoin="round"/>
<path d="M690.3 495.4L681 494.3" stroke="#F5FAFF" stroke-width="0.7279" stroke-miterlimit="10"/>
<path d="M678.8 493.5C679.4 494 679.8 494.7 679.7 495.6C679.7 496 679.5 496.4 679.2 496.7C678.9 497 678.6 497.2 678.2 497.3C678.5 496.6 678.9 496.1 679 495.5C679 494.9 678.8 494.2 678.8 493.5Z" fill="#42210B"/>
</svg>
