<?xml version="1.0" encoding="utf-8"?>
<!-- Generator: Adobe Illustrator 25.0.1, SVG Export Plug-In . SVG Version: 6.00 Build 0)  -->
<svg version="1.1" id="Layer_1" xmlns="http://www.w3.org/2000/svg" xmlns:xlink="http://www.w3.org/1999/xlink" x="0px" y="0px"
	 viewBox="0 0 25 30" style="enable-background:new 0 0 25 30;" xml:space="preserve">
<style type="text/css">
	.st0{fill:#B07D60;}
	.st1{fill:#FFFFFF;}
</style>
<g>
	<path class="st0" d="M18,17.2l3.2,6c0.1,0.2,0.2,0.4,0.2,0.6c0.1,0.2,0.1,0.3,0.1,0.5c0,0.1,0,0.3,0,0.4c0,1.1-0.6,2.3-1.7,2.8
		c-1.4,0.7-3,0.3-3.9-0.8c-0.1-0.1-0.1-0.1-0.1-0.2c-0.1-0.1-0.1-0.2-0.2-0.3c0,0,0-0.1,0-0.1L13.3,22c-0.4-0.7-1.4-0.7-1.8,0
		l-2,3.8l-0.2,0.3c0,0.1-0.1,0.1-0.1,0.2c-0.6,1-1.6,1.5-2.7,1.5c-0.5,0-1-0.1-1.5-0.4c-1.5-0.8-2.1-2.5-1.5-4
		c0-0.1,0.1-0.2,0.1-0.3L3.9,23l3.1-5.8c0.2-0.3-0.1-0.7-0.4-0.7H4.2c-0.2,0-0.3,0-0.5-0.1C2.1,16.2,1,14.8,1,13.2
		c0-1.5,1.2-2.8,2.7-3.1c0.2,0,0.3-0.1,0.5-0.1c0,0,0.1,0,0.1,0h4.3c0.4,0,0.6-0.5,0.3-0.8c-1.1-1-1.8-2.4-1.8-4
		c0-3,2.6-5.5,5.6-5.3c2.8,0.2,5,2.5,5,5.3c0,1.6-0.7,3-1.8,3.9c-0.3,0.3-0.1,0.8,0.3,0.8h4.5c0.1,0,0.2,0,0.4,0
		c1.6,0.2,2.9,1.5,2.9,3.1c0,1.7-1.3,3.1-2.9,3.2c-0.1,0-0.2,0-0.3,0h-2.6C18,16.5,17.8,16.9,18,17.2z"/>
	<path class="st1" d="M11,5.1c0.4,0,0.7-0.3,0.7-0.7c0-0.4-0.3-0.7-0.7-0.7S10.3,4,10.3,4.4C10.3,4.8,10.6,5.1,11,5.1z"/>
	<path class="st1" d="M12.6,13.8c0.4,0,0.7-0.3,0.7-0.7s-0.3-0.7-0.7-0.7c-0.4,0-0.7,0.3-0.7,0.7S12.2,13.8,12.6,13.8z"/>
	<path class="st1" d="M12.6,16.8c0.4,0,0.7-0.3,0.7-0.7c0-0.4-0.3-0.7-0.7-0.7c-0.4,0-0.7,0.3-0.7,0.7
		C11.9,16.5,12.2,16.8,12.6,16.8z"/>
	<path class="st1" d="M12.6,19.4c0.4,0,0.7-0.3,0.7-0.7c0-0.4-0.3-0.7-0.7-0.7c-0.4,0-0.7,0.3-0.7,0.7
		C11.9,19.1,12.2,19.4,12.6,19.4z"/>
	<path class="st1" d="M13.9,5.1c0.4,0,0.7-0.3,0.7-0.7c0-0.4-0.3-0.7-0.7-0.7c-0.4,0-0.7,0.3-0.7,0.7C13.2,4.8,13.5,5.1,13.9,5.1z"
		/>
	<path d="M12.4,7.7c-0.7,0-1.5-0.3-2.1-0.9c-0.1-0.1-0.1-0.3,0-0.4c0.1-0.1,0.3-0.1,0.4,0c0.9,0.9,2.4,0.9,3.4,0
		c0.1-0.1,0.3-0.1,0.4,0c0.1,0.1,0.1,0.3,0,0.4C13.9,7.4,13.2,7.7,12.4,7.7z"/>
	<path class="st1" d="M21.2,16.5h-0.5c0-0.2-0.1-0.2-0.2-0.3c-0.1-0.1-0.3-0.3-0.3-0.7c0-0.4,0.2-0.6,0.3-0.7
		c0.1-0.1,0.2-0.2,0.2-0.3c0-0.2-0.1-0.2-0.2-0.3c-0.2-0.2-0.3-0.3-0.3-0.7c0-0.4,0.2-0.6,0.3-0.7c0.1-0.1,0.2-0.2,0.2-0.3
		c0-0.2-0.1-0.2-0.2-0.3c-0.2-0.1-0.3-0.3-0.3-0.7c0-0.4,0.2-0.6,0.3-0.7c0.1-0.1,0.2-0.2,0.2-0.3h0.5c0,0.4-0.2,0.6-0.3,0.7
		c-0.1,0.1-0.2,0.2-0.2,0.3c0,0.2,0.1,0.2,0.2,0.3s0.3,0.3,0.3,0.7c0,0.4-0.2,0.6-0.3,0.7c-0.1,0.1-0.2,0.2-0.2,0.3
		c0,0.2,0.1,0.2,0.2,0.3c0.1,0.1,0.3,0.3,0.3,0.7c0,0.4-0.2,0.6-0.3,0.7c-0.1,0.1-0.2,0.2-0.2,0.3c0,0.2,0.1,0.2,0.2,0.3
		C21,15.9,21.2,16.1,21.2,16.5z"/>
	<path class="st1" d="M4.4,14c-0.1,0.1-0.2,0.2-0.2,0.3c0,0.2,0.1,0.2,0.2,0.3c0.1,0.1,0.3,0.3,0.3,0.7c0,0.4-0.2,0.6-0.3,0.7
		c-0.1,0.1-0.2,0.2-0.2,0.3c-0.2,0-0.3,0-0.5-0.1c0-0.3,0.2-0.5,0.3-0.6c0.1-0.1,0.2-0.2,0.2-0.3c0-0.2-0.1-0.2-0.2-0.3
		c-0.1-0.1-0.3-0.3-0.3-0.7c0-0.4,0.2-0.6,0.3-0.7c0.1-0.1,0.2-0.2,0.2-0.3c0-0.2-0.1-0.2-0.2-0.3c-0.1-0.2-0.3-0.3-0.3-0.7
		c0-0.4,0.2-0.6,0.3-0.7c0.1-0.1,0.2-0.2,0.2-0.3C4.2,11,4.1,11,4,10.8c-0.1-0.1-0.3-0.3-0.3-0.7c0.2,0,0.3-0.1,0.5-0.1
		c0,0.2,0.1,0.2,0.2,0.3c0.1,0.1,0.3,0.3,0.3,0.7c0,0.4-0.2,0.6-0.3,0.7c-0.1,0.1-0.2,0.2-0.2,0.3c0,0.2,0.1,0.2,0.2,0.3
		c0.1,0.1,0.3,0.3,0.3,0.7C4.7,13.7,4.5,13.9,4.4,14z"/>
	<path class="st1" d="M9.5,25.9l-0.2,0.3c0,0.1-0.1,0.1-0.1,0.2c-0.3-0.1-0.5-0.4-0.6-0.6c-0.1-0.2-0.1-0.3-0.2-0.3
		c-0.1-0.1-0.2-0.1-0.4,0c-0.2,0.1-0.5,0.1-0.8,0C7,25.3,6.9,25,6.8,24.8c-0.1-0.2-0.1-0.3-0.2-0.3c-0.1-0.1-0.2-0.1-0.4,0
		c-0.2,0.1-0.5,0.1-0.8,0C5.1,24.3,5,24,4.9,23.8c-0.1-0.2-0.1-0.3-0.2-0.3c-0.1-0.1-0.2-0.1-0.4,0c-0.2,0.1-0.4,0.1-0.7,0
		c0-0.1,0.1-0.2,0.1-0.3L3.8,23c0.1,0,0.2,0,0.3,0c0.2-0.1,0.5-0.1,0.8,0c0.3,0.2,0.4,0.5,0.5,0.6c0.1,0.2,0.1,0.3,0.2,0.3
		C5.8,24.1,5.9,24,6,24c0.2-0.1,0.5-0.1,0.8,0c0.3,0.2,0.4,0.5,0.5,0.6c0.1,0.2,0.1,0.3,0.2,0.3C7.7,25,7.8,25,7.9,25
		c0.2-0.1,0.5-0.1,0.8,0c0.3,0.2,0.4,0.5,0.5,0.6C9.2,25.8,9.4,25.8,9.5,25.9z"/>
	<path class="st1" d="M21.5,24.3c-0.2,0.1-0.4,0-0.6-0.1c-0.2-0.1-0.3-0.1-0.4,0c-0.1,0.1-0.2,0.1-0.2,0.3c-0.1,0.2-0.2,0.5-0.5,0.6
		c-0.3,0.1-0.6,0.1-0.8,0c-0.2-0.1-0.2-0.1-0.4,0c-0.1,0.1-0.2,0.1-0.2,0.3c-0.1,0.2-0.2,0.5-0.5,0.6c-0.3,0.2-0.6,0.1-0.8,0
		c-0.2-0.1-0.3-0.1-0.4,0c-0.1,0.1-0.2,0.1-0.2,0.3c-0.1,0.2-0.2,0.4-0.5,0.6c-0.1-0.1-0.1-0.1-0.1-0.2c-0.1-0.1-0.1-0.2-0.2-0.3
		c0.1-0.1,0.3-0.2,0.3-0.3c0.1-0.2,0.2-0.5,0.5-0.6c0.3-0.2,0.6-0.1,0.8,0c0.2,0.1,0.3,0.1,0.4,0c0.1-0.1,0.2-0.1,0.2-0.3
		c0.1-0.2,0.2-0.5,0.5-0.6c0.3-0.1,0.6-0.1,0.8,0c0.2,0.1,0.3,0.1,0.4,0.1c0.1-0.1,0.2-0.1,0.2-0.3c0.1-0.2,0.2-0.5,0.5-0.6
		c0.3-0.1,0.6-0.1,0.8,0c0.1,0.1,0.2,0.1,0.3,0.1C21.4,24,21.5,24.1,21.5,24.3z"/>
</g>
</svg>
